
<svg xmlns="http://www.w3.org/2000/svg" version="1.1" xmlns:xlink="http://www.w3.org/1999/xlink" preserveAspectRatio="none" x="0px" y="0px" width="550px" height="400px" viewBox="0 0 550 400">
<defs>
<g id="grid_0_Layer1_0_FILL">
<path fill="#0033FF" fill-opacity="0.5176470588235295" stroke="none" d="
M 558 31
L 558 0 527 0 496 0 465 0 434 0 403 0 372 0 341 0 310 0 279 0 248 0 217 0 186 0 155 0 124 0 93 0 62 0 31 0 0 0 0 31 0 62 0 93 0 99.25 0 119.3 0 124 0 155 0 186 0 217 0 248 0 279 0 310 0 341 0 372 0 403 31 403 62 403 93 403 124 403 155 403 186 403 217 403 248 403 279 403 310 403 341 403 372 403 403 403 434 403 465 403 496 403 527 403 558 403 558 372 558 341 558 310 558 279 558 248 558 217 558 186 558 155 558 124 558 119.3 558 99.25 558 93 558 62 558 31 Z"/>
</g>

<g id="Duplicate_Items_Folder_poof_4_Layer0_0_FILL">
<path fill="#999999" stroke="none" d="
M 740.95 623.35
Q 742.4 622.35 743.75 621.1 745.4 619.45 746.6 616.8 743.2 620.4 739.6 624.05 740.3 623.7 740.95 623.35
M 665 716.05
Q 665.2 715.55 665.5 715 666.05 713.75 667.85 710.1 667.1 710.65 664.35 714 663.6 714.9 662.9 715.7 663.2 715.75 663.5 715.8 663.25 716.35 662.95 716.9 656.85 726.6 670 730.1 672.5 730.45 675.15 730.55 675.5 730.55 675.9 730.55 676.65 730.55 677.45 730.55 674.4 728.85 672.4 727.55 670.45 726.15 669.4 725.15 664.4 720.7 664.35 718.35 664.45 717.4 665 716.05
M 704.65 711.45
Q 703.5 712.75 701.85 714.9 701.7 716.5 701.1 718.05 700.05 721 697.85 723.2 697.5 723.9 697.25 724.6 692.8 737.4 710.9 742.2 714.95 742.8 719.15 742.85 719.7 742.95 720.3 742.85 721.6 742.85 722.75 742.9 723 742.2 716.55 741.75 709.95 741.25 704.85 736.05 699.85 730.9 700.75 725.95 701.75 721.05 702.65 718.7 702.95 717.9 703.3 717.05 704.05 715.3 706.05 711.1 705.45 711.3 705 711.4 704.9 711.4 704.65 711.45
M 755.5 672.1
Q 755.25 670.75 754.9 669.55 754.65 670.6 754.9 671.15 755.2 671.6 755.3 672 755.3 672.1 755.35 672.1 755.5 672.4 755.55 672.65 755.55 672.4 755.5 672.1
M 768.7 680.15
Q 767.05 678.45 764.3 676.5 761.5 674.55 755.75 675.3 756.1 681.85 753.4 684.2
L 753.4 685
Q 756.15 683.35 762.75 682.9 769.3 682.55 771.7 687.35 773.6 690.95 773.9 692.5 773.35 684.85 768.7 680.15
M 735.75 657.9
Q 736.9 657.3 739.7 656 739.1 655.9 738.6 655.85 731.8 655.3 726.6 658.95 721.25 662.7 719.95 665.05 718.7 667.4 718.5 667.8 714.95 668.2 710.2 670.7 702 674.95 696.85 681.2 696.65 681.4 696.45 681.6 696.35 681.45 696.25 681.35 692.6 677.9 688.3 677.6 683.9 677.35 680.5 679.75 677.2 682.1 676.3 683.55 675.45 685.05 675.3 685.2 673 685.55 670.05 687.05 664.85 689.75 661.7 693.6 657.2 697.7 655.7 703.05 654.7 706.85 655.6 709.8 655.95 707.95 656.95 705.95 657.4 704.7 658.15 703.6 661.25 698.25 667.45 693.65 672.1 690.25 675.5 689.15 677.95 688.35 681.8 688.25
L 680.95 687.5
Q 680.7 687.5 679.55 686.7 679.95 686.25 680.5 685.7 681.15 684.95 681.55 684.6 681.6 684.55 683.2 683.7 685.05 682.7 687.05 682.25 691.5 681.25 695 683.15 696.45 683.9 697.75 685.15 698.1 685.45 698.8 686.9 699 687.3 699.15 687.7
L 699.15 687.65
Q 701.15 678.95 706.85 675.75 712.5 672.6 716.65 670.8 720.65 668.9 724.05 670.2 724.3 668.9 724.85 667.75 728.35 658.4 735.75 657.9
M 741.05 652.7
Q 740.35 653.65 739.7 654.45 740 654.55 740.35 654.6 740.05 655.1 739.9 655.65 739.8 655.85 739.7 656 740.7 655.55 741.85 655 742 654.5 742.25 653.95 742.7 652.6 744.35 648.8 743.6 649.3 741.05 652.7
M 773.3 635.45
L 773.4 636
Q 775.2 635.7 778.95 637 783.5 638.45 786.1 641.2 786.8 641.85 787.2 642.9 786.75 637.25 783.35 633.65 782.15 632.4 780.3 631 778.4 629.5 774.6 629.65 775 634 773.3 635.45
M 745.6 711.4
Q 746.15 712.1 746.45 712.7 747.7 714.95 747.95 717.7 748.2 720.2 746.75 721.3 745.1 722.45 744.25 722.7 744.2 722.5 744.15 722.35 743.75 720.9 743.1 719.95 742.45 719.1 741.3 718.4 740.5 718 739.85 717.8 739.95 717.9 740.05 718.05 744.1 724.25 740.95 726.15 738.15 727.75 736.25 727.55 736 727.65 735.95 727.65 736.15 727.65 738.8 728.1 741.2 728.3 742.4 727.25 743.1 726.6 743.3 726.15 743.45 725.85 743.85 724.35 744.2 724.4 744.6 724.45 746.3 724.55 747.9 723.05 748 722.85 748.2 722.65 749 721.65 749.15 719.65 749.2 717 747.85 714.4 747.15 713.15 747 712.9 746.45 712.15 745.6 711.4
M 681.15 701.65
Q 680.15 701.35 679.35 701.3 680.5 702.5 679.95 705.7 679.8 706.2 679.75 706.65 679.65 707 679.5 707.3 678.65 709.55 676.9 711 676.3 711.4 675.1 711.65 673.75 711.95 673.65 711.95 673.95 712.05 676.95 712.5 680.2 712.6 682.05 711.2 683.1 710.4 683.5 709.8 683.75 709.35 684.35 707.65 684.55 707.65 684.8 707.65
L 685.05 705.6
Q 684.95 705.4 684.85 705.15 684.35 703.6 683.45 702.8 682.65 702 681.15 701.65
M 757.15 641
Q 756.15 640.65 755.3 640.45 756.5 641.95 756.25 645.25 756.15 645.8 756.1 646.35 756 646.65 755.95 646.95 755.4 648.7 754.35 649.95 754 650.35 753.5 650.7 753 651.1 751.75 651.35 750.45 651.5 750.35 651.55 750.6 651.6 753.75 652.4 757.05 652.85 758.75 651.55 759.8 650.75 760.1 650.1 760.1 650 760.15 649.95 760.35 649.35 760.85 647.85 761.4 647.9 762 647.95 764.85 647.95 767.45 646 769.4 644.45 769.35 641.4 769.2 638.05 766.5 635.2 765.35 634 765.05 633.8 764.2 633.15 762.9 632.65 763.7 633.2 764.2 633.75 766.35 635.95 766.1 639.05 765.9 642.4 762.6 644.95 761.95 645.45 761.4 645.75 761.25 645.45 761.15 645.25 760.55 643.55 759.55 642.5 758.65 641.6 757.15 641
M 774.35 627.9
Q 773.55 623.3 770.95 620.45 767.05 616.35 762.65 615.65 761.5 615.4 760.45 615.45 757.35 615.45 755 617.1 751.7 619.25 751 620.75 750.25 622.25 750.15 622.5 747.8 622.55 744.9 623.95 743.65 624.5 742.5 625.25 739.1 627.25 736.8 630.15 732.6 634.15 731.55 639.85 730.7 643.95 731.9 647.25 732.1 645.3 732.85 643.2 733.4 641.85 734 640.7 736.8 635.2 742.8 630.9 747.15 627.6 750.6 626.75 752.95 626.2 756.9 626.55
L 755.95 625.65
Q 755.7 625.55 754.5 624.55 754.8 624.1 755.4 623.55 755.95 622.75 756.35 622.55 756.4 622.5 757.9 621.7 759.8 620.75 761.75 620.55 767.85 619.65 772.75 624.8 773.1 625.2 773.85 626.85 774.15 627.4 774.35 627.9
M 750.5 622.5
L 750.5 622.55 750.45 622.55 750.5 622.5
M 858.2 543.75
Q 855.15 542.4 853.7 539.85 852.95 538.45 852.8 536.8 852.7 536.1 852.8 535.35 853 533.4 853.1 533.1 853.65 532.4 854.55 530.75 851.65 534.8 848.1 536.1 845.65 536.95 842.45 536.7 835.05 536.05 835.8 528.15 836.15 523.75 838.9 518.15 842.25 511.15 848 505.4
L 847.95 505.4
Q 842.2 508.85 835.8 516.9 827.95 526.8 827.35 533.2 826.95 537.35 828.3 540.2 829.7 543.2 831.3 542.4 829.6 544.95 833.15 545.5 836.55 546 839.75 546.1
L 839.8 546.1
Q 851.2 545.25 853.85 544.85 855.85 544.55 858.2 543.75
M 878.85 455.5
Q 877.65 454.5 875.35 453.45 873.85 452.8 872.6 452.25 873.5 453.05 874.25 454.65 875.75 457.95 875.35 462.3 875 466.5 873.65 469 871.85 472.3 868.15 473.35 874.45 475.95 877.45 480.4 881.25 485.9 880.75 494.75 881.3 494.1 881.85 493.35 883.85 490.15 884.15 486.95 884.3 485.5 884.2 484.25 884 481.45 882.9 479.25 882.05 477.6 880.1 475.3 878.95 474 877.55 472.55 878.65 470.85 879.6 468.85 879.6 468.75 879.65 468.65 880.6 466.3 880.95 464.1 881 463.65 881.05 463.2 881.5 457.9 878.85 455.5
M 913.75 466.6
Q 913.75 463.5 911.35 462.25 910.25 461.75 908.35 461.3 907 460.95 906 460.75 906.85 461.2 907.5 462.1 909 463.85 909 466.4 909 468.8 908.05 470.3 907.7 470.95 907.1 471.45 907.05 472.75 906.9 473.9 910.1 474.95 912.1 476.6 915.55 479.6 915.85 484.7 916.2 484.35 916.6 483.9 918.05 481.95 918.05 480.05 918.05 477.45 916.5 475.75 915.2 474.3 911.55 472.1 912.4 471.1 913 469.75 913.75 468.15 913.75 466.6
M 202.7 -6.55
Q 201.4 -5.65 200.25 -4.4 194.55 1.35 193.05 10 192.5 13.9 192.75 18.3 192.75 20.1 192.9 22 195.45 16.4 198.6 12.65 198.5 10.5 198.6 8.25 198.7 4.65 199.5 1.5 200.5 -3.15 202.7 -6.55
M 216.8 -6
Q 216.75 -5.35 216.7 -4.8 220.4 -9.35 224.35 -10.3 227.45 -10.9 231.15 -9.25 230.1 -11.5 230.85 -13.9 231.5 -15.7 233.1 -17.95 234.8 -20.15 236.9 -21 237.9 -21.45 238.65 -21.45 237.8 -21.75 237 -22.1 235.65 -22.6 234.65 -22.65 232.6 -22.7 230.45 -20.05 229.35 -18.65 228.7 -16.75 228.05 -15.45 227.8 -14.1 224.4 -13.95 222.7 -13.3 220.7 -12.5 218.85 -10.25 217.55 -8.55 216.8 -6 Z"/>

<path fill="#FFFFFF" stroke="none" d="
M 774.55 628.95
Q 774.45 628.3 774.35 627.9 774.15 627.4 773.85 626.85 773.1 625.2 772.75 624.8 767.85 619.65 761.75 620.55 759.8 620.75 757.9 621.7 756.4 622.5 756.35 622.55 755.95 622.75 755.4 623.55 754.8 624.1 754.5 624.55 755.7 625.55 755.95 625.65
L 756.9 626.55
Q 752.95 626.2 750.6 626.75 747.15 627.6 742.8 630.9 736.8 635.2 734 640.7 733.4 641.85 732.85 643.2 732.1 645.3 731.9 647.25 732.8 650.05 735.1 652.35 736.15 653.4 737.55 653.8 738.2 654 739.7 654.45 740.35 653.65 741.05 652.7 743.6 649.3 744.35 648.8 742.7 652.6 742.25 653.95 742 654.5 741.85 655 740.7 655.55 739.7 656 736.9 657.3 735.75 657.9 728.35 658.4 724.85 667.75 724.3 668.9 724.05 670.2 720.65 668.9 716.65 670.8 712.5 672.6 706.85 675.75 701.15 678.95 699.15 687.65
L 699.15 687.7
Q 699 687.3 698.8 686.9 698.1 685.45 697.75 685.15 696.45 683.9 695 683.15 691.5 681.25 687.05 682.25 685.05 682.7 683.2 683.7 681.6 684.55 681.55 684.6 681.15 684.95 680.5 685.7 679.95 686.25 679.55 686.7 680.7 687.5 680.95 687.5
L 681.8 688.25
Q 677.95 688.35 675.5 689.15 672.1 690.25 667.45 693.65 661.25 698.25 658.15 703.6 657.4 704.7 656.95 705.95 655.95 707.95 655.6 709.8 656.35 712.35 658.45 714.2 659.5 715.05 660.85 715.35 661.35 715.45 662.9 715.7 663.6 714.9 664.35 714 667.1 710.65 667.85 710.1 666.05 713.75 665.5 715 665.2 715.55 665 716.05 664.45 717.4 664.35 718.35 664.4 720.7 669.4 725.15 670.45 726.15 672.4 727.55 674.4 728.85 677.45 730.55 689.05 730.4 696.45 724.4 697.2 723.85 697.85 723.2 700.05 721 701.1 718.05 701.7 716.5 701.85 714.9 703.5 712.75 704.65 711.45 704.9 711.4 705 711.4 705.45 711.3 706.05 711.1 704.05 715.3 703.3 717.05 702.95 717.9 702.65 718.7 701.75 721.05 700.75 725.95 699.85 730.9 704.85 736.05 709.95 741.25 716.55 741.75 723 742.2 722.75 742.9 726.4 742.75 729.85 742.3 743.15 740.4 752.4 732.35 757.25 727.95 759.35 721.9 761.7 714.75 758.9 707.2 763.05 711.4 765.15 711 767.2 710.55 770.1 708.05 772.95 705.55 773.7 699.7 773.85 698 773.95 696 773.95 694.55 773.95 693.3 773.9 692.9 773.9 692.5 773.6 690.95 771.7 687.35 769.3 682.55 762.75 682.9 756.15 683.35 753.4 685
L 753.4 684.2
Q 756.1 681.85 755.75 675.3 755.75 675 755.8 674.7 755.75 674.5 755.75 674.25 755.6 673.4 755.55 672.65 755.5 672.4 755.35 672.1 755.3 672.1 755.3 672 755.2 671.6 754.9 671.15 754.65 670.6 754.9 669.55 755.25 670.75 755.5 672.1 767.1 673.15 774.25 667.35 777.3 664.85 778.45 660.95 779.8 656.35 777.7 651.15 780.55 654.25 781.95 654.15 783.25 653.95 785.15 652.55 786.9 651.05 787.3 647.15 787.3 646 787.3 644.65 787.3 643.7 787.2 642.9 786.8 641.85 786.1 641.2 783.5 638.45 778.95 637 775.2 635.7 773.4 636
L 773.3 635.45
Q 775 634 774.6 629.65 774.65 629.5 774.6 629.3 774.5 629.1 774.55 628.95
M 755.3 640.45
Q 756.15 640.65 757.15 641 758.65 641.6 759.55 642.5 760.55 643.55 761.15 645.25 761.25 645.45 761.4 645.75 761.95 645.45 762.6 644.95 765.9 642.4 766.1 639.05 766.35 635.95 764.2 633.75 763.7 633.2 762.9 632.65 764.2 633.15 765.05 633.8 765.35 634 766.5 635.2 769.2 638.05 769.35 641.4 769.4 644.45 767.45 646 764.85 647.95 762 647.95 761.4 647.9 760.85 647.85 760.35 649.35 760.15 649.95 760.1 650 760.1 650.1 759.8 650.75 758.75 651.55 757.05 652.85 753.75 652.4 750.6 651.6 750.35 651.55 750.45 651.5 751.75 651.35 753 651.1 753.5 650.7 754 650.35 754.35 649.95 755.4 648.7 755.95 646.95 756 646.65 756.1 646.35 756.15 645.8 756.25 645.25 756.5 641.95 755.3 640.45
M 679.35 701.3
Q 680.15 701.35 681.15 701.65 682.65 702 683.45 702.8 684.35 703.6 684.85 705.15 684.95 705.4 685.05 705.6
L 684.8 707.65
Q 684.55 707.65 684.35 707.65 683.75 709.35 683.5 709.8 683.1 710.4 682.05 711.2 680.2 712.6 676.95 712.5 673.95 712.05 673.65 711.95 673.75 711.95 675.1 711.65 676.3 711.4 676.9 711 678.65 709.55 679.5 707.3 679.65 707 679.75 706.65 679.8 706.2 679.95 705.7 680.5 702.5 679.35 701.3
M 746.45 712.7
Q 746.15 712.1 745.6 711.4 746.45 712.15 747 712.9 747.15 713.15 747.85 714.4 749.2 717 749.15 719.65 749 721.65 748.2 722.65 748 722.85 747.9 723.05 746.3 724.55 744.6 724.45 744.2 724.4 743.85 724.35 743.45 725.85 743.3 726.15 743.1 726.6 742.4 727.25 741.2 728.3 738.8 728.1 736.15 727.65 735.95 727.65 736 727.65 736.25 727.55 738.15 727.75 740.95 726.15 744.1 724.25 740.05 718.05 739.95 717.9 739.85 717.8 740.5 718 741.3 718.4 742.45 719.1 743.1 719.95 743.75 720.9 744.15 722.35 744.2 722.5 744.25 722.7 745.1 722.45 746.75 721.3 748.2 720.2 747.95 717.7 747.7 714.95 746.45 712.7
M 843.2 372.1
Q 842.2 372.45 841.3 373.2 838.2 375.65 837.9 379.1 837.5 383.45 841.3 385.35 842.25 385.8 843.9 386.6 845.15 387.3 845.05 388.45 844.8 391.15 843.25 392.15 841.3 393 840.1 393.85 842.35 393.85 844.3 394.6
L 844.4 395.45
Q 845.05 395.3 845.7 395.15 847.4 396.1 848.8 397.5 852.25 401 851.85 404.95 851.75 406.25 851.45 407.75
L 851.45 407.85
Q 851.35 408.3 851.2 408.85 850.4 412.65 849.3 413.5 849.6 410.2 849.1 407.35 848.1 401.7 844.05 401.3 842.95 401.2 842.5 401.6 842.05 402 841.95 403.2 840.85 414.95 842.95 422.75 846.8 436.6 860.3 443.75 856.2 447.8 852.4 453.8 845.05 465.45 843.9 477.6 843.35 483.8 844.05 488.85
L 844 488.9 844.1 489.2
Q 844.35 491 844.75 492.6 844.75 492.65 844.8 492.75 845.45 495.2 846.45 496.9 847.05 497.9 847.75 498.75
L 847.95 500.45
Q 850.4 503.95 850.5 504 849.2 504.6 848 505.35
L 847.95 505.4 848 505.4
Q 842.25 511.15 838.9 518.15 836.15 523.75 835.8 528.15 835.05 536.05 842.45 536.7 845.65 536.95 848.1 536.1 851.65 534.8 854.55 530.75 853.65 532.4 853.1 533.1 853 533.4 852.8 535.35 852.7 536.1 852.8 536.8 852.95 538.45 853.7 539.85 855.15 542.4 858.2 543.75 863.45 541.95 870.45 537.6 873.9 535.55 876.85 533 876.9 532.95 877 532.85 879.6 530.7 881.8 528.15 886.75 522.6 887 518.85 887.35 514.75 889.15 511.9 889.55 511.25 893 507.3 894.95 505.15 896.2 502.65
L 901.2 510.4
Q 900.9 512 900.9 513.95 900.9 515.05 900.95 516.1 901.5 515.55 902.1 515 922.75 495.85 924 494.1 924.3 493.7 926.8 491.3 928.7 489.4 929.65 487.4 930.9 484.4 930.9 479.95 930.9 479.55 930.65 478.9 930.45 478.6 930.4 478.4 933.75 476.45 935 474.1 936.15 471.65 935.45 468.25 934.8 464.85 931.15 462.85 927.45 460.8 925 459.75 923.25 459 923.25 458.7 923.25 458.6 923.9 456.55 924.65 454.5 924.65 453.1 924.65 440.45 913.3 434.2 912.35 433.65 911.35 433.15 912.15 429.65 911.15 425.5 910.95 424.95 910.85 424.4 912.55 423.15 913.95 421.35 918 416.05 916.2 408.75 914.4 401.4 907.75 396.4 901.2 391.4 893.65 391.65 886.6 391.85 882.6 396.5 877.25 393.4 871.25 393.55 866.75 393.75 863.45 395.7 858.6 387.65 852.35 380.6 847.3 374.9 843.2 372.1
M 911.35 462.25
Q 913.75 463.5 913.75 466.6 913.75 468.15 913 469.75 912.4 471.1 911.55 472.1 915.2 474.3 916.5 475.75 918.05 477.45 918.05 480.05 918.05 481.95 916.6 483.9 916.2 484.35 915.85 484.7 915.55 479.6 912.1 476.6 910.1 474.95 906.9 473.9 907.05 472.75 907.1 471.45 907.7 470.95 908.05 470.3 909 468.8 909 466.4 909 463.85 907.5 462.1 906.85 461.2 906 460.75 907 460.95 908.35 461.3 910.25 461.75 911.35 462.25
M 875.35 453.45
Q 877.65 454.5 878.85 455.5 881.5 457.9 881.05 463.2 881 463.65 880.95 464.1 880.6 466.3 879.65 468.65 879.6 468.75 879.6 468.85 878.65 470.85 877.55 472.55 878.95 474 880.1 475.3 882.05 477.6 882.9 479.25 884 481.45 884.2 484.25 884.3 485.5 884.15 486.95 883.85 490.15 881.85 493.35 881.3 494.1 880.75 494.75 881.25 485.9 877.45 480.4 874.45 475.95 868.15 473.35 871.85 472.3 873.65 469 875 466.5 875.35 462.3 875.75 457.95 874.25 454.65 873.5 453.05 872.6 452.25 873.85 452.8 875.35 453.45
M 644 742.95
Q 643.9 742.8 643.85 742.55 643.35 743.35 642.75 744.15 643.35 743.5 644 742.95
M 616.6 733.2
Q 616.2 732.85 615.85 732.6 613.55 730.9 611.25 731.3 608.6 731.75 607.15 734.95 606 737.35 605.8 737.95 605.5 738.75 605.05 740.3 604.25 741.25 603.9 742.05 603.5 742.9 603.4 744.85 603.3 747.55 604.15 749.75 605 749.8 606.55 749.65 607.65 749.5 608 749.7
L 610.8 743.65
Q 612.7 744.5 614.7 745.1
L 616.8 745.65
Q 616.9 745.4 617.6 744.8 619.05 745.9 620.9 745.8 623.1 745.7 624.6 744.05 624.85 743.8 625.6 744.05 626.65 743.2 628.2 742.25 628.4 742.2 628.5 742.05 627.5 740.4 627.35 739.75 626.85 737.9 628.5 736 630.1 734.1 628.95 732.7 627.75 731.2 625.65 731.35 625.45 731.35 625.35 731.4 624.95 730.85 624.2 730.35 623.35 729.8 622.2 732.7 621.1 735.6 618.35 733.95 617.25 733.25 616.6 733.2
M 624.45 741.3
Q 621.5 740.5 619.55 740.3 619.65 739.35 619.5 738.4 621.45 739.75 624.45 741.3
M 242.75 -44.25
Q 238.05 -41.7 233.8 -36.35 232.85 -35.25 231.85 -33.25 231.7 -32.85 231.6 -32.55 230.8 -31.2 230.75 -31.15 230.6 -30.85 229.2 -31.05 227.3 -31.3 224.3 -31.15 222.65 -31.15 221.3 -30.45 219.9 -29.85 218.55 -28.65 215.9 -26.1 214.95 -23.6 213.95 -21.3 214.1 -18.15 214.1 -17.95 214.1 -17.8 213.9 -17.7 213.7 -17.55 213.7 -17.5 213.6 -17.5 213.05 -17.15 212.75 -16.7 211.3 -15 210.25 -13.35 209.1 -11.7 208.35 -10.1 205.25 -8.6 202.7 -6.55 200.5 -3.15 199.5 1.5 198.7 4.65 198.6 8.25 198.5 10.5 198.6 12.65 195.45 16.4 192.9 22
L 192.9 22.15
Q 192.8 22.2 192.75 22.45 192.4 23.35 191.95 24.3 192.95 23.75 194.4 24 194.45 24.05 194.45 24.1 194.2 24.4 194 24.7 191.75 28.6 190.35 31.8 189.4 34 189 35.9 188.85 35.55 188.7 35.35 188 38.35 187.85 40.3 187.45 47.2 187.85 52.3 188.05 55.55 188.65 58.05 186.7 63.6 185.85 68.05 183.2 81.75 190.9 85.1 185.3 89.5 178.45 94.35 152.65 112.7 173.2 119.35 193.95 126.05 211 117.25 228.1 108.25 241.25 104.1 254.4 100.05 258.2 88.95 260.35 82.8 258.95 76.5 260.25 75.9 261.9 75 262.3 74.7 262.65 74.55 264.55 73.75 264.75 73.45 265.05 73.25 265.95 75 267.4 77.25 269.9 80.35 272.4 83.45 276.7 82.9 281.15 82.35 284.6 80.3 287.8 78.1 291.1 73.35 291.2 73.4 291.75 73.4 292.5 73.4 293.15 73.35 295.65 72.55 298.3 71.55 300.85 70.55 303.05 69.15 307 70.5 311 70.6 311.35 70.35 311.8 70.2 316.45 67.95 321.4 63.2 323.85 61.1 326.65 58 329.8 54.35 333.1 49.45 336.25 48.85 339.75 47.15 342.9 45.65 346.65 43.45 346.75 43.3 346.8 43.1 347 42.8 347.3 42.75 353.15 39.25 359.4 33.55 360.75 32.35 362.05 31.15 366 27.3 368.65 24.45 370.3 22.45 371.6 20.7 376.85 14.3 380.55 8.6 384.1 3.4 386.35 -1.2 387.25 -2.05 387.45 -2.25 389.7 -4.6 390.5 -11 391.75 -19.65 391.9 -20.35 392.55 -22.4 393.85 -25.5 394.5 -27.65 394.75 -29.65 394.6 -30.65 391.85 -34.8 388.9 -39.1 387.5 -39.7 387.05 -39.95 386.9 -40.05 387.55 -41.2 388.95 -42.2 390.1 -42.9 391.2 -41.95 392.7 -40.8 393.5 -39.85 397.1 -36.95 401 -39.6 404.25 -41.9 404.85 -46.35 405.15 -47.6 405.1 -48.95 400.45 -51.35 392.95 -53.6 383.5 -56.15 373.7 -56.8 365.85 -67.7 356 -71.4 348.85 -73.95 341 -72.65 332.35 -71.3 322.1 -65 320 -63.7 317.05 -60.95 316.55 -60.4 316.2 -59.95 314.05 -58.2 313.95 -58.2 313.45 -57.8 311.6 -59 309.1 -60.65 304.6 -62.3 302.25 -63.35 299.8 -62.95 297.3 -62.95 294.45 -61.75 288.65 -59.15 285.45 -55.5 282.3 -52.3 280.2 -46.85 280.1 -46.65 280 -46.45 278.9 -46.4 277.75 -46.25 271.6 -45.45 265.75 -43.6 258.4 -47.3 251.75 -46.9 246.95 -46.65 242.75 -44.25
M 216.7 -4.8
Q 216.75 -5.35 216.8 -6 217.55 -8.55 218.85 -10.25 220.7 -12.5 222.7 -13.3 224.4 -13.95 227.8 -14.1 228.05 -15.45 228.7 -16.75 229.35 -18.65 230.45 -20.05 232.6 -22.7 234.65 -22.65 235.65 -22.6 237 -22.1 237.8 -21.75 238.65 -21.45 237.9 -21.45 236.9 -21 234.8 -20.15 233.1 -17.95 231.5 -15.7 230.85 -13.9 230.1 -11.5 231.15 -9.25 227.45 -10.9 224.35 -10.3 220.4 -9.35 216.7 -4.8
M 305.1 -39.6
Q 310.25 -42.7 313.2 -41.35 314.55 -40.6 316.1 -38.85 317 -37.8 318 -36.75 316.95 -37.2 315.2 -37.05 311.55 -36.95 307.4 -34.4 303.4 -31.65 301.15 -28.9 298.3 -25.3 298.05 -20.95 295.1 -24.75 291.6 -26.2 290.35 -26.75 289 -27 287.8 -27.15 286.5 -27.1 285.75 -29.35 285.7 -29.6 285.6 -30.75 285.5 -32.45 287.3 -33.1 289 -33.15 290.4 -33.15 292.4 -32.7 294.35 -32.25 296.85 -31.25 298.3 -33.4 300.15 -35.2 302.5 -37.95 305.1 -39.6
M 280.45 56.85
Q 278.15 58.4 275.8 59.25 273.1 60.2 271.5 59.5 270.45 59.15 270 58.3 269.4 57.3 268.8 55.2 268.3 53.65 268.1 52.65 268.65 53.3 269.9 53.75 272.3 54.8 276 53.65 276.15 53.65 276.25 53.6 279.4 52.6 281.6 50.6 284.6 48.4 285.85 44.35 287.1 50.35 290.45 52.7 294.25 55.65 301.7 53.7 301.05 54.2 300.3 55 297.3 57.55 294.6 58.45 290.95 59.6 288.55 58.5 286.75 57.6 283.85 54.1 282.35 55.7 280.45 56.85
M 724.5 -55.9
Q 720.3 -55.9 717.3 -53.35 714.35 -50.9 714.3 -47.35 710.3 -46.25 706.95 -44.25 702.95 -41.85 700.65 -38.65 698.55 -35.5 698.15 -31.9 698.15 -31.5 698.15 -31.1 698.15 -30.9 698.15 -30.6 698.15 -30.1 698.15 -29.55 698.15 -29.5 698.65 -27.6 699.1 -25.75 702.7 -22.85 706.5 -19.8 709.55 -16.25 712.8 -12.6 718.2 -11.1 722.05 -10.15 725.7 -10
L 726.1 -10
Q 726.1 -9.9 726.05 -9.85 725.3 -8.1 725.15 -6.45 724.65 -2.8 726.2 0.5 728.1 4.75 732.35 5.55 736.7 6.4 742.1 6.5 747.6 6.6 749.55 4.55 751.5 2.3 751.65 2.25
L 751.65 2.2
Q 751.7 2.15 751.65 2.3 751.55 2.4 751.55 2.55 751.55 4.55 755.05 6.15 758.6 7.7 761.65 7.5 764.8 7.1 768.15 5.45 770 6.2 771.95 6.6 776.1 7.65 780.75 7.65 784.7 7.65 788.3 5.9 791.65 4.4 794.25 1.7 796.6 -0.7 797.9 -3.7 798.05 -4.05 798.2 -4.35 798.75 -5.5 799.05 -6.6 799.75 -8.9 799.75 -11.1 799.75 -13.1 799.35 -15.35 799.55 -15.6 799.75 -15.7 802.4 -16.75 804.6 -18.7 808.9 -22.35 810.2 -27.45 810.55 -28.45 810.65 -29.55 811 -31.05 811 -32.55 811 -35.65 809.8 -38.6 809.4 -39.6 808.8 -40.6 807.95 -42.2 806.5 -43.65 804.45 -45.9 801.8 -47.25 800.3 -47.9 798.8 -48.2 801.15 -51.25 800.3 -54.75 799.45 -58.2 798 -61 796.6 -63.7 792.15 -64.1 787.5 -64.65 784.25 -62.3 784.2 -64.05 783.3 -66.2 782.2 -68.7 780.05 -70.8 780 -70.85 777.15 -73.05 774.3 -75.15 769 -74.05 763.55 -73.1 762.9 -72.55 758.35 -75.15 755 -73.75 751.5 -72.45 749.1 -70.2 746.65 -68.05 745.15 -64.95 744.6 -63.85 744.2 -62.85 744.15 -62.55 744.1 -62.4 744.05 -62.4 744 -62.4 736.75 -65.85 729.95 -61.55 726.25 -59 725.3 -55.9 725 -55.9 724.5 -55.9
M 752.7 -1
Q 752.798046875 -1.2939453125 752.8 -1.35
L 752.8 -1.05
Q 752.75 -1.05 752.7 -1 Z"/>

<path fill="#CCCCCC" stroke="none" d="
M 841.45 371
Q 836.65 370.3 831.7 369.8 829.55 370.5 827.8 372.2 824.15 376 823.4 384 823.05 387.55 825.1 390.3 825.85 391.35 829.55 394.8 832.6 397.6 833.8 400.2 835.55 404 834.85 409.35 833.35 420.6 840.45 432.25 842.2 435.2 845.4 440 847.6 443.85 847.4 446.1 847.3 447.35 843.65 451.85 839.8 457.7 839.1 465.4 837.9 478.35 842.15 489.4 842.8 491.2 843.6 492.85 843.65 492.95 843.65 493.05 844.7 495.1 845.9 497.2 846.85 498.75 847.95 500.45
L 847.75 498.75
Q 847.05 497.9 846.45 496.9 845.45 495.2 844.8 492.75 844.75 492.65 844.75 492.6 844.35 491 844.1 489.2
L 844 488.9 844.05 488.85
Q 843.35 483.8 843.9 477.6 845.05 465.45 852.4 453.8 856.2 447.8 860.3 443.75 846.8 436.6 842.95 422.75 840.85 414.95 841.95 403.2 842.05 402 842.5 401.6 842.95 401.2 844.05 401.3 848.1 401.7 849.1 407.35 849.6 410.2 849.3 413.5 850.4 412.65 851.2 408.85 851.35 408.3 851.45 407.85
L 851.45 407.75
Q 851.75 406.25 851.85 404.95 852.25 401 848.8 397.5 847.4 396.1 845.7 395.15 845.05 395.3 844.4 395.45
L 844.3 394.6
Q 842.35 393.85 840.1 393.85 841.3 393 843.25 392.15 844.8 391.15 845.05 388.45 845.15 387.3 843.9 386.6 842.25 385.8 841.3 385.35 837.5 383.45 837.9 379.1 838.2 375.65 841.3 373.2 842.2 372.45 843.2 372.1 842.3 371.45 841.45 371
M 194 24.7
Q 194.2 24.4 194.45 24.1 194.45 24.05 194.4 24 192.95 23.75 191.95 24.3 192.4 23.35 192.75 22.45 191.65 23.7 190.7 25.2 188 27.75 187.7 30.8 187.7 31 187.7 31.3 187.45 31.75 187.25 32.35 185.2 37.75 184.15 44.35 183.45 47.8 183.4 50.05 183.45 61.7 185.85 68.05 186.7 63.6 188.65 58.05 188.05 55.55 187.85 52.3 187.45 47.2 187.85 40.3 188 38.35 188.7 35.35 188.85 35.55 189 35.9 189.4 34 190.35 31.8 191.75 28.6 194 24.7
M 292.4 -32.7
Q 290.4 -33.15 289 -33.15 287.3 -33.1 285.5 -32.45 285.6 -30.75 285.7 -29.6 285.75 -29.35 286.5 -27.1 287.8 -27.15 289 -27 290.35 -26.75 291.6 -26.2 291.4 -29 290.6 -31 291.55 -31.6 292.3 -32.55 292.35 -32.65 292.4 -32.7 Z"/>
</g>

<g id="Duplicate_Items_Folder_3_0_Layer0_0_FILL">
<path fill="#999999" stroke="none" d="
M 163.75 166.85
Q 163.45 167.05 163.15 167.25 163.55 167.6 163.95 168 163.8 167.3 163.75 166.85
M 184.85 68.3
Q 185.1 66.5 185.3 64.7 185.15 64.65 185.05 64.65 185.3 63.4 185.5 62.15 185.55 60.55 185.55 58.9 185.55 48.75 182.4 39.85 186.6 55.95 179.55 64.75
L 184.85 68.3
M 167.5 17.45
Q 167.3728515625 17.3728515625 167.25 17.25 151.75 2.6 130.75 0.4 127.5 0.05 124.15 0 123.65 0 123.15 0 97.35 0 79.05 17.25 67.55 28.1 63.3 41.8 54.3 34.65 42.25 34.65 28.55 34.65 18.85 43.8 9.2 52.95 9.2 65.85 9.2 78.8 18.85 87.9 19.15 88.2 19.5 88.5 0 108 0 135.2 0 135.65 0 136.1
L 0 136.5
Q 0.5 164 21.15 183.45
L 21.9 182.85
Q 5.3 163.25 8.7 135.95 8.75 135.8 8.75 135.65 12 110.1 31.15 91.45 30.9 91.2 30.65 90.95 28.2 88.35 26.75 85.35 26.7 85.25 26.7 85.15 26.55 84.85 26.4 84.6 23.85 78.8 24.75 71.6 26.15 60.25 35.3 51.8 44.45 43.3 56.2 42.5 59.85 42.25 63.15 42.8 69.2 43.8 73.9 47.5 78.7 35.3 89.6 25.2 104.7 11.25 124.15 8.1 126.95 7.6 129.8 7.4 130.45 7.3 131.1 7.3 152.24296875 5.90703125 167.5 17.45
M 64.95 146.4
Q 64.55 146.1 64.2 145.8 63.4 146.55 62.55 147.25
L 64.95 146.4
M 160.35 73
Q 159.15 72.45 157.1 73.4 157.9 73.25 159.05 73.1 159.7 73.05 160.35 73
M 266.6 94.15
Q 259.4 88.4 248.4 83.85 240 80.3 228.25 78.65 230.7 80.25 232.65 82.4 239.7 89.4 238.35 94.1 236.5 100 224.5 97 222.05 96.4 217.75 95.3 217.15 95.15 216.55 95 212.9 94.2 212.4 95.65 211.2 99.3 214.65 102.55 217.65 104.95 219.85 106.95 221.15 108.15 222.15 109.2 221 108.6 219.85 108.1 214.85 105.7 210.15 104.25
L 209.25 105.15
Q 207.55 104 205.8 103.05 200.8 101.8 195.95 101.65 184.6 101.1 182.7 106.35 182.1 108.05 181.75 110.4 181.75 110.45 181.8 110.55 181.65 111.3 181.6 112.15 181 117.9 183.2 120.65 184.8 116 188.2 113.25 194.9 107.6 206.1 112.95 209.1 114.35 210.05 115.5 211.25 116.7 208.25 137.4 205.6 155.75 178.1 160.85 179.9 160.65 181.6 160.5 188.85 159.7 193.7 159 204.15 157.45 211.4 154.05 224.05 148.2 226.45 137.05 228.05 128.85 235.75 126.65 241 125 252.1 126.05 265.7 127.15 268.75 127.05 272.15 126.7 274.2 125.75 277.4 124.25 278.2 121.25 280.25 113.2 276.6 105.85 275 102.5 272.3 99.45 269.85 96.6 266.6 94.15 Z"/>

<path fill="#FFFFFF" stroke="none" d="
M 185.3 64.7
Q 185.4 63.4 185.5 62.15 185.3 63.4 185.05 64.65 185.15 64.65 185.3 64.7
M 167.6 17.55
Q 167.5478515625 17.5126953125 167.5 17.45 152.24296875 5.90703125 131.1 7.3 130.45 7.3 129.8 7.4 126.95 7.6 124.15 8.1 104.7 11.25 89.6 25.2 78.7 35.3 73.9 47.5 69.2 43.8 63.15 42.8 59.85 42.25 56.2 42.5 44.45 43.3 35.3 51.8 26.15 60.25 24.75 71.6 23.85 78.8 26.4 84.6 26.55 84.85 26.7 85.15 26.7 85.25 26.75 85.35 28.2 88.35 30.65 90.95 30.9 91.2 31.15 91.45 12 110.1 8.75 135.65 8.75 135.8 8.7 135.95 5.3 163.25 21.9 182.85
L 21.15 183.45
Q 24.75 186.85 28.65 189.7 46.4 202.75 69.55 203.45 70.9 203.5 72.3 203.5 102.25 203.5 123.4 183.45 128.85 178.35 132.95 172.7 135.15 169.55 137 166.25 137.35 165.55 137.75 164.85 139.6 165.3 141.6 165.65 145.5 166.3 149.75 166.5 151.2 166.55 152.7 166.55 157.4 166.55 161.9 166 162.5 166.6 163.15 167.25 163.45 167.05 163.75 166.85 163.75 166.45 163.8 166.25 163.9 165.95 164.05 165.7 165.05 165.5 166.05 165.35 174.1 163.85 181.6 160.5 179.9 160.65 178.1 160.85 205.6 155.75 208.25 137.4 211.25 116.7 210.05 115.5 209.1 114.35 206.1 112.95 194.9 107.6 188.2 113.25 184.8 116 183.2 120.65 181 117.9 181.6 112.15 181.65 111.3 181.8 110.55 181.75 110.45 181.75 110.4 182.1 108.05 182.7 106.35 184.6 101.1 195.95 101.65 200.8 101.8 205.8 103.05 207.55 104 209.25 105.15
L 210.15 104.25
Q 214.85 105.7 219.85 108.1 221 108.6 222.15 109.2 221.15 108.15 219.85 106.95 217.65 104.95 214.65 102.55 211.2 99.3 212.4 95.65 212.9 94.2 216.55 95 217.15 95.15 217.75 95.3 222.05 96.4 224.5 97 236.5 100 238.35 94.1 239.7 89.4 232.65 82.4 230.7 80.25 228.25 78.65 217.35 76.95 203.55 76.9 202.05 75.8 200.4 74.8 193.05 70.25 184.85 68.3
L 179.55 64.75
Q 186.6 55.95 182.4 39.85 178.05 27.55 167.65 17.6
L 167.6 17.55
M 157.1 73.4
Q 159.15 72.45 160.35 73 159.7 73.05 159.05 73.1 157.9 73.25 157.1 73.4
M 64.2 145.8
Q 64.55 146.1 64.95 146.4
L 62.55 147.25
Q 63.4 146.55 64.2 145.8
M 102.6 145.4
Q 102.25 142.25 102.45 138.6 102.5 135.9 102.85 137.85 103.2 139.7 102.95 142.65 102.85 144.15 102.6 145.4 Z"/>
</g>

<g id="Duplicate_Items_Folder_2_0_Layer0_0_FILL">
<path fill="#FFFFFF" stroke="none" d="
M 3.75 167.35
Q 3.3 166.8 3.15 166.65 1.55 166.65 0 166.6 1.95 166.9 3.75 167.35
M 337.8 76.7
Q 335.4 79.05 337.25 90 329.9 76.85 318.35 71.4 308.75 66.8 299 68.3 276.85 71.7 262.15 94.95 264.5 97.6 266.45 100.3 263.95 99.05 263.2 97.5 262.65 96.4 262.1 95.45 262 95.3 261.95 95.2 261.55 94.5 261.15 93.85 259.9 92.45 258.35 90.9 257.85 90.4 257.5 89.95 256.85 89.4 256.3 88.9 243.95 77.35 235.6 78.35
L 234.2 76.95
Q 241.05 74.75 251.25 63.2 261.4 51.65 255.45 38.9 250.9 29.15 248.25 25.9 247.5 25.15 246.75 24.45 244.35 22.25 241.5 19.95 237.3 16.65 233.7 14.1 221.1 5.6 212.35 6.9 203.45 8.3 199.8 11.55 196.2 14.8 198.8 29.7 188.05 11.8 171.1 4.5 156.95 -1.6 142.45 0.6 109.55 5.65 87.3 37.8 88.85 38.35 82.15 50.55 75.45 62.75 78.9 79.55 82.3 96.3 92.15 102.4 101.95 108.45 107.15 110.75 108.85 111.45 110.9 112.25 114.85 113.7 124.7 117.15 123.7 117.65 123 118.25 122.7 118.5 122.5 118.9 118.65 118.6 113 118 109.95 115.7 106.45 114.2 100.1 111.45 93.65 111.65 91.8 111.7 89.95 112 71.05 114.85 58.2 133.4 57.9 140.75 58.05 146.05 58.3 151.15 58.8 154.45 61.05 169.1 65.1 172.75 66.65 174.05 69.65 175.35 70.65 175.75 71.85 176.2 74.65 177.25 82.85 180.15 81.15 180.4 72.4 179.5 70 179.2 67.9 179 66.75 181.7 66.25 182.85 65.25 185.25 65.7 188.15 66.6 194.25 70 199.2 73.55 201.45 77.9 203.15 80.55 204.25 83.3 205 95.85 208.45 110.65 206.2 121.8 204.5 127.75 200.9 131.85 198.45 136.55 192.55
L 136.95 195.05
Q 136.75 195.5 136.7 198.6 138 198.65 139.7 198.8 141.7 198.9 142.7 198.75 142.85 198.7 146.3 197.7 150.4 196.3 153.5 193.85 160.6 188.5 161.6 179.9 161.95 176.35 161.35 172.3 161.15 171.05 159.45 167.7 158.9 166.75 158.45 165.9 158.35 165.75 158.3 165.65 158.4 165.75 158.5 165.9 176.65 176.7 189.7 172.6 202.75 168.45 211.55 164.7 220.35 160.95 222.5 153.2 225.3 154.8 228.1 156 250.55 165.6 261.9 153.9 265.55 152.3 276.05 148.2 277.25 148.75 278.65 149.3 282 150.7 291.7 154.4 289.65 154.75 279.35 153.45 276.5 153.1 274.1 152.75 272.7 156.15 272.2 157.6 271.05 160.65 271.6 164.35 272.8 172.05 276.85 178.4 281 181.25 286.1 183.5 289.3 184.85 292.5 185.85 307.3 190.45 324.6 187.8 337.65 185.8 344.6 181.4 349.4 178.3 354.75 170.9
L 355.25 174.1
Q 355 174.6 355.05 178.6 356.55 178.7 358.55 178.85 360.95 179 362.1 178.8 362.3 178.75 366.25 177.55 371.05 175.85 374.65 172.85 386.25 163.45 383.55 145.65 383.3 144.1 381.25 139.85 380.6 138.35 379.9 137.2 379 136.15 377.95 135 377.6 134.7 377.35 134.3 376.95 133.85 376.55 133.55 368.15 125 362.5 125.7
L 361.55 124.65
Q 365.05 121.85 368.5 112.6 372.7 101.3 371.25 91.6 370.85 89 369.6 86.55 367.95 84.9 366 83.2 363.15 80.75 360.7 78.9 352.1 72.55 346.2 73.45 340.2 74.4 337.8 76.7
M 352.3 138.55
Q 352.95 142.7 352.9 143.7 352.85 146.2 351.8 149.6 351.95 147.1 351.65 145.25 350.45 137.55 343.95 132.6 336.7 127.05 326.55 128.6 324.6 128.9 323 129.45 323.4 130.1 323.8 130.75 326.25 134.8 326.8 138.35 327.3 141.45 326.1 145.3 325.35 147.7 324.45 149.4 323.45 144.75 316.25 139.5 315 138.7 313.9 137.95 313.15 137.5 312.4 137.15 308.15 134.95 304.2 134.8 302.75 134.75 301.35 134.95 299.8 135.15 297.65 137.1 295.4 139.1 295.1 139.15 295.3 138.6 298.4 131.75 302.3 125 307.55 124.2 310.65 123.75 312.4 124.25 312.6 124.3 312.9 124.4 314.3 124.95 317.95 126.85 318.65 125.6 319.55 124.5 323.85 119.25 331.95 118 338.05 117.1 344.1 122.65 350.8 128.75 352.3 138.55
M 173.15 47.4
Q 172.55 45.25 171.85 43.7 169.1 37.6 164.4 32.75 160 28.15 156 29.15 151.8 30.25 150.15 31.35 150.5 31.8 150.8 32.25 153 35.3 153.9 38.05 154.7 40.55 154.5 43.8 154.35 45.95 153.95 47.5 153.75 47.05 153.6 46.6 147.15 29.05 139.75 31.85 133.2 34.3 131.25 38.1 130.85 38.4 130.75 38.5 130.95 38 133.3 32.55 135.9 27.75 139.45 27.35 141.45 27.1 142.7 27.5 143.45 27.75 146.55 29.45 146.9 28.6 147.35 27.9 149.5 24.65 154.25 24.15 154.75 24.05 155.35 24.1 158.3 24.3 162.15 27.35 167.3 31.45 170.45 38.35 171.95 41.6 172.2 42.4 172.85 44.45 173.15 47.4
M 106.1 157.25
L 109.85 160.1
Q 110.15 160.55 110.5 161.1 112.6 164.3 113 167.1 113.4 169.55 112.35 172.55 111.7 174.5 110.9 175.85 110.1 172.15 103.95 168.05 102.95 167.45 102.05 166.9 101.35 166.5 100.7 166.25 95.8 163.95 91.35 164.6 90.05 164.85 88.15 166.4 86.2 168 85.95 168.05 86.15 167.6 88.85 162.15 92.25 156.75 96.7 156.1 99.35 155.65 100.85 156.05 101.85 156.3 105.55 158.1 105.8 157.65 106.1 157.25 Z"/>

<path fill="#999999" stroke="none" d="
M 345.55 203
Q 340.8 203 336.8 203.9 335 204.3 333.4 204.9 345.9 205.05 358.35 205.6 351.25 203 345.55 203
M 55.85 137.05
Q 53.2 141.35 51.15 145.95 43.2 171.65 66.05 177.2 67.15 177.55 68.35 177.95 68.1 178.5 67.9 179 70 179.2 72.4 179.5 81.15 180.4 82.85 180.15 74.65 177.25 71.85 176.2 70.65 175.75 69.65 175.35 66.65 174.05 65.1 172.75 61.05 169.1 58.8 154.45 58.3 151.15 58.05 146.05 57.9 140.75 58.2 133.4 57.45 134.6 56.6 135.9 56.2 136.45 55.85 137.05
M 84.45 42.2
Q 83.7 43.1 83.15 44.15 78.55 51.6 74.95 59.65 63.15 97.8 90.65 110.4 92.05 111.05 93.65 111.65 100.1 111.45 106.45 114.2 109.95 115.7 113 118 118.65 118.6 122.5 118.9 122.7 118.5 123 118.25 123.7 117.65 124.7 117.15 114.85 113.7 110.9 112.25 108.85 111.45 107.15 110.75 101.95 108.45 92.15 102.4 82.3 96.3 78.9 79.55 75.45 62.75 82.15 50.55 88.85 38.35 87.3 37.8 85.9 39.9 84.45 42.2
M 166.15 180
Q 166.7 180 167.2 180 185 181.8 203.25 175.45 214 171.65 219.55 166.5 220.45 166.75 226.6 168.55 232.75 170.15 247.05 167.55 261.3 164.95 269.7 152.4 270.4 151.35 271.05 150.25 271.45 150.35 271.85 150.45 273.15 150.95 274.6 151.5 274.3 152.15 274.1 152.75 276.5 153.1 279.35 153.45 289.65 154.75 291.7 154.4 282 150.7 278.65 149.3 277.25 148.75 276.05 148.2 265.55 152.3 261.9 153.9 250.55 165.6 228.1 156 225.3 154.8 222.5 153.2 220.35 160.95 211.55 164.7 202.75 168.45 189.7 172.6 176.65 176.7 158.5 165.9 158.4 165.75 158.3 165.65 158.35 165.75 158.45 165.9 158.9 166.75 159.45 167.7 161.15 171.05 161.35 172.3 161.95 176.35 161.6 179.9 160.6 188.5 153.5 193.85 150.4 196.3 146.3 197.7 142.85 198.7 142.7 198.75 141.7 198.9 139.7 198.8 138 198.65 136.7 198.6 136.75 195.5 136.95 195.05
L 136.55 192.55
Q 131.85 198.45 127.75 200.9 121.8 204.5 110.65 206.2 95.85 208.45 83.3 205 80.55 204.25 77.9 203.15 73.55 201.45 70 199.2 74.05 205.1 81.6 209.4 92.25 215.4 104.25 215.2 114.45 216.25 125 212.6 131.15 210.4 134.3 207.45 134.85 207.55 138.4 208.6 141.9 209.55 150.15 208.05 158.4 206.55 163.15 199.35 168 192.05 166.3 180.8 166.25 180.4 166.15 180
M 220.55 165.5
L 220.45 165.65 220.3 165.65
Q 220.4 165.55 220.55 165.5
M 134.9 206.9
L 134.85 206.95 134.75 206.95
Q 134.85 206.9 134.9 206.9
M 262.15 94.95
Q 261.65 94.4 261.15 93.85 261.55 94.5 261.95 95.2 262 95.3 262.1 95.45 262.65 96.4 263.2 97.5 263.95 99.05 266.45 100.3 264.5 97.6 262.15 94.95
M 248.25 25.9
Q 250.9 29.15 255.45 38.9 261.4 51.65 251.25 63.2 241.05 74.75 234.2 76.95
L 235.6 78.35
Q 243.95 77.35 256.3 88.9 265.9 79.7 266.1 71.25 266.25 62.7 265.35 56.9 262.8 40.1 248.25 25.9
M 379.9 137.2
Q 380.6 138.35 381.25 139.85 383.3 144.1 383.55 145.65 386.25 163.45 374.65 172.85 371.05 175.85 366.25 177.55 362.3 178.75 362.1 178.8 360.95 179 358.55 178.85 356.55 178.7 355.05 178.6 355 174.6 355.25 174.1
L 354.75 170.9
Q 349.4 178.3 344.6 181.4 337.65 185.8 324.6 187.8 307.3 190.45 292.5 185.85 289.3 184.85 286.1 183.5 281 181.25 276.85 178.4 281.6 185.85 290.6 191.45 303.15 199.2 317.2 199.15 326.2 200.2 335.4 197.95 338.45 197.2 341.5 196.1 348.7 193.45 352.4 189.7 353 189.85 357.2 191.2 361.35 192.5 370.95 190.7 380.6 188.95 386.1 179.9 391.65 170.7 389.5 156.5 388 146.75 379.9 137.2
M 353.05 189
L 353 189.1 352.9 189.1
Q 352.95 189 353.05 189
M 369.6 86.55
Q 370.85 89 371.25 91.6 372.7 101.3 368.5 112.6 365.05 121.85 361.55 124.65
L 362.5 125.7
Q 368.15 125 376.55 133.55 383 126.9 383 120.75 383.1 114.55 382.45 110.3 380.45 97.4 369.6 86.55
M 109.85 160.1
L 106.1 157.25
Q 105.8 157.65 105.55 158.1 101.85 156.3 100.85 156.05 99.35 155.65 96.7 156.1 92.25 156.75 88.85 162.15 86.15 167.6 85.95 168.05 86.2 168 88.15 166.4 90.05 164.85 91.35 164.6 95.8 163.95 100.7 166.25 101.35 166.5 102.05 166.9 102.95 167.45 103.95 168.05 110.1 172.15 110.9 175.85 111.7 174.5 112.35 172.55 113.4 169.55 113 167.1 112.6 164.3 110.5 161.1 110.15 160.55 109.85 160.1
M 171.85 43.7
Q 172.55 45.25 173.15 47.4 172.85 44.45 172.2 42.4 171.95 41.6 170.45 38.35 167.3 31.45 162.15 27.35 158.3 24.3 155.35 24.1 154.75 24.05 154.25 24.15 149.5 24.65 147.35 27.9 146.9 28.6 146.55 29.45 143.45 27.75 142.7 27.5 141.45 27.1 139.45 27.35 135.9 27.75 133.3 32.55 130.95 38 130.75 38.5 130.85 38.4 131.25 38.1 133.2 34.3 139.75 31.85 147.15 29.05 153.6 46.6 153.75 47.05 153.95 47.5 154.35 45.95 154.5 43.8 154.7 40.55 153.9 38.05 153 35.3 150.8 32.25 150.5 31.8 150.15 31.35 151.8 30.25 156 29.15 160 28.15 164.4 32.75 169.1 37.6 171.85 43.7
M 352.9 143.7
Q 352.95 142.7 352.3 138.55 350.8 128.75 344.1 122.65 338.05 117.1 331.95 118 323.85 119.25 319.55 124.5 318.65 125.6 317.95 126.85 314.3 124.95 312.9 124.4 312.6 124.3 312.4 124.25 310.65 123.75 307.55 124.2 302.3 125 298.4 131.75 295.3 138.6 295.1 139.15 295.4 139.1 297.65 137.1 299.8 135.15 301.35 134.95 302.75 134.75 304.2 134.8 308.15 134.95 312.4 137.15 313.15 137.5 313.9 137.95 315 138.7 316.25 139.5 323.45 144.75 324.45 149.4 325.35 147.7 326.1 145.3 327.3 141.45 326.8 138.35 326.25 134.8 323.8 130.75 323.4 130.1 323 129.45 324.6 128.9 326.55 128.6 336.7 127.05 343.95 132.6 350.45 137.55 351.65 145.25 351.95 147.1 351.8 149.6 352.85 146.2 352.9 143.7 Z"/>
</g>

<g id="Duplicate_Items_Folder_5_0_Layer0_0_FILL">
<path fill="#999999" stroke="none" d="
M 24.55 70.95
Q 29 68.35 29 64.75 19.5 73.55 11.05 72.8 2.6 72.05 0 62.2 0 62.55 0 62.9 0 63.65 0.05 64.45 0.05 64.5 0.65 67.25 1.2 69.95 5.8 74.2 10.35 78.4 14.3 83.6 18.25 88.85 25 90.9 29.75 92.3 34.3 92.65
L 34.7 92.65
Q 34.7 92.7 34.65 92.75 33.9 95.25 33.65 97.6 33.05 102.9 34.9 107.55 37.3 113.75 42.65 114.9 47.95 116 54.75 116.25 61.55 116.45 64 113.4 66.45 110.3 66.6 110.1
L 66.6 110.05
Q 66.65 109.95 66.6 110.25 66.55 110.45 66.55 110.55
L 66.55 110.65
Q 66.55 113.45 70.85 115.65 75.2 117.85 79.1 117.6 83.05 117.3 87.15 114.75 89.45 115.7 91.85 116.4 97 117.8 102.85 117.8 107.75 117.8 112.2 115.45 116.4 113.25 119.65 109.3 122.5 105.85 124.2 101.6 115.45 115.7 104.65 116.5 97.45 118.4 93.25 111.75 94.85 107.95 95.05 107.5 95.45 106.5 95.65 104.7 95.75 104.1 95.75 103.4 95.75 103.25 95.8 103.1 95.05 104 94.3 104.8
L 94.65 105.15
Q 87.8 115.5 78.05 114.35 77.8 114.3 77.6 114.25 76.45 114.1 75.05 113.55 72.15 112.4 70.6 110.35
L 70.9 110.05
Q 70.45 109.6 70.05 109.05 69.3 107.8 69.2 106.25 69.25 104.8 69.25 104.6 69.2 103.6 69.2 102.95 69.2 102.4 69.25 102.1 69.3 101 69.75 100.3 69.9 100.05 70.1 99.85
L 70.05 99.5
Q 70.05 99.45 70.05 99.35 68.7 100.85 67.65 103.05 67.55 103.2 67.5 103.3 67.2 104 66.95 105.2 46.55 118.15 35.8 101.4 34.3 96.9 44.7 90.55 46.7 89.65 48.5 88.35 54.35 84 54.35 77.85 42.6 92.65 27.05 87.8 11.5 82.9 13.75 73.55 20.05 73.55 24.55 70.95
M 68.1 105.3
Q 68 105.35 67.95 105.4 68.1 105.05 68.1 105
L 68.1 105.3
M 117.65 75.2
Q 112.3 75.2 107.85 73.35 109.35 74.6 111.2 75.6 115.4 77.85 120.1 77.85 121.75 77.85 122.4 77.7 122.85 77.6 123.2 77.45 123.1 77.7 122.95 77.95 121.6 80.2 116.25 82.4 113.9 83.35 111.65 83.9 111.45 83.9 111.25 83.95 110.2 84.2 109.35 84.25 111.95 85.85 114.7 86.35 115.1 86.4 115.5 86.5 124.05 88.05 125.55 97.4 126.35 94.2 126.35 90.95 126.35 88.1 125.95 84.75 126.15 84.6 126.35 84.5 129.75 82.8 132.55 80 137.85 74.8 139.55 67.55 139.9 66 140.1 64.45 140.35 62.35 140.35 60.1 140.35 55.75 138.9 51.55 138.4 50.1 137.7 48.7 142.5 72.95 126 74 125.45 73.8 126.5 73.35 122.95 74.55 122.7 74.65 121.6 75.2 117.65 75.2
M 105.95 11.9
Q 104.55 8.25 101.95 5.25 110.95 27.5 88.4 21.3 99.25 27.3 105.7 21.95 106.3 21.4 106.9 20.8 106.95 20.6 107 20.45 107.15 20 107.15 17.7 107.15 17.6 107.15 17.5
L 107.15 17.45
Q 107.1 14.95 105.95 11.9
M 56.2 42.15
Q 52.35 42.15 50.7 44.45 50.15 45.2 49.95 46.1 49.8 46.6 49.8 46.85
L 49.8 47.65
Q 55.65 44.3 59.9 49.35 60 49.4 60 49.5 59.1783203125 50.3216796875 58.4 51.65 61.837890625 48.9 66.7 48.9 71.55 48.9 75 51.7 77.5 53.8 78.2 56.45 78.7 57.1 79.05 57.75 79.05 57.55 79.05 57.4 79.05 53 76.6 50.05 74.6 47.7 71.5 47 70.25 46.75 68.8 46.75 66.15 46.75 64.1 47.3 62.8 44.8 61 43.55 58.95 42.15 56.2 42.15
M 97.8 34.5
Q 93.75 34.5 90 36.7 86.85 33.9 81.9 33.9 76.3 33.9 73.6 36.95 71.45 39.35 71.45 43.05 71.45 45.15 71.75 45.8 73 44.35 75.75 42.7 79.85 40.3 83.8 40.3 84.8 40.3 85.8 40.55 84.15 43 85.8 45.2 86.2 43.3 88.65 42.1 88.8 42 88.95 41.95 90.85 41.25 93 41 94 40.9 95.05 40.9 100.45 40.9 104.8 43.8 105.05 43.95 105.3 44.15 109.3 46.95 109.8 50.5 110.3 44.8 108.75 41.1 108.1 39.45 107.05 38.2 103.85 34.5 97.8 34.5 Z"/>

<path fill="#FFFFFF" stroke="none" d="
M 127.15 28.3
Q 126.1 23.3 124.3 19.35 122.5 15.35 117.05 14.75 111.25 14.1 107.15 17.45
L 107.15 17.5
Q 107.15 17.6 107.15 17.7 107.15 20 107 20.45 106.95 20.6 106.9 20.8 106.3 21.4 105.7 21.95 99.25 27.3 88.4 21.3 110.95 27.5 101.95 5.25 101.9 5.2 98.35 2.1 94.85 -1.05 88.15 0.5 81.5 2.05 80.6 2.65 74.95 -1.05 70.7 0.9 66.45 2.85 63.45 6.05 60.45 9.25 58.55 13.6 57.8 15.2 57.35 16.75 57.25 17.05 57.2 17.3 57.15 17.3 57.1 17.3 48 12.4 39.7 18.6 35.05 22.1 33.9 26.7 33.35 26.65 32.75 26.65 27.55 26.65 23.85 30.25 20.25 33.8 20.15 38.8 15.15 40.5 11 43.35 6 46.85 3.2 51.45 0.5 55.9 0.1 61.1 0.05 61.65 0 62.2 2.6 72.05 11.05 72.8 19.5 73.55 29 64.75 29 68.35 24.55 70.95 20.05 73.55 13.75 73.55 11.5 82.9 27.05 87.8 42.6 92.65 54.35 77.85 54.35 84 48.5 88.35 46.7 89.65 44.7 90.55 34.3 96.9 35.8 101.4 46.55 118.15 66.95 105.2 67.2 104 67.5 103.3 67.55 103.2 67.65 103.05 68.7 100.85 70.05 99.35 70.05 99.45 70.05 99.5
L 70.1 99.85
Q 69.9 100.05 69.75 100.3 69.3 101 69.25 102.1 69.2 102.4 69.2 102.95 69.2 103.6 69.25 104.6 69.25 104.8 69.2 106.25 69.3 107.8 70.05 109.05 70.45 109.6 70.9 110.05
L 70.6 110.35
Q 72.15 112.4 75.05 113.55 76.45 114.1 77.6 114.25 77.8 114.3 78.05 114.35 87.8 115.5 94.65 105.15
L 94.3 104.8
Q 95.05 104 95.8 103.1 95.75 103.25 95.75 103.4 95.75 104.1 95.65 104.7 95.45 106.5 95.05 107.5 94.85 107.95 93.25 111.75 97.45 118.4 104.65 116.5 115.45 115.7 124.2 101.6 124.4 101.15 124.55 100.65 125.15 99.05 125.55 97.4 124.05 88.05 115.5 86.5 115.1 86.4 114.7 86.35 111.95 85.85 109.35 84.25 110.2 84.2 111.25 83.95 111.45 83.9 111.65 83.9 113.9 83.35 116.25 82.4 121.6 80.2 122.95 77.95 123.1 77.7 123.2 77.45 122.85 77.6 122.4 77.7 121.75 77.85 120.1 77.85 115.4 77.85 111.2 75.6 109.35 74.6 107.85 73.35 112.3 75.2 117.65 75.2 121.6 75.2 122.7 74.65 122.95 74.55 126.5 73.35 125.45 73.8 126 74 142.5 72.95 137.7 48.7 136.55 46.3 134.9 44.25 132.3 41 129 39.15 127.2 38.2 125.35 37.7 128.2 33.3 127.15 28.3
M 90 36.7
Q 93.75 34.5 97.8 34.5 103.85 34.5 107.05 38.2 108.1 39.45 108.75 41.1 110.3 44.8 109.8 50.5 109.3 46.95 105.3 44.15 105.05 43.95 104.8 43.8 100.45 40.9 95.05 40.9 94 40.9 93 41 90.85 41.25 88.95 41.95 88.8 42 88.65 42.1 86.2 43.3 85.8 45.2 84.15 43 85.8 40.55 84.8 40.3 83.8 40.3 79.85 40.3 75.75 42.7 73 44.35 71.75 45.8 71.45 45.15 71.45 43.05 71.45 39.35 73.6 36.95 76.3 33.9 81.9 33.9 86.85 33.9 90 36.7
M 50.7 44.45
Q 52.35 42.15 56.2 42.15 58.95 42.15 61 43.55 62.8 44.8 64.1 47.3 66.15 46.75 68.8 46.75 70.25 46.75 71.5 47 74.6 47.7 76.6 50.05 79.05 53 79.05 57.4 79.05 57.55 79.05 57.75 78.7 57.1 78.2 56.45 77.5 53.8 75 51.7 71.55 48.9 66.7 48.9 61.837890625 48.9 58.4 51.65 59.1783203125 50.3216796875 60 49.5 60 49.4 59.9 49.35 55.65 44.3 49.8 47.65
L 49.8 46.85
Q 49.8 46.6 49.95 46.1 50.15 45.2 50.7 44.45 Z"/>
</g>

<g id="Duplicate_Items_Folder_6_0_Layer0_0_FILL">
<path fill="#FFFFFF" stroke="none" d="
M 127.15 28.3
Q 126.1 23.3 124.3 19.35 122.5 15.35 117.05 14.75 111.25 14.1 107.15 17.45 107.1 14.95 105.95 11.9 104.55 8.25 101.95 5.25 101.9 5.2 98.35 2.1 94.85 -1.05 88.15 0.5 81.5 2.05 80.6 2.65 74.95 -1.05 70.7 0.9 66.45 2.85 63.45 6.05 60.45 9.25 58.55 13.6 57.8 15.2 57.35 16.75 57.25 17.05 57.2 17.3 57.15 17.3 57.1 17.3 48 12.4 39.7 18.6 35.05 22.1 33.9 26.7 33.35 26.65 32.75 26.65 27.55 26.65 23.85 30.25 20.25 33.8 20.15 38.8 15.15 40.5 11 43.35 6 46.85 3.2 51.45 0.5 55.9 0.1 61.1 0.05 61.65 0 62.2 0 62.55 0 62.9 0 63.65 0.05 64.45 0.05 64.5 0.65 67.25 1.2 69.95 5.8 74.2 10.35 78.4 14.3 83.6 18.25 88.85 25 90.9 29.75 92.3 34.3 92.65
L 34.7 92.65
Q 34.7 92.7 34.65 92.75 33.9 95.25 33.65 97.6 33.05 102.9 34.9 107.55 37.3 113.75 42.65 114.9 47.95 116 54.75 116.25 61.55 116.45 64 113.4 66.45 110.3 66.6 110.1
L 66.6 110.05
Q 66.65 109.95 66.6 110.25 66.55 110.45 66.55 110.55
L 66.55 110.65
Q 66.55 113.45 70.85 115.65 75.2 117.85 79.1 117.6 83.05 117.3 87.15 114.75 89.45 115.7 91.85 116.4 97 117.8 102.85 117.8 107.75 117.8 112.2 115.45 116.4 113.25 119.65 109.3 122.5 105.85 124.2 101.6 124.4 101.15 124.55 100.65 125.15 99.05 125.55 97.4 126.35 94.2 126.35 90.95 126.35 88.1 125.95 84.75 126.15 84.6 126.35 84.5 129.75 82.8 132.55 80 137.85 74.8 139.55 67.55 139.9 66 140.1 64.45 140.35 62.35 140.35 60.1 140.35 55.75 138.9 51.55 138.4 50.1 137.7 48.7 136.55 46.3 134.9 44.25 132.3 41 129 39.15 127.2 38.2 125.35 37.7 128.2 33.3 127.15 28.3
M 90 36.7
Q 93.75 34.5 97.8 34.5 103.85 34.5 107.05 38.2 108.1 39.45 108.75 41.1 110.3 44.8 109.8 50.5 109.3 46.95 105.3 44.15 105.05 43.95 104.8 43.8 100.45 40.9 95.05 40.9 94 40.9 93 41 90.85 41.25 88.95 41.95 88.8 42 88.65 42.1 86.2 43.3 85.8 45.2 84.15 43 85.8 40.55 84.8 40.3 83.8 40.3 79.85 40.3 75.75 42.7 73 44.35 71.75 45.8 71.45 45.15 71.45 43.05 71.45 39.35 73.6 36.95 76.3 33.9 81.9 33.9 86.85 33.9 90 36.7
M 67.95 105.4
Q 68.1 105.05 68.1 105
L 68.1 105.3
Q 68 105.35 67.95 105.4 Z"/>

<path fill="#999999" stroke="none" d="
M 97.8 34.5
Q 93.75 34.5 90 36.7 86.85 33.9 81.9 33.9 76.3 33.9 73.6 36.95 71.45 39.35 71.45 43.05 71.45 45.15 71.75 45.8 73 44.35 75.75 42.7 79.85 40.3 83.8 40.3 84.8 40.3 85.8 40.55 84.15 43 85.8 45.2 86.2 43.3 88.65 42.1 88.8 42 88.95 41.95 90.85 41.25 93 41 94 40.9 95.05 40.9 100.45 40.9 104.8 43.8 105.05 43.95 105.3 44.15 109.3 46.95 109.8 50.5 110.3 44.8 108.75 41.1 108.1 39.45 107.05 38.2 103.85 34.5 97.8 34.5 Z"/>
</g>

<g id="Duplicate_Items_Folder_7_0_Layer0_0_FILL">
<path fill="#FFFFFF" stroke="none" d="
M 235.8 86.65
Q 235.8 50.75 211.4 25.35 187.05 0 152.55 0 118.1 0 93.7 25.35 70.95 49.1 69.45 82 43.75 86.1 24.35 106.25 0 131.65 0 167.55 0 203.5 24.35 228.85 48.75 254.25 83.2 254.25 106.95 254.25 125.9 242.2 148.15 261.2 177.95 261.2 212.45 261.2 236.8 235.8 261.2 210.45 261.2 174.5 261.2 138.6 236.8 113.2 234.95 111.3 233.1 109.55 235.8 98.7 235.8 86.65 Z"/>
</g>

<g id="Duplicate_Items_Folder_8_0_Layer0_0_FILL">
<path fill="#FFFFFF" stroke="none" d="
M 64.9 42.4
Q 62.5 20.3 53.35 10.15 44.2 0 31.25 0 18.3 0 9.15 10.15 0 20.3 0 34.65 0 49.05 10.85 55.75 21.7 62.45 40.45 87.05 59.15 111.55 63.2 88.05 67.25 64.5 64.9 42.4 Z"/>
</g>

<g id="Duplicate_Items_Folder_4_0_Layer0_0_FILL">
<path fill="#999999" stroke="none" d="
M 90.3 277.4
L 90.25 277.4
Q 76.55 285.75 62.2 303.55 44.55 325.45 44.55 338.8 44.55 347.4 48.5 353.1 52.7 359.15 56.65 357.2 52.9 362.65 61.95 363.15 71 363.65 79.3 363.15
L 78.75 363.15
Q 107.85 359.3 114.3 357.95 119.35 356.95 125.2 354.85 117 352.7 112.85 347.65 110.6 344.9 109.8 341.55 109.45 340.1 109.45 338.5 109.45 334.35 109.75 333.8 110.95 332.25 112.8 328.65 106.4 337.45 97.75 340.9 91.75 343.25 83.65 343.25 64.65 343.25 64.65 326.8 64.65 317.7 70.25 305.55 77.25 290.45 90.3 277.4
M 162.05 195.5
Q 164.3 189.5 164.3 183.95 164.3 172.9 156.9 168.45 153.7 166.6 147.7 164.85 143.65 163.75 140.4 162.9 142.9 164.4 145.1 167.55 149.7 174.1 149.7 183.1 149.7 191.9 146.95 197.3 143.2 204.55 134.05 207.35 150.6 211.5 159.3 220.2 170.1 230.8 170.9 249.25 172.05 247.8 173.3 246.15 177.75 239.2 177.75 232.45 177.75 223.25 172.8 216.85 168.85 211.7 157.65 203.9 160.25 200.05 162.05 195.5 Z"/>

<path fill="#CCCCCC" stroke="none" d="
M 47.4 2.6
Q 45.05 1.5 42.8 0.7 30.35 0.15 17.85 0 12.4 1.9 8.5 5.75 0 14.25 0 30.95 0 38.35 5.7 43.7 7.9 45.75 18.1 52.1 26.5 57.35 30.15 62.5 35.45 70 34.85 81.15 33.7 104.8 54.3 127.6 59.45 133.35 68.65 142.7 75.25 150.15 75.25 154.95 75.25 157.5 66.95 167.6 58.6 180.35 58.6 196.4 58.6 223.45 71.9 245.55 73.95 249 76.3 252.35 76.5 252.5 76.6 252.75 79.6 256.8 83.2 260.85
L 83.2 260.9
Q 86 264 89.15 267.1
L 88.25 263.7
Q 86.25 262.15 84.55 260.15 81.55 256.75 79.35 251.9 79.25 251.7 79.2 251.6 77.8 248.4 76.75 244.65
L 76.45 244.05 76.55 244
Q 73.65 233.65 73.65 220.75 73.65 195.35 89.65 169.85 97.85 156.8 107.25 147.65 71.45 135.35 58.55 107.45 51.35 91.75 51.35 67.15 51.35 64.7 52.5 63.75 53.55 62.9 56.35 62.9 66.7 62.9 70.6 74.45 72.55 80.15 72.55 87.15 75.1 85.15 76.25 77.15 76.45 76 76.6 74.95 76.6 74.85 76.6 74.8 77 71.55 77 68.9 77 60.65 67.55 54.15 63.55 51.45 59.1 49.95 57.5 50.25 55.9 50.6
L 55.35 48.9
Q 50.3 47.8 44.65 48.15 47.35 46.15 52.25 44 55.8 41.65 55.8 36.05 55.8 33.7 52.6 32.5 48.25 31.2 45.75 30.4 35.65 27.3 35.65 18.2 35.65 10.9 42.9 5.3 45.05 3.6 47.4 2.6 Z"/>

<path fill="#FFFFFF" stroke="none" d="
M 195.9 147.75
Q 197.95 140.2 197.95 135.1 197.95 89.6 163.1 67.1 140.35 52.4 105.45 48.9 90.8 32.5 72.6 18.5 58.5 7.65 47.4 2.6 45.05 3.6 42.9 5.3 35.65 10.9 35.65 18.2 35.65 27.3 45.75 30.4 48.25 31.2 52.6 32.5 55.8 33.7 55.8 36.05 55.8 41.65 52.25 44 47.35 46.15 44.65 48.15 50.3 47.8 55.35 48.9
L 55.9 50.6
Q 57.5 50.25 59.1 49.95 63.55 51.45 67.55 54.15 77 60.65 77 68.9 77 71.55 76.6 74.8 76.6 74.85 76.6 74.95 76.45 76 76.25 77.15 75.1 85.15 72.55 87.15 72.55 80.15 70.6 74.45 66.7 62.9 56.35 62.9 53.55 62.9 52.5 63.75 51.35 64.7 51.35 67.15 51.35 91.75 58.55 107.45 71.45 135.35 107.25 147.65 97.85 156.8 89.65 169.85 73.65 195.35 73.65 220.75 73.65 233.65 76.55 244
L 76.45 244.05 76.75 244.65
Q 77.8 248.4 79.2 251.6 79.25 251.7 79.35 251.9 81.55 256.75 84.55 260.15 86.25 262.15 88.25 263.7
L 89.15 267.1
Q 96.2 274 96.3 274.1 93.3 275.5 90.3 277.35
L 90.25 277.4 90.3 277.4
Q 77.25 290.45 70.25 305.55 64.65 317.7 64.65 326.8 64.65 343.25 83.65 343.25 91.75 343.25 97.75 340.9 106.4 337.45 112.8 328.65 110.95 332.25 109.75 333.8 109.45 334.35 109.45 338.5 109.45 340.1 109.8 341.55 110.6 344.9 112.85 347.65 117 352.7 125.2 354.85 138.05 350.05 154.75 339.85 162.95 334.85 169.9 329.1 170.05 328.95 170.15 328.85 176.2 323.75 181.3 318.1 192.5 305.65 192.4 297.85 192.25 289.3 196.15 283.15 197 281.75 204.8 272.95 210.75 266.25 213.55 258.8 217.55 248.25 217.55 232.1 217.55 230.55 216.65 228.4 216.25 227.3 215.85 226.4 226.5 219.2 230.15 210.7 233.75 202.2 231.55 189.9 229.35 177.55 218.15 170.3 206.95 163 199.25 159.2 193.8 156.55 193.8 155.5 193.8 155.3 195.9 147.75
M 164.3 183.95
Q 164.3 189.5 162.05 195.5 160.25 200.05 157.65 203.9 168.85 211.7 172.8 216.85 177.75 223.25 177.75 232.45 177.75 239.2 173.3 246.15 172.05 247.8 170.9 249.25 170.1 230.8 159.3 220.2 150.6 211.5 134.05 207.35 143.2 204.55 146.95 197.3 149.7 191.9 149.7 183.1 149.7 174.1 145.1 167.55 142.9 164.4 140.4 162.9 143.65 163.75 147.7 164.85 153.7 166.6 156.9 168.45 164.3 172.9 164.3 183.95 Z"/>
</g>

<g id="symbols_transform_dancer_sport_4_Layer3_0_FILL">
<path fill="#774716" stroke="none" d="
M 458.95 466.75
Q 464.15 466.7 469.2 465.7 491.6 461.35 511.15 438.1 460 453.85 372.35 416.1 381.35 425.6 389.85 433.4 428.3 468.25 458.95 466.75
M 409.15 481.7
Q 423.3 485.25 436.6 481.65 415.95 476.4 395.4 460.45 391.1 468.55 388.6 472.95 390.15 473.85 391.7 474.7 391.9 473.8 392.2 472.95 401.1 478.5 409.15 481.7
M 363.95 311.75
Q 362.7 311 359.45 310.25 348.55 308.9 339.45 307.75 330.4 306.6 326.6 305.9 318.35 304.35 310.05 302.35 309.7 302.2 294.65 298.55 279.65 294.85 283.5 295 284.25 295 285.1 295.15 254.85 283.55 238.35 271.45 230.8 284.4 253.55 296.45 263.1 301.5 278.65 306.7 287.1 309.5 299.35 313.2 306.2 315.55 308.4 316 299.9 315.85 297.4 320.3 296.45 321.95 296.45 327.3 296.45 333.85 306 338.3 311.45 340.8 320.3 342.8 325.8 345.1 332.95 347.5
L 333 347.55
Q 345.05 351.55 381.8 349.9 383.1 349.5 385.25 349.05 395.35 346.7 408.95 344.05 411.35 343.6 413.95 343.1
L 438.5 343.1
Q 463 340.2 480.3 334.85 496.85 329.7 496.85 325.55 496.85 325.3 496.85 325.15 520.2 314.8 535.4 296.05 535.45 295.9 535.55 295.8 535.6 295.75 535.65 295.7 537.85 292.9 539.9 289.95 542.25 286.55 544.25 283.1 541.55 285.6 538.45 288.15 535.8 290.25 532.85 292.45 532.55 292.65 532.2 292.9 532.1 293 531.95 293.1 493.05 321.05 414.5 335.55
L 410.2 336.35 407.75 336.8 407.5 336.8 377.8 336.8
Q 364.15 337.1 352.7 332.9 341.2 328.7 338.35 324.7 335.7 320.85 333.25 317.95 342.45 318.75 363.1 317.8
L 412.6 317.8
Q 414.4 317.4 438.95 314.6 462.65 311.1 462.65 306.75 462.65 305.05 462.4 304.85 462.1 304.7 462.1 304.6 459.75 304 460.35 304.3 460.95 304.6 450.25 307.95 442.9 310.25 428.55 311.2 422 311.6 414 311.75
L 376.9 311.75 363.95 311.75
M 341.3 332.55
Q 340.05 332.15 338.95 331.8
L 338.75 331.3
Q 339.9 331.95 341.3 332.55
M 308.55 315.35
L 309.95 316.05
Q 309.7 316.05 309.4 316.05 309.4 315.95 309.3 315.85
L 308.55 315.35
M 382.3 79
L 382.35 78.95 381.75 76.15 382.3 79 Z"/>

<path fill="#9C9C9C" stroke="none" d="
M 463.6 483.8
L 469.2 465.7
Q 464.15 466.7 458.95 466.75 428.3 468.25 389.85 433.4
L 395.4 460.45
Q 415.95 476.4 436.6 481.65 450.05 484.9 463.6 483.8 Z"/>

<path fill="#1E1E1E" stroke="none" d="
M 441.65 483.4
Q 427.8 489.05 409.15 481.7 401.1 478.5 392.2 472.95 391.9 473.8 391.7 474.7 391.6 475 391.55 475.25 388.6 485.5 381.3 488 375.55 489.9 378.25 498.95 379.8 504.25 384.35 511.9 389.7 520.95 396.25 528.7 402.5 516.95 410.7 512.35 415.5 509.6 426.05 508.05 436.4 506.3 442.6 503.15 452.75 498 463.6 485.25 453.1 486.8 441.65 483.4 Z"/>

<path fill="#653B10" stroke="none" d="
M 511.15 438.1
L 507.6 420.15
Q 495.8 422.7 481.3 423.65 478.75 423.45 476.2 423.15 475.3 423.35 474.45 423.5 463.45 425.5 450.95 426.1 398.5 420.05 364.75 397.7
L 372.35 416.1
Q 460 453.85 511.15 438.1
M 378.75 246.7
Q 379.45 246.9 380.15 247.1 436.9 264.1 493.9 250.75 525.15 243.45 554.1 227.75 554.45 227.55 554.8 227.35
L 548.5 211.25
Q 543.8 214.05 538.55 216.75 487.7 242.6 411.25 242.15 395.55 242.05 380.75 240.85 367.15 239.75 354.2 237.75 366.4 242.9 378.75 246.7 Z"/>

<path fill="#333333" stroke="none" d="
M 317.6 130.95
L 315.85 122.85
Q 315.4 122.7 315.05 122.6 309.2 124.95 303.9 127.7 289.8 135.05 281.95 144.1 274.3 152.75 273.55 161.85 276.1 167.8 280.95 173.25 285.45 178.35 291.95 183.05 293.85 178.35 296.4 165.05 297.1 161.25 299.15 156.85 304.3 145.8 317.6 130.95
M 327.65 361.85
Q 340.6 379.2 356.3 391.6 360.35 394.75 364.75 397.7 398.5 420.05 450.95 426.1 463.45 425.5 474.45 423.5 475.3 423.35 476.2 423.15 491.05 420.2 503.55 414.5 531.4 398.5 539.75 385.05 543.75 378.55 543 372.8 542.2 366.15 535.35 362.5 530.9 360.15 527.25 360.15 525.85 360.15 524.6 360.5 523.65 360.55 522.8 360.9 521 361.4 519.8 362.75 522.05 366.55 516.4 374.1 510.6 379.5 502.6 382.25 498.85 383.4 495.15 384.5 406.15 410.05 327.65 361.85
M 522.3 144.6
Q 512.7 133.6 502.8 126.9 491.4 119.05 476.85 114.7 457.3 108.75 426.5 107.85
L 426.25 109.8
Q 457.1 113.9 470.9 129.2 472.6 131.05 474.25 132.85 477.55 136.45 480.6 139.7 483.2 142.4 485.55 144.85 495.35 154.8 501.75 159.55 510 165.7 518.15 175.25 526.35 164 524.05 150.9 523.45 147.65 522.3 144.6 Z"/>

<path fill="#FFFFFF" stroke="none" d="
M 294.1 84.75
L 296.8 92.05 294.25 84.75 294.25 84.7
Q 294.1 84.7 294.1 84.75
M 382.7 92.15
L 382.75 92.45
Q 384.25 92.4 385.8 92.4 384.2 92.25 382.7 92.15
M 381.15 72
Q 381.1 72 381 72.05
L 381.9 75.9 381.15 72 Z"/>

<path fill="#6B8BC9" stroke="none" d="
M 532.2 292.9
Q 532.55 292.65 532.85 292.45 535.8 290.25 538.45 288.15
L 532.2 292.9
M 557.65 234.55
L 554.8 227.35
Q 554.45 227.55 554.1 227.75
L 557.65 234.55
M 387.9 349.6
Q 386.55 349.3 385.25 349.05 383.1 349.5 381.8 349.9
L 390.05 350.05
Q 392.95 349.7 396.7 349.25 396.7 349.2 396.75 349.25 398.1 349.05 399.55 348.85 393.45 349.3 387.9 349.6
M 338.95 331.8
Q 340.05 332.15 341.3 332.55 339.9 331.95 338.75 331.3
L 338.95 331.8
M 376.9 311.75
L 376.9 311
Q 368.2 310.9 359.45 310.25 362.7 311 363.95 311.75
L 376.9 311.75 Z"/>

<path fill="#95B0E4" stroke="none" d="
M 407.75 336.8
L 410.2 336.35
Q 408.85 336.55 407.5 336.8
L 407.75 336.8
M 397.05 351.4
L 396.7 349.25
Q 392.95 349.7 390.05 350.05 393.4 350.7 397.05 351.4
M 473.3 197.35
Q 471.65 196.45 469.95 195.7 447.35 185.5 405.8 186.3 368.2 186.8 345.85 202.1
L 345.75 206.05
Q 373.15 212.65 405.5 212.65 424.9 212.55 441.9 210.15
L 434.05 210.15
Q 432.05 209.65 431.9 209.55 431.05 208.95 431.05 207 431.05 205.1 432.1 204.65 432.7 204.4 434.05 204.3 457.55 203.2 468.65 199.35 471.25 198.45 473.3 197.35
M 333 119.85
L 327.1 119.85 315.85 122.85 317.6 130.95
Q 323.4 124.45 333 119.85
M 384.95 108.8
Q 389.05 108.55 393.45 108.4 410.85 107.9 424.8 109.6 425.5 109.7 426.25 109.8
L 426.5 107.85
Q 409.15 107.35 388.2 108.45 386.55 108.55 384.9 108.65 380.7 108.9 376.6 109.25 360.5 110.6 346.5 113.4
L 351.45 113.4
Q 362.65 110.65 376.85 109.4 380.75 109 384.95 108.8 Z"/>

<path fill="#38D4B1" stroke="none" d="
M 396.7 349.25
L 397.05 351.4
Q 448.75 360.95 517.4 339 526.9 335.95 536.8 332.3 570.05 317.15 585.05 297.35 597.7 280.55 595.35 263.55 593.2 248.7 581.3 239.8 569.6 231.15 557.65 234.55 570.7 258.3 544.25 283.1 542.25 286.55 539.9 289.95 537.85 292.9 535.65 295.7 535.6 295.75 535.55 295.8 535.45 295.9 535.4 296.05 520.2 314.8 496.85 325.15 496.85 325.3 496.85 325.55 496.85 329.7 480.3 334.85 463 340.2 438.5 343.1
L 413.95 343.1
Q 411.35 343.6 408.95 344.05 395.35 346.7 385.25 349.05 386.55 349.3 387.9 349.6 393.45 349.3 399.55 348.85 398.1 349.05 396.75 349.25 396.7 349.2 396.7 349.25
M 326.6 305.9
Q 330.4 306.6 339.45 307.75 348.55 308.9 359.45 310.25 368.2 310.9 376.9 311 402.95 311.3 428.2 306.75 486.15 296.25 537.8 260.5 265.35 294.05 230.5 216.2 218.3 229.05 218.3 241.2 218.3 244.25 219.05 247.3 222.2 259.6 238.35 271.45 254.85 283.55 285.1 295.15 284.25 295 283.5 295 279.65 294.85 294.65 298.55 309.7 302.2 310.05 302.35 318.35 304.35 326.6 305.9
M 515.35 89.05
Q 512.65 87.95 509.75 86.85 492.45 80.15 473.85 75.65 457.85 73.45 442.95 73.05 441.55 73 440.15 72.95 410.35 70.8 382.55 72 381.85 72 381.2 72.05
L 381.15 72 381.9 75.9 382.55 78.9
Q 412.6 80.45 438.2 87.85 476.75 98.95 505.15 123.3 505.3 123.45 505.5 123.55 505.55 123.65 505.65 123.7 510.8 127.65 514.6 132 519.7 137.95 522.3 144.6 523.45 147.65 524.05 150.9 526.35 164 518.15 175.25 514.2 180.6 507.8 185.6 502.05 190 494.45 194.05 493.75 194.35 493.1 194.7 487.65 197.5 481.75 199.9 481.55 200 481.35 200.15
L 441.9 210.15
Q 424.9 212.55 405.5 212.65 373.15 212.65 345.75 206.05 343.8 205.6 341.9 205.1 329.5 201.75 318.2 197.1 316.4 196.35 314.7 195.6 311.1 194 307.9 192.45 298.75 187.9 291.95 183.05 285.45 178.35 280.95 173.25 276.1 167.8 273.55 161.85 272.05 158.3 271.3 154.55 266.5 130.35 298.4 112.25 323.8 97.9 360.95 93.9 371.35 92.75 382.75 92.45
L 382.7 92.15
Q 370.7 91.25 359.35 90.95 325.9 90.1 297.75 94.55
L 382.3 79 381.75 76.15 381.65 75.5
Q 381.55 75.05 381.5 74.6
L 381 72.05
Q 367.55 72.6 354.4 73.95 352.75 74.1 351.1 74.3 324.95 77.2 300.65 83.15 297.4 83.85 294.25 84.7
L 294.25 84.75 296.8 92.05 294.1 84.75
Q 291.35 85.45 288.6 86.25 269.8 91.5 255.9 98.3 238.45 106.7 232.65 115.25 218.85 130.35 218.85 147.7 218.85 152.3 219.85 157.2 221.5 165.5 225.9 173.3 239.85 197.85 281.5 216.55 302.5 226 326.1 232 339.7 235.45 354.2 237.75 367.15 239.75 380.75 240.85 395.55 242.05 411.25 242.15 487.7 242.6 538.55 216.75 543.8 214.05 548.5 211.25 590.1 186.3 584.1 152.4 577.3 114.4 515.35 89.05 Z"/>

<path fill="#833E77" stroke="none" d="
M 333 347.55
L 327.65 361.55
Q 415.15 403.25 495.15 384.5 498.85 383.4 502.6 382.25 510.6 379.5 516.4 374.1 522.05 366.55 519.8 362.75 521 361.4 522.8 360.9
L 517.4 339
Q 448.75 360.95 397.05 351.4 393.4 350.7 390.05 350.05
L 381.8 349.9
Q 345.05 351.55 333 347.55
M 380.15 247.1
Q 379.45 246.9 378.75 246.7 366.4 242.9 354.2 237.75 339.7 235.45 326.1 232 302.5 226 281.5 216.55 239.85 197.85 225.9 173.3
L 230.5 216.2
Q 265.35 294.05 537.8 260.5 486.15 296.25 428.2 306.75
L 428.55 311.2
Q 442.9 310.25 450.25 307.95 460.95 304.6 460.35 304.3 459.75 304 462.1 304.6 462.1 304.7 462.4 304.85 462.65 305.05 462.65 306.75 462.65 311.1 438.95 314.6 414.4 317.4 412.6 317.8
L 363.1 317.8
Q 342.45 318.75 333.25 317.95 335.7 320.85 338.35 324.7 341.2 328.7 352.7 332.9 364.15 337.1 377.8 336.8
L 407.5 336.8
Q 408.85 336.55 410.2 336.35
L 414.5 335.55
Q 493.05 321.05 531.95 293.1 532.1 293 532.2 292.9
L 538.45 288.15
Q 541.55 285.6 544.25 283.1 570.7 258.3 557.65 234.55
L 554.1 227.75
Q 525.15 243.45 493.9 250.75 436.9 264.1 380.15 247.1
M 493.1 194.7
Q 493.75 194.35 494.45 194.05 502.05 190 507.8 185.6 505.5 183.5 503.15 181.7 492.9 173.7 473.2 174.9 453.5 176 404.1 174.05 354.7 172.05 334.6 178.45 314.5 184.85 307.9 192.45 311.1 194 314.7 195.6 316.4 196.35 318.2 197.1 329.5 201.75 341.9 205.1 343.75 203.55 345.85 202.1 368.2 186.8 405.8 186.3 447.35 185.5 469.95 195.7 471.65 196.45 473.3 197.35 471.25 198.45 468.65 199.35 457.55 203.2 434.05 204.3 432.7 204.4 432.1 204.65 431.05 205.1 431.05 207 431.05 208.95 431.9 209.55 432.05 209.65 434.05 210.15
L 441.9 210.15 481.35 200.15
Q 481.55 200 481.75 199.9 487.65 197.5 493.1 194.7
M 522.3 144.6
Q 519.7 137.95 514.6 132 510.8 127.65 505.65 123.7 505.55 123.65 505.5 123.55 505.3 123.45 505.15 123.3 476.75 98.95 438.2 87.85 412.6 80.45 382.55 78.9
L 382.5 78.95 382.35 78.95 382.3 79 297.75 94.55
Q 325.9 90.1 359.35 90.95 370.7 91.25 382.7 92.15 384.2 92.25 385.8 92.4 384.25 92.4 382.75 92.45 371.35 92.75 360.95 93.9 323.8 97.9 298.4 112.25 266.5 130.35 271.3 154.55 272.05 158.3 273.55 161.85 274.3 152.75 281.95 144.1 289.8 135.05 303.9 127.7 309.2 124.95 315.05 122.6 313.85 122.2 313.75 122.1 313 121.5 313 119.55 313 116.7 319.3 115 322.6 114.1 327.7 113.4
L 346.5 113.4
Q 360.5 110.6 376.6 109.25 380.7 108.9 384.9 108.65 386.55 108.55 388.2 108.45 409.15 107.35 426.5 107.85 457.3 108.75 476.85 114.7 491.4 119.05 502.8 126.9 512.7 133.6 522.3 144.6 Z"/>

<path fill="#5A9C58" stroke="none" d="
M 376.9 311
L 376.9 311.75 414 311.75
Q 422 311.6 428.55 311.2
L 428.2 306.75
Q 402.95 311.3 376.9 311
M 393.45 108.4
Q 389.05 108.55 384.95 108.8 380.75 109 376.85 109.4 362.65 110.65 351.45 113.4
L 346.5 113.4 327.7 113.4
Q 322.6 114.1 319.3 115 313 116.7 313 119.55 313 121.5 313.75 122.1 313.85 122.2 315.05 122.6 315.4 122.7 315.85 122.85
L 327.1 119.85 333 119.85
Q 323.4 124.45 317.6 130.95 304.3 145.8 299.15 156.85 316.55 143.65 337.2 136.1 372.45 123.3 415.55 127.6 441.4 130.15 467.85 138.6 472.9 140.2 478 142 482 143.4 485.55 144.85 483.2 142.4 480.6 139.7 477.55 136.45 474.25 132.85 472.6 131.05 470.9 129.2 457.1 113.9 426.25 109.8 425.5 109.7 424.8 109.6 410.85 107.9 393.45 108.4 Z"/>

<path fill="#6B6B6B" stroke="none" d="
M 341.9 205.1
Q 343.8 205.6 345.75 206.05
L 345.85 202.1
Q 343.75 203.55 341.9 205.1 Z"/>

<path fill="#AAC3F5" stroke="none" d="
M 382.55 78.9
L 381.9 75.9 381 72.05 381.5 74.6
Q 381.55 75.05 381.65 75.5
L 381.75 76.15 382.35 78.95 382.5 78.95 382.55 78.9 Z"/>

<path fill="#CCCCCC" stroke="none" d="
M 507.8 185.6
Q 514.2 180.6 518.15 175.25 510 165.7 501.75 159.55 495.35 154.8 485.55 144.85 482 143.4 478 142 472.9 140.2 467.85 138.6 441.4 130.15 415.55 127.6 372.45 123.3 337.2 136.1 316.55 143.65 299.15 156.85 297.1 161.25 296.4 165.05 293.85 178.35 291.95 183.05 298.75 187.9 307.9 192.45 314.5 184.85 334.6 178.45 354.7 172.05 404.1 174.05 453.5 176 473.2 174.9 492.9 173.7 503.15 181.7 505.5 183.5 507.8 185.6 Z"/>
</g>

<g id="symbols_transform_dancer_sport_4_Layer3_1_FILL">
<path fill="#61C35E" stroke="none" d="
M 270.3 -2.1
Q 270.3 -10.9 264.55 -4.3 257.55 5.3 255.1 7.4 250.55 11.15 245.75 15.8 238.1 23.1 238.1 25.2 238.1 25.75 240.4 27.5 246.75 25.85 249.8 22 249.95 21.75 252.2 18.45 253.75 16.15 255.4 14.6
L 255.4 15
Q 252.5 19.85 252.3 20.2 250.1 24.1 250.1 25.3 250.1 25.8 250.8 26.45 251.25 26.85 252.5 27.8 256.95 22.9 263.55 11.95 270.3 0.75 270.3 -2.1 Z"/>
</g>

<g id="symbols_transform_dancer_sport_4_Layer2_0_FILL">
<path fill="#1E1E1E" stroke="none" d="
M 469.65 468.15
Q 469.65 467.6 467.35 466.3 465.05 465 463.35 462.3 462.85 461.5 462.45 460.1 462.25 459.35 462.05 458.4 461.35 458.45 461.15 458.8 460.95 459.15 460.9 459.95 460.85 460.25 460.85 460.65 460.85 464.45 463.7 467.05 464.75 468 466 468.6 467.1 469.1 467.8 469.1 468.45 469.1 468.7 469.05 468.9 469 469.25 469 469.25 468.9 469.45 468.75 469.65 468.6 469.65 468.15
M 499.25 442.75
Q 497.65 442.8 497.2 443.35 496.75 443.8 496.65 444.05 496.6 444.3 496.35 444.55 496.55 444.7 496.7 445.1 496.8 445.45 497.6 446.15 498.55 447.05 502.4 447.35 504.5 447.5 507.35 448.5 509.5 449.25 512.05 450.55 514.75 451.9 519.75 455.65 520.1 455.05 519.65 454.35 519.05 453.45 516.6 451.3 513.4 448.5 510.3 446.55 506.85 444.45 503.45 443.45 501.1 442.75 499.25 442.75 Z"/>

<path fill="#333333" stroke="none" d="
M 498.6 426.7
Q 498.6 421.45 496.75 421.4 495.35 421.35 492 424.75 487.75 429.35 485.35 431.75 481.05 435.95 477.85 437.3 458.2 445.75 443.6 449.85 437.65 451.5 432.55 452.4 431.9 452.5 431.25 452.6 424.85 453.35 423.4 453.65 421.5 453.95 421.5 455.45 421.5 456.85 422.3 457.75 423.4 459 426.15 459.55 436.35 458.95 445.7 457.1 453.35 455.6 460.45 453.25 470.4 449.95 479.3 445.05 480.5 444.35 481.7 443.7 481.85 443.6 482 443.5 487.45 440.25 491.4 436.8 492.55 435.8 493.6 434.75 498.6 429.85 498.6 426.7 Z"/>

<path fill="#5A9C58" stroke="none" d="
M 259.45 283.8
Q 253.75 279.15 253.65 284.25 253.5 289.9 254.1 291.35 254.6 292.9 254.6 293.1 256.35 294.2 257.55 295.15 258.5 295.75 261.35 295.75 263.8 295.75 265.55 292.55 266.5 290.85 267.15 290.5 265.55 289.35 261.2 285.3 260.25 284.45 259.45 283.8
M 272.1 107.75
Q 271.95 107.7 271.8 107.65 269.85 107.25 268.85 108.15
L 252.7 127.8
Q 267.8 113.2 268 113.6
L 272.1 107.75
M 527.65 242.05
Q 527.65 240.4 527.4 240.35 526.65 240.2 526.55 240.1 524.3 240.35 520.9 242.85 518.4 244.65 515.25 247.65 508.5 254.05 508.5 254.95 508.5 256.65 508.85 256.55 509.05 256.45 509.2 256.05 512.3 255.15 519.45 250.35 527.65 244.85 527.65 242.05
M 522.95 243.55
Q 521.45 245.3 519.5 245.5
L 520.5 244.65
Q 521.05 243.95 521.45 243.75 522 243.45 522.95 243.55
M 589.45 286.2
Q 587.4 288.05 587.4 289.3
L 588 292.85
Q 589.75 294.6 593.3 295.8 596.1 294.6 597.75 292.25 599.15 290.35 599.15 288.75 597.2 285.7 593.3 283.75 591.45 284.45 589.45 286.2
M 579.7 271.5
Q 576.3 270.55 573.1 269.7
L 573.05 269.7
Q 569 274.35 569 275 569 275.7 568.95 275.8
L 572.3 278.5
Q 573.45 278.75 575 278.15 576.55 277.5 578.55 274.65 579.6 273.15 579.7 271.5
M 317.35 357.05
Q 317 355.9 316.65 355.15 315.1 355.1 313.55 355.05 313.1 354.95 312.75 354.8 312.3 355.45 312.1 356.4 311.6 358.6 309.55 360.2 309.45 360.25 309.35 360.3 307.1 361.85 311.35 361.5 311.8 361.45 312.2 361.45 315.7 361.15 315.95 360.9 316.4 360.5 317 360.05
L 317.35 357.05
M 401 300.3
Q 392.45 303.95 392.45 304.75 392.45 308.1 397.3 308.85 400.15 308.15 402.95 307.4 402.95 307.35 403 307.35
L 401 300.3
M 428.2 271.05
Q 428.2 272.75 428.55 272.65 428.75 272.55 428.9 272.15
L 430.95 271.6
Q 435.9 270.45 441.6 269.2 445.2 268.25 447.2 266.65 446.25 266.15 441.9 266.75 438.85 267.15 430.3 268.7 430.2 268.8 428.85 269.2 428.2 269.4 428.2 271.05
M 339.1 116.5
Q 339.1 110.95 324.4 115.85 310.25 120.6 278.55 145.35 251.95 166.1 274.9 156.05 273.25 155.15 276.4 151.55 289.7 136.5 316.4 126.85 322.8 124.5 332.55 121.2 339.1 118.7 339.1 116.5
M 628.65 191.75
Q 627.35 191.5 626.6 191.2 625.3 192.1 623.75 194.15 622.4 195.95 622.4 196.3 622.4 198.25 623.25 198.85 623.3 198.9 625.4 199.6 629.6 197.1 629.6 194.05 629.6 192.15 628.65 191.75
M 576 175.8
L 570.6 172.55
Q 567.7 182.95 557.5 193.05 552 198.45 549.7 200.2 563.2 196.9 576 175.8
M 525.95 186
Q 521.95 193.05 517.75 196.65 512.5 201.15 506.05 208.2 497.7 217.25 495.65 219.3 482.95 231.8 464.5 238.6
L 418.75 243.85
Q 418.6 243.9 417.85 243.3 417.5 243.05 417.5 244.65 417.5 246.35 417.9 246.45 418.1 246.45 418.3 246.15
L 463.7 241.65
Q 470.25 241.1 481.6 233.5 492.75 226.05 505.1 214.2 533.9 186.45 546.45 158.7 542.3 158.65 538.65 163.05 536 166.15 532.35 173.5 527.15 183.95 525.95 186 Z"/>

<path fill="#AAC3F5" stroke="none" d="
M 200.4 175.6
Q 197.7 175.45 196 179.35
L 196.55 182.35 200.65 183.45
Q 201.95 183.15 203 182.05 204.1 180.9 204.1 179.6 204.1 177.85 203.25 176.9 201.4 177.15 199.8 178.25 196.1 180.8 200.7 176.2
L 200.4 175.6 Z"/>

<path fill="#95B0E4" stroke="none" d="
M 535.45 236.8
Q 534.65 236.25 533 236.25
L 532.85 237.9 534.35 238.35
Q 535.35 237.65 535.45 236.8
M 394 390.55
Q 389.35 390.85 388.35 390.9 387.05 391 387.05 391.85 387.05 393.2 387.45 392.6
L 406.75 390.55
Q 407.45 390.5 408.15 390.45
L 408 388.95 394 390.55 Z"/>

<path fill="#73BE71" stroke="none" d="
M 467.85 351.15
Q 458.55 357.2 454.2 361.1 454.1 361.15 454.05 361.25 455 361.4 456 361.55 456.25 361.7 456.45 362.05 456.65 361.9 456.9 361.75 457.45 361.4 458 361.1 471.7 352.45 482.2 352.45 487.75 352.45 490 352.2 492.55 351.9 492.55 351.15 492.55 350.3 492.35 350.35
L 492.1 350.55
Q 480.05 343.25 467.85 351.15
M 390.9 382.25
Q 389.009765625 382.5892578125 387.05 382.9 387.2611328125 382.9 387.45 382.9 412.05 380.1 422.1 379.5 430.4 379 428.85 380 419.1 386.25 408 388.95
L 408.15 390.45
Q 424.25 388.9 442.9 372.5 441.3 373.15 421.9 376.7 421.75 376.75 421.6 376.75 409.6 378.95 390.9 382.25 Z"/>

<path fill="#774716" stroke="none" d="
M 351.25 351.5
Q 341.6 347.9 329.1 347.9 316.8 347.9 312.7 348.9 310.45 349.4 310.3 350.6 307.25 349.15 306 348.65 280.15 337.4 280.15 345.85 280.15 347.05 293.6 353.15 300.45 356.25 308.3 359.6 308.5 359.7 309.55 360.2 311.6 358.6 312.1 356.4 312.3 355.45 312.75 354.8 313.1 354.95 313.55 355.05 315.1 355.1 316.65 355.15 317 355.9 317.35 357.05
L 317 360.05
Q 316.4 360.5 315.95 360.9 315.7 361.15 312.2 361.45 315.9 363.2 323.15 366.6 337.75 373.1 342.15 373.1 350.7 373.1 353.45 371.5 355.05 370.55 355.05 368.15 355.05 368.05 355.05 367.95
L 342.3 364.7
Q 338.25 363.6 326.75 358.25 323.3 356.65 320.4 355.3 339.5 356.1 352.15 359.1 354.6 359.7 357.1 360.45 357.3 360.5 357.55 360.6 364.5 362.75 372 366.4 382.85 371.7 389.3 373.4 390.85 373.8 392.5 374.15 403.65 376.5 420.25 376.5 421.85 376.5 421.9 376.7 441.3 373.15 442.9 372.5 445.4 371.5 447.75 370.3 448.35 370 448.9 369.7 430.4 371 418.05 371 399.35 371 386.05 367.4 377 364.95 367 359.45 355.3 353.05 351.25 351.5 Z"/>

<path fill="#833E77" stroke="none" d="
M 328.55 296.9
L 328.95 293.6
Q 326.75 290.15 323.85 290.5 320.95 290.8 312.25 294.9 303.5 299 286.4 288.3 269.25 277.6 264.15 273.45 258.3 268.7 256.6 267.6 252.05 262.5 243.75 248.3 241.6 244.7 240.9 244.85 240 245 240 250.15 240 252.95 243.4 259.8 247.65 268.2 254.05 275.45 257.3 279.15 260.85 282.2 277.4 296.5 299.4 296.5 312.85 296.5 325.5 298 327.1 298 327.7 297.45 328.25 296.9 328.55 296.9
M 442.8 282.7
Q 437.8 285.55 433.05 287.4 408.85 297 401 300.3
L 403 307.35
Q 426.25 300.9 445.1 290.55 445.9 290.1 446.7 289.7 446.8 289.6 446.9 289.55 463.75 280.05 471.8 270.35 484.4 255.25 498.1 240.3 504.45 233.3 512.85 226.8 521.25 220.25 531.6 214.2 527.65 215.6 524.35 216.75 518 221.65 512.3 226.15 503.65 232.85 496.55 238.55 473.65 256.75 466.3 264.2 460.35 270.3 452.9 275.9 447.75 279.8 442.8 282.7 Z"/>

<path fill="#38D4B1" stroke="none" d="
M 570.6 172.55
L 576 175.8
Q 579.55 169.9 583.05 162.6 583.55 161.35 585.95 157.95 588.35 154.6 588.85 153.3 592.15 145.25 587.7 145.7 583.5 146.15 578.95 152.8 578.15 154.1 575.65 158.35 573.45 162.15 570.6 172.55 Z"/>
</g>

<g id="symbols_transform_dancer_sport_4_Layer1_0_FILL">
<path fill="#754F34" stroke="none" d="
M 468.2 386.9
Q 466.5 388.1 464.55 388.7 459 390.3 440.4 391.7 448.6 395.9 457.5 399.1 463.05 397.8 467.45 395.75 474.05 392.6 476.75 388.35 475.05 386.3 472.2 385.25 469.75 385.8 468.2 386.9 Z"/>

<path fill="#38D4B1" stroke="none" d="
M 341.85 342.15
Q 337.3 337.6 332.3 335.5 324.6 332.3 318.55 336.6
L 319 339.05
Q 325.4 341.95 339.7 348.8 346 351.75 351.3 354 350.95 354 350.6 354.05 345.3 354.7 343.3 359.1 350.6 368.15 367.4 369.65 370.7 369.9 380.6 370.15 388.15 370.3 391.6 371.05 389.75 372.6 389.3 374.55 388.95 376 389.3 378.05
L 390.15 378.5
Q 391.5 378.9 394.05 378.9 395 378.9 399.75 378.4 405.7 377.7 417.75 377.25 421.05 375 422.3 372.5 420.7 370.85 414.8 369.4 409.45 368.05 403.75 367.55 405.2 365.45 404.95 364.1 404.65 362.6 402.1 359.9
L 391.6 359.9
Q 386.05 360.3 378.3 358.9 378.15 358.05 377.8 358 376.3 357.8 376.1 357.65 405.55 356.45 412.95 353.65 415.5 352.65 415.65 351.4 415.3 350.05 415.3 349.6 415.3 348.65 414.5 347.75
L 410.75 344.25 363.75 343.8
Q 355.2 342.6 341.85 342.15 Z"/>

<path fill="#7C563A" stroke="none" d="
M 507.95 186.75
Q 517 178.4 517 172.4 517 167.2 516.55 166.25 514.95 162.95 508.3 165.2 510.7 172.25 503.75 180.3 502.1 182.2 500.1 184.05 493.9 189.6 483.95 194.9 473.25 200.55 460.45 204.75 457.6 205.65 454.7 206.5 437.85 211.35 421.7 212.65
L 347.65 213.05
Q 345.65 213.1 344.8 213.4 343.3 213.95 343.3 216.55 343.3 219.15 343.55 219.25 343.65 219.3 343.75 218.85 350.6 225.7 359.8 226.95 361.85 227.2 374.9 227.3 375.05 229.8 375.8 230.7 376.4 231.45 377.75 232.05
L 357.65 231.65
Q 371.35 235.35 375.3 236.75
L 383.5 236.9
Q 383.55 236.4 383.55 235.75 383.55 234 382.95 233.25 390.45 234.2 418.1 236.35 420.55 236.55 423.15 236.75
L 444.15 236.75
Q 446.9 236.2 447.05 236.1 448.5 235.3 448.5 232.65 448.5 230.05 447.2 229.45 445.3 229.15 444.15 228.75 429.6 228.6 422.75 228.35
L 418.8 228.1
Q 419.2 227.95 419.6 227.8 419.7 227.75 419.8 227.7 424.05 226 431.55 224.15 435.9 223.05 444.35 221.1
L 463.55 220.9
Q 466.15 219.7 470.05 218 474.55 216.1 480.85 213.55 490.35 209.5 492.45 206.65 490.65 204.5 488.1 203.55 494.35 198.1 504.55 189.6 506.2 188.2 507.95 186.75
M 464.6 211.85
Q 463.7 212.05 462.55 212.25 462.55 212.1 462.55 212 462.55 211.8 462.55 211.65
L 465.2 211 467.05 211
Q 465.6 211.6 464.6 211.85 Z"/>
</g>

<path id="grid_0_Layer0_0_1_STROKES" stroke="#444444" stroke-width="1" stroke-linejoin="round" stroke-linecap="round" fill="none" d="
M 527 31
L 558 31 558 0 527 0 527 31 527 62 558 62 558 31
M 527 0
L 496 0 496 31 527 31
M 496 62
L 496 93 527 93 527 62 496 62 496 31 465 31 465 62 496 62 Z
M 558 93
L 527 93 527 124 558 124 558 93 558 62
M 496 155
L 496 186 527 186 527 155 496 155 496 124 465 124 465 155 496 155 Z
M 527 124
L 527 155 558 155 558 124
M 527 186
L 558 186 558 155
M 527 124
L 496 124 496 93 465 93 465 124 434 124 434 155 465 155 465 186 496 186 496 217 527 217 527 186
M 465 31
L 465 0 434 0 434 31 465 31 Z
M 434 62
L 434 93 465 93 465 62 434 62 434 31 403 31 403 62 434 62 Z
M 372 31
L 372 0 341 0 341 31 372 31 403 31 403 0 372 0
M 341 62
L 341 93 372 93 372 62 341 62 341 31 310 31 310 62 341 62 Z
M 372 93
L 403 93 403 62 372 62 372 31
M 403 124
L 372 124 372 155 403 155 403 124 403 93 434 93 434 124 403 124 Z
M 341 155
L 341 186 372 186 372 155 341 155 341 124 310 124 310 155 341 155 Z
M 403 186
L 372 186 372 217 403 217 403 186 403 155 434 155 434 186 465 186 465 217 496 217 496 248 527 248 527 217 558 217 558 186
M 341 93
L 341 124 372 124 372 93
M 403 217
L 434 217 434 186 403 186
M 403 0
L 434 0
M 434 248
L 434 279 465 279 465 248 434 248 434 217 465 217 465 248 496 248 496 279 527 279 527 248 558 248 558 217
M 341 248
L 341 279 372 279 372 248 341 248 341 217 310 217 310 248 341 248 Z
M 434 248
L 403 248 403 279 434 279 434 310 465 310 465 279 496 279 496 310 527 310 527 279 558 279 558 248
M 403 279
L 372 279 372 310 403 310 403 279 Z
M 403 248
L 372 248 372 217 341 217 341 186 310 186 310 217 279 217 279 248 310 248 310 279 341 279 341 310 372 310 372 341 403 341 403 310 434 310 434 341 465 341 465 310 496 310 496 341 527 341 527 310 558 310 558 279
M 403 217
L 403 248
M 341 310
L 341 341 372 341 372 372 403 372 403 341 434 341 434 372 465 372 465 341 496 341 496 372 527 372 527 341 558 341 558 310
M 341 341
L 341 372 372 372 372 403 403 403 403 372 434 372 434 403 465 403 465 372 496 372 496 403 527 403 527 372 558 372 558 341
M 465 0
L 496 0
M 341 0
L 310 0 310 31 279 31 279 62 310 62 310 93 341 93
M 279 0
L 248 0 248 31 279 31 279 0 310 0
M 248 31
L 248 62 279 62 279 93 310 93 310 124 279 124 279 155 310 155 310 186 279 186 279 217 248 217 248 248 279 248 279 279 310 279 310 310 341 310
M 248 62
L 248 93 279 93 279 124 248 124 248 155 279 155 279 186 248 186 248 217 217 217 217 248 248 248 248 279 279 279 279 310 310 310 310 341 341 341
M 248 0
L 217 0 217 31 248 31
M 186 31
L 186 0 155 0 155 31 186 31 217 31 217 62 248 62
M 186 93
L 186 62 155 62 155 93 186 93 217 93 217 62 186 62 186 31
M 186 0
L 217 0
M 186 186
L 186 155 155 155 155 186 186 186 217 186 217 155 186 155 186 124 155 124 155 155 124 155 124 186 155 186 155 217 186 217 186 186 Z
M 217 155
L 217 124 186 124 186 93
M 248 155
L 248 186 217 186 217 217 186 217 186 248 217 248 217 279 248 279 248 310 279 310 279 341 310 341 310 372 341 372 341 403 372 403
M 217 124
L 248 124 248 93 217 93 217 124 Z
M 248 155
L 217 155
M 155 0
L 124 0 124 31 155 31 155 62 124 62 124 93 155 93 155 124 124 124 124 155 93 155 93 186 124 186 124 217 155 217 155 248 186 248 186 279 217 279 217 310 248 310 248 341 279 341 279 372 310 372 310 403 341 403
M 93 31
L 93 0 62 0 62 31 93 31 124 31 124 62 93 62 93 93 124 93 124 124 93 124 93 155 62 155 62 186 93 186 93 217 124 217 124 248 155 248 155 279 186 279 186 310 217 310 217 341 248 341 248 372 279 372 279 403 310 403
M 62 31
L 62 62 93 62 93 31
M 93 0
L 124 0
M 279 403
L 248 403 217 403 186 403 155 403 124 403 93 403 62 403 31 403 0 403 0 372 0 341 0 310 0 279 0 248 0 217 0 186 0 155 0 124 0 93 0 62 0 31 0 0 31 0 62 0
M 0 62
L 31 62 31 31 0 31
M 31 0
L 31 31 62 31
M 0 93
L 31 93 31 62 62 62 62 93 93 93 93 124 62 124 62 155 31 155 31 186 62 186 62 217 93 217 93 248 124 248 124 279 155 279 155 310 186 310 186 341 217 341 217 372 248 372 248 403
M 62 93
L 31 93 31 124 62 124 62 93 Z
M 0 124
L 31 124 31 155 0 155
M 0 217
L 31 217 31 186 0 186
M 93 279
L 93 248 62 248 62 279 93 279 124 279 124 310 155 310 155 341 186 341 186 372 217 372 217 403
M 0 279
L 31 279 31 248 0 248
M 62 217
L 31 217 31 248 62 248 62 217 Z
M 62 279
L 31 279 31 310 62 310 62 279 Z
M 62 310
L 62 341 93 341 93 310 62 310 Z
M 0 372
L 31 372 31 341 0 341
M 0 310
L 31 310 31 341 62 341 62 372 93 372 93 341 124 341 124 310 93 310 93 279
M 62 403
L 62 372 31 372 31 403
M 155 341
L 124 341 124 372 155 372 155 341 Z
M 124 403
L 124 372 93 372 93 403
M 155 372
L 186 372 186 403
M 558 372
L 558 403 527 403
M 434 403
L 403 403
M 496 403
L 465 403
M 155 372
L 155 403"/>

<path id="Layer3_0_1_STROKES" stroke="#00CCCC" stroke-width="1" stroke-linejoin="round" stroke-linecap="round" fill="none" d="
M 87.5 34.35
Q 92.5 30.35 94.6 28.1 95.45 27.25 95.75 26.5 95.75 26 96 25.6 96.35 25.25 97 25.25 98.35 25.25 100.2 25.6 100.65 25.7 103.35 26.35 104.15 26.65 104.35 26.85 104.6 27.25 104.6 28 104.6 30 104.6 30.1 104.5 31.35 104.1 32.25 103.95 32.6 103.45 33.4 102.95 34.15 102.75 34.6 102.5 35.35 102.25 36.85 101.9 37.95 100.85 38.75 99.75 39.35 99.1 39.75
L 97.75 40.25
Q 97.59375 40.2947265625 97.425 40.325 98.4029296875 40.385546875 99.1 40.6 100.25 41 101.25 41.75 102 42.1 102.35 42.85 102.6 43.35 102.6 44.75 102.6 46.1 102.35 46.75
L 101.6 48
Q 101.55 48.2 101.5 48.6 101.4 48.95 101.25 49.1 101 49.45 99.85 50 99.3 50.2 98.7 50.75 98.05 51.35 97.75 51.6 96.95 52.25 95.6 52.85 94.65 53.5 93.6 53.5 92.7 53.1 92.35 53.35 92 53.5 91.75 54.1 91.45 54.8 91.25 55 90.7 55.5 89.5 55.5 87.5 55.35 83.5 55.35
M 97.425 40.325
Q 96.4171875 40.527734375 94.8 40.4 94.7677734375 40.3978515625 94.725 40.4
L 94.675 40.4
Q 92.6259765625 40.2529296875 91.85 40.35
M 94.8 40.4
Q 95.1376953125 40.3705078125 95.5 40.35 96.566796875 40.28046875 97.425 40.325"/>

<path id="Layer2_0_1_STROKES" stroke="#00CCCC" stroke-width="1" stroke-linejoin="round" stroke-linecap="round" fill="none" d="
M 72.15 50.35
Q 70.45 50.65 69.4 50 68 48.9 67.75 48.75 67.1 48.25 65.15 47.7 64.4 47.55 63.55 47.15
L 63.15 47.35
Q 61.65 48.25 62 49.25 60.95 49.05 59.65 50.35 58.1 51.9 57.65 52.1 57.35 52.25 56.3 52.45 55.5 52.65 55.15 53 55.2 52.7 55.15 49.55 55.15 47.45 55.75 46.25 56.9 44.7 58.4 44.35 60.4 43.9 61.5 45.25 61.9 45.6 62.65 46.6 63 46.95 63.55 47.15 64.55 46.6 65 46 65.25 45.5 65.5 44.5 65.75 44.1 66.65 43.5 66.9 43.25 67.25 42.35 67.45 41.9 68 40.95 68.55 40.05 68.75 39.5 69 38.65 69.25 35.75
L 69.25 30.35
Q 69.25 28.75 69 28 68.75 27.35 68.15 26.5 67.75 25.9 67 25.5 66.35 25.15 64.5 25.35 63.35 25.65 62.9 26 62.65 26.3 62.45 26.9 62.15 27.8 62.15 27.85 61.5 29.15 60.15 30.5 58.35 32.5 55.25 37.35"/>

<path id="positionChecker_22_Layer1_0_1_STROKES" stroke="#9933CC" stroke-width="5" stroke-linejoin="round" stroke-linecap="round" fill="none" d="
M 1 0
L 32.3 31.3 64.05 0
M 63.05 62.05
L 32.3 31.3 0 63.05"/>

<path id="Symbol_1_0_Layer0_0_1_STROKES" stroke="#9933CC" stroke-width="1" stroke-linejoin="round" stroke-linecap="round" fill="none" d="
M 21 0
L 42 15.25 34 39.75 8 39.75 0 15.25 21 0 Z"/>
</defs>

<g transform="matrix( 1, 0, 0, 1, -0.25,-0.25) ">
<g transform="matrix( 1, 0, 0, 1, 0,0) ">
<use xlink:href="#grid_0_Layer1_0_FILL"/>
</g>

<g transform="matrix( 1, 0, 0, 1, 0,0) ">
<use xlink:href="#grid_0_Layer0_0_1_STROKES"/>
</g>
</g>

<g transform="matrix( 0.2137908935546875, 0, 0, 0.2137908935546875, 48.65,78.3) ">
<g transform="matrix( 1, 0, 0, 1, 0,0) ">
<use xlink:href="#Duplicate_Items_Folder_poof_4_Layer0_0_FILL"/>
</g>

<g transform="matrix( 0.12921142578125, -0.0322113037109375, 0.0326385498046875, 0.13092041015625, 492.45,740.7) ">
<g transform="matrix( 1, 0, 0, 1, 0,0) ">
<use xlink:href="#Duplicate_Items_Folder_3_0_Layer0_0_FILL"/>
</g>
</g>

<g transform="matrix( 0.4344940185546875, 0, -0.03131103515625, 0.48480224609375, 449.15,-112.45) ">
<g transform="matrix( 1, 0, 0, 1, 0,0) ">
<use xlink:href="#Duplicate_Items_Folder_2_0_Layer0_0_FILL"/>
</g>
</g>

<g transform="matrix( 0.62677001953125, 0.325775146484375, -0.24139404296875, 0.4644622802734375, 829.8,-39.15) ">
<g transform="matrix( 1, 0, 0, 1, 0,0) ">
<use xlink:href="#Duplicate_Items_Folder_5_0_Layer0_0_FILL"/>
</g>
</g>

<g transform="matrix( -0.0251312255859375, 0.3002166748046875, -0.3002166748046875, -0.0251312255859375, 395.5,661.5) ">
<g transform="matrix( 1, 0, 0, 1, 0,0) ">
<use xlink:href="#Duplicate_Items_Folder_5_0_Layer0_0_FILL"/>
</g>
</g>

<g transform="matrix( 0.1829833984375, 0.0422515869140625, 0.0472564697265625, -0.2046356201171875, 442.9,753.75) ">
<g transform="matrix( 1, 0, 0, 1, 0,0) ">
<use xlink:href="#Duplicate_Items_Folder_2_0_Layer0_0_FILL"/>
</g>
</g>

<g transform="matrix( 0.464691162109375, 0, -0.03131103515625, -0.48480224609375, 494.5,-20.05) ">
<g transform="matrix( 1, 0, 0, 1, 0,0) ">
<use xlink:href="#Duplicate_Items_Folder_2_0_Layer0_0_FILL"/>
</g>
</g>

<g transform="matrix( 0.282867431640625, 0, 0, 0.282867431640625, 800.1,-42.25) ">
<g transform="matrix( 1, 0, 0, 1, 0,0) ">
<use xlink:href="#Duplicate_Items_Folder_6_0_Layer0_0_FILL"/>
</g>
</g>

<g transform="matrix( 0.282867431640625, 0, 0, 0.282867431640625, 751,-116) ">
<g transform="matrix( 1, 0, 0, 1, 0,0) ">
<use xlink:href="#Duplicate_Items_Folder_6_0_Layer0_0_FILL"/>
</g>
</g>

<g transform="matrix( 0.1014404296875, 0, 0, 0.1014404296875, 856.05,353.2) ">
<g transform="matrix( 1, 0, 0, 1, 0,0) ">
<use xlink:href="#Duplicate_Items_Folder_7_0_Layer0_0_FILL"/>
</g>
</g>

<g transform="matrix( 0.7743988037109375, 0.45989990234375, -0.45989990234375, 0.7743988037109375, 775.6,681.2) ">
<g transform="matrix( 1, 0, 0, 1, 0,0) ">
<use xlink:href="#Duplicate_Items_Folder_8_0_Layer0_0_FILL"/>
</g>
</g>

<g transform="matrix( 0.184539794921875, 0, 0, 0.184539794921875, 419.8,730.75) ">
<g transform="matrix( 1, 0, 0, 1, 0,0) ">
<use xlink:href="#Duplicate_Items_Folder_6_0_Layer0_0_FILL"/>
</g>
</g>

<g transform="matrix( -0.573974609375, 0.558990478515625, -0.359130859375, -0.368743896484375, 577.3,763.3) ">
<g transform="matrix( 1, 0, 0, 1, 0,0) ">
<use xlink:href="#Duplicate_Items_Folder_8_0_Layer0_0_FILL"/>
</g>
</g>

<g transform="matrix( -0.4359588623046875, -0.1630706787109375, 0.139892578125, -0.3739013671875, 72.55,483.6) ">
<g transform="matrix( 1, 0, 0, 1, 0,0) ">
<use xlink:href="#Duplicate_Items_Folder_4_0_Layer0_0_FILL"/>
</g>
</g>

<g transform="matrix( -0.11761474609375, -0.29742431640625, 0.230926513671875, -0.091339111328125, 49.5,607.7) ">
<g transform="matrix( 1, 0, 0, 1, 0,0) ">
<use xlink:href="#Duplicate_Items_Folder_7_0_Layer0_0_FILL"/>
</g>
</g>

<g transform="matrix( 0.0935516357421875, 0.07098388671875, -0.04541015625, 0.0598297119140625, 109.7,577.95) ">
<g transform="matrix( 1, 0, 0, 1, 0,0) ">
<use xlink:href="#Duplicate_Items_Folder_7_0_Layer0_0_FILL"/>
</g>
</g>

<g transform="matrix( 0.039031982421875, -0.11077880859375, 0.100341796875, 0.035369873046875, 252.4,185.7) ">
<g transform="matrix( 1, 0, 0, 1, 0,0) ">
<use xlink:href="#Duplicate_Items_Folder_7_0_Layer0_0_FILL"/>
</g>
</g>

<g transform="matrix( 0.039031982421875, -0.11077880859375, 0.100341796875, 0.035369873046875, 436.25,-64.3) ">
<g transform="matrix( 1, 0, 0, 1, 0,0) ">
<use xlink:href="#Duplicate_Items_Folder_7_0_Layer0_0_FILL"/>
</g>
</g>

<g transform="matrix( 0.015777587890625, -0.044769287109375, 0.040557861328125, 0.014312744140625, 287,-20.95) ">
<g transform="matrix( 1, 0, 0, 1, 0,0) ">
<use xlink:href="#Duplicate_Items_Folder_7_0_Layer0_0_FILL"/>
</g>
</g>

<g transform="matrix( 0.157867431640625, -0.094146728515625, 0.060211181640625, 0.1009368896484375, 541.9,751.7) ">
<g transform="matrix( 1, 0, 0, 1, 0,0) ">
<use xlink:href="#Duplicate_Items_Folder_7_0_Layer0_0_FILL"/>
</g>
</g>

<g transform="matrix( 0.4463958740234375, -0.283966064453125, 0.50775146484375, 0.304046630859375, 519.75,768.45) ">
<g transform="matrix( 1, 0, 0, 1, 0,0) ">
<use xlink:href="#Duplicate_Items_Folder_5_0_Layer0_0_FILL"/>
</g>
</g>

<g transform="matrix( 0.708709716796875, 0, -0.04510498046875, 0.6989593505859375, 405.85,-136.15) ">
<g transform="matrix( 1, 0, 0, 1, 0,0) ">
<use xlink:href="#Duplicate_Items_Folder_2_0_Layer0_0_FILL"/>
</g>
</g>

<g transform="matrix( -0.51190185546875, 0.173309326171875, 0.15435791015625, 0.455963134765625, 615.3,680.4) ">
<g transform="matrix( 1, 0, 0, 1, 0,0) ">
<use xlink:href="#Duplicate_Items_Folder_3_0_Layer0_0_FILL"/>
</g>
</g>

<g transform="matrix( -0.2100830078125, 0.079437255859375, -0.0999755859375, -0.2643890380859375, 24.95,706.55) ">
<g transform="matrix( 1, 0, 0, 1, 0,0) ">
<use xlink:href="#Duplicate_Items_Folder_4_0_Layer0_0_FILL"/>
</g>
</g>
</g>

<g transform="matrix( 0.45977783203125, 0, 0.0010833740234375, 0.6097412109375, 4.7,-6.2) ">
<g transform="matrix( 1, 0, 0, 1, 0,0) ">
<use xlink:href="#symbols_transform_dancer_sport_4_Layer3_0_FILL"/>
</g>

<g transform="matrix( 1, 0, 0, 1, 8.8,103.35) ">
<use xlink:href="#symbols_transform_dancer_sport_4_Layer3_1_FILL"/>
</g>

<g transform="matrix( 1, 0, 0, 1, 0,0) ">
<use xlink:href="#symbols_transform_dancer_sport_4_Layer2_0_FILL"/>
</g>

<g transform="matrix( 1, 0, 0, 1, 0,0) ">
<use xlink:href="#symbols_transform_dancer_sport_4_Layer1_0_FILL"/>
</g>
</g>

<g transform="matrix( 1, 0, 0, 1, 0,0) ">
<use xlink:href="#Layer3_0_1_STROKES"/>
</g>

<g transform="matrix( 1, 0, 0, 1, 0,0) ">
<use xlink:href="#Layer2_0_1_STROKES"/>
</g>

<g transform="matrix( 1, 0, 0, 1, 131.85,63.65) ">
<g transform="matrix( 1, 0, 0, 1, 0,0) ">
<use xlink:href="#positionChecker_22_Layer1_0_1_STROKES"/>
</g>

<g transform="matrix( 1, 0, 0, 1, -19,14.25) ">
<g transform="matrix( 1, 0, 0, 1, 0,0) ">
<use xlink:href="#Symbol_1_0_Layer0_0_1_STROKES"/>
</g>
</g>
</g>
</svg>
