
<svg xmlns="http://www.w3.org/2000/svg" version="1.1" xmlns:xlink="http://www.w3.org/1999/xlink" preserveAspectRatio="none" x="0px" y="0px" width="550px" height="400px" viewBox="0 0 550 400">
<defs>
<g id="grid_0_Layer1_0_FILL">
<path fill="#0033FF" fill-opacity="0.5176470588235295" stroke="none" d="
M 558 31
L 558 0 527 0 496 0 465 0 434 0 403 0 372 0 341 0 310 0 279 0 248 0 217 0 186 0 155 0 124 0 93 0 62 0 31 0 0 0 0 31 0 62 0 93 0 99.25 0 119.3 0 124 0 155 0 186 0 217 0 248 0 279 0 310 0 341 0 372 0 403 31 403 62 403 93 403 124 403 155 403 186 403 217 403 248 403 279 403 310 403 341 403 372 403 403 403 434 403 465 403 496 403 527 403 558 403 558 372 558 341 558 310 558 279 558 248 558 217 558 186 558 155 558 124 558 119.3 558 99.25 558 93 558 62 558 31 Z"/>
</g>

<g id="Duplicate_Items_Folder_poof_5_Layer0_0_FILL">
<path fill="#FFFFFF" stroke="none" d="
M 828.2 523.4
Q 829.05 524.25 834.25 528.35 826.2 514.6 826.2 516.95 826.2 520.85 828.2 523.4
M 827.65 365.95
Q 826.4 366.4 825.3 367.15 821.45 369.65 821.45 372.9 821.45 377 826.8 378.4 828.15 378.75 830.4 379.35 832.05 379.9 832.05 380.9 832.05 383.5 830.25 384.5 827.6 385.5 826.25 386.4 829.25 386.2 831.85 386.75
L 832.15 387.5
Q 832.95 387.3 833.85 387.15 836.1 387.85 838.3 389.1 843.2 391.95 843.2 395.7 843.2 396.9 843 398.35
L 843 398.4
Q 842.85 398.9 842.75 399.35 842.15 403 840.8 403.9 840.8 400.75 839.85 398.2 837.75 392.95 832.35 392.95 830.9 392.95 830.35 393.35 829.7 393.9 829.7 394.9 829.7 405.9 833.45 412.95 840.3 425.55 858.95 431.05 854.1 435.2 849.8 441.05 841.45 452.45 841.45 463.95 841.45 469.7 842.95 474.35
L 842.85 474.35 843.05 474.6
Q 843.6 476.3 844.35 477.75 844.35 477.8 844.35 477.85 845.5 480.1 847.15 481.65 848 482.5 849.05 483.2
L 849.5 484.7
Q 853.25 487.75 853.3 487.8 851.65 488.5 850.15 489.35
L 850.1 489.4 850.15 489.4
Q 850.1 489.4 850.85 490.65
L 868.55 518.35
Q 868.15 520.9 868.15 524 868.15 536.95 869.05 541.85 871.2 554.55 879 558.35 880.9 557.9 882.95 556.8 885.7 554.25 885.75 553.6 886.25 550.45 886.25 544.8 886.25 536.55 882.4 523.95 881.55 521.25 880.7 519 882.3 518.2 883.85 517.4 888.15 515.15 891.8 512.6 891.85 512.55 891.9 512.5 895.1 510.2 897.8 507.7 903.65 502 903.6 498.55 903.5 494.7 905.55 491.95 906 491.3 910.05 487.35 913.15 484.3 914.65 481 916.7 476.25 916.7 469 916.7 468.3 916.3 467.3 916.05 466.8 915.9 466.5 921.4 463.25 923.35 459.45 925.25 455.55 924.05 450.05 922.95 444.5 917.1 441.25 911.2 437.95 907.15 436.25 904.35 435.1 904.35 434.55 904.35 434.45 905.4 431.1 906.55 427.75 906.55 425.5 906.55 405 888.25 394.9 876.35 388.25 858.1 386.75 850.4 379.35 840.8 373.05 833.45 368.15 827.65 365.95
M 893.35 462.15
Q 895.9 465 895.9 469.15 895.9 472.2 893.6 475.4 892.95 476.1 892.3 476.65 891.9 468.4 886.25 463.6 881.7 459.7 873.1 457.9 877.85 456.55 879.75 453.35 881.25 450.9 881.25 447.05 881.25 442.9 878.8 440.05 877.7 438.6 876.4 437.9 878.05 438.25 880.2 438.8 883.3 439.5 885 440.35 888.9 442.4 888.9 447.35 888.9 449.9 887.7 452.5 886.75 454.65 885.4 456.35 891.3 459.8 893.35 462.15
M 202.1 64.15
Q 200.8 68.7 199.05 72.2 196.05 78 192.35 80.05 187.8 82.45 182.25 79.25 179.55 82.3 175.9 85.65 166.3 94.55 150 106.2 122.7 125.6 144.45 132.6 166.35 139.7 184.4 130.35 202.45 120.9 216.3 116.5 230.2 112.2 234.25 100.5 236.8 93.15 234.6 85.65 233.2 81.4 230.35 77.2 222.45 65.5 208.55 64.1 205.1 63.75 202.1 64.15
M 198.4 -26.4
Q 196.7 -26.4 195.25 -25.65 193.75 -25.05 192.35 -23.75 189.55 -21.05 188.55 -18.45 187.5 -16 187.65 -12.7 187.65 -12.45 187.65 -12.3 187.45 -12.2 187.2 -12.05 187.2 -12 187.1 -11.95 186.55 -11.6 186.25 -11.15 184.7 -9.35 183.6 -7.6 182.35 -5.85 181.6 -4.15 178.3 -2.6 175.6 -0.4 173.25 3.2 172.2 8.1 171.4 11.4 171.3 15.2 171.2 17.6 171.3 19.9 168 23.8 165.3 29.75 165.25 29.75 165.3 29.9 165.15 30 165.1 30.2 164.7 31.2 164.2 32.2 165.35 31.6 166.8 31.85 166.85 31.9 166.9 31.95 166.65 32.3 166.45 32.6 164.05 36.7 162.6 40.1 161.6 42.45 161.15 44.4 161 44.05 160.8 43.85 160.1 47 159.95 49.05 159.5 56.4 159.9 61.75 161.1 78.95 170.85 76.8 174.75 75.95 179.25 71.6 180.7 70.35 182.05 68.95
L 182.95 67.75
Q 187.15 70.75 190.75 69.2 191.05 69.15 191.35 69 191.85 68.7 192.3 68.3 192.75 68 193.25 67.6 195.45 65.5 197.3 61.65 198 61.6 198.6 61.55 200.7 61.05 203.1 60.1 205.1 59.1 207.35 57.45 208.3 56.75 209.6 55.25 209.75 55 209.95 54.85 210.85 53.95 210.9 53.8 211.05 53.65 212.1 54.3 213.55 55.15 215.95 56.2 218.3 57.2 220.85 55.95 223.4 54.65 224.9 52.75 226.3 50.85 227 47.65 227.15 47.65 227.45 47.5 227.9 47.35 228.3 47.15 229.6 46.15 230.95 45.05 232.25 43.85 233.2 42.65 236 42.45 238.5 41.55 238.65 41.35 238.85 41.2 241.1 38.9 242.85 35.3 243.8 33.6 244.65 31.35 245.55 28.7 246.25 25.4 248 24.3 249.75 22.65 251.25 21.1 252.95 19.1 252.95 19 252.95 18.9 253 18.7 253.15 18.55 255.8 15.35 258.05 10.95 258.55 10 259.05 9.1 260.45 6.15 261.25 4.05 261.7 2.65 262.05 1.45 263.5 -3.15 264.25 -6.95 265 -10.55 265.1 -13.45 265.45 -14.1 265.5 -14.25 266.3 -16 265 -19.55 263.4 -24.3 263.3 -24.75 263.2 -26 263.1 -27.85 262.9 -29.15 262.5 -30.3 262.2 -30.75 259.35 -32.3 256.4 -33.85 255.35 -33.85 255.05 -33.85 254.9 -33.85 254.95 -34.65 255.6 -35.45 256.05 -36.1 257 -35.9 258.25 -35.6 259 -35.3 261.95 -34.65 263.65 -36.9 265 -38.9 264.2 -41.35 264 -42.1 263.65 -42.75 260.1 -42.95 254.9 -42.35 248.4 -41.5 242.25 -39.55 234.45 -43.45 227.4 -43.05 222.35 -42.8 217.9 -40.25 212.95 -37.55 208.45 -31.85 207.45 -30.7 206.4 -28.6 206.25 -28.2 206.1 -27.9 205.3 -26.5 205.25 -26.4 205.1 -26.1 203.6 -26.3 201.6 -26.6 198.4 -26.4
M 192.65 -4.3
Q 194.6 -6.7 196.75 -7.55 198.5 -8.2 202.1 -8.4 202.4 -9.85 203.1 -11.2 203.75 -13.2 204.9 -14.65 207.15 -17.5 209.4 -17.45 210.4 -17.4 211.85 -16.85 212.7 -16.5 213.55 -16.15 212.8 -16.15 211.75 -15.65 209.55 -14.8 207.7 -12.45 206 -10.1 205.35 -8.15 204.6 -5.65 205.7 -3.25 201.75 -5 198.45 -4.35 194.35 -3.4 190.4 1.45 190.45 0.85 190.55 0.15 191.3 -2.55 192.65 -4.3
M 215.95 33.65
Q 218.35 36.55 221 37 224.15 37.65 228.2 34.9 227.9 35.35 227.7 35.9 226.55 37.9 225.15 39 223.2 40.45 221.45 40.45 220.05 40.4 217.4 39.25 216.85 40.45 216 41.5 215 42.85 213.85 43.8 212.45 44.9 211.25 44.9 210.55 44.95 210 44.65 209.4 44.25 208.45 43.35 207.75 42.6 207.35 42.1 207.85 42.4 208.7 42.3 210.5 42.3 212.4 40.85 212.5 40.8 212.55 40.75 214.25 39.45 215 37.95 216.25 36.1 215.95 33.65
M 809 -55.25
Q 804.75 -54.05 801.25 -51.95 797 -49.4 794.6 -46.05 792.35 -42.7 791.95 -38.9 791.9 -38.5 791.9 -38.05 791.9 -37.85 791.9 -37.55 791.9 -37 791.9 -36.45 791.9 -36.4 792.5 -34.35 792.95 -32.4 796.8 -29.3 800.75 -26.15 804 -22.35 807.4 -18.5 813.15 -16.9 817.2 -15.95 821.05 -15.75
L 821.45 -15.75
Q 821.45 -15.65 821.4 -15.6 820.65 -13.8 820.5 -12 819.95 -8.15 821.6 -4.7 823.55 -0.15 828.1 0.65 832.65 1.55 838.4 1.65 844.2 1.8 846.25 -0.4 848.35 -2.75 848.5 -2.8
L 848.5 -2.85
Q 848.55 -2.9 848.5 -2.75 848.4 -2.65 848.4 -2.55
L 848.4 -2.5
Q 848.4 -0.4 852.05 1.3 855.8 2.95 859 2.7 862.4 2.35 865.9 0.55 867.85 1.35 869.95 1.8 874.3 2.9 879.2 2.9 883.4 2.9 887.2 1.05 890.75 -0.55 893.5 -3.4 895.95 -5.95 897.35 -9.1 897.5 -9.45 897.65 -9.8 898.2 -11 898.55 -12.2 899.25 -14.6 899.25 -16.9 899.25 -19 898.9 -21.45 899.05 -21.65 899.25 -21.75 902.1 -22.85 904.4 -24.95 908.95 -28.8 910.35 -34.15 910.7 -35.3 910.8 -36.45 911.15 -38 911.15 -39.6 911.15 -42.9 909.9 -45.95 909.45 -47 908.85 -48.05 907.9 -49.8 906.45 -51.3 904.25 -53.7 901.45 -55.1 899.9 -55.8 898.3 -56.1 900.75 -59.35 899.85 -63.05 899 -66.7 897.45 -69.6 895.95 -72.5 891.25 -72.95 886.35 -73.5 882.9 -71 882.85 -72.85 881.9 -75.15 880.75 -77.8 878.5 -80 878.45 -80.05 875.4 -82.35 872.4 -84.6 866.8 -83.4 861.05 -82.4 860.35 -81.85 855.55 -84.6 852 -83.15 848.35 -81.75 845.8 -79.4 843.2 -77.05 841.6 -73.8 841 -72.65 840.6 -71.6 840.55 -71.25 840.5 -71.1 840.45 -71.1 840.4 -71.1 832.7 -74.75 825.55 -70.25 821.65 -67.55 820.65 -64.25 820.3 -64.3 819.75 -64.3 815.35 -64.3 812.15 -61.55 809.1 -59 809 -55.25
M 849.6 -6.3
Q 849.6982421875 -6.545703125 849.7 -6.6
L 849.7 -6.35
Q 849.65 -6.35 849.6 -6.3 Z"/>

<path fill="#999999" stroke="none" d="
M 850.15 489.4
L 850.1 489.4
Q 850.05 489.4 850.85 490.65 850.1 489.4 850.15 489.4
M 895.9 469.15
Q 895.9 465 893.35 462.15 891.3 459.8 885.4 456.35 886.75 454.65 887.7 452.5 888.9 449.9 888.9 447.35 888.9 442.4 885 440.35 883.3 439.5 880.2 438.8 878.05 438.25 876.4 437.9 877.7 438.6 878.8 440.05 881.25 442.9 881.25 447.05 881.25 450.9 879.75 453.35 877.85 456.55 873.1 457.9 881.7 459.7 886.25 463.6 891.9 468.4 892.3 476.65 892.95 476.1 893.6 475.4 895.9 472.2 895.9 469.15
M 173.05 1.85
Q 167 7.95 165.45 17.1 164.85 21.2 165.1 25.85 165.1 27.7 165.3 29.75 168 23.8 171.3 19.9 171.2 17.6 171.3 15.2 171.4 11.4 172.2 8.1 173.25 3.2 175.6 -0.4 174.25 0.55 173.05 1.85
M 252.95 19.1
Q 251.25 21.1 249.75 22.65 248 24.3 246.25 25.4 245.55 28.7 244.65 31.35 243.8 33.6 242.85 35.3 241.1 38.9 238.85 41.2 238.65 41.35 238.5 41.55 238.6 41.5 238.65 41.45 239.8 41.05 240.85 40.45 246.7 37.3 249.85 29.8 251.8 25.3 252.95 19.1
M 196.75 -7.55
Q 194.6 -6.7 192.65 -4.3 191.3 -2.55 190.55 0.15 190.45 0.85 190.4 1.45 194.35 -3.4 198.45 -4.35 201.75 -5 205.7 -3.25 204.6 -5.65 205.35 -8.15 206 -10.1 207.7 -12.45 209.55 -14.8 211.75 -15.65 212.8 -16.15 213.55 -16.15 212.7 -16.5 211.85 -16.85 210.4 -17.4 209.4 -17.45 207.15 -17.5 204.9 -14.65 203.75 -13.2 203.1 -11.2 202.4 -9.85 202.1 -8.4 198.5 -8.2 196.75 -7.55 Z"/>

<path fill="#CCCCCC" stroke="none" d="
M 807.3 367.3
Q 802.9 371.15 802.9 378.7 802.9 381.95 805.8 384.4 807 385.35 812.3 388.15 816.7 390.55 818.65 392.8 821.35 396.15 821.1 401.25 820.55 411.85 831.25 422.1 834 424.65 838.85 428.9 842.2 432.15 842.2 434.3 842.2 435.5 837.85 440.1 833.5 445.75 833.5 453 833.5 465.15 840.45 475 841.55 476.55 842.8 478 842.95 478.1 843 478.2 844.5 480.1 846.45 481.9 847.9 483.4 849.5 484.7
L 849.05 483.2
Q 848 482.5 847.15 481.65 845.5 480.1 844.35 477.85 844.35 477.8 844.35 477.75 843.6 476.3 843.05 474.6
L 842.85 474.35 842.95 474.35
Q 841.45 469.7 841.45 463.95 841.45 452.45 849.8 441.05 854.1 435.2 858.95 431.05 840.3 425.55 833.45 412.95 829.7 405.9 829.7 394.9 829.7 393.9 830.35 393.35 830.9 392.95 832.35 392.95 837.75 392.95 839.85 398.2 840.8 400.75 840.8 403.9 842.15 403 842.75 399.35 842.85 398.9 843 398.4
L 843 398.35
Q 843.2 396.9 843.2 395.7 843.2 391.95 838.3 389.1 836.1 387.85 833.85 387.15 832.95 387.3 832.15 387.5
L 831.85 386.75
Q 829.25 386.2 826.25 386.4 827.6 385.5 830.25 384.5 832.05 383.5 832.05 380.9 832.05 379.9 830.4 379.35 828.15 378.75 826.8 378.4 821.45 377 821.45 372.9 821.45 369.65 825.3 367.15 826.4 366.4 827.65 365.95 826.4 365.4 825.2 365.05 818.7 364.85 812.15 364.8 809.3 365.55 807.3 367.3
M 166.45 32.6
Q 166.65 32.3 166.9 31.95 166.85 31.9 166.8 31.85 165.35 31.6 164.2 32.2 164.7 31.2 165.1 30.2 163.95 31.55 162.95 33.15 160.1 35.85 159.75 39 159.75 39.25 159.75 39.55 159.5 40.05 159.25 40.7 157.1 46.4 156 53.35 155.3 57 155.25 59.35 155.35 87.55 168.3 86.2 172.5 85.8 177.25 82.15 178.8 81 180.25 79.7
L 181.3 78.65
Q 181.75 78.95 182.25 79.25 187.8 82.45 192.35 80.05 196.05 78 199.05 72.2 200.8 68.7 202.1 64.15 202.3 63.3 202.5 62.4
L 203.1 60.1
Q 200.7 61.05 198.6 61.55 198 61.6 197.3 61.65 195.45 65.5 193.25 67.6 192.75 68 192.3 68.3 191.85 68.7 191.35 69 191.05 69.15 190.75 69.2 187.15 70.75 182.95 67.75
L 182.05 68.95
Q 180.7 70.35 179.25 71.6 174.75 75.95 170.85 76.8 161.1 78.95 159.9 61.75 159.5 56.4 159.95 49.05 160.1 47 160.8 43.85 161 44.05 161.15 44.4 161.6 42.45 162.6 40.1 164.05 36.7 166.45 32.6
M 268.5 -26.25
Q 269.5 -26.85 270.25 -27.9 273.3 -32.55 272.7 -36.15 272.6 -37.1 272.05 -37.9 271.1 -39.9 268.7 -41.3 266.8 -42.4 263.65 -42.75 264 -42.1 264.2 -41.35 265 -38.9 263.65 -36.9 261.95 -34.65 259 -35.3 258.25 -35.6 257 -35.9 256.05 -36.1 255.6 -35.45 254.95 -34.65 254.9 -33.85 255.05 -33.85 255.35 -33.85 256.4 -33.85 259.35 -32.3 262.2 -30.75 262.5 -30.3 262.9 -29.15 263.1 -27.85 263.2 -26 263.3 -24.75 263.4 -24.3 265 -19.55 266.3 -16 265.5 -14.25 265.45 -14.1 265.1 -13.45 265 -10.55 264.25 -6.95 263.5 -3.15 262.05 1.45 261.7 2.65 261.25 4.05 260.45 6.15 259.05 9.1 258.55 10 258.05 10.95 255.8 15.35 253.15 18.55 256.6 16.2 259.8 11.65 262.75 7.4 265.15 1.7 266.4 -1.15 266.95 -3.2 268 -6.55 268.5 -9.6 270.7 -20.75 268.5 -26.25
M 221 37
Q 218.35 36.55 215.95 33.65 216.25 36.1 215 37.95 214.25 39.45 212.55 40.75 212.5 40.8 212.4 40.85 210.5 42.3 208.7 42.3 207.85 42.4 207.35 42.1 207.75 42.6 208.45 43.35 209.4 44.25 210 44.65 210.55 44.95 211.25 44.9 212.45 44.9 213.85 43.8 215 42.85 216 41.5 216.85 40.45 217.4 39.25 220.05 40.4 221.45 40.45 223.2 40.45 225.15 39 226.55 37.9 227.7 35.9 227.9 35.35 228.2 34.9 224.15 37.65 221 37 Z"/>
</g>

<g id="Duplicate_Items_Folder_3_0_Layer0_0_FILL">
<path fill="#999999" stroke="none" d="
M 163.75 166.85
Q 163.45 167.05 163.15 167.25 163.55 167.6 163.95 168 163.8 167.3 163.75 166.85
M 184.85 68.3
Q 185.1 66.5 185.3 64.7 185.15 64.65 185.05 64.65 185.3 63.4 185.5 62.15 185.55 60.55 185.55 58.9 185.55 48.75 182.4 39.85 186.6 55.95 179.55 64.75
L 184.85 68.3
M 167.5 17.45
Q 167.3728515625 17.3728515625 167.25 17.25 151.75 2.6 130.75 0.4 127.5 0.05 124.15 0 123.65 0 123.15 0 97.35 0 79.05 17.25 67.55 28.1 63.3 41.8 54.3 34.65 42.25 34.65 28.55 34.65 18.85 43.8 9.2 52.95 9.2 65.85 9.2 78.8 18.85 87.9 19.15 88.2 19.5 88.5 0 108 0 135.2 0 135.65 0 136.1
L 0 136.5
Q 0.5 164 21.15 183.45
L 21.9 182.85
Q 5.3 163.25 8.7 135.95 8.75 135.8 8.75 135.65 12 110.1 31.15 91.45 30.9 91.2 30.65 90.95 28.2 88.35 26.75 85.35 26.7 85.25 26.7 85.15 26.55 84.85 26.4 84.6 23.85 78.8 24.75 71.6 26.15 60.25 35.3 51.8 44.45 43.3 56.2 42.5 59.85 42.25 63.15 42.8 69.2 43.8 73.9 47.5 78.7 35.3 89.6 25.2 104.7 11.25 124.15 8.1 126.95 7.6 129.8 7.4 130.45 7.3 131.1 7.3 152.24296875 5.90703125 167.5 17.45
M 64.95 146.4
Q 64.55 146.1 64.2 145.8 63.4 146.55 62.55 147.25
L 64.95 146.4
M 160.35 73
Q 159.15 72.45 157.1 73.4 157.9 73.25 159.05 73.1 159.7 73.05 160.35 73
M 266.6 94.15
Q 259.4 88.4 248.4 83.85 240 80.3 228.25 78.65 230.7 80.25 232.65 82.4 239.7 89.4 238.35 94.1 236.5 100 224.5 97 222.05 96.4 217.75 95.3 217.15 95.15 216.55 95 212.9 94.2 212.4 95.65 211.2 99.3 214.65 102.55 217.65 104.95 219.85 106.95 221.15 108.15 222.15 109.2 221 108.6 219.85 108.1 214.85 105.7 210.15 104.25
L 209.25 105.15
Q 207.55 104 205.8 103.05 200.8 101.8 195.95 101.65 184.6 101.1 182.7 106.35 182.1 108.05 181.75 110.4 181.75 110.45 181.8 110.55 181.65 111.3 181.6 112.15 181 117.9 183.2 120.65 184.8 116 188.2 113.25 194.9 107.6 206.1 112.95 209.1 114.35 210.05 115.5 211.25 116.7 208.25 137.4 205.6 155.75 178.1 160.85 179.9 160.65 181.6 160.5 188.85 159.7 193.7 159 204.15 157.45 211.4 154.05 224.05 148.2 226.45 137.05 228.05 128.85 235.75 126.65 241 125 252.1 126.05 265.7 127.15 268.75 127.05 272.15 126.7 274.2 125.75 277.4 124.25 278.2 121.25 280.25 113.2 276.6 105.85 275 102.5 272.3 99.45 269.85 96.6 266.6 94.15 Z"/>

<path fill="#FFFFFF" stroke="none" d="
M 185.3 64.7
Q 185.4 63.4 185.5 62.15 185.3 63.4 185.05 64.65 185.15 64.65 185.3 64.7
M 167.6 17.55
Q 167.5478515625 17.5126953125 167.5 17.45 152.24296875 5.90703125 131.1 7.3 130.45 7.3 129.8 7.4 126.95 7.6 124.15 8.1 104.7 11.25 89.6 25.2 78.7 35.3 73.9 47.5 69.2 43.8 63.15 42.8 59.85 42.25 56.2 42.5 44.45 43.3 35.3 51.8 26.15 60.25 24.75 71.6 23.85 78.8 26.4 84.6 26.55 84.85 26.7 85.15 26.7 85.25 26.75 85.35 28.2 88.35 30.65 90.95 30.9 91.2 31.15 91.45 12 110.1 8.75 135.65 8.75 135.8 8.7 135.95 5.3 163.25 21.9 182.85
L 21.15 183.45
Q 24.75 186.85 28.65 189.7 46.4 202.75 69.55 203.45 70.9 203.5 72.3 203.5 102.25 203.5 123.4 183.45 128.85 178.35 132.95 172.7 135.15 169.55 137 166.25 137.35 165.55 137.75 164.85 139.6 165.3 141.6 165.65 145.5 166.3 149.75 166.5 151.2 166.55 152.7 166.55 157.4 166.55 161.9 166 162.5 166.6 163.15 167.25 163.45 167.05 163.75 166.85 163.75 166.45 163.8 166.25 163.9 165.95 164.05 165.7 165.05 165.5 166.05 165.35 174.1 163.85 181.6 160.5 179.9 160.65 178.1 160.85 205.6 155.75 208.25 137.4 211.25 116.7 210.05 115.5 209.1 114.35 206.1 112.95 194.9 107.6 188.2 113.25 184.8 116 183.2 120.65 181 117.9 181.6 112.15 181.65 111.3 181.8 110.55 181.75 110.45 181.75 110.4 182.1 108.05 182.7 106.35 184.6 101.1 195.95 101.65 200.8 101.8 205.8 103.05 207.55 104 209.25 105.15
L 210.15 104.25
Q 214.85 105.7 219.85 108.1 221 108.6 222.15 109.2 221.15 108.15 219.85 106.95 217.65 104.95 214.65 102.55 211.2 99.3 212.4 95.65 212.9 94.2 216.55 95 217.15 95.15 217.75 95.3 222.05 96.4 224.5 97 236.5 100 238.35 94.1 239.7 89.4 232.65 82.4 230.7 80.25 228.25 78.65 217.35 76.95 203.55 76.9 202.05 75.8 200.4 74.8 193.05 70.25 184.85 68.3
L 179.55 64.75
Q 186.6 55.95 182.4 39.85 178.05 27.55 167.65 17.6
L 167.6 17.55
M 157.1 73.4
Q 159.15 72.45 160.35 73 159.7 73.05 159.05 73.1 157.9 73.25 157.1 73.4
M 64.2 145.8
Q 64.55 146.1 64.95 146.4
L 62.55 147.25
Q 63.4 146.55 64.2 145.8
M 102.6 145.4
Q 102.25 142.25 102.45 138.6 102.5 135.9 102.85 137.85 103.2 139.7 102.95 142.65 102.85 144.15 102.6 145.4 Z"/>
</g>

<g id="Duplicate_Items_Folder_2_0_Layer0_0_FILL">
<path fill="#FFFFFF" stroke="none" d="
M 3.75 167.35
Q 3.3 166.8 3.15 166.65 1.55 166.65 0 166.6 1.95 166.9 3.75 167.35
M 337.8 76.7
Q 335.4 79.05 337.25 90 329.9 76.85 318.35 71.4 308.75 66.8 299 68.3 276.85 71.7 262.15 94.95 264.5 97.6 266.45 100.3 263.95 99.05 263.2 97.5 262.65 96.4 262.1 95.45 262 95.3 261.95 95.2 261.55 94.5 261.15 93.85 259.9 92.45 258.35 90.9 257.85 90.4 257.5 89.95 256.85 89.4 256.3 88.9 243.95 77.35 235.6 78.35
L 234.2 76.95
Q 241.05 74.75 251.25 63.2 261.4 51.65 255.45 38.9 250.9 29.15 248.25 25.9 247.5 25.15 246.75 24.45 244.35 22.25 241.5 19.95 237.3 16.65 233.7 14.1 221.1 5.6 212.35 6.9 203.45 8.3 199.8 11.55 196.2 14.8 198.8 29.7 188.05 11.8 171.1 4.5 156.95 -1.6 142.45 0.6 109.55 5.65 87.3 37.8 88.85 38.35 82.15 50.55 75.45 62.75 78.9 79.55 82.3 96.3 92.15 102.4 101.95 108.45 107.15 110.75 108.85 111.45 110.9 112.25 114.85 113.7 124.7 117.15 123.7 117.65 123 118.25 122.7 118.5 122.5 118.9 118.65 118.6 113 118 109.95 115.7 106.45 114.2 100.1 111.45 93.65 111.65 91.8 111.7 89.95 112 71.05 114.85 58.2 133.4 57.9 140.75 58.05 146.05 58.3 151.15 58.8 154.45 61.05 169.1 65.1 172.75 66.65 174.05 69.65 175.35 70.65 175.75 71.85 176.2 74.65 177.25 82.85 180.15 81.15 180.4 72.4 179.5 70 179.2 67.9 179 66.75 181.7 66.25 182.85 65.25 185.25 65.7 188.15 66.6 194.25 70 199.2 73.55 201.45 77.9 203.15 80.55 204.25 83.3 205 95.85 208.45 110.65 206.2 121.8 204.5 127.75 200.9 131.85 198.45 136.55 192.55
L 136.95 195.05
Q 136.75 195.5 136.7 198.6 138 198.65 139.7 198.8 141.7 198.9 142.7 198.75 142.85 198.7 146.3 197.7 150.4 196.3 153.5 193.85 160.6 188.5 161.6 179.9 161.95 176.35 161.35 172.3 161.15 171.05 159.45 167.7 158.9 166.75 158.45 165.9 158.35 165.75 158.3 165.65 158.4 165.75 158.5 165.9 176.65 176.7 189.7 172.6 202.75 168.45 211.55 164.7 220.35 160.95 222.5 153.2 225.3 154.8 228.1 156 250.55 165.6 261.9 153.9 265.55 152.3 276.05 148.2 277.25 148.75 278.65 149.3 282 150.7 291.7 154.4 289.65 154.75 279.35 153.45 276.5 153.1 274.1 152.75 272.7 156.15 272.2 157.6 271.05 160.65 271.6 164.35 272.8 172.05 276.85 178.4 281 181.25 286.1 183.5 289.3 184.85 292.5 185.85 307.3 190.45 324.6 187.8 337.65 185.8 344.6 181.4 349.4 178.3 354.75 170.9
L 355.25 174.1
Q 355 174.6 355.05 178.6 356.55 178.7 358.55 178.85 360.95 179 362.1 178.8 362.3 178.75 366.25 177.55 371.05 175.85 374.65 172.85 386.25 163.45 383.55 145.65 383.3 144.1 381.25 139.85 380.6 138.35 379.9 137.2 379 136.15 377.95 135 377.6 134.7 377.35 134.3 376.95 133.85 376.55 133.55 368.15 125 362.5 125.7
L 361.55 124.65
Q 365.05 121.85 368.5 112.6 372.7 101.3 371.25 91.6 370.85 89 369.6 86.55 367.95 84.9 366 83.2 363.15 80.75 360.7 78.9 352.1 72.55 346.2 73.45 340.2 74.4 337.8 76.7
M 352.3 138.55
Q 352.95 142.7 352.9 143.7 352.85 146.2 351.8 149.6 351.95 147.1 351.65 145.25 350.45 137.55 343.95 132.6 336.7 127.05 326.55 128.6 324.6 128.9 323 129.45 323.4 130.1 323.8 130.75 326.25 134.8 326.8 138.35 327.3 141.45 326.1 145.3 325.35 147.7 324.45 149.4 323.45 144.75 316.25 139.5 315 138.7 313.9 137.95 313.15 137.5 312.4 137.15 308.15 134.95 304.2 134.8 302.75 134.75 301.35 134.95 299.8 135.15 297.65 137.1 295.4 139.1 295.1 139.15 295.3 138.6 298.4 131.75 302.3 125 307.55 124.2 310.65 123.75 312.4 124.25 312.6 124.3 312.9 124.4 314.3 124.95 317.95 126.85 318.65 125.6 319.55 124.5 323.85 119.25 331.95 118 338.05 117.1 344.1 122.65 350.8 128.75 352.3 138.55
M 173.15 47.4
Q 172.55 45.25 171.85 43.7 169.1 37.6 164.4 32.75 160 28.15 156 29.15 151.8 30.25 150.15 31.35 150.5 31.8 150.8 32.25 153 35.3 153.9 38.05 154.7 40.55 154.5 43.8 154.35 45.95 153.95 47.5 153.75 47.05 153.6 46.6 147.15 29.05 139.75 31.85 133.2 34.3 131.25 38.1 130.85 38.4 130.75 38.5 130.95 38 133.3 32.55 135.9 27.75 139.45 27.35 141.45 27.1 142.7 27.5 143.45 27.75 146.55 29.45 146.9 28.6 147.35 27.9 149.5 24.65 154.25 24.15 154.75 24.05 155.35 24.1 158.3 24.3 162.15 27.35 167.3 31.45 170.45 38.35 171.95 41.6 172.2 42.4 172.85 44.45 173.15 47.4
M 106.1 157.25
L 109.85 160.1
Q 110.15 160.55 110.5 161.1 112.6 164.3 113 167.1 113.4 169.55 112.35 172.55 111.7 174.5 110.9 175.85 110.1 172.15 103.95 168.05 102.95 167.45 102.05 166.9 101.35 166.5 100.7 166.25 95.8 163.95 91.35 164.6 90.05 164.85 88.15 166.4 86.2 168 85.95 168.05 86.15 167.6 88.85 162.15 92.25 156.75 96.7 156.1 99.35 155.65 100.85 156.05 101.85 156.3 105.55 158.1 105.8 157.65 106.1 157.25 Z"/>

<path fill="#999999" stroke="none" d="
M 345.55 203
Q 340.8 203 336.8 203.9 335 204.3 333.4 204.9 345.9 205.05 358.35 205.6 351.25 203 345.55 203
M 55.85 137.05
Q 53.2 141.35 51.15 145.95 43.2 171.65 66.05 177.2 67.15 177.55 68.35 177.95 68.1 178.5 67.9 179 70 179.2 72.4 179.5 81.15 180.4 82.85 180.15 74.65 177.25 71.85 176.2 70.65 175.75 69.65 175.35 66.65 174.05 65.1 172.75 61.05 169.1 58.8 154.45 58.3 151.15 58.05 146.05 57.9 140.75 58.2 133.4 57.45 134.6 56.6 135.9 56.2 136.45 55.85 137.05
M 84.45 42.2
Q 83.7 43.1 83.15 44.15 78.55 51.6 74.95 59.65 63.15 97.8 90.65 110.4 92.05 111.05 93.65 111.65 100.1 111.45 106.45 114.2 109.95 115.7 113 118 118.65 118.6 122.5 118.9 122.7 118.5 123 118.25 123.7 117.65 124.7 117.15 114.85 113.7 110.9 112.25 108.85 111.45 107.15 110.75 101.95 108.45 92.15 102.4 82.3 96.3 78.9 79.55 75.45 62.75 82.15 50.55 88.85 38.35 87.3 37.8 85.9 39.9 84.45 42.2
M 166.15 180
Q 166.7 180 167.2 180 185 181.8 203.25 175.45 214 171.65 219.55 166.5 220.45 166.75 226.6 168.55 232.75 170.15 247.05 167.55 261.3 164.95 269.7 152.4 270.4 151.35 271.05 150.25 271.45 150.35 271.85 150.45 273.15 150.95 274.6 151.5 274.3 152.15 274.1 152.75 276.5 153.1 279.35 153.45 289.65 154.75 291.7 154.4 282 150.7 278.65 149.3 277.25 148.75 276.05 148.2 265.55 152.3 261.9 153.9 250.55 165.6 228.1 156 225.3 154.8 222.5 153.2 220.35 160.95 211.55 164.7 202.75 168.45 189.7 172.6 176.65 176.7 158.5 165.9 158.4 165.75 158.3 165.65 158.35 165.75 158.45 165.9 158.9 166.75 159.45 167.7 161.15 171.05 161.35 172.3 161.95 176.35 161.6 179.9 160.6 188.5 153.5 193.85 150.4 196.3 146.3 197.7 142.85 198.7 142.7 198.75 141.7 198.9 139.7 198.8 138 198.65 136.7 198.6 136.75 195.5 136.95 195.05
L 136.55 192.55
Q 131.85 198.45 127.75 200.9 121.8 204.5 110.65 206.2 95.85 208.45 83.3 205 80.55 204.25 77.9 203.15 73.55 201.45 70 199.2 74.05 205.1 81.6 209.4 92.25 215.4 104.25 215.2 114.45 216.25 125 212.6 131.15 210.4 134.3 207.45 134.85 207.55 138.4 208.6 141.9 209.55 150.15 208.05 158.4 206.55 163.15 199.35 168 192.05 166.3 180.8 166.25 180.4 166.15 180
M 220.55 165.5
L 220.45 165.65 220.3 165.65
Q 220.4 165.55 220.55 165.5
M 134.9 206.9
L 134.85 206.95 134.75 206.95
Q 134.85 206.9 134.9 206.9
M 262.15 94.95
Q 261.65 94.4 261.15 93.85 261.55 94.5 261.95 95.2 262 95.3 262.1 95.45 262.65 96.4 263.2 97.5 263.95 99.05 266.45 100.3 264.5 97.6 262.15 94.95
M 248.25 25.9
Q 250.9 29.15 255.45 38.9 261.4 51.65 251.25 63.2 241.05 74.75 234.2 76.95
L 235.6 78.35
Q 243.95 77.35 256.3 88.9 265.9 79.7 266.1 71.25 266.25 62.7 265.35 56.9 262.8 40.1 248.25 25.9
M 379.9 137.2
Q 380.6 138.35 381.25 139.85 383.3 144.1 383.55 145.65 386.25 163.45 374.65 172.85 371.05 175.85 366.25 177.55 362.3 178.75 362.1 178.8 360.95 179 358.55 178.85 356.55 178.7 355.05 178.6 355 174.6 355.25 174.1
L 354.75 170.9
Q 349.4 178.3 344.6 181.4 337.65 185.8 324.6 187.8 307.3 190.45 292.5 185.85 289.3 184.85 286.1 183.5 281 181.25 276.85 178.4 281.6 185.85 290.6 191.45 303.15 199.2 317.2 199.15 326.2 200.2 335.4 197.95 338.45 197.2 341.5 196.1 348.7 193.45 352.4 189.7 353 189.85 357.2 191.2 361.35 192.5 370.95 190.7 380.6 188.95 386.1 179.9 391.65 170.7 389.5 156.5 388 146.75 379.9 137.2
M 353.05 189
L 353 189.1 352.9 189.1
Q 352.95 189 353.05 189
M 369.6 86.55
Q 370.85 89 371.25 91.6 372.7 101.3 368.5 112.6 365.05 121.85 361.55 124.65
L 362.5 125.7
Q 368.15 125 376.55 133.55 383 126.9 383 120.75 383.1 114.55 382.45 110.3 380.45 97.4 369.6 86.55
M 109.85 160.1
L 106.1 157.25
Q 105.8 157.65 105.55 158.1 101.85 156.3 100.85 156.05 99.35 155.65 96.7 156.1 92.25 156.75 88.85 162.15 86.15 167.6 85.95 168.05 86.2 168 88.15 166.4 90.05 164.85 91.35 164.6 95.8 163.95 100.7 166.25 101.35 166.5 102.05 166.9 102.95 167.45 103.95 168.05 110.1 172.15 110.9 175.85 111.7 174.5 112.35 172.55 113.4 169.55 113 167.1 112.6 164.3 110.5 161.1 110.15 160.55 109.85 160.1
M 171.85 43.7
Q 172.55 45.25 173.15 47.4 172.85 44.45 172.2 42.4 171.95 41.6 170.45 38.35 167.3 31.45 162.15 27.35 158.3 24.3 155.35 24.1 154.75 24.05 154.25 24.15 149.5 24.65 147.35 27.9 146.9 28.6 146.55 29.45 143.45 27.75 142.7 27.5 141.45 27.1 139.45 27.35 135.9 27.75 133.3 32.55 130.95 38 130.75 38.5 130.85 38.4 131.25 38.1 133.2 34.3 139.75 31.85 147.15 29.05 153.6 46.6 153.75 47.05 153.95 47.5 154.35 45.95 154.5 43.8 154.7 40.55 153.9 38.05 153 35.3 150.8 32.25 150.5 31.8 150.15 31.35 151.8 30.25 156 29.15 160 28.15 164.4 32.75 169.1 37.6 171.85 43.7
M 352.9 143.7
Q 352.95 142.7 352.3 138.55 350.8 128.75 344.1 122.65 338.05 117.1 331.95 118 323.85 119.25 319.55 124.5 318.65 125.6 317.95 126.85 314.3 124.95 312.9 124.4 312.6 124.3 312.4 124.25 310.65 123.75 307.55 124.2 302.3 125 298.4 131.75 295.3 138.6 295.1 139.15 295.4 139.1 297.65 137.1 299.8 135.15 301.35 134.95 302.75 134.75 304.2 134.8 308.15 134.95 312.4 137.15 313.15 137.5 313.9 137.95 315 138.7 316.25 139.5 323.45 144.75 324.45 149.4 325.35 147.7 326.1 145.3 327.3 141.45 326.8 138.35 326.25 134.8 323.8 130.75 323.4 130.1 323 129.45 324.6 128.9 326.55 128.6 336.7 127.05 343.95 132.6 350.45 137.55 351.65 145.25 351.95 147.1 351.8 149.6 352.85 146.2 352.9 143.7 Z"/>
</g>

<g id="Duplicate_Items_Folder_5_0_Layer0_0_FILL">
<path fill="#999999" stroke="none" d="
M 24.55 70.95
Q 29 68.35 29 64.75 19.5 73.55 11.05 72.8 2.6 72.05 0 62.2 0 62.55 0 62.9 0 63.65 0.05 64.45 0.05 64.5 0.65 67.25 1.2 69.95 5.8 74.2 10.35 78.4 14.3 83.6 18.25 88.85 25 90.9 29.75 92.3 34.3 92.65
L 34.7 92.65
Q 34.7 92.7 34.65 92.75 33.9 95.25 33.65 97.6 33.05 102.9 34.9 107.55 37.3 113.75 42.65 114.9 47.95 116 54.75 116.25 61.55 116.45 64 113.4 66.45 110.3 66.6 110.1
L 66.6 110.05
Q 66.65 109.95 66.6 110.25 66.55 110.45 66.55 110.55
L 66.55 110.65
Q 66.55 113.45 70.85 115.65 75.2 117.85 79.1 117.6 83.05 117.3 87.15 114.75 89.45 115.7 91.85 116.4 97 117.8 102.85 117.8 107.75 117.8 112.2 115.45 116.4 113.25 119.65 109.3 122.5 105.85 124.2 101.6 115.45 115.7 104.65 116.5 97.45 118.4 93.25 111.75 94.85 107.95 95.05 107.5 95.45 106.5 95.65 104.7 95.75 104.1 95.75 103.4 95.75 103.25 95.8 103.1 95.05 104 94.3 104.8
L 94.65 105.15
Q 87.8 115.5 78.05 114.35 77.8 114.3 77.6 114.25 76.45 114.1 75.05 113.55 72.15 112.4 70.6 110.35
L 70.9 110.05
Q 70.45 109.6 70.05 109.05 69.3 107.8 69.2 106.25 69.25 104.8 69.25 104.6 69.2 103.6 69.2 102.95 69.2 102.4 69.25 102.1 69.3 101 69.75 100.3 69.9 100.05 70.1 99.85
L 70.05 99.5
Q 70.05 99.45 70.05 99.35 68.7 100.85 67.65 103.05 67.55 103.2 67.5 103.3 67.2 104 66.95 105.2 46.55 118.15 35.8 101.4 34.3 96.9 44.7 90.55 46.7 89.65 48.5 88.35 54.35 84 54.35 77.85 42.6 92.65 27.05 87.8 11.5 82.9 13.75 73.55 20.05 73.55 24.55 70.95
M 68.1 105.3
Q 68 105.35 67.95 105.4 68.1 105.05 68.1 105
L 68.1 105.3
M 117.65 75.2
Q 112.3 75.2 107.85 73.35 109.35 74.6 111.2 75.6 115.4 77.85 120.1 77.85 121.75 77.85 122.4 77.7 122.85 77.6 123.2 77.45 123.1 77.7 122.95 77.95 121.6 80.2 116.25 82.4 113.9 83.35 111.65 83.9 111.45 83.9 111.25 83.95 110.2 84.2 109.35 84.25 111.95 85.85 114.7 86.35 115.1 86.4 115.5 86.5 124.05 88.05 125.55 97.4 126.35 94.2 126.35 90.95 126.35 88.1 125.95 84.75 126.15 84.6 126.35 84.5 129.75 82.8 132.55 80 137.85 74.8 139.55 67.55 139.9 66 140.1 64.45 140.35 62.35 140.35 60.1 140.35 55.75 138.9 51.55 138.4 50.1 137.7 48.7 142.5 72.95 126 74 125.45 73.8 126.5 73.35 122.95 74.55 122.7 74.65 121.6 75.2 117.65 75.2
M 105.95 11.9
Q 104.55 8.25 101.95 5.25 110.95 27.5 88.4 21.3 99.25 27.3 105.7 21.95 106.3 21.4 106.9 20.8 106.95 20.6 107 20.45 107.15 20 107.15 17.7 107.15 17.6 107.15 17.5
L 107.15 17.45
Q 107.1 14.95 105.95 11.9
M 56.2 42.15
Q 52.35 42.15 50.7 44.45 50.15 45.2 49.95 46.1 49.8 46.6 49.8 46.85
L 49.8 47.65
Q 55.65 44.3 59.9 49.35 60 49.4 60 49.5 59.1783203125 50.3216796875 58.4 51.65 61.837890625 48.9 66.7 48.9 71.55 48.9 75 51.7 77.5 53.8 78.2 56.45 78.7 57.1 79.05 57.75 79.05 57.55 79.05 57.4 79.05 53 76.6 50.05 74.6 47.7 71.5 47 70.25 46.75 68.8 46.75 66.15 46.75 64.1 47.3 62.8 44.8 61 43.55 58.95 42.15 56.2 42.15
M 97.8 34.5
Q 93.75 34.5 90 36.7 86.85 33.9 81.9 33.9 76.3 33.9 73.6 36.95 71.45 39.35 71.45 43.05 71.45 45.15 71.75 45.8 73 44.35 75.75 42.7 79.85 40.3 83.8 40.3 84.8 40.3 85.8 40.55 84.15 43 85.8 45.2 86.2 43.3 88.65 42.1 88.8 42 88.95 41.95 90.85 41.25 93 41 94 40.9 95.05 40.9 100.45 40.9 104.8 43.8 105.05 43.95 105.3 44.15 109.3 46.95 109.8 50.5 110.3 44.8 108.75 41.1 108.1 39.45 107.05 38.2 103.85 34.5 97.8 34.5 Z"/>

<path fill="#FFFFFF" stroke="none" d="
M 127.15 28.3
Q 126.1 23.3 124.3 19.35 122.5 15.35 117.05 14.75 111.25 14.1 107.15 17.45
L 107.15 17.5
Q 107.15 17.6 107.15 17.7 107.15 20 107 20.45 106.95 20.6 106.9 20.8 106.3 21.4 105.7 21.95 99.25 27.3 88.4 21.3 110.95 27.5 101.95 5.25 101.9 5.2 98.35 2.1 94.85 -1.05 88.15 0.5 81.5 2.05 80.6 2.65 74.95 -1.05 70.7 0.9 66.45 2.85 63.45 6.05 60.45 9.25 58.55 13.6 57.8 15.2 57.35 16.75 57.25 17.05 57.2 17.3 57.15 17.3 57.1 17.3 48 12.4 39.7 18.6 35.05 22.1 33.9 26.7 33.35 26.65 32.75 26.65 27.55 26.65 23.85 30.25 20.25 33.8 20.15 38.8 15.15 40.5 11 43.35 6 46.85 3.2 51.45 0.5 55.9 0.1 61.1 0.05 61.65 0 62.2 2.6 72.05 11.05 72.8 19.5 73.55 29 64.75 29 68.35 24.55 70.95 20.05 73.55 13.75 73.55 11.5 82.9 27.05 87.8 42.6 92.65 54.35 77.85 54.35 84 48.5 88.35 46.7 89.65 44.7 90.55 34.3 96.9 35.8 101.4 46.55 118.15 66.95 105.2 67.2 104 67.5 103.3 67.55 103.2 67.65 103.05 68.7 100.85 70.05 99.35 70.05 99.45 70.05 99.5
L 70.1 99.85
Q 69.9 100.05 69.75 100.3 69.3 101 69.25 102.1 69.2 102.4 69.2 102.95 69.2 103.6 69.25 104.6 69.25 104.8 69.2 106.25 69.3 107.8 70.05 109.05 70.45 109.6 70.9 110.05
L 70.6 110.35
Q 72.15 112.4 75.05 113.55 76.45 114.1 77.6 114.25 77.8 114.3 78.05 114.35 87.8 115.5 94.65 105.15
L 94.3 104.8
Q 95.05 104 95.8 103.1 95.75 103.25 95.75 103.4 95.75 104.1 95.65 104.7 95.45 106.5 95.05 107.5 94.85 107.95 93.25 111.75 97.45 118.4 104.65 116.5 115.45 115.7 124.2 101.6 124.4 101.15 124.55 100.65 125.15 99.05 125.55 97.4 124.05 88.05 115.5 86.5 115.1 86.4 114.7 86.35 111.95 85.85 109.35 84.25 110.2 84.2 111.25 83.95 111.45 83.9 111.65 83.9 113.9 83.35 116.25 82.4 121.6 80.2 122.95 77.95 123.1 77.7 123.2 77.45 122.85 77.6 122.4 77.7 121.75 77.85 120.1 77.85 115.4 77.85 111.2 75.6 109.35 74.6 107.85 73.35 112.3 75.2 117.65 75.2 121.6 75.2 122.7 74.65 122.95 74.55 126.5 73.35 125.45 73.8 126 74 142.5 72.95 137.7 48.7 136.55 46.3 134.9 44.25 132.3 41 129 39.15 127.2 38.2 125.35 37.7 128.2 33.3 127.15 28.3
M 90 36.7
Q 93.75 34.5 97.8 34.5 103.85 34.5 107.05 38.2 108.1 39.45 108.75 41.1 110.3 44.8 109.8 50.5 109.3 46.95 105.3 44.15 105.05 43.95 104.8 43.8 100.45 40.9 95.05 40.9 94 40.9 93 41 90.85 41.25 88.95 41.95 88.8 42 88.65 42.1 86.2 43.3 85.8 45.2 84.15 43 85.8 40.55 84.8 40.3 83.8 40.3 79.85 40.3 75.75 42.7 73 44.35 71.75 45.8 71.45 45.15 71.45 43.05 71.45 39.35 73.6 36.95 76.3 33.9 81.9 33.9 86.85 33.9 90 36.7
M 50.7 44.45
Q 52.35 42.15 56.2 42.15 58.95 42.15 61 43.55 62.8 44.8 64.1 47.3 66.15 46.75 68.8 46.75 70.25 46.75 71.5 47 74.6 47.7 76.6 50.05 79.05 53 79.05 57.4 79.05 57.55 79.05 57.75 78.7 57.1 78.2 56.45 77.5 53.8 75 51.7 71.55 48.9 66.7 48.9 61.837890625 48.9 58.4 51.65 59.1783203125 50.3216796875 60 49.5 60 49.4 59.9 49.35 55.65 44.3 49.8 47.65
L 49.8 46.85
Q 49.8 46.6 49.95 46.1 50.15 45.2 50.7 44.45 Z"/>
</g>

<g id="Duplicate_Items_Folder_6_0_Layer0_0_FILL">
<path fill="#FFFFFF" stroke="none" d="
M 127.15 28.3
Q 126.1 23.3 124.3 19.35 122.5 15.35 117.05 14.75 111.25 14.1 107.15 17.45 107.1 14.95 105.95 11.9 104.55 8.25 101.95 5.25 101.9 5.2 98.35 2.1 94.85 -1.05 88.15 0.5 81.5 2.05 80.6 2.65 74.95 -1.05 70.7 0.9 66.45 2.85 63.45 6.05 60.45 9.25 58.55 13.6 57.8 15.2 57.35 16.75 57.25 17.05 57.2 17.3 57.15 17.3 57.1 17.3 48 12.4 39.7 18.6 35.05 22.1 33.9 26.7 33.35 26.65 32.75 26.65 27.55 26.65 23.85 30.25 20.25 33.8 20.15 38.8 15.15 40.5 11 43.35 6 46.85 3.2 51.45 0.5 55.9 0.1 61.1 0.05 61.65 0 62.2 0 62.55 0 62.9 0 63.65 0.05 64.45 0.05 64.5 0.65 67.25 1.2 69.95 5.8 74.2 10.35 78.4 14.3 83.6 18.25 88.85 25 90.9 29.75 92.3 34.3 92.65
L 34.7 92.65
Q 34.7 92.7 34.65 92.75 33.9 95.25 33.65 97.6 33.05 102.9 34.9 107.55 37.3 113.75 42.65 114.9 47.95 116 54.75 116.25 61.55 116.45 64 113.4 66.45 110.3 66.6 110.1
L 66.6 110.05
Q 66.65 109.95 66.6 110.25 66.55 110.45 66.55 110.55
L 66.55 110.65
Q 66.55 113.45 70.85 115.65 75.2 117.85 79.1 117.6 83.05 117.3 87.15 114.75 89.45 115.7 91.85 116.4 97 117.8 102.85 117.8 107.75 117.8 112.2 115.45 116.4 113.25 119.65 109.3 122.5 105.85 124.2 101.6 124.4 101.15 124.55 100.65 125.15 99.05 125.55 97.4 126.35 94.2 126.35 90.95 126.35 88.1 125.95 84.75 126.15 84.6 126.35 84.5 129.75 82.8 132.55 80 137.85 74.8 139.55 67.55 139.9 66 140.1 64.45 140.35 62.35 140.35 60.1 140.35 55.75 138.9 51.55 138.4 50.1 137.7 48.7 136.55 46.3 134.9 44.25 132.3 41 129 39.15 127.2 38.2 125.35 37.7 128.2 33.3 127.15 28.3
M 90 36.7
Q 93.75 34.5 97.8 34.5 103.85 34.5 107.05 38.2 108.1 39.45 108.75 41.1 110.3 44.8 109.8 50.5 109.3 46.95 105.3 44.15 105.05 43.95 104.8 43.8 100.45 40.9 95.05 40.9 94 40.9 93 41 90.85 41.25 88.95 41.95 88.8 42 88.65 42.1 86.2 43.3 85.8 45.2 84.15 43 85.8 40.55 84.8 40.3 83.8 40.3 79.85 40.3 75.75 42.7 73 44.35 71.75 45.8 71.45 45.15 71.45 43.05 71.45 39.35 73.6 36.95 76.3 33.9 81.9 33.9 86.85 33.9 90 36.7
M 67.95 105.4
Q 68.1 105.05 68.1 105
L 68.1 105.3
Q 68 105.35 67.95 105.4 Z"/>

<path fill="#999999" stroke="none" d="
M 97.8 34.5
Q 93.75 34.5 90 36.7 86.85 33.9 81.9 33.9 76.3 33.9 73.6 36.95 71.45 39.35 71.45 43.05 71.45 45.15 71.75 45.8 73 44.35 75.75 42.7 79.85 40.3 83.8 40.3 84.8 40.3 85.8 40.55 84.15 43 85.8 45.2 86.2 43.3 88.65 42.1 88.8 42 88.95 41.95 90.85 41.25 93 41 94 40.9 95.05 40.9 100.45 40.9 104.8 43.8 105.05 43.95 105.3 44.15 109.3 46.95 109.8 50.5 110.3 44.8 108.75 41.1 108.1 39.45 107.05 38.2 103.85 34.5 97.8 34.5 Z"/>
</g>

<g id="Duplicate_Items_Folder_7_0_Layer0_0_FILL">
<path fill="#FFFFFF" stroke="none" d="
M 235.8 86.65
Q 235.8 50.75 211.4 25.35 187.05 0 152.55 0 118.1 0 93.7 25.35 70.95 49.1 69.45 82 43.75 86.1 24.35 106.25 0 131.65 0 167.55 0 203.5 24.35 228.85 48.75 254.25 83.2 254.25 106.95 254.25 125.9 242.2 148.15 261.2 177.95 261.2 212.45 261.2 236.8 235.8 261.2 210.45 261.2 174.5 261.2 138.6 236.8 113.2 234.95 111.3 233.1 109.55 235.8 98.7 235.8 86.65 Z"/>
</g>

<g id="Duplicate_Items_Folder_8_0_Layer0_0_FILL">
<path fill="#FFFFFF" stroke="none" d="
M 64.9 42.4
Q 62.5 20.3 53.35 10.15 44.2 0 31.25 0 18.3 0 9.15 10.15 0 20.3 0 34.65 0 49.05 10.85 55.75 21.7 62.45 40.45 87.05 59.15 111.55 63.2 88.05 67.25 64.5 64.9 42.4 Z"/>
</g>

<g id="Duplicate_Items_Folder_4_0_Layer0_0_FILL">
<path fill="#999999" stroke="none" d="
M 90.3 277.4
L 90.25 277.4
Q 76.55 285.75 62.2 303.55 44.55 325.45 44.55 338.8 44.55 347.4 48.5 353.1 52.7 359.15 56.65 357.2 52.9 362.65 61.95 363.15 71 363.65 79.3 363.15
L 78.75 363.15
Q 107.85 359.3 114.3 357.95 119.35 356.95 125.2 354.85 117 352.7 112.85 347.65 110.6 344.9 109.8 341.55 109.45 340.1 109.45 338.5 109.45 334.35 109.75 333.8 110.95 332.25 112.8 328.65 106.4 337.45 97.75 340.9 91.75 343.25 83.65 343.25 64.65 343.25 64.65 326.8 64.65 317.7 70.25 305.55 77.25 290.45 90.3 277.4
M 162.05 195.5
Q 164.3 189.5 164.3 183.95 164.3 172.9 156.9 168.45 153.7 166.6 147.7 164.85 143.65 163.75 140.4 162.9 142.9 164.4 145.1 167.55 149.7 174.1 149.7 183.1 149.7 191.9 146.95 197.3 143.2 204.55 134.05 207.35 150.6 211.5 159.3 220.2 170.1 230.8 170.9 249.25 172.05 247.8 173.3 246.15 177.75 239.2 177.75 232.45 177.75 223.25 172.8 216.85 168.85 211.7 157.65 203.9 160.25 200.05 162.05 195.5 Z"/>

<path fill="#CCCCCC" stroke="none" d="
M 47.4 2.6
Q 45.05 1.5 42.8 0.7 30.35 0.15 17.85 0 12.4 1.9 8.5 5.75 0 14.25 0 30.95 0 38.35 5.7 43.7 7.9 45.75 18.1 52.1 26.5 57.35 30.15 62.5 35.45 70 34.85 81.15 33.7 104.8 54.3 127.6 59.45 133.35 68.65 142.7 75.25 150.15 75.25 154.95 75.25 157.5 66.95 167.6 58.6 180.35 58.6 196.4 58.6 223.45 71.9 245.55 73.95 249 76.3 252.35 76.5 252.5 76.6 252.75 79.6 256.8 83.2 260.85
L 83.2 260.9
Q 86 264 89.15 267.1
L 88.25 263.7
Q 86.25 262.15 84.55 260.15 81.55 256.75 79.35 251.9 79.25 251.7 79.2 251.6 77.8 248.4 76.75 244.65
L 76.45 244.05 76.55 244
Q 73.65 233.65 73.65 220.75 73.65 195.35 89.65 169.85 97.85 156.8 107.25 147.65 71.45 135.35 58.55 107.45 51.35 91.75 51.35 67.15 51.35 64.7 52.5 63.75 53.55 62.9 56.35 62.9 66.7 62.9 70.6 74.45 72.55 80.15 72.55 87.15 75.1 85.15 76.25 77.15 76.45 76 76.6 74.95 76.6 74.85 76.6 74.8 77 71.55 77 68.9 77 60.65 67.55 54.15 63.55 51.45 59.1 49.95 57.5 50.25 55.9 50.6
L 55.35 48.9
Q 50.3 47.8 44.65 48.15 47.35 46.15 52.25 44 55.8 41.65 55.8 36.05 55.8 33.7 52.6 32.5 48.25 31.2 45.75 30.4 35.65 27.3 35.65 18.2 35.65 10.9 42.9 5.3 45.05 3.6 47.4 2.6 Z"/>

<path fill="#FFFFFF" stroke="none" d="
M 195.9 147.75
Q 197.95 140.2 197.95 135.1 197.95 89.6 163.1 67.1 140.35 52.4 105.45 48.9 90.8 32.5 72.6 18.5 58.5 7.65 47.4 2.6 45.05 3.6 42.9 5.3 35.65 10.9 35.65 18.2 35.65 27.3 45.75 30.4 48.25 31.2 52.6 32.5 55.8 33.7 55.8 36.05 55.8 41.65 52.25 44 47.35 46.15 44.65 48.15 50.3 47.8 55.35 48.9
L 55.9 50.6
Q 57.5 50.25 59.1 49.95 63.55 51.45 67.55 54.15 77 60.65 77 68.9 77 71.55 76.6 74.8 76.6 74.85 76.6 74.95 76.45 76 76.25 77.15 75.1 85.15 72.55 87.15 72.55 80.15 70.6 74.45 66.7 62.9 56.35 62.9 53.55 62.9 52.5 63.75 51.35 64.7 51.35 67.15 51.35 91.75 58.55 107.45 71.45 135.35 107.25 147.65 97.85 156.8 89.65 169.85 73.65 195.35 73.65 220.75 73.65 233.65 76.55 244
L 76.45 244.05 76.75 244.65
Q 77.8 248.4 79.2 251.6 79.25 251.7 79.35 251.9 81.55 256.75 84.55 260.15 86.25 262.15 88.25 263.7
L 89.15 267.1
Q 96.2 274 96.3 274.1 93.3 275.5 90.3 277.35
L 90.25 277.4 90.3 277.4
Q 77.25 290.45 70.25 305.55 64.65 317.7 64.65 326.8 64.65 343.25 83.65 343.25 91.75 343.25 97.75 340.9 106.4 337.45 112.8 328.65 110.95 332.25 109.75 333.8 109.45 334.35 109.45 338.5 109.45 340.1 109.8 341.55 110.6 344.9 112.85 347.65 117 352.7 125.2 354.85 138.05 350.05 154.75 339.85 162.95 334.85 169.9 329.1 170.05 328.95 170.15 328.85 176.2 323.75 181.3 318.1 192.5 305.65 192.4 297.85 192.25 289.3 196.15 283.15 197 281.75 204.8 272.95 210.75 266.25 213.55 258.8 217.55 248.25 217.55 232.1 217.55 230.55 216.65 228.4 216.25 227.3 215.85 226.4 226.5 219.2 230.15 210.7 233.75 202.2 231.55 189.9 229.35 177.55 218.15 170.3 206.95 163 199.25 159.2 193.8 156.55 193.8 155.5 193.8 155.3 195.9 147.75
M 164.3 183.95
Q 164.3 189.5 162.05 195.5 160.25 200.05 157.65 203.9 168.85 211.7 172.8 216.85 177.75 223.25 177.75 232.45 177.75 239.2 173.3 246.15 172.05 247.8 170.9 249.25 170.1 230.8 159.3 220.2 150.6 211.5 134.05 207.35 143.2 204.55 146.95 197.3 149.7 191.9 149.7 183.1 149.7 174.1 145.1 167.55 142.9 164.4 140.4 162.9 143.65 163.75 147.7 164.85 153.7 166.6 156.9 168.45 164.3 172.9 164.3 183.95 Z"/>
</g>

<g id="symbols_transform_dancer_sport_5_Layer3_0_FILL">
<path fill="#1E1E1E" stroke="none" d="
M 374.15 457.15
Q 373.65 457.05 373.15 457 380.05 467.2 385.2 473.75 389.85 479.8 392 487.4 393.4 492.2 394.4 499.95 395.2 508.15 395.85 510.9 397.05 516.3 399.5 520.4
L 407.65 533.85
Q 405.55 528.75 405.65 524.2 405.55 513.9 415.55 503.85 427.4 491.45 411.6 454.35 391.2 459.15 374.15 457.15 Z"/>

<path fill="#333333" stroke="none" d="
M 411.6 454.35
Q 410.05 445.65 405.95 435.65 405.25 435.7 404.6 435.85 386.6 436.4 368.45 429.4
L 368.4 429.45 371.15 443.7
Q 372.6 450.6 374.25 456.1 391.45 457.45 411.6 454.35
M 326.85 368.8
L 350.1 376.2 349.9 376.85
Q 367.95 381.3 388.75 383.2 409.45 385.2 433.25 384.65 446 382.45 456.3 379.4 457.5 379 458.7 378.7 471.3 374.6 480 368.95 484.45 365.1 487.75 361.7 494.15 354.65 495.85 349
L 500.5 348.45
Q 499.7 346.6 498.25 345.15 497.35 344.2 496.25 343.45 496 341.95 495.3 340.55
L 488.85 340.55
Q 488.2 340.45 487.6 340.35 486.2 340.1 485.1 340.2 481.45 339.8 479.05 340.55
L 474.65 340.55 475.25 343.1
Q 478.7 345 477.35 350.7 477.2 350.95 477.05 351.2
L 427.85 356.95
Q 405.65 361.8 382.45 362.4 381.8 362.4 381.2 362.45
L 371.65 363.6 354.6 365.55 326.85 368.8
M 429.35 166.05
Q 427 165.65 424.45 165.4 401.75 162.6 366.1 165.15 316.95 168.55 283.65 184.65 268.45 191.8 259.4 200.85 254.5 205.3 251.9 209.95 259.55 214.2 269.85 217.65 273.35 218.8 277.4 220.05 279.2 220.6 281.2 221.25 293.65 224.55 307.15 226.6 309.3 224.9 311.55 223.4 336.2 207.6 374 204.65 412.9 201.15 432.7 208.35 436.95 209.8 440.85 211.95 447.1 209.2 452.8 205.95 453.3 205.65 453.9 205.45 460.3 201.65 465.1 197.7 470.45 193.4 473.8 189.05 467.25 181.8 460.55 177.35 453.15 172.4 443.9 169.45 443.35 169.3 442.85 169.2 437.3 168.05 430.9 167.4 430.1 166.75 429.35 166.05
M 356.4 114.05
Q 356.05 114.05 355.7 114.1 285.4 118.25 272.75 126.25
L 272.8 126.5
Q 311.8 122.15 355.95 125.05 357.5 125.15 358.95 125.35 357.45 125.3 356 125.35
L 355.95 125.35
Q 302.8 126.65 265.5 143.3 226.4 160.8 229.85 184 230.35 187.45 231.7 190.8 233.6 182.05 243.65 173.3 253.7 164.45 270.55 157.45 307.25 141.75 360.5 138.8 414.45 135.7 440.75 142.75 452.8 145.85 462 151.75 469.85 156.7 477.45 165 475.45 159.9 471.35 155.5 468.35 152.05 463.95 148.95 427.8 119.7 365.3 114.65 360.9 114.3 356.4 114.05 Z"/>

<path fill="#774716" stroke="none" d="
M 413.55 421
Q 418.25 420.4 422.9 419.1 442.65 413.35 459.5 393.15 432.95 403.4 393.8 400.25 393.6 400.2 393.45 400.15 365.9 397.85 332 389 340.7 395.85 349.05 401.5 351.9 403.3 354.75 405.05 379.55 420.25 400.3 421.65 407.1 422 413.55 421 Z"/>

<path fill="#5A9C58" stroke="none" d="
M 405.95 435.65
Q 411.9 435.25 417.9 434.1
L 422.9 419.1
Q 418.25 420.4 413.55 421 407.1 422 400.3 421.65 379.55 420.25 354.75 405.05 351.9 403.3 349.05 401.5
L 354.55 422.95
Q 361.55 426.7 368.45 429.4 386.6 436.4 404.6 435.85 405.25 435.7 405.95 435.65
M 370.8 356.4
L 371.65 363.6 381.2 362.45
Q 381.8 362.4 382.45 362.4 405.65 361.8 427.85 356.95
L 477.05 351.2
Q 477.2 350.95 477.35 350.7 478.7 345 475.25 343.1
L 474.65 340.55 471.1 325.7
Q 458.8 331.05 447.15 335.7 440.45 338.25 433.95 340.55 431.6 341.35 429.3 342.15 403.45 350.9 381 354.85 378.5 355.25 376.05 355.65
L 374.4 355.9
Q 373.8 355.95 373.35 356.1
L 370.8 356.4
M 326.85 368.8
L 354.6 365.55 353.7 357.8
Q 339.65 358.2 328.8 357.95 316.75 357.65 308.75 356.55 305 356.85 301.25 357.1 298.15 357.3 295.05 357.5 293.05 357.5 291.1 357.45
L 326.85 368.8
M 424.45 165.4
Q 427 165.65 429.35 166.05 430.1 166.75 430.9 167.4 437.3 168.05 442.85 169.2 443.35 169.3 443.9 169.45 461.9 173.4 470.05 182.95 471.7 184.9 474 188.8 474.95 190.35 475.95 192.2 478.55 196.95 481 198.1 481.95 197.85 483.75 197.1 485.2 196.5 485.75 196.5 486.25 196.5 486.25 191.25 486.25 180 479.05 172.55 478.2 171.65 477.25 170.85 466.6 161.65 444.7 160.2 435.8 159.6 425.1 160.3
L 424.45 165.4
M 526.15 163.9
Q 524.35 163.1 522.55 162.35 523.7 165.5 524.35 169
L 530.9 166.2
Q 528.8 165.1 526.55 164.05 526.35 164 526.15 163.9 Z"/>

<path fill="#6B6B6B" stroke="none" d="
M 311.55 223.4
Q 309.3 224.9 307.15 226.6 309.15 226.85 311.3 227.05
L 311.55 223.4 Z"/>

<path fill="#EFEFEF" stroke="none" d="
M 272.8 126.5
L 272.75 126.25 267.9 126.95
Q 270.35 126.65 272.8 126.5 Z"/>

<path fill="#FFFFFF" stroke="none" d="
M 263.05 118.35
L 262.9 118.5 265.55 125.05 263.2 118.55 270.5 117
Q 266.75 117.55 263.05 118.35
M 355.95 125.05
L 356 125.35
Q 357.45 125.3 358.95 125.35 357.5 125.15 355.95 125.05 Z"/>

<path fill="#AAC3F5" stroke="none" d="
M 490.4 220
Q 493.7 218 496.75 215.9
L 490.1 220.1
Q 490.2220703125 220.035546875 490.4 220
M 356 125.35
L 355.95 125.05 355.95 125.35 356 125.35
M 355.35 108.3
L 355.35 108.35 355.7 114.1
Q 356.05 114.05 356.4 114.05
L 356.4 108.3
Q 355.85 108.3 355.35 108.3 Z"/>

<path fill="#6B8BC9" stroke="none" d="
M 353.7 357.8
L 354.6 365.55 371.65 363.6 370.8 356.4
Q 370.55 356.4 370.3 356.45 361.75 357.5 353.7 357.8 Z"/>

<path fill="#95B0E4" stroke="none" d="
M 350.1 376.2
L 334.85 372.5
Q 342.1 374.9 349.9 376.85
L 350.1 376.2 Z"/>

<path fill="#653B10" stroke="none" d="
M 334.85 372.5
Q 329.85 370.85 325.15 369
L 321.9 369.4 332 389
Q 365.9 397.85 393.45 400.15 393.6 400.2 393.8 400.25 432.95 403.4 459.5 393.15
L 456.3 379.4
Q 446 382.45 433.25 384.65 409.45 385.2 388.75 383.2 367.95 381.3 349.9 376.85 342.1 374.9 334.85 372.5 Z"/>

<path fill="#38D4B1" stroke="none" d="
M 476.25 258.65
Q 471.6 259.75 467 260.9 409.25 274.55 360.85 281.25 333.7 285 310.25 286.6 249.4 290.65 213.25 280.05
L 213.1 280.15
Q 190.7 272.4 174.8 258.25 156.75 281.05 158.65 300.75 159 304.75 160.25 308.45 162.3 315.65 167.55 322.05 195.65 356.05 291.1 357.45 293.05 357.5 295.05 357.5 298.15 357.3 301.25 357.1 305 356.85 308.75 356.55 316.75 357.65 328.8 357.95 339.65 358.2 353.7 357.8 361.75 357.5 370.3 356.45 370.55 356.4 370.8 356.4
L 373.35 356.1
Q 373.8 355.95 374.4 355.9
L 376.05 355.65
Q 378.5 355.25 381 354.85 403.45 350.9 429.3 342.15 431.6 341.35 433.95 340.55 440.45 338.25 447.15 335.7 458.8 331.05 471.1 325.7 471.3 325.55 471.6 325.45 477.1 322.9 482.85 320.3 486.85 318.35 491.05 316.45 525.15 297.9 544.45 278.15 549.35 273.15 554.75 265.7 558.55 260.4 562.6 253.85 566.55 247.4 567.5 244.85 567.65 244.2 567.7 243.9 567.7 242.55 565 245.2 562 248.05 561.1 246.9 568.5 237.3 567.8 230.9 566.85 223.65 555.3 220.35 554.4 220.15 553.65 219.9
L 553.25 219.75
Q 552.95 219.7 552.7 219.7
L 552.35 219.6
Q 550.2 219.05 547.8 218.8 546.55 220.8 545.25 223.15 535.45 238.6 514.95 256.9 503.5 267.15 488.65 278.3 486.15 280.65 483.45 283.2 478.95 286.9 473.8 290.9 473.55 290.9 473.45 291.15 472.7 291.7 472 292.25 456.7 303.15 435.55 313.8 452.45 301.3 466.95 285.05 472.55 278.75 477.8 271.9 478.65 270.7 479.4 269.7 480 268.9 480.6 268.05 483.45 265.15 487.2 261.1 495.75 251.9 508.9 236.85 528 215.1 528 214.6 528 212.9 527.75 212.8 527.45 212.7 527.45 212.6 515.3 217.05 503 231.45 501.9 232.7 500.85 234 490.5 248.2 482.95 257.05 479.55 257.85 476.25 258.65
M 522.55 162.35
Q 521.8 160.45 521.05 158.75 510.7 137.8 472.6 122.85 470.5 121.85 468.35 121.15 454.35 115.9 439 112.3 424.25 110.25 410.1 109.95 387.75 108.2 365.7 108.2 365.5 108.2 365.3 108.2 360.8 108.2 356.4 108.3
L 356.4 114.05
Q 360.9 114.3 365.3 114.65 427.8 119.7 463.95 148.95 468.35 152.05 471.35 155.5 475.45 159.9 477.45 165 478.3 167.25 478.75 169.9 478.95 171.25 479.05 172.55 486.25 180 486.25 191.25 486.25 196.5 485.75 196.5 485.2 196.5 483.75 197.1 481.95 197.85 481 198.1 478.55 196.95 475.95 192.2 474.95 190.35 474 188.8 473.9 188.9 473.8 189.05 470.45 193.4 465.1 197.7 460.3 201.65 453.9 205.45 453.3 205.65 452.8 205.95 447.1 209.2 440.85 211.95 438.25 213 435.45 214.2 409.1 224.4 372.5 227.75 339.95 230.6 311.3 227.05 309.15 226.85 307.15 226.6 293.65 224.55 281.2 221.25 279.2 220.6 277.4 220.05 273.35 218.8 269.85 217.65 259.55 214.2 251.9 209.95 236.7 201.5 231.7 190.8 230.35 187.45 229.85 184 226.4 160.8 265.5 143.3 302.8 126.65 355.95 125.35
L 355.95 125.05
Q 311.8 122.15 272.8 126.5 270.35 126.65 267.9 126.95
L 272.75 126.25
Q 285.4 118.25 355.7 114.1
L 355.35 108.35
Q 345.6 108.5 336 109.1 302.95 111 270.5 117
L 263.2 118.55 265.55 125.05 262.9 118.5
Q 254.3 120.15 246.3 122.1 230.05 125.95 216.6 130.9 193.8 138.95 185.45 147.35 165.55 162.45 163.4 179.8 162.7 184.6 163.5 189.55 164.65 198 169.55 205.6 185.05 229.25 236.15 243.75 260.65 250.6 287.5 253.65 329.6 258.35 376.8 253.35 447.05 245.9 489.55 220.45 489.65 220.35 489.85 220.25
L 490 220.15 490 220.15 490.1 220.1 496.75 215.9
Q 497.05 215.65 497.45 215.45 526.05 195.75 524.85 173.25 524.85 172.9 524.8 172.55 524.65 170.8 524.35 169 523.7 165.5 522.55 162.35 Z"/>

<path fill="#304E88" stroke="none" d="
M 440.85 211.95
Q 436.95 209.8 432.7 208.35 412.9 201.15 374 204.65 336.2 207.6 311.55 223.4
L 311.3 227.05
Q 339.95 230.6 372.5 227.75 409.1 224.4 435.45 214.2 438.25 213 440.85 211.95 Z"/>

<path fill="#CCCCCC" stroke="none" d="
M 474 188.8
Q 471.7 184.9 470.05 182.95 461.9 173.4 443.9 169.45 453.15 172.4 460.55 177.35 467.25 181.8 473.8 189.05 473.9 188.9 474 188.8 Z"/>

<path fill="#833E77" stroke="none" d="
M 425.1 160.3
Q 435.8 159.6 444.7 160.2 466.6 161.65 477.25 170.85 478.2 171.65 479.05 172.55 478.95 171.25 478.75 169.9 478.3 167.25 477.45 165 469.85 156.7 462 151.75 452.8 145.85 440.75 142.75 414.45 135.7 360.5 138.8 307.25 141.75 270.55 157.45 253.7 164.45 243.65 173.3 233.6 182.05 231.7 190.8 236.7 201.5 251.9 209.95 254.5 205.3 259.4 200.85 268.45 191.8 283.65 184.65 316.95 168.55 366.1 165.15 401.75 162.6 424.45 165.4
L 425.1 160.3
M 524.8 172.55
Q 524.85 172.9 524.85 173.25 526.05 195.75 497.45 215.45 497.05 215.65 496.75 215.9 493.7 218 490.4 220 490.2220703125 220.035546875 490.1 220.1
L 490 220.15 490 220.15 489.85 220.25
Q 489.65 220.35 489.55 220.45 447.05 245.9 376.8 253.35 329.6 258.35 287.5 253.65 260.65 250.6 236.15 243.75 185.05 229.25 169.55 205.6
L 170.45 249.45
Q 170.6 249.8 170.8 250.15
L 171.05 250.65
Q 172.9 254.15 175.45 257.4 175.1 257.8 174.8 258.25 190.7 272.4 213.1 280.15
L 213.25 280.05
Q 249.4 290.65 310.25 286.6 333.7 285 360.85 281.25 409.25 274.55 467 260.9 471.6 259.75 476.25 258.65 479.55 257.85 482.95 257.05 490.5 248.2 500.85 234 501.9 232.7 503 231.45 515.3 217.05 527.45 212.6 527.45 212.7 527.75 212.8 528 212.9 528 214.6 528 215.1 508.9 236.85 495.75 251.9 487.2 261.1 483.45 265.15 480.6 268.05 480 268.9 479.4 269.7 478.65 270.7 477.8 271.9 472.55 278.75 466.95 285.05 452.45 301.3 435.55 313.8 456.7 303.15 472 292.25 472.7 291.7 473.45 291.15 473.55 290.9 473.8 290.9 478.95 286.9 483.45 283.2 486.15 280.65 488.65 278.3 503.5 267.15 514.95 256.9 535.45 238.6 545.25 223.15 546.55 220.8 547.8 218.8 559.15 197.65 549.4 182.25 545.15 175.4 537.25 170 535.85 169.05 534.4 168.15 532.7 167.15 530.9 166.2
L 524.35 169
Q 524.65 170.8 524.8 172.55 Z"/>
</g>

<g id="symbols_transform_dancer_sport_5_Layer2_0_FILL">
<path fill="#774716" stroke="none" d="
M 418.55 415.45
Q 412.1 415 408.25 412.8 407.05 412.2 405.5 411.15
L 403.3 409.7
Q 402.3 409.05 401.85 409.05 401.25 409.05 401.25 409.95 401.15 410.5 402.45 411.6 403.85 412.75 406 413.85 411.8 416.7 418.1 416.6 422.1 416.55 423.15 416.4 424.05 416.25 424.05 415.8 424.05 415.6 422.5 415.55 419.6 415.5 418.55 415.45
M 442.85 343.4
Q 442.75 344.8 443.35 344.35 444.4 343.4 442.85 343.4
M 402.65 388.15
Q 401.5 388.5 401.5 390.15 401.45 393.8 421.9 395.45 432.35 396.25 443.5 396.35 457.45 395.45 477.05 387.9 485.7 384.5 491.1 381.3 496.9 377.85 496.85 375.75 496.8 375.2 496.2 374.55 495.25 373.65 493.65 373.8 492.55 373.85 490.75 376.55 488.8 379.2 481.55 384.1 474.3 388.9 457.3 390.65 440.65 392.3 431.5 391.85 422 391.35 420.25 390.95 416.2 390.75 411.95 389.9 407.65 388.85 406.1 388.5 403.6 387.9 402.65 388.15 Z"/>

<path fill="#5A9C58" stroke="none" d="
M 259.75 329.55
Q 258.65 327.9 256.75 327.15 255.75 327.4 254.9 328.35 253.9 329.45 253.9 330.6 254.4 332.15 256.75 333 258.2 332.4 259.05 331.3 259.75 330.35 259.75 329.55
M 203.35 369.3
Q 203.8 369.75 204.2 370.4 204.75 370.8 206.65 370.8 208.45 370.8 209.15 370.35
L 209.8 369.9
Q 210.1 370.8 210.1 367.8 210.1 366.05 209.8 365.9 209.5 365.75 209.5 365.55 206.75 364.5 205.1 365.4 204.4 365.8 203.05 367.5
L 203.35 369.3
M 615.25 161.7
Q 614.25 160.2 612.4 159.45 611.45 159.7 610.45 160.5 609.4 161.35 609.4 162
L 609.7 163.8
Q 610.6 164.7 612.4 165.3 613.75 164.7 614.55 163.5 615.25 162.5 615.25 161.7
M 567.7 164.55
Q 567.8 164.65 569.8 165.3 571.6 164.85 572.5 163.5 572.8 165.15 572.8 162.15 572.8 160.35 572.5 160.25 572.2 160.15 572.2 160.05 570.05 159.45 568.55 159.9 566.95 160.4 566.95 162 566.95 163.95 567.7 164.55
M 588.1 115.65
Q 587.05 114.05 585.25 113.25 584.3 113.5 583.3 114.4 582.25 115.3 582.25 115.95
L 582.55 117.75
Q 583.45 118.65 585.25 119.25 586.6 118.65 587.4 117.45 588.1 116.45 588.1 115.65 Z"/>

<path fill="#833E77" stroke="none" d="
M 191.9 321.55
Q 188.2 320.55 187.6 318.9 186.85 317.15 184.05 317 181.1 316.7 179 319.95
L 179.4 322.15
Q 180.35 322.45 181.1 322.7 181.55 322.85 188.55 322.7 195.55 322.5 191.9 321.55
M 145.15 267.75
Q 145.15 269.65 151.9 281.1 159.5 294 164.05 294 166.4 294 167.25 293.05 168.05 291.6 168.85 290.55 166.25 288.95 161.65 282.5 156.35 274.55 153.9 271 149.65 264.75 147.7 263.55 145.15 262.05 145.15 267.75
M 347.8 384.8
Q 338.1 389.55 327.45 392.05 323.75 392.85 322.8 393.35 321.3 394.1 321.3 395.65 321.25 397.05 322.1 397.75 323.25 398.85 326.45 399 336.2 397.85 344.2 395.15 348.15 393.75 351.7 392.05 354.05 390.85 356.2 389.55 358.85 387.85 361.45 385.65 364.85 382.7 368.15 378.9 371.65 373.4 372.95 372.2 374.5 370.75 382.45 368.45 383.55 368.1 385.4 367.8 388.5 367.25 393.65 366.7 402.65 365.6 411.85 359.8 417.25 356.35 422.75 351.3 425.7 348.5 428 346.5 422.05 350.5 410.45 357.35 398.95 364.1 384.45 362.15 370.15 360.15 361.85 373.15 359.95 376.05 356.5 379.1 352.5 382.5 347.8 384.8
M 407.35 280.35
Q 407.35 278.45 406.5 278.05 405.25 277.8 404.5 277.5
L 398.8 279.3 363.1 279.9
Q 354.95 280.75 343.2 283.8 331.8 286.8 320.35 287.85
L 286.6 287.85
Q 280.6 286.45 275.1 285.15 267.75 283.4 261.4 281.9 239.85 276.75 236.2 274.5 234.7 274.15 228.4 271.55 221.25 268.55 216.3 266.95 198.65 261.2 185.35 264 185.35 265.25 186.2 266.4 187.05 267.6 188.35 268.05
L 201.85 268.35
Q 206.05 269.65 213.5 272.35 218.7 274.25 223.75 275.4 226 275.95 230.7 278.5 235.55 281.2 239.65 282.3 242.65 283.15 251.35 286.05 258.85 288.5 264.1 289.85 280.65 294 302.2 294 329.05 294 341.8 290.65 345.15 289.75 350.35 288 355.1 286.55 360.1 286.05
L 397.3 285.75
Q 403.15 284.65 405.25 283.5 407.35 282.35 407.35 280.35
M 524.75 150.35
Q 520.9 148.4 518.75 153.95 516.4 159.45 516.9 159.9 517.25 160.45 517.3 160.55
L 522.85 160.9
Q 524.3 160.55 525.75 159.4 527.15 158.15 528 155.2 528.7 152.2 524.75 150.35 Z"/>

<path fill="#333333" stroke="none" d="
M 245.8 272.6
Q 262.55 281.25 275.4 284 283.1 285.65 289.4 285.2 291.25 285.05 292.35 283.65 293 282.6 293.05 281.7 293.05 279.9 288.65 279.55 279.45 278.75 275.3 277.9 250.35 272.95 222 250.6 217 246.6 214.05 241.7 210.7 236.15 211.35 231.2 211.45 229.05 210.75 226.15 209.9 222.8 209.6 221.1 209.8 216.2 205.85 216.3 204.25 216.35 203.05 217.25 201.75 218.35 201.7 219.85 201.3 226.95 205.9 238.85 210.5 250.8 208.15 244.15 205.7 237.4 221.5 252.7 237.6 268.35 245.8 272.6
M 222.3 121.8
Q 221.15 121.15 219.05 121.05 216.1 120.65 212.8 121.15 207.3 122 200.7 125.35 199.5 125.95 198.3 126.65 189.75 131.3 181.5 139.1 172.1 147.9 166.1 157.65 164.95 159.55 164 161.35 159.65 169.6 159.25 176.55 159.2 177.25 159.65 181 160.15 186.2 161.25 190.5 164.4 204.2 170.7 203.5 171.95 203.35 173.05 202.3 173.9 201.35 174 200.45 174 199.8 172.75 197.2 170.5 192.5 167.7 182.85 164.85 173.3 165.2 167.3 165.3 164.3 166.2 162.5 167.05 160.7 168.65 160.15 171.8 158.95 176.9 153.2 178.8 151.05 182.85 146.8 187.3 142.1 189.5 140.05 195 134.95 200.9 131.4 206.8 127.8 213.05 125.8 216.5 124.65 220.5 123.95 223.25 123.45 223.3 123.25 223.3 122.4 222.3 121.8
M 545.2 188.45
Q 547.6 182.4 547.45 178.1 547.3 176.45 545.8 174.55 544.1 172.65 542.15 171.9 536.85 169.85 536.15 177.75 535.85 180.8 535 184.55 533.85 189.2 532.4 191.65 531.15 193.75 528.05 197.3 527.35 198.1 526.55 198.95 521.75 204 517.3 207.3 501 219.45 482.95 222.95 475.35 224 473.05 224.35 469.45 224.9 469.5 226.15 469.5 226.45 468.55 226.9 468.45 226.9 468.45 226.95
L 468.65 227.5
Q 523.35 215.65 535.1 203.6 541.9 196.5 545.2 188.45 Z"/>

<path fill="#95B0E4" stroke="none" d="
M 101.75 227.9
Q 101.7 228.2 101.7 228.5 101.5 229.6 101.8 229.95 102.05 230.4 102.05 230.45 102.9 230.65 103.5 230.9 103.95 230.95 105.4 230.85 106.65 230.7 107.6 229.7 108.1 229.1 108.5 229 107.65 228.7 105.55 227.8 101.9 226.2 101.75 227.9
M 130.95 174
Q 130.8 175.15 131.1 175.55 131.35 175.9 131.35 176
L 133.8 171.25
Q 131.05 171.55 130.95 174
M 134.6 171.25
Q 134.35 171.2 134.3 171.25 136 175.8 136.9 175.05 137.95 174.1 138 173.2 138.05 171.15 134.6 171.25
M 467.2 227.8
Q 467.3 227.75 467.45 227.75 468.05 227.6 468.65 227.5
L 468.45 226.95
Q 468.05 227.1 467.55 227.3 465.35 228.05 460.75 229.15 464.05 228.5 467.2 227.8 Z"/>

<path fill="#1E1E1E" stroke="none" d="
M 345.05 395.65
Q 344.6 395.9 344.4 395.8 344.35 396.25 344.15 396.5 343.95 396.85 343.85 397.6 343.65 398.55 344.8 400.15 346 402 348.4 403.75 354.55 408.45 364.4 410.05 368.1 410.65 369.1 410.4 370.05 410.3 370.45 409.5 363.75 407.8 359.05 407 354.35 406.2 351.7 404.7 349.05 403.25 347.3 399.35 345.6 395.5 345.05 395.65 Z"/>

<path fill="#3A9438" stroke="none" d="
M 445.75 196.1
Q 467.15 185.25 474.9 182.3
L 473.75 181.85
Q 463.2 184.65 445.05 193.9 426.8 203.15 420.4 205.95 419.5 206.35 418.8 206.6
L 376.1 214.1 366.45 215.2
Q 363.15 215.8 358.15 215.4 353.1 214.95 346.4 213.45 332.3 209.85 327.9 208.95 326.7 209.25 326.15 209.7
L 325.85 210.1
Q 335.3 213.9 349.1 216.15 353.75 216.9 357.95 217.3 358 217.3 358.05 217.3 369 218.25 376.5 216.35
L 418.55 209.05
Q 419 208.85 419.6 208.65 420.3 208.35 421.2 207.95 428.55 204.75 445.75 196.1
M 466.55 228.45
Q 466.9 228.1 467.2 227.8 464.05 228.5 460.75 229.15 465.35 228.05 467.55 227.3 467.85 226.8 467.85 226.35 467.8 225.35 466.35 224.55 464.7 223.6 462.15 223.5 450.65 224.95 442.85 225.8 440.95 226 439.25 226.15
L 401.25 232.15
Q 397.1 233.2 393.35 234 390.5 234 387.8 234 387.3 233.95 386.85 233.95 385.85 233.95 384.85 233.95 384.75 233.9 384.65 233.95 364.75 233.5 349.85 231.3 340.75 229.95 333.55 227.9 326.35 225.85 320.95 223.15 299.75 212.45 293.85 210.85
L 249.8 203.1 241 201.55
Q 288.1 215.7 291.9 216.85
L 292.2 216.95
Q 296.4 218.35 312.95 223.15 316.85 224.25 320.35 225.25 327.6 227.35 333.2 229.15 335.3 229.85 337.15 230.45 339.2 231.15 349.55 232.75
L 349.6 232.75
Q 359.15 234.25 375.7 236.5 374.2 236.55 372.9 236.6 379.25 237.3 384.5 237.8 384.75 237.85 384.95 237.85 385.9 237.9 386.85 238 387.05 238.05 387.3 238.05 387.45 238.1 387.65 238.1 387.75 238.1 387.9 238.15 390.7 238.35 393.2 238.5 397.9 238.75 401.35 238.7 401.9 238.7 402.45 238.7
L 443.55 232.25
Q 450.05 231.8 463.8 229.95 465.25 229.65 466.55 228.45 Z"/>

<path fill="#73BE71" stroke="none" d="
M 378.1 135.15
Q 383.9 139.85 400.45 145 416.6 150 425.05 150 426.85 150 428.65 149.7
L 430.45 149.4
Q 430.5 149.15 430.85 148.3 431.05 147.9 431.05 146.1 431.05 144.05 430.45 143.55 430.2 143.35 428.05 142.8 414.75 142 407.9 139 401.75 135.3 396.3 132.65 391.4 130.25 374.2 126.55 372.05 126.1 369.7 125.6 348.6 121.25 334.15 129.3 334.15 130.65 335 131.8 335.8 132.9 337.15 133.35 369.7 128.35 373.6 129.3 377.45 130.25 378.1 135.15 Z"/>

<path fill="#61C35E" stroke="none" d="
M 242.6 192.95
Q 216.55 185.5 216.2 192 216.2 192.05 249.8 203.1
L 293.85 210.85
Q 260.95 198.1 242.6 192.95 Z"/>

<path fill="#38D4B1" stroke="none" d="
M 503.15 89.7
Q 499 83.65 493.85 80.45 483.05 73.85 473.9 71.15 469.85 69.9 467.65 69.95 465.1 69.95 465.15 71.65 465.25 73.05 478.3 81.7 482.6 84.55 489.4 89.05 493.85 91.95 499.3 95.55 499.4 95.6 499.55 95.7 503.35 98.3 510.9 112.15 512.65 115.6 514.3 118.1 513.7 115.7 513 113.05 509.1 98.4 503.15 89.7 Z"/>
</g>

<g id="symbols_transform_dancer_sport_5_Layer1_0_FILL">
<path fill="#754F34" stroke="none" d="
M 331.75 369.4
Q 334.45 368.8 334.6 368.75 336.1 367.9 336.1 365.25 336.1 362.7 334.8 362.2 332.9 362 331.75 361.55
L 315.5 361.45
Q 326.1 360.25 328.75 359.65 331.85 358.95 332.45 357.75 332.6 357.4 332.6 354.75 332.6 354.4 331.8 353.65 330.1 352.15 328.25 350.4 313.95 352.3 310.75 354.35
L 259.35 354.35
Q 222.4 346.3 213.9 344.9 207.5 343.85 205.1 344.75 202.65 345.75 202.65 349.4 202.65 353.15 206.4 354.95 209.45 356.4 217.2 357.3 221.85 357.85 234.1 359.15 236.15 359.4 238.2 359.7 237.9 360.6 237.9 361.75 237.9 367.5 243.5 370.85 243.6 370.9 243.75 371 262.05 371.8 274.6 376.8 277.95 378.15 280.6 379.65 290.8 381.8 297.95 384.45 291.85 384.6 287.1 385.05 287.25 385.25 287.4 385.5 302.55 383.75 322.2 386 328.3 386.7 334.05 387.65 331 381.4 306.1 375.95 293.75 373.75 285.35 372.1 285.2 370.65 284.7 370.6 283.3 370.4 283.1 370.2 285.1 370.2 287.05 369.4
L 331.75 369.4
M 392.8 342.4
Q 381.5 343.15 379.3 343.6 374.85 344.45 374.85 347.1 374.85 347.65 374.6 349 374.65 350.3 376.55 351.2 381.9 353.7 403.75 353.7 446.15 353.7 485.85 331.4 501.25 322.75 511.15 313.35 520.5 304.5 520.5 299.45 520.5 297.05 520.1 296.65 519.65 296.2 519.65 295.95 507.65 295.1 495.85 307.3 490.35 313.45 488.2 315.8 484.55 319.7 482.55 319.7 475.4 319.7 472.45 320.55 470.45 321.1 468.35 323 462.25 328.5 447.7 332.7 421.25 340.45 392.8 342.4 Z"/>

<path fill="#38D4B1" stroke="none" d="
M 471 193.6
Q 470.55 193.5 470.55 193.25 457.8 195.95 432.45 210.6 418.7 218.65 411.8 222.55 399.95 229.2 391.6 232.85
L 347.65 233.7
Q 345.65 233.6 344.8 233.85 343.3 234.35 343.3 237 343.3 237.3 344.25 238.15 346.1 239.85 347.65 241.5
L 398.6 241.5
Q 440.7 236.7 455.75 233 469.55 229.55 469.55 224.6 469.55 222.05 468.25 221.5 466.35 221.3 465.2 220.9
L 451.2 220.9
Q 445.5 222.5 430.95 226 415.85 229.6 409.95 231.2
L 412.6 229.95
Q 422.7 225.55 445.9 212.7 471.4 198.5 471.4 196.15 471.4 193.7 471 193.6
M 453.05 229.15
Q 450.8 230.15 449.6 230.55 447.15 231.35 444.6 231.6
L 449.1 229.55
Q 449.1 229.3 451.1 229.2 452.05 229.15 453.05 229.15 Z"/>

<path fill="#7C563A" stroke="none" d="
M 355.5 128.9
L 351.15 124.55 284.35 124.55
Q 275 123.45 263.2 128.15 252.7 132.3 242.4 140.05 232.7 147.3 226.5 155.2 220.2 163.2 220.2 168.5 220.2 169.3 221 170.15 221.7 170.95 224.7 173.45 225.6 173.1 227.35 172.25 228.6 171.6 229.05 171.6 231.55 159.9 240.05 153.65 247.3 148.35 263.3 144.35 304.6 134 336.95 132.55 343.85 132.2 351.4 131.9 355.5 131.35 355.5 128.9 Z"/>
</g>

<path id="grid_0_Layer0_0_1_STROKES" stroke="#444444" stroke-width="1" stroke-linejoin="round" stroke-linecap="round" fill="none" d="
M 527 31
L 558 31 558 0 527 0 527 31 527 62 558 62 558 31
M 527 0
L 496 0 496 31 527 31
M 496 62
L 496 93 527 93 527 62 496 62 496 31 465 31 465 62 496 62 Z
M 558 93
L 527 93 527 124 558 124 558 93 558 62
M 496 155
L 496 186 527 186 527 155 496 155 496 124 465 124 465 155 496 155 Z
M 527 124
L 527 155 558 155 558 124
M 527 186
L 558 186 558 155
M 527 124
L 496 124 496 93 465 93 465 124 434 124 434 155 465 155 465 186 496 186 496 217 527 217 527 186
M 465 31
L 465 0 434 0 434 31 465 31 Z
M 434 62
L 434 93 465 93 465 62 434 62 434 31 403 31 403 62 434 62 Z
M 372 31
L 372 0 341 0 341 31 372 31 403 31 403 0 372 0
M 341 62
L 341 93 372 93 372 62 341 62 341 31 310 31 310 62 341 62 Z
M 372 93
L 403 93 403 62 372 62 372 31
M 403 124
L 372 124 372 155 403 155 403 124 403 93 434 93 434 124 403 124 Z
M 341 155
L 341 186 372 186 372 155 341 155 341 124 310 124 310 155 341 155 Z
M 403 186
L 372 186 372 217 403 217 403 186 403 155 434 155 434 186 465 186 465 217 496 217 496 248 527 248 527 217 558 217 558 186
M 341 93
L 341 124 372 124 372 93
M 403 217
L 434 217 434 186 403 186
M 403 0
L 434 0
M 434 248
L 434 279 465 279 465 248 434 248 434 217 465 217 465 248 496 248 496 279 527 279 527 248 558 248 558 217
M 341 248
L 341 279 372 279 372 248 341 248 341 217 310 217 310 248 341 248 Z
M 434 248
L 403 248 403 279 434 279 434 310 465 310 465 279 496 279 496 310 527 310 527 279 558 279 558 248
M 403 279
L 372 279 372 310 403 310 403 279 Z
M 403 248
L 372 248 372 217 341 217 341 186 310 186 310 217 279 217 279 248 310 248 310 279 341 279 341 310 372 310 372 341 403 341 403 310 434 310 434 341 465 341 465 310 496 310 496 341 527 341 527 310 558 310 558 279
M 403 217
L 403 248
M 341 310
L 341 341 372 341 372 372 403 372 403 341 434 341 434 372 465 372 465 341 496 341 496 372 527 372 527 341 558 341 558 310
M 341 341
L 341 372 372 372 372 403 403 403 403 372 434 372 434 403 465 403 465 372 496 372 496 403 527 403 527 372 558 372 558 341
M 465 0
L 496 0
M 341 0
L 310 0 310 31 279 31 279 62 310 62 310 93 341 93
M 279 0
L 248 0 248 31 279 31 279 0 310 0
M 248 31
L 248 62 279 62 279 93 310 93 310 124 279 124 279 155 310 155 310 186 279 186 279 217 248 217 248 248 279 248 279 279 310 279 310 310 341 310
M 248 62
L 248 93 279 93 279 124 248 124 248 155 279 155 279 186 248 186 248 217 217 217 217 248 248 248 248 279 279 279 279 310 310 310 310 341 341 341
M 248 0
L 217 0 217 31 248 31
M 186 31
L 186 0 155 0 155 31 186 31 217 31 217 62 248 62
M 186 93
L 186 62 155 62 155 93 186 93 217 93 217 62 186 62 186 31
M 186 0
L 217 0
M 186 186
L 186 155 155 155 155 186 186 186 217 186 217 155 186 155 186 124 155 124 155 155 124 155 124 186 155 186 155 217 186 217 186 186 Z
M 217 155
L 217 124 186 124 186 93
M 248 155
L 248 186 217 186 217 217 186 217 186 248 217 248 217 279 248 279 248 310 279 310 279 341 310 341 310 372 341 372 341 403 372 403
M 217 124
L 248 124 248 93 217 93 217 124 Z
M 248 155
L 217 155
M 155 0
L 124 0 124 31 155 31 155 62 124 62 124 93 155 93 155 124 124 124 124 155 93 155 93 186 124 186 124 217 155 217 155 248 186 248 186 279 217 279 217 310 248 310 248 341 279 341 279 372 310 372 310 403 341 403
M 93 31
L 93 0 62 0 62 31 93 31 124 31 124 62 93 62 93 93 124 93 124 124 93 124 93 155 62 155 62 186 93 186 93 217 124 217 124 248 155 248 155 279 186 279 186 310 217 310 217 341 248 341 248 372 279 372 279 403 310 403
M 62 31
L 62 62 93 62 93 31
M 93 0
L 124 0
M 279 403
L 248 403 217 403 186 403 155 403 124 403 93 403 62 403 31 403 0 403 0 372 0 341 0 310 0 279 0 248 0 217 0 186 0 155 0 124 0 93 0 62 0 31 0 0 31 0 62 0
M 0 62
L 31 62 31 31 0 31
M 31 0
L 31 31 62 31
M 0 93
L 31 93 31 62 62 62 62 93 93 93 93 124 62 124 62 155 31 155 31 186 62 186 62 217 93 217 93 248 124 248 124 279 155 279 155 310 186 310 186 341 217 341 217 372 248 372 248 403
M 62 93
L 31 93 31 124 62 124 62 93 Z
M 0 124
L 31 124 31 155 0 155
M 0 217
L 31 217 31 186 0 186
M 93 279
L 93 248 62 248 62 279 93 279 124 279 124 310 155 310 155 341 186 341 186 372 217 372 217 403
M 0 279
L 31 279 31 248 0 248
M 62 217
L 31 217 31 248 62 248 62 217 Z
M 62 279
L 31 279 31 310 62 310 62 279 Z
M 62 310
L 62 341 93 341 93 310 62 310 Z
M 0 372
L 31 372 31 341 0 341
M 0 310
L 31 310 31 341 62 341 62 372 93 372 93 341 124 341 124 310 93 310 93 279
M 62 403
L 62 372 31 372 31 403
M 155 341
L 124 341 124 372 155 372 155 341 Z
M 124 403
L 124 372 93 372 93 403
M 155 372
L 186 372 186 403
M 558 372
L 558 403 527 403
M 434 403
L 403 403
M 496 403
L 465 403
M 155 372
L 155 403"/>

<path id="Layer3_0_1_STROKES" stroke="#00CCCC" stroke-width="1" stroke-linejoin="round" stroke-linecap="round" fill="none" d="
M 100.5 36.325
Q 100.5291015625 31.936328125 100.6 29.35 100.6 28.1 100.35 27.6 99.95 26.15 98.5 25.75 98.25 27.5 98.75 28.75
L 99.5 30.25
Q 99.65 30.95 99.5 32.5 99.35 33.95 99.6 34.75 99.75 35.3 100.3 36.05 100.4115234375 36.1958984375 100.5 36.325 100.97578125 36.9771484375 101.1 37.35 101.6 38.25 101.6 40.5
L 101.6 45.5
Q 101.6 46.95 101.25 48 101.1 48.35 100.75 49.1 100.5 49.6 100.15 50.75 99.75 51.85 99.5 52.35 98.65 54.15 98.6 54.4 98.2 55.55 98.6 56.35
M 88.5 25.35
L 88.5 34.1
Q 88.65 35.5 88.1 36.75 88 37.2 87.5 37.85 87.25 38.75 87.75 39.25 88.15 39.65 88.85 39.35
L 92 39.35
Q 92.35 39.4 96.3 40.2 98.85 40.7 100.5 40.25 100.5 38.137109375 100.5 36.325"/>

<path id="Layer2_0_1_STROKES" stroke="#00CCCC" stroke-width="1" stroke-linejoin="round" stroke-linecap="round" fill="none" d="
M 72.15 50.35
Q 70.45 50.65 69.4 50 68 48.9 67.75 48.75 67.1 48.25 65.15 47.7 64.4 47.55 63.55 47.15
L 63.15 47.35
Q 61.65 48.25 62 49.25 60.95 49.05 59.65 50.35 58.1 51.9 57.65 52.1 57.35 52.25 56.3 52.45 55.5 52.65 55.15 53 55.2 52.7 55.15 49.55 55.15 47.45 55.75 46.25 56.9 44.7 58.4 44.35 60.4 43.9 61.5 45.25 61.9 45.6 62.65 46.6 63 46.95 63.55 47.15 64.55 46.6 65 46 65.25 45.5 65.5 44.5 65.75 44.1 66.65 43.5 66.9 43.25 67.25 42.35 67.45 41.9 68 40.95 68.55 40.05 68.75 39.5 69 38.65 69.25 35.75
L 69.25 30.35
Q 69.25 28.75 69 28 68.75 27.35 68.15 26.5 67.75 25.9 67 25.5 66.35 25.15 64.5 25.35 63.35 25.65 62.9 26 62.65 26.3 62.45 26.9 62.15 27.8 62.15 27.85 61.5 29.15 60.15 30.5 58.35 32.5 55.25 37.35"/>

<path id="positionChecker_23_Layer1_0_1_STROKES" stroke="#9933CC" stroke-width="5" stroke-linejoin="round" stroke-linecap="round" fill="none" d="
M 1 0
L 32.3 31.3 64.05 0
M 63.05 62.05
L 32.3 31.3 0 63.05"/>

<path id="Symbol_1_0_Layer0_0_1_STROKES" stroke="#9933CC" stroke-width="1" stroke-linejoin="round" stroke-linecap="round" fill="none" d="
M 21 0
L 42 15.25 34 39.75 8 39.75 0 15.25 21 0 Z"/>
</defs>

<g transform="matrix( 1, 0, 0, 1, -0.25,-0.25) ">
<g transform="matrix( 1, 0, 0, 1, 0,0) ">
<use xlink:href="#grid_0_Layer1_0_FILL"/>
</g>

<g transform="matrix( 1, 0, 0, 1, 0,0) ">
<use xlink:href="#grid_0_Layer0_0_1_STROKES"/>
</g>
</g>

<g transform="matrix( 0.2137908935546875, 0, 0, 0.2137908935546875, 61.95,78.3) ">
<g transform="matrix( 1, 0, 0, 1, 0,0) ">
<use xlink:href="#Duplicate_Items_Folder_poof_5_Layer0_0_FILL"/>
</g>

<g transform="matrix( 0.2092742919921875, -0.0521697998046875, 0.0528411865234375, 0.212005615234375, 287.4,746) ">
<g transform="matrix( 1, 0, 0, 1, 0,0) ">
<use xlink:href="#Duplicate_Items_Folder_3_0_Layer0_0_FILL"/>
</g>
</g>

<g transform="matrix( 0.4590301513671875, 0, -0.0330810546875, 0.5121917724609375, 435.95,-112.3) ">
<g transform="matrix( 1, 0, 0, 1, 0,0) ">
<use xlink:href="#Duplicate_Items_Folder_2_0_Layer0_0_FILL"/>
</g>
</g>

<g transform="matrix( 0.66217041015625, 0.3441619873046875, -0.2550506591796875, 0.490692138671875, 931.05,-46.6) ">
<g transform="matrix( 1, 0, 0, 1, 0,0) ">
<use xlink:href="#Duplicate_Items_Folder_5_0_Layer0_0_FILL"/>
</g>
</g>

<g transform="matrix( -0.0406951904296875, 0.48614501953125, -0.48614501953125, -0.0406951904296875, 158.9,595.4) ">
<g transform="matrix( 1, 0, 0, 1, 0,0) ">
<use xlink:href="#Duplicate_Items_Folder_5_0_Layer0_0_FILL"/>
</g>
</g>

<g transform="matrix( 0.2963104248046875, 0.06842041015625, 0.0765228271484375, -0.331390380859375, 276.4,767.15) ">
<g transform="matrix( 1, 0, 0, 1, 0,0) ">
<use xlink:href="#Duplicate_Items_Folder_2_0_Layer0_0_FILL"/>
</g>
</g>

<g transform="matrix( 0.490936279296875, 0, -0.0330810546875, -0.5121917724609375, 380.1,-14.7) ">
<g transform="matrix( 1, 0, 0, 1, 0,0) ">
<use xlink:href="#Duplicate_Items_Folder_2_0_Layer0_0_FILL"/>
</g>
</g>

<g transform="matrix( 0.298828125, 0, 0, 0.298828125, 899.65,-49.85) ">
<g transform="matrix( 1, 0, 0, 1, 0,0) ">
<use xlink:href="#Duplicate_Items_Folder_6_0_Layer0_0_FILL"/>
</g>
</g>

<g transform="matrix( 0.298828125, 0, 0, 0.298828125, 847.8,-127.75) ">
<g transform="matrix( 1, 0, 0, 1, 0,0) ">
<use xlink:href="#Duplicate_Items_Folder_6_0_Layer0_0_FILL"/>
</g>
</g>

<g transform="matrix( 0.16424560546875, 0, 0, 0.16424560546875, 795.45,263.7) ">
<g transform="matrix( 1, 0, 0, 1, 0,0) ">
<use xlink:href="#Duplicate_Items_Folder_7_0_Layer0_0_FILL"/>
</g>
</g>

<g transform="matrix( 0.31005859375, 0.23529052734375, -0.1826629638671875, 0.240753173828125, 831.95,256.9) ">
<g transform="matrix( 1, 0, 0, 1, 0,0) ">
<use xlink:href="#Duplicate_Items_Folder_7_0_Layer0_0_FILL"/>
</g>
</g>

<g transform="matrix( 1.2540283203125, 0.7447509765625, -0.7447509765625, 1.2540283203125, 751.25,622.9) ">
<g transform="matrix( 1, 0, 0, 1, 0,0) ">
<use xlink:href="#Duplicate_Items_Folder_8_0_Layer0_0_FILL"/>
</g>
</g>

<g transform="matrix( 0.298828125, 0, 0, 0.298828125, 238.95,729.85) ">
<g transform="matrix( 1, 0, 0, 1, 0,0) ">
<use xlink:href="#Duplicate_Items_Folder_6_0_Layer0_0_FILL"/>
</g>
</g>

<g transform="matrix( -0.4605712890625, -0.1722869873046875, 0.147796630859375, -0.39501953125, 197.35,329.45) ">
<g transform="matrix( 1, 0, 0, 1, 0,0) ">
<use xlink:href="#Duplicate_Items_Folder_4_0_Layer0_0_FILL"/>
</g>
</g>

<g transform="matrix( -0.1242523193359375, -0.314239501953125, 0.24395751953125, -0.09649658203125, 173,460.55) ">
<g transform="matrix( 1, 0, 0, 1, 0,0) ">
<use xlink:href="#Duplicate_Items_Folder_7_0_Layer0_0_FILL"/>
</g>
</g>

<g transform="matrix( 0.0988311767578125, 0.074981689453125, -0.0479736328125, 0.0632171630859375, 232.05,433.75) ">
<g transform="matrix( 1, 0, 0, 1, 0,0) ">
<use xlink:href="#Duplicate_Items_Folder_7_0_Layer0_0_FILL"/>
</g>
</g>

<g transform="matrix( 0.0412445068359375, -0.117034912109375, 0.10601806640625, 0.0373687744140625, 228.1,202.7) ">
<g transform="matrix( 1, 0, 0, 1, 0,0) ">
<use xlink:href="#Duplicate_Items_Folder_7_0_Layer0_0_FILL"/>
</g>
</g>

<g transform="matrix( 0.0412445068359375, -0.117034912109375, 0.10601806640625, 0.0373687744140625, 318.55,-61.45) ">
<g transform="matrix( 1, 0, 0, 1, 0,0) ">
<use xlink:href="#Duplicate_Items_Folder_7_0_Layer0_0_FILL"/>
</g>
</g>

<g transform="matrix( 0.0166778564453125, -0.0472869873046875, 0.0428466796875, 0.0151214599609375, 264.7,-15.6) ">
<g transform="matrix( 1, 0, 0, 1, 0,0) ">
<use xlink:href="#Duplicate_Items_Folder_7_0_Layer0_0_FILL"/>
</g>
</g>

<g transform="matrix( 0.0766754150390625, -0.1588134765625, 0.13409423828125, 0.105194091796875, 288.05,-20.25) ">
<g transform="matrix( 1, 0, 0, 1, 0,0) ">
<use xlink:href="#Duplicate_Items_Folder_7_0_Layer0_0_FILL"/>
</g>
</g>
</g>

<g transform="matrix( 0.48748779296875, 0, -0.063079833984375, 0.651123046875, 24.3,-24.35) ">
<g transform="matrix( 1, 0, 0, 1, 0,0) ">
<use xlink:href="#symbols_transform_dancer_sport_5_Layer3_0_FILL"/>
</g>

<g transform="matrix( 1, 0, 0, 1, 0,0) ">
<use xlink:href="#symbols_transform_dancer_sport_5_Layer2_0_FILL"/>
</g>

<g transform="matrix( 1, 0, 0, 1, 0,0) ">
<use xlink:href="#symbols_transform_dancer_sport_5_Layer1_0_FILL"/>
</g>
</g>

<g transform="matrix( 1, 0, 0, 1, 0,0) ">
<use xlink:href="#Layer3_0_1_STROKES"/>
</g>

<g transform="matrix( 1, 0, 0, 1, 0,0) ">
<use xlink:href="#Layer2_0_1_STROKES"/>
</g>

<g transform="matrix( 1, 0, 0, 1, 134.85,66.05) ">
<g transform="matrix( 1, 0, 0, 1, 0,0) ">
<use xlink:href="#positionChecker_23_Layer1_0_1_STROKES"/>
</g>

<g transform="matrix( 1, 0, 0, 1, -19,18.4) ">
<g transform="matrix( 1, 0, 0, 1, 0,0) ">
<use xlink:href="#Symbol_1_0_Layer0_0_1_STROKES"/>
</g>
</g>
</g>
</svg>
