
<svg xmlns="http://www.w3.org/2000/svg" version="1.1" xmlns:xlink="http://www.w3.org/1999/xlink" preserveAspectRatio="none" x="0px" y="0px" width="550px" height="400px" viewBox="0 0 550 400">
<defs>
<g id="grid_0_Layer1_0_FILL">
<path fill="#0033FF" fill-opacity="0.5176470588235295" stroke="none" d="
M 558 31
L 558 0 527 0 496 0 465 0 434 0 403 0 372 0 341 0 310 0 279 0 248 0 217 0 186 0 155 0 124 0 93 0 62 0 31 0 0 0 0 31 0 62 0 93 0 99.25 0 119.3 0 124 0 155 0 186 0 217 0 248 0 279 0 310 0 341 0 372 0 403 31 403 62 403 93 403 124 403 155 403 186 403 217 403 248 403 279 403 310 403 341 403 372 403 403 403 434 403 465 403 496 403 527 403 558 403 558 372 558 341 558 310 558 279 558 248 558 217 558 186 558 155 558 124 558 119.3 558 99.25 558 93 558 62 558 31 Z"/>
</g>

<g id="Layer29_0_FILL">
<path fill="#6886C1" stroke="none" d="
M 237.7 124.65
L 238.05 125
Q 238.45 124.95 238.75 124.75 239.4 124.45 240.9 123.6 239.3 124.1 237.7 124.65 Z"/>
</g>

<g id="Layer27_0_FILL">
<path fill="#F1BB97" stroke="none" d="
M 272.85 129.2
Q 272.8 129.15 272.75 129.15 272.8 129.35 272.85 129.55 272.9 129.4 273 129.3 272.9 129.25 272.85 129.2 Z"/>

<path fill="#4968A7" stroke="none" d="
M 262.5 125.45
L 262.5 125.5
Q 262.55 125.5 262.6 125.5
L 262.65 125.5
Q 262.75 125.55 262.85 125.55 264 125.8 265.3 126.1 265.35 126.15 265.45 126.15 268.2 126.9 270.35 127.9 271.65 128.45 272.75 129.15 272.8 129.15 272.85 129.2 272.9 129.25 273 129.3 273.2 128.95 273.45 128.7 273.85 128.3 274.45 128 274.15 127.8 273.85 127.6 273.35 127.3 272.85 127.05 272.4 126.8 271.95 126.6 271.8 126.5 271.65 126.45 271.25 126.25 270.85 126.1 269.85 125.65 268.75 125.25 267.3 124.75 265.65 124.3 265.35 124.2 265.05 124.15 259.7 122.85 254.8 123.35 252.55 123.55 250.75 124.3 249.6 124.95 248.7 125.75 247.75 126.55 247 127.65 245.5 130.1 246.7 132.95 246.9 133.05 247.1 133.25 247.15 132.35 247.25 131.6 247.35 130.15 247.75 128.9 250.25 125.45 255.15 125.05 256.1 124.95 257.05 124.95 259.75 124.95 262.5 125.45 Z"/>

<path fill="#FFFFFF" stroke="none" d="
M 262.5 125.5
L 262.5 125.45 262.45 125.45
Q 259.75 125.2 257.05 124.95 256.1 124.95 255.15 125.05 250.25 125.45 247.75 128.9 247.35 130.15 247.25 131.6 247.15 132.35 247.1 133.25 247.15 133.8 247.1 134.45 247.3 138 247.1 140 246.95 141.75 245.65 152.35 245.4 154.15 245.15 156.2
L 245.15 156.25
Q 245.1 156.45 245.1 156.65 244.9 158.15 244.7 159.45 244.75 159.5 244.8 159.55 244.85 159.4 244.9 159.25 245.45 157.2 248.75 153.9 253.75 148.8 253.95 148.55 262.35 138.3 264.7 136.05 265.5 135.3 266.2 134.7 265.9 131.35 265.45 127.3 265.35 126.7 265.3 126.1 264 125.8 262.85 125.55 262.75 125.55 262.65 125.5
L 262.6 125.5
Q 262.55 125.5 262.5 125.5 Z"/>

<path fill="#AAC3F5" stroke="none" d="
M 264.25 115.35
Q 263.95 115.35 263.65 115.35 263.35 115.35 263.1 115.35 263.05 115.35 262.95 115.35 262.75 115.35 262.6 115.4 262.5 115.4 262.4 115.4 260.65 116.15 258.9 116.9 254.85 118.55 250.8 120.1 249.6 121.45 248.85 123.25 248.55 123.6 248.25 124.05
L 245.2 127.75
Q 243.6 131 246.7 132.95 245.5 130.1 247 127.65 247.75 126.55 248.7 125.75 249.6 124.95 250.75 124.3 252.55 123.55 254.8 123.35 259.7 122.85 265.05 124.15 265.35 124.2 265.65 124.3 267.3 124.75 268.75 125.25 269.85 125.65 270.85 126.1 271.25 126.25 271.65 126.45 271.8 126.5 271.95 126.6 272.4 126.8 272.85 127.05 273.35 127.3 273.85 127.6 274.15 127.8 274.45 128 275.3 127.6 276.6 127.4 277.3 127.3 277.85 127.15 277.45 126.55 277 126.1 276.7 125.85 276.5 125.65 276.15 124.7 275.7 123.75 275.3 122.95 274.8 122.1 272.3 117.7 268.5 115.95 267.95 115.7 267.4 115.5 267.2 115.5 267.05 115.5 265.65 115.35 264.25 115.35 Z"/>
</g>

<g id="Layer25_0_FILL">
<path fill="#38D4B1" stroke="none" d="
M 197.7 160.2
Q 196.55 160.35 195.35 160.85 194.4 161.3 193.6 161.8 190.5 163.75 189.9 167.3 189.75 167.95 189.7 168.7 189.6 169.85 189.6 171.05 191.75 177.05 194.15 183 196.55 189.1 199.2 195.15
L 201.6 196.75
Q 208 208.75 217.25 218.6 218.55 219.95 219.85 221.25 220.45 220.75 220.85 220.3 221.25 219.85 221.35 218.6 221.5 215.65 219.75 208.4 217.25 198.1 215.2 190.05 214.1 185.8 213.05 182.2 210.55 173.85 208.25 168.75 206 163.7 202.65 161.5 200.2 160 197.7 160.2 Z"/>
</g>

<g id="Layer23_0_FILL">
<path fill="#38D4B1" stroke="none" d="
M 223.35 224.55
Q 223.7 223.9 224 223.3 225.75 220.85 225.4 218.6 225.1 216.55 223 214.6 218.9 210.85 213.6 212.6 213 212.8 212.4 213.05 214.7 215.9 217.25 218.6 220.15 221.65 223.35 224.55 Z"/>
</g>

<g id="Layer22_0_FILL">
<path fill="#FFFFFF" stroke="none" d="
M 199.2 195.15
L 201.6 196.75
Q 203.35 200.05 205.4 203.25 206.1 200.4 206.6 198.3 208.75 192.9 203.5 190.25 200.1 188.55 196.8 189.55 198 192.35 199.2 195.15 Z"/>
</g>

<g id="Layer21_0_FILL">
<path fill="#AAC3F5" stroke="none" d="
M 245.65 122.4
Q 245.65 122.75 245.65 123.15 245.65 124.45 245.5 125.6
L 245.5 125.65
Q 246.15 123.55 246.6 121.65 246.15 121.8 245.65 121.95 245.65 122.15 245.65 122.3
L 245.65 122.4
M 192.8 135.3
Q 192.55 135.3 192.4 135.35 192.55 135.4 192.75 135.45
L 192.8 135.3 Z"/>

<path fill="#6886C1" stroke="none" d="
M 192.4 135.35
Q 191.9 135.45 191.5 135.55 191.65 135.55 191.85 135.55 192.3 135.6 192.75 135.65
L 192.75 135.45
Q 192.55 135.4 192.4 135.35
M 213.55 139.75
Q 214.75 140 219.65 140.9 224.6 141.85 230.45 140.9 232.65 140.5 234.55 139.9 234.65 139.85 234.8 139.8 238.1 138.55 240.4 136.45 242.2 134.75 243.45 132.5 243.5 132.35 243.6 132.15 244.65 130.1 245.2 127.6 245.4 126.65 245.5 125.65
L 245.5 125.6
Q 245.65 124.45 245.65 123.15 245.65 122.75 245.65 122.4
L 245.65 122.3
Q 245.65 122.15 245.65 121.95 243.65 122.65 241.7 123.35 240 128.85 235.8 132.65 235.55 132.85 235.25 133.15 233.5 134.6 231.35 135.8 230.6 136.2 229.75 136.6 229.25 136.85 228.7 137.1 227.95 137.4 227.2 137.7 226.85 137.85 226.5 138 221.95 139.55 217.15 139.65 216 139.65 211.8 139.25 212.35 139.4 213.55 139.75
M 220.15 129.65
Q 219.35 129.85 218.55 130.05 222.6 131.65 227.45 132.1 228.35 132.15 229.05 132.1 223.5 131.05 220.15 129.65
M 235.55 127.95
L 235.6 127.4
Q 235.3 128.1 234.8 129.65 234.2 131 232.65 131.75 232.65 131.8 232.8 131.85 233.3 131.9 233.75 131.55 234.25 131.15 234.7 130.3 235.3 129.1 235.55 127.95 Z"/>

<path fill="#304E88" stroke="none" d="
M 203.65 137
L 203.9 133.2
Q 203.8 133.25 203.65 133.25 198.2 134.25 192.8 135.3
L 192.75 135.45 192.75 135.65 191.85 142.4 203.65 137 Z"/>

<path fill="#38D4B1" stroke="none" d="
M 203.9 133.2
L 203.65 137 191.85 142.4 192.75 135.65
Q 192.3 135.6 191.85 135.55 191.65 135.55 191.5 135.55 184.8 136.75 178.2 138 180.7 143.25 182.45 149.1 186.25 162.15 191 174.85 191.55 176.4 192.15 177.95 192.6 179.15 193.1 180.35
L 194.35 180.1 193.1 180.35
Q 193.2 180.65 193.35 181
L 193.5 181 193.95 181 194.65 181.1 197 181.25
Q 198.25 181.25 201.35 181.15 210.3 180.9 215.05 179.2
L 214.7 180.1
Q 214.9 179.65 215.1 179.2 215.2 179.15 215.35 179.1
L 215.65 178.15
Q 215.9 177.6 215.55 178.7 215.2 179.65 216.15 178 217.1 176.25 219.8 170.8 222.55 165.25 224.25 162.9 229.05 156.25 231.45 152.85 236.5 145.7 238.85 140.65 239.85 138.3 240.4 136.45 238.1 138.55 234.8 139.8 234.65 139.85 234.55 139.9 232.65 140.5 230.45 140.9 224.6 141.85 219.65 140.9 214.75 140 213.55 139.75 212.35 139.4 211.8 139.25 216 139.65 217.15 139.65 221.95 139.55 226.5 138 226.85 137.85 227.2 137.7 227.95 137.4 228.7 137.1 229.25 136.85 229.75 136.6 230.6 136.2 231.35 135.8 233.5 134.6 235.25 133.15 235.55 132.85 235.8 132.65 240 128.85 241.7 123.35 231.05 126.9 220.15 129.65 223.5 131.05 229.05 132.1 228.35 132.15 227.45 132.1 222.6 131.65 218.55 130.05 211.25 131.8 203.9 133.2
M 235.6 127.4
L 235.55 127.95
Q 235.3 129.1 234.7 130.3 234.25 131.15 233.75 131.55 233.3 131.9 232.8 131.85 232.65 131.8 232.65 131.75 234.2 131 234.8 129.65 235.3 128.1 235.6 127.4 Z"/>
</g>

<g id="Layer14_0_FILL">
<path fill="#754F34" stroke="none" d="
M 258.1 162.25
Q 257.15 162.15 256.9 162.15 256.3 162.25 256.3 162.9 256.3 163.55 256.6 163.75
L 257.3 164
Q 257.9 163.85 258.2 163.4 258.3 163.95 258.3 162.95 258.3 162.35 258.2 162.3 258.1 162.3 258.1 162.25
M 272.4 142.7
Q 271.8 142.8 271.8 143.45 271.8 144.1 272.1 144.3
L 272.8 144.55
Q 273.4 144.4 273.7 143.95 273.8 144.5 273.8 143.5 273.8 142.9 273.7 142.9 273.6 142.85 273.6 142.8 272.65 142.7 272.4 142.7
M 296.2 75.9
Q 295.9 76 295.55 76.3 295.2 76.6 295.2 76.8
L 295.3 77.4
Q 295.6 77.7 296.2 77.9 297.2 77.45 297.2 76.7 296.85 76.15 296.2 75.9 Z"/>

<path fill="#FFFFFF" stroke="none" d="
M 117.2 87.7
Q 117.2 89 117.75 89.4 117.8 89.45 119.2 89.9 121.7 88.25 131 81.6 133.7 79.65 136.2 77.95 134.05 77.95 131.9 77.95 133.3 77.05 134.65 76.25 133.7 75.75 132.85 75.2 130.95 76.5 128.7 78.1 117.2 86.25 117.2 87.7
M 269 123.1
Q 269.65 121.35 270.2 119.7 270.4 119.1 270.55 118.55 270.3 119.1 270 119.6 269.15 118.85 268.3 118.05 267.55 118.5 266.7 118.9 266.35 119.9 265.95 120.75 265.6 121.45 265.15 122.2 263.15 125.45 259.45 128.25 256.05 130.8 251.3 133
L 251.5 134.2
Q 252.5 135.2 254.9 135.2 261.05 135.2 265.2 130.05 267.35 127.3 269 123.1
M 240.05 157.6
Q 241.4 156.45 241.4 155.3 241.4 154.15 241.2 154.1 241 154.05 241 153.9
L 240.95 153.85
Q 240.5 153.5 238.6 153.5 236.05 153.5 230.05 156.05 227.95 157 226.6 157.65
L 239.25 157.55
Q 239.65 157.55 240.05 157.6
M 248.15 86
Q 247.95 85.85 247.75 85.7 248.7 87.7 248.1 90.7
L 246.6 90.7
Q 245.7 90.75 245.3 90.95 244.6 91.25 244.6 92.5 244.6 93.8 245.15 94.2 245.2 94.25 246.6 94.7
L 251.55 94.7
Q 252.55 95.8 253.5 96.8
L 247.45 96.8
Q 249.75 98.85 251.95 101.1
L 254 101.15
Q 255.75 100.3 257.45 99.6 257.45 99.8 257.55 100 257.95 100.95 258.35 101.9 259.05 103.8 259.6 105.7 259.95 106.85 260.2 108 260.55 109.2 260.8 110.55 260.8 110.6 260.8 110.65 262.7 112.7 264.75 114.7 264.3 109.2 264 106.8 263.8 105.65 263.7 105.2 263.5 104.75 263.05 103.7 262.75 103 262.35 102.1 261.95 101.3 261.5 100.4 261.35 100 261.15 99.65 261 99.3 260.8 98.95 260 97.3 259 95.25 258.15 93.5 257.2 91.55 255.3 89.05 253.3 85.25 251.1 81.05 249.95 79.1 245.9 72.15 240.25 69.7
L 240.2 69.85
Q 240.15 70.2 240.25 71.55 240.3 72.9 242.55 76.15 242.95 76.7 243.55 77.55 245.4 80.15 250.4 87 251.65 88.8 252.75 90.6
L 252.25 90.6
Q 250.45 88.6 248.15 86
M 247.4 70.9
L 247.6 70.7
Q 243.5 64.7 232.95 60.05 221.55 54.85 206.3 52.85
L 185.85 51.35 185.85 51.6
Q 183 51.35 182.5 51.9 182.25 52.1 182.45 52.5
L 182.55 53.2
Q 183.1 53.7 184.25 53.85 185.2 53.9 185.55 53.7
L 207.05 55.15
Q 211 56.25 218 58.2 224 59.85 230.05 62.1 234.75 63.8 241.2 67.7 244.3 69.5 246.7 71.15 247.2 71.15 247.4 70.9 Z"/>

<path fill="#AAC3F5" stroke="none" d="
M 236.4 159.65
L 238.25 159.65
Q 246.15 160.2 252.2 155.7 258.05 149.95 260.9 147.75 265 144.55 270.55 139 276.15 133.35 276.15 132.4 276.15 131.8 276.05 131.75 275.95 131.7 275.95 131.65 275.95 131.45 274.95 131.45 274.1 131.65 274 131.55 274.3 128.8 274.35 127.2 274.4 124.25 272.2 126.3 272.05 127.5 272.15 130.45 271.9 133.15 269.9 134.65 267.35 136.55 259.05 142.4 253.25 146.4 249.95 149.35 250.15 149.85 250.95 150.1 254.95 150.1 255.15 150.2 251.65 153.65 249.2 155.1 245.05 157.55 240.05 157.6 239.65 157.55 239.25 157.55
L 226.6 157.65 221.2 157.65
Q 220.75 157.7 220.55 157.75 220.2 157.9 220.2 158.55 220.2 158.7 220.25 158.8 220.25 159.25 220.5 159.4
L 221.2 159.65 236.4 159.65
M 254.15 148.05
L 254.35 147.75
Q 256.05 145.5 258.65 144.55 261.45 143.55 262.65 142.7 262 143.45 260.4 145.6 258 147.9 254.15 148.05 Z"/>

<path fill="#F1BB97" stroke="none" d="
M 243.9 54.35
Q 243.8 54.3 243.8 54.25 243.15 54.1 242.5 53.95 241.65 53.3 240.8 52.65 237.8 51.75 235.1 51.95 232.25 51.05 229.3 50 221.2 46.8 217.25 45.4 203.05 40.25 187.25 40.75 187.25 41.8 188.25 42.15 198.45 42.25 206.75 44.15 211.3 45.2 217.8 47.15 218.7 47.35 227.95 51.75 228.8 52.1 229.6 52.45 227.75 52.4 226.25 51.9 225.4 51.65 222.8 50.4 220.35 49.25 219.6 49.1 210.5 47.55 205 46.45
L 191.8 46.35
Q 188.15 45.65 186.7 45.65 179.1 45.65 169.7 47.7 169.7 47.95 169.75 48.25 169.85 50.25 170.85 50.95 171 51.15 171.45 51.35 165.4 53.75 159.4 57.05 150.75 58.05 144.95 60.95 139.7 63.4 129.6 69.95 128 70.65 123.8 74.95 122.55 76.75 124.55 77.75 125.5 77.8 126.45 77.9 126.55 77.75 126.85 77.9 131.4 74.7 135.35 72.4 140 69.1 142.9 67.5 144.2 66.6 145.55 66.05 140.35 70.25 139.05 73.85 136.85 74.95 134.65 76.25 133.3 77.05 131.9 77.95 134.05 77.95 136.2 77.95 138.15 77.95 140.15 78 126.95 86.45 118.3 94.8 111.65 101.25 109.45 106.1 108.8 105.95 108.4 105.8 102.9 109.75 102.15 111 101.7 111.7 101.7 115.7 101.7 120.75 120.75 132.45 130.95 138.75 148.1 148.7
L 173.5 148.7
Q 199.15 143 215.7 138.5 215.2 139.2 214.6 140 213.45 141.55 208 143 202.3 144.55 201.3 145.5 197.95 148.85 190.65 148.6 182.4 148.35 179.5 149.9 176.65 152.25 174.7 152.85 171.95 153.7 159.8 153.7 143.6 153.7 128.45 146.85 121.4 143.45 118.45 142.15 113.45 140 110 140 108.65 140 107.5 140.65 106.5 141.25 106.5 141.7
L 106.7 142.9
Q 131.6 153.65 144.6 158.35 173 168.5 188.6 168.5 192.2 168.5 197.2 167.95 204.4 169.8 209.3 170.5
L 222 170.5
Q 222.4 169.6 223.25 169.15 224.4 168.6 227.75 168.4 227.85 168.4 227.95 168.4 228.05 166.25 230.35 165.15 231.85 164.45 235.75 163.85 237.45 163.55 238.9 163.2 239.15 162.75 239.65 162.4
L 227.85 162.4
Q 233.15 161.05 236.4 159.65
L 221.2 159.65 220.5 159.4
Q 220.25 159.25 220.25 158.8
L 216.75 158.8
Q 216.85 158.75 217 158.65 229.05 151.65 233.3 149.5 241.05 145.6 257.45 140.7 259.95 139.95 261.75 139.3 263.75 137 264.7 136.05 266.05 134.75 267.2 133.85 267.2 131.6 265.55 130.3 265.4 130.15 265.2 130.05 261.05 135.2 254.9 135.2 252.5 135.2 251.5 134.2
L 251.3 133
Q 256.05 130.8 259.45 128.25 256.1 127.85 251.3 128.3 254.1 126.8 262.3 123.4 263.8 122.75 265.15 122.2 265.6 121.45 265.95 120.75 266.35 119.9 266.7 118.9 267.55 118.5 268.3 118.05 269.15 118.85 270 119.6 270.3 119.1 270.55 118.55 270.4 119.1 270.2 119.7 271.35 119 272.3 118.4 273.25 117.75 274.1 117.05 277.9 116.25 279.9 111.8 281.35 108.45 281.35 104.8 281.35 101.15 280.35 103.2 279.5 105 279.05 107.85 278.75 109.75 276 111.8 275.5 111.4 275.05 111 276.15 108 276.15 103.1 276.15 94.15 273.7 83.25 271.95 75.5 270.05 71.15 261.25 67.65 270.25 79.8 275.95 90.25 275.1 97.9 274.2 105.5 272.8 108.3 272.8 107.55 272.8 106.75 272.8 105.1 272.7 103.4 271.95 93.55 269.5 88.6 268.5 86.5 266.85 84.25 266.8 83.9 266.8 83.6 266.1 75.1 259.45 68.1 256.2 64.65 244 55.15 244 55.05 244 55 244 54.4 243.9 54.35
M 247.6 70.7
L 247.4 70.9
Q 247.2 71.15 246.7 71.15 244.3 69.5 241.2 67.7 234.75 63.8 230.05 62.1 224 59.85 218 58.2 211 56.25 207.05 55.15
L 185.55 53.7
Q 185.2 53.9 184.25 53.85 183.1 53.7 182.55 53.2
L 182.45 52.5
Q 182.25 52.1 182.5 51.9 183 51.35 185.85 51.6
L 185.85 51.35 206.3 52.85
Q 221.55 54.85 232.95 60.05 243.5 64.7 247.6 70.7
M 259 95.25
Q 260 97.3 260.8 98.95 261 99.3 261.15 99.65
L 262.9 99.7
Q 262.9 99.75 262.95 99.8
L 262.2 100.1
Q 261.85 100.25 261.5 100.4 261.95 101.3 262.35 102.1 262.75 103 263.05 103.7 263.5 104.75 263.7 105.2 263.8 105.65 264 106.8 264.3 109.2 264.75 114.7 262.7 112.7 260.8 110.65 260.8 110.6 260.8 110.55 253.1 114.55 242.4 117.1
L 243.4 116.7
Q 247.7 114 256.5 107.7 256.95 107.4 257.45 107.1 258.15 107.85 258.9 108.7 259.5 108.25 260.2 108 259.95 106.85 259.6 105.7 259.05 103.8 258.35 101.9 257.95 100.95 257.55 100 257.45 100.4 257.3 100.8 256.65 101.3 256.45 101.6
L 252.45 101.6
Q 253.6 102.8 254.75 104.05 252.95 105.2 251.05 106.6 243.45 112.1 241.8 113 241.4 112.8 240.6 111.65 239.9 110.6 239.4 110.6 237.85 110.6 226.3 117.4 214.35 124.4 212.8 124.7
L 177.3 124.7
Q 167.35 123.6 152.1 123.3 151.2 123.35 150.8 123.55 150.1 123.85 150.1 125.1 150.1 126.4 150.65 126.8 150.7 126.85 152.1 127.3 153.6 127.3 170.3 129.25 186.4 131.15 193.65 132.4 190.95 133.05 188.2 133.7 164.05 139.4 152.9 140 152 140.05 151.6 140.2 150.9 140.45 150.9 141.7 150.9 143 151.45 143.4 151.5 143.45 152.9 143.9
L 177.1 144.1 174.7 144.5 148.5 144.5
Q 135 136.55 125 130.5 105.7 118.75 105.7 115.4 105.7 114.3 108.05 111.25 108.15 111.15 108.2 111.05 108.1 111.45 107.85 112.05 107.5 113.85 108.4 115.25 111.2 119.7 125.5 119.7 138.85 119.7 156.4 115.75 161.95 114.5 173.5 111.2 186.75 107.5 199.75 103.2 218.8 96.9 218.8 95.1 218.8 93.75 218.2 93 216.7 91.1 212 91.1
L 176.95 101.35
Q 141.9 111.6 136 111.6
L 116.4 111.4 116.4 107.2
Q 124.9 98.35 149.7 81.9 154.3 78.85 157.95 76.4 155.3 76.45 152.65 76.5 164.25 68.5 164.25 67.95 164 65.6 160.9 65.7 164.25 63.75 170.65 61.5 171.1 61.2 171.65 61.15 175.6 61.25 180.9 61.8 183.05 61.9 184.25 61.4 184.9 60.95 185.35 60.15 183.8 59.3 183.3 58.6 182.8 57.85 182.35 57.7 182.1 57.55 181.5 57.55 183.4 56.65 183.8 56.6
L 192.4 57.1
Q 195.3 58.5 197.4 59.65 195.35 59.65 194.9 60.95
L 194.8 62.25
Q 194.9 63.7 198.75 66.15
L 212.95 67.15
Q 223.55 74.3 233.4 85.95 237.75 88.75 241.85 92 239.65 89.4 237.15 86.3 227.6 74.6 222.1 69.15
L 221.9 68.95
Q 234.2 70.95 242.55 76.15 240.3 72.9 240.25 71.55 240.15 70.2 240.2 69.85
L 240.25 69.7
Q 245.9 72.15 249.95 79.1 251.1 81.05 253.3 85.25 255.3 89.05 257.2 91.55 258.15 93.5 259 95.25
M 261.3 97.45
Q 261.3 97.4 261.35 97.4 261.75 97.55 262.35 97.75 262.5 98.3 262.7 98.95 262 98.2 261.3 97.45
M 235.25 55.45
Q 235.4 55.55 235.6 55.75 235.05 55.5 234.65 55.45
L 235.25 55.45
M 229.1 65.7
Q 230.8 66.6 232.45 67.6 216.3 61.9 205.65 57.95
L 213 58.35
Q 213.9 58.6 214.9 59 224.9 63.5 229.1 65.7
M 228.7 121.3
L 229.1 120.9
Q 229.65 120.3 231.4 119.35 232.85 118.5 233.5 118.3 232.8 119 231.45 119.9 229.75 121.05 228.7 121.3
M 221.8 133
Q 220.15 133.9 218.8 135.15 212.55 136.15 206.7 135.4 209.05 134.25 212.25 132.95
L 221.8 133
M 216.8 128.65
Q 215.55 128.65 214.15 128.7 214 128.6 214 128.5 213.95 128.45 213.9 128.45 214.9 128.15 216.35 127.6 216.5 128.15 216.8 128.65
M 212.95 146.1
Q 216.4 143.3 218.6 141.6 222 139 234.65 133.4 235.9 132.85 237.05 132.35 237.15 132.95 237.3 134.35 238.6 136.75 243.8 136.6
L 243.2 136.8
Q 239.6 138.75 231.7 141.95 220.1 146.65 218.45 147.4 202.9 154.15 202.9 158.8
L 193.5 158.8
Q 190.65 157.95 188.95 157.5 183.6 156.05 180.95 156.75 180.7 155.2 179.7 154.3
L 181.9 153.1
Q 199.95 152.3 207.1 149.45 210.05 148.25 212.95 146.1
M 170.8 162.6
L 170.4 162.4 181.6 163.05
Q 182.8 163.6 184.55 164.25
L 178.1 164.2 170.8 162.6
M 160.95 160.25
Q 160.3 159.85 160 159.4 160 159.3 162.2 160.6 161.6 160.6 160.95 160.25 Z"/>
</g>

<g id="Layer13_0_FILL">
<path fill="#1D1C19" stroke="none" d="
M 193.6 135.15
Q 185.85 136.55 178.2 138 180.7 143.25 182.45 149.1 187.5 166.35 194.15 183 195.35 186.1 196.65 189.2 201.95 186.4 205.6 181.45 206.1 180.75 206.55 180.05 207.5 178.8 208.2 177.65 209.35 175.85 210.15 174.2 215.55 163.5 212.25 151.8 208.75 139.65 196.25 135.85 194.9 135.45 193.6 135.15 Z"/>
</g>

<g id="Layer12_0_FILL">
<path fill="#754F34" stroke="none" d="
M 252.45 167.7
Q 252.25 167.7 252.15 167.7 251.6 168.1 251.05 168.45 251.55 168.45 252.05 168.5 252.25 168.1 252.45 167.7 Z"/>

<path fill="#F1BB97" stroke="none" d="
M 246.55 155.55
Q 246.55 156 246.55 156.4 246.75 156.1 246.95 155.85 246.75 155.7 246.55 155.55 Z"/>

<path fill="#C58D68" stroke="none" d="
M 247.35 155.4
Q 247.1 155.3 246.85 155.2 246.7 155.15 246.6 155.1 245.65 154.8 244.4 154.8
L 244.35 154.85
Q 244 155.75 244.1 156.85 244.15 157.65 244.4 158.5 244.55 158.95 244.8 159.55 244.85 159.4 244.9 159.25 245.25 158.05 246.55 156.4 246.55 156 246.55 155.55 246.75 155.7 246.95 155.85 247.1 155.65 247.35 155.4
M 245.95 148.1
Q 245.6 148.1 245.25 148.15 244.75 148.35 244.25 148.5 244.3 148.55 244.35 148.6
L 244.85 149.25
Q 245.85 150.25 246.9 150.6 247.85 151 249.5 151
L 251.5 151.1
Q 251.55 151.05 251.65 150.95 251.2 150.85 250.8 150.75 246.8 149.55 245.95 148.1
M 240.7 148.2
Q 241.55 147.2 242.45 147.1 240.55 146.1 239.05 147.9 238.6 148.5 238.5 149.9 238.3 152.3 240.75 153.95 241.05 154.15 241.4 154.35
L 242.5 154.6
Q 242.75 154.6 243.05 154.7 242.2 154.2 241.6 153.65 240 152.2 240.15 150.3 240.25 148.8 240.7 148.2 Z"/>

<path fill="#FFFFFF" stroke="none" d="
M 248.2 147.9
Q 247.1 147.8 245.95 148.1 246.8 149.55 250.8 150.75 251.2 150.85 251.65 150.95 252.35 150.2 252.85 149.7 250.8 148 248.2 147.9
M 242.45 147.1
Q 241.55 147.2 240.7 148.2 240.25 148.8 240.15 150.3 240 152.2 241.6 153.65 242.2 154.2 243.05 154.7 243.3 154.65 243.55 154.7 243.8 154.75 244 154.8 244.2 154.8 244.35 154.85
L 244.4 154.8
Q 245.65 154.8 246.6 155.1 246.7 155.15 246.85 155.2 247.1 155.3 247.35 155.4 247.95 154.7 248.75 153.9 250.35 152.25 251.5 151.1
L 249.5 151
Q 247.85 151 246.9 150.6 245.85 150.25 244.85 149.25
L 244.35 148.6
Q 244.3 148.55 244.25 148.5 243.3 147.55 242.45 147.1 Z"/>
</g>

<g id="Layer9_0_FILL">
<path fill="#603910" stroke="none" d="
M 188.65 168.3
L 188.7 167.9
Q 188.85 167.2 188.1 166.7 188.35 167.5 188.65 168.3 Z"/>

<path fill="#E4B53F" stroke="none" d="
M 189.7 166.35
Q 189.85 166.55 189.9 166.85
L 189.35 169.7 190.45 170
Q 191.3 170.2 191.1 170.7 191 170.9 190.9 171 190.7 171.25 190.2 171.2
L 189.65 171.2
Q 190.1 172.45 190.55 173.7 192.7 174 194.85 174.3 195.6 174.35 196.3 174.45 200 174.9 203.8 175.15 204.45 175.2 205.2 175.25 207.85 175.45 209.9 175.4
L 212.95 168.85
Q 210.65 168.55 207.7 168.35 207 168.35 206.3 168.25 202.35 167.95 198.45 167.55 197.85 167.45 197.3 167.4 193.45 166.95 189.7 166.35 Z"/>

<path fill="#D6AB28" stroke="none" d="
M 189.9 166.85
Q 189.85 166.55 189.7 166.35 189.7 166.25 189.65 166.2 189.05 165.15 187.4 164.75 187.75 165.7 188.1 166.7 188.85 167.2 188.7 167.9
L 188.65 168.3
Q 189.15 169.75 189.65 171.2
L 190.2 171.2
Q 190.7 171.25 190.9 171 191 170.9 191.1 170.7 191.3 170.2 190.45 170
L 189.35 169.7 189.9 166.85 Z"/>
</g>

<g id="Duplicate_Items_Folder_poof_2_Layer0_0_FILL">
<path fill="#999999" stroke="none" d="
M 201.75 541.05
Q 198.65 541.35 195.65 541.4 165.3 541.35 159.1 505.6 158.95 506.85 158.9 508.15 158.7 510.9 158.7 513.65 158.65 513.85 159.95 523.7 161.2 533.7 175.95 548.95 187.85 561.2 199.6 577.2 200.7 578.7 201.75 580.2 204.65 584.1 207.45 588.1 221.3 607.95 245.25 615.6 262.1 620.8 278.55 622.2
L 279.85 622.2
Q 279.75 622.3 279.75 622.55 276.9 632.15 275.85 641.2 274.7 650.1 275.4 658.55 286.2 633.1 292.7 606.65 273.5 610.45 252.7 603.65 221.15 593.25 210.35 576.95 202.3 564.75 205.85 549.25 208.1 549.25 210.35 549.1 230.05 547.95 244.6 538.7 247.75 536.7 250.3 534.55 260.85 525.55 261 514.1 253.65 521.5 246.5 527.25 227.7 542.3 210.35 545.7 206 546.55 201.75 546.7
L 201.75 541.05
M 299.45 482.7
Q 299.85 486.15 300.2 489.55 316.55 483.05 322.2 471.95 322.15 471.4 322.1 470.85 310.35 478.2 299.45 482.7
M 676.05 598.75
Q 675.55 599.25 674.95 599.6 674.2 600 673.25 600.25 672.5 600.3 672.45 600.3 672.35 600.3 672.3 600.3 670.55 601.8 668.2 602.2 666.75 602.5 665.2 602.2 663.8 602 663.7 601.95 663.4 601.8 662.7 601.35 662.2 600.95 661.8 600.75 661.85 600.65 661.9 600.5 660.65 600.25 659.6 599.7 659 599.8 658.4 599.9 658.35 599.9 658.3 599.9 658.7 600.25 659.1 600.7 661.2 602.4 663.7 602.8 665.9 603.3 668.25 602.9 669.65 602.6 670.4 602.05 670.5 602.1 671.2 602.45 671.95 602.85 673.75 602.75 675.5 602.7 676.8 601.2 677.6 600.2 677.95 598.75
L 676.05 598.75
M 738.7 643.2
Q 738.7 642.9 738.75 642.6 737.2 644.4 735.65 646
L 736.45 646.65
Q 733.25 651.2 729.75 654.65 729.75 655.3 729.75 656 729.75 656.75 729.75 657.5 729.75 658.95 729.75 660.4 729.75 661.15 729.75 661.85 729.75 662.6 729.5 663.25 729.05 664.1 728.25 664.55 727.7 664.8 727 664.8
L 726.2 667.4
Q 728.35 668.05 730.55 668.65 741.2 671.4 753.25 671.4 763.35 671.4 772.6 666.8 781.25 662.5 788 654.75 793.9 648 797.45 639.75 779.25 667.3 756.95 668.85 753.6 669.65 750.6 669.7 740.15 669.7 733.45 659.6 736.8 652.2 737.25 651.2 738.1 649.3 738.55 645.75 738.65 644.55 738.7 643.2
M 826.6 539.35
Q 826.7 539.85 826.8 540.5 828 547.75 828.1 553.95 828.1 555.05 828.1 556.2 827.45 584.05 801.45 585.65 801.3 585.55 801.25 585.5 796.15 590.05 793.3 591.6 791.8 592.4 790.55 592.8 795.1 592.55 795.7 592.3 795.45 592.8 795.1 593.35 792.3 597.75 781.25 602.05 776.3 603.95 771.7 604.95 771.3 605 770.9 605.2 768.7 605.6 766.95 605.7 772.35 608.8 778.05 609.85 778.8 609.95 779.6 610.05 797.3 613.2 800.3 631.5 801.95 625.2 802 618.85 802 613.3 801.25 606.65 801.65 606.4 804.65 602.2 807.65 598.05 816.2 590.6 824.7 583.15 827.5 576.55 830.3 569.95 830.75 566.85 831.25 562.75 831.3 558.35 831.35 554.55 830.8 550.9 830.05 546.15 828.35 541.55 828.15 540.95 827.95 540.35 827.65 539.7 827.4 539.05
L 827.4 539
Q 827.3 539 827.3 539.05 826.95 539.15 826.6 539.35 Z"/>

<path fill="#FFFFFF" stroke="none" d="
M 223.6 378.75
Q 212.95 382.9 210.35 391.55 208.6 397.15 210.35 404.65 210.6 405.85 210.95 407.05 213.95 417.4 213.15 422.95 211.7 423.85 210.35 424.75 207.15 426.75 204.3 428.55 202.95 429.4 201.75 430.45
L 201.75 430.4
Q 194.15 438.15 191.8 450.25 179.4 449.1 164.5 463 149.6 476.85 144.75 484.7 139.8 492.55 140.15 496.4 141.85 517.55 159.1 505.6 165.3 541.35 195.65 541.4 198.65 541.35 201.75 541.05
L 201.75 546.7
Q 206 546.55 210.35 545.7 227.7 542.3 246.5 527.25 253.65 521.5 261 514.1 260.85 525.55 250.3 534.55 247.75 536.7 244.6 538.7 230.05 547.95 210.35 549.1 208.1 549.25 205.85 549.25 202.3 564.75 210.35 576.95 221.15 593.25 252.7 603.65 273.5 610.45 292.7 606.65 295.25 596 297.2 585.2 312.45 593.1 327.9 598 331 599 334.05 599.9
L 335.65 600.15
Q 335.6 600.3 335.55 600.65 334.8 602.05 334.2 603.45 329.9 613.1 327.4 622.6 326.3 626.7 325.5 630.75 321.65 650.85 325.35 670.25 331.25 701.3 355.55 709.8 379.7 718.05 421.7 708 423.15 666.6 420.1 625.75 394.5 620.85 370.7 602.9 365.25 598.75 359.85 593.85 357.75 593.8 355.65 590.05 355.3 589.65 354.95 589.35
L 354.9 588.45
Q 354.05 586.65 353.1 584.15 352.15 581.55 351.2 578.3 349.7 573.25 348.45 567.5 347.45 562.8 347.45 562.15 347.45 554.8 352.65 547.75 355.1 544.5 356.15 542.95 357.75 540.45 357.75 538.55 357.75 536.65 355.55 530.3 354.65 527.5 354.1 524.5 332.15 506 329.45 471.95 324 483.55 307.65 490.1 304.15 491.5 300.45 492.55 300.35 491.05 300.2 489.55 299.85 486.15 299.45 482.7 310.35 478.2 322.1 470.85 325.6 468.65 329.15 466.25 328.8 456.4 329.95 445.4 331.4 442.9 332.8 440.55 333.65 439 334.35 437.45 353.05 426 375.15 426.45 361.55 391.45 345.9 357.55 334.55 332.9 320.1 314.9 314.65 324 312.65 335.45 292.1 343.3 278.8 348.45 276.65 349.25 274.7 350.35 264.3 356.4 259.15 371.55 255.45 371.55 251.7 371.9
L 251 371.05
Q 250.35 371.6 249.7 372.1 237.1 373.55 223.6 378.75
M 663.45 560.65
Q 656.7 558.15 648.85 562.35 647.35 564.95 646.3 566.85 645.4 568.7 644.85 570 642.7 575.75 643.4 577.8 643.65 578.55 644.3 579.6 644.65 579.95 644.85 580.3 645.6 581.25 647.75 583.85 647.1 583.55 644.4 581.6 643.65 581.1 643 580.55 642.1 581.3 641.75 581.65 640.9 582.3 640.5 583.45 639.65 585.9 639.7 588.25 640.45 589.7 641.55 591.15 642.15 592.05 642.9 592.9 646.4 596.5 651.75 598.5 655.65 600 658.3 599.9 658.35 599.9 658.4 599.9 659 599.8 659.6 599.7 661 599.4 662.95 598.55
L 662.55 599.5
Q 662.45 599.6 661.9 600.5 661.85 600.65 661.8 600.75 662.2 600.95 662.7 601.35 663.4 601.8 663.7 601.95 663.8 602 665.2 602.2 666.75 602.5 668.2 602.2 670.55 601.8 672.3 600.3 674.1 598.75 675.1 595.95 675.3 595.45 675.35 593.95 675.4 593.4 675.35 593.05 675.3 592.6 675.2 592.05 675.15 591.95 675.1 591.8 675.1 591.6 675.05 591.4 674 587.7 672.35 586.95
L 672.2 586.55
Q 673.65 586.3 676.05 584.25 679.1 581.75 680.2 578.75 680.45 577.95 680.5 577.05 680.35 576.3 680.05 575.5 679.6 574.4 679.25 573.5 677.8 570.35 676.05 569.65 674.25 569 673.1 569.2 672.1 569.55 670.85 572.85 670.85 568 668.5 564.6 666.45 561.8 663.45 560.65
M 660.4 579.85
Q 662.4 579 664.85 579.95 666.75 580.7 667.6 583.15 668.5 586 667.4 589 666.85 590.25 666.75 590.5 666.4 591.2 665.45 592.05 665.9 591.3 666.15 590.8 667.1 588.35 665.95 586 664.75 583.25 661.7 582.1 661.1 581.9 660.55 581.8 660.55 582 660.55 582.3 660.6 583.85 660.25 584.9 659.8 585.9 658.95 586.8 658.3 587.3 657.75 587.65 658.25 586.15 657 583.5 656.8 583.15 656.65 582.7 656.5 582.45 656.35 582.25 655.2 580.45 653.55 579.9 653.1 579.75 652.2 579.9 651.2 580.15 651.1 580.1 651.25 579.95 653.25 578.45 655.45 577.2 657 577.8 658 578.2 658.4 578.55 658.65 578.9 659.5 580.25 659.9 579.95 660.4 579.85
M 830 524.3
Q 827.1 521.75 823 521.6 817.35 514.45 807.45 515.25 806 515.3 804.6 515.6 802.55 514.8 800.55 514.3 806.4 505.55 802.2 498.6 801.4 497.3 800.8 496.2
L 797.05 502.9 797.05 514.65 802.55 526.45 808.05 532.35 806.7 547.05 797.05 555.9 791.6 555.9 787.45 558.85 781.95 558.85 772.35 566.2
Q 773.3 570.15 771.95 571.65 770.3 573.55 769.85 576.55 769.6 578.7 769.6 580.95 769.6 583.85 769.6 586.8 769.6 589.05 768.75 590.8 768.2 591.95 766.85 592.7
L 747.6 594.15 737.95 603 739.4 619.2 747.6 623.6 749 629.5
Q 745.1 633.1 742.15 637.85 740.55 640.4 737.15 642.35 735.2 643.5 733.95 645.75 733.2 647.15 732.3 648.5 731.8 649.4 731.25 650.2 730.45 651.6 729.75 653.05 729.75 653.85 729.75 654.65 733.25 651.2 736.45 646.65
L 735.65 646
Q 737.2 644.4 738.75 642.6 738.7 642.9 738.7 643.2 738.65 644.55 738.55 645.75 738.1 649.3 737.25 651.2 736.8 652.2 733.45 659.6 740.15 669.7 750.6 669.7 753.6 669.65 756.95 668.85 779.25 667.3 797.45 639.75 797.8 638.8 798.25 637.85 799.45 634.7 800.3 631.5 797.3 613.2 779.6 610.05 778.8 609.95 778.05 609.85 772.35 608.8 766.95 605.7 768.7 605.6 770.9 605.2 771.3 605 771.7 604.95 776.3 603.95 781.25 602.05 792.3 597.75 795.1 593.35 795.45 592.8 795.7 592.3 795.1 592.55 790.55 592.8 791.8 592.4 793.3 591.6 796.15 590.05 801.25 585.5 801.3 585.55 801.45 585.65 827.45 584.05 828.1 556.2 828.1 555.05 828.1 553.95 828 547.75 826.8 540.5 826.7 539.85 826.6 539.35 826.95 539.15 827.3 539.05 827.3 539 827.4 539
L 827.4 539.05
Q 827.65 539.7 827.95 540.35 828.15 540.95 828.35 541.55 830.05 546.15 830.8 550.9 831.35 550 831.95 549.2 835.55 543.5 835.6 537.4 835.6 536.7 835.55 536.05 835.25 531.6 833.2 526.95
L 832.3 527.3
Q 831.5 525.7 830 524.3
M 1059.7 110.6
Q 1059.4 110 1059.25 109.9 1057.55 109.3 1055.95 108.7 1057.95 109.55 1059.7 110.6 Z"/>
</g>

<g id="Duplicate_Items_Folder_2_0_Layer0_0_FILL">
<path fill="#FFFFFF" stroke="none" d="
M 3.75 167.35
Q 3.3 166.8 3.15 166.65 1.55 166.65 0 166.6 1.95 166.9 3.75 167.35
M 337.8 76.7
Q 335.4 79.05 337.25 90 329.9 76.85 318.35 71.4 308.75 66.8 299 68.3 276.85 71.7 262.15 94.95 264.5 97.6 266.45 100.3 263.95 99.05 263.2 97.5 262.65 96.4 262.1 95.45 262 95.3 261.95 95.2 261.55 94.5 261.15 93.85 259.9 92.45 258.35 90.9 257.85 90.4 257.5 89.95 256.85 89.4 256.3 88.9 243.95 77.35 235.6 78.35
L 234.2 76.95
Q 241.05 74.75 251.25 63.2 261.4 51.65 255.45 38.9 250.9 29.15 248.25 25.9 247.5 25.15 246.75 24.45 244.35 22.25 241.5 19.95 237.3 16.65 233.7 14.1 221.1 5.6 212.35 6.9 203.45 8.3 199.8 11.55 196.2 14.8 198.8 29.7 188.05 11.8 171.1 4.5 156.95 -1.6 142.45 0.6 109.55 5.65 87.3 37.8 88.85 38.35 82.15 50.55 75.45 62.75 78.9 79.55 82.3 96.3 92.15 102.4 101.95 108.45 107.15 110.75 108.85 111.45 110.9 112.25 114.85 113.7 124.7 117.15 123.7 117.65 123 118.25 122.7 118.5 122.5 118.9 118.65 118.6 113 118 109.95 115.7 106.45 114.2 100.1 111.45 93.65 111.65 91.8 111.7 89.95 112 71.05 114.85 58.2 133.4 57.9 140.75 58.05 146.05 58.3 151.15 58.8 154.45 61.05 169.1 65.1 172.75 66.65 174.05 69.65 175.35 70.65 175.75 71.85 176.2 74.65 177.25 82.85 180.15 81.15 180.4 72.4 179.5 70 179.2 67.9 179 66.75 181.7 66.25 182.85 65.25 185.25 65.7 188.15 66.6 194.25 70 199.2 73.55 201.45 77.9 203.15 80.55 204.25 83.3 205 95.85 208.45 110.65 206.2 121.8 204.5 127.75 200.9 131.85 198.45 136.55 192.55
L 136.95 195.05
Q 136.75 195.5 136.7 198.6 138 198.65 139.7 198.8 141.7 198.9 142.7 198.75 142.85 198.7 146.3 197.7 150.4 196.3 153.5 193.85 160.6 188.5 161.6 179.9 161.95 176.35 161.35 172.3 161.15 171.05 159.45 167.7 158.9 166.75 158.45 165.9 158.35 165.75 158.3 165.65 158.4 165.75 158.5 165.9 176.65 176.7 189.7 172.6 202.75 168.45 211.55 164.7 220.35 160.95 222.5 153.2 225.3 154.8 228.1 156 250.55 165.6 261.9 153.9 265.55 152.3 276.05 148.2 277.25 148.75 278.65 149.3 282 150.7 291.7 154.4 289.65 154.75 279.35 153.45 276.5 153.1 274.1 152.75 272.7 156.15 272.2 157.6 271.05 160.65 271.6 164.35 272.8 172.05 276.85 178.4 281 181.25 286.1 183.5 289.3 184.85 292.5 185.85 307.3 190.45 324.6 187.8 337.65 185.8 344.6 181.4 349.4 178.3 354.75 170.9
L 355.25 174.1
Q 355 174.6 355.05 178.6 356.55 178.7 358.55 178.85 360.95 179 362.1 178.8 362.3 178.75 366.25 177.55 371.05 175.85 374.65 172.85 386.25 163.45 383.55 145.65 383.3 144.1 381.25 139.85 380.6 138.35 379.9 137.2 379 136.15 377.95 135 377.6 134.7 377.35 134.3 376.95 133.85 376.55 133.55 368.15 125 362.5 125.7
L 361.55 124.65
Q 365.05 121.85 368.5 112.6 372.7 101.3 371.25 91.6 370.85 89 369.6 86.55 367.95 84.9 366 83.2 363.15 80.75 360.7 78.9 352.1 72.55 346.2 73.45 340.2 74.4 337.8 76.7
M 352.3 138.55
Q 352.95 142.7 352.9 143.7 352.85 146.2 351.8 149.6 351.95 147.1 351.65 145.25 350.45 137.55 343.95 132.6 336.7 127.05 326.55 128.6 324.6 128.9 323 129.45 323.4 130.1 323.8 130.75 326.25 134.8 326.8 138.35 327.3 141.45 326.1 145.3 325.35 147.7 324.45 149.4 323.45 144.75 316.25 139.5 315 138.7 313.9 137.95 313.15 137.5 312.4 137.15 308.15 134.95 304.2 134.8 302.75 134.75 301.35 134.95 299.8 135.15 297.65 137.1 295.4 139.1 295.1 139.15 295.3 138.6 298.4 131.75 302.3 125 307.55 124.2 310.65 123.75 312.4 124.25 312.6 124.3 312.9 124.4 314.3 124.95 317.95 126.85 318.65 125.6 319.55 124.5 323.85 119.25 331.95 118 338.05 117.1 344.1 122.65 350.8 128.75 352.3 138.55
M 173.15 47.4
Q 172.55 45.25 171.85 43.7 169.1 37.6 164.4 32.75 160 28.15 156 29.15 151.8 30.25 150.15 31.35 150.5 31.8 150.8 32.25 153 35.3 153.9 38.05 154.7 40.55 154.5 43.8 154.35 45.95 153.95 47.5 153.75 47.05 153.6 46.6 147.15 29.05 139.75 31.85 133.2 34.3 131.25 38.1 130.85 38.4 130.75 38.5 130.95 38 133.3 32.55 135.9 27.75 139.45 27.35 141.45 27.1 142.7 27.5 143.45 27.75 146.55 29.45 146.9 28.6 147.35 27.9 149.5 24.65 154.25 24.15 154.75 24.05 155.35 24.1 158.3 24.3 162.15 27.35 167.3 31.45 170.45 38.35 171.95 41.6 172.2 42.4 172.85 44.45 173.15 47.4
M 106.1 157.25
L 109.85 160.1
Q 110.15 160.55 110.5 161.1 112.6 164.3 113 167.1 113.4 169.55 112.35 172.55 111.7 174.5 110.9 175.85 110.1 172.15 103.95 168.05 102.95 167.45 102.05 166.9 101.35 166.5 100.7 166.25 95.8 163.95 91.35 164.6 90.05 164.85 88.15 166.4 86.2 168 85.95 168.05 86.15 167.6 88.85 162.15 92.25 156.75 96.7 156.1 99.35 155.65 100.85 156.05 101.85 156.3 105.55 158.1 105.8 157.65 106.1 157.25 Z"/>

<path fill="#999999" stroke="none" d="
M 345.55 203
Q 340.8 203 336.8 203.9 335 204.3 333.4 204.9 345.9 205.05 358.35 205.6 351.25 203 345.55 203
M 55.85 137.05
Q 53.2 141.35 51.15 145.95 43.2 171.65 66.05 177.2 67.15 177.55 68.35 177.95 68.1 178.5 67.9 179 70 179.2 72.4 179.5 81.15 180.4 82.85 180.15 74.65 177.25 71.85 176.2 70.65 175.75 69.65 175.35 66.65 174.05 65.1 172.75 61.05 169.1 58.8 154.45 58.3 151.15 58.05 146.05 57.9 140.75 58.2 133.4 57.45 134.6 56.6 135.9 56.2 136.45 55.85 137.05
M 84.45 42.2
Q 83.7 43.1 83.15 44.15 78.55 51.6 74.95 59.65 63.15 97.8 90.65 110.4 92.05 111.05 93.65 111.65 100.1 111.45 106.45 114.2 109.95 115.7 113 118 118.65 118.6 122.5 118.9 122.7 118.5 123 118.25 123.7 117.65 124.7 117.15 114.85 113.7 110.9 112.25 108.85 111.45 107.15 110.75 101.95 108.45 92.15 102.4 82.3 96.3 78.9 79.55 75.45 62.75 82.15 50.55 88.85 38.35 87.3 37.8 85.9 39.9 84.45 42.2
M 166.15 180
Q 166.7 180 167.2 180 185 181.8 203.25 175.45 214 171.65 219.55 166.5 220.45 166.75 226.6 168.55 232.75 170.15 247.05 167.55 261.3 164.95 269.7 152.4 270.4 151.35 271.05 150.25 271.45 150.35 271.85 150.45 273.15 150.95 274.6 151.5 274.3 152.15 274.1 152.75 276.5 153.1 279.35 153.45 289.65 154.75 291.7 154.4 282 150.7 278.65 149.3 277.25 148.75 276.05 148.2 265.55 152.3 261.9 153.9 250.55 165.6 228.1 156 225.3 154.8 222.5 153.2 220.35 160.95 211.55 164.7 202.75 168.45 189.7 172.6 176.65 176.7 158.5 165.9 158.4 165.75 158.3 165.65 158.35 165.75 158.45 165.9 158.9 166.75 159.45 167.7 161.15 171.05 161.35 172.3 161.95 176.35 161.6 179.9 160.6 188.5 153.5 193.85 150.4 196.3 146.3 197.7 142.85 198.7 142.7 198.75 141.7 198.9 139.7 198.8 138 198.65 136.7 198.6 136.75 195.5 136.95 195.05
L 136.55 192.55
Q 131.85 198.45 127.75 200.9 121.8 204.5 110.65 206.2 95.85 208.45 83.3 205 80.55 204.25 77.9 203.15 73.55 201.45 70 199.2 74.05 205.1 81.6 209.4 92.25 215.4 104.25 215.2 114.45 216.25 125 212.6 131.15 210.4 134.3 207.45 134.85 207.55 138.4 208.6 141.9 209.55 150.15 208.05 158.4 206.55 163.15 199.35 168 192.05 166.3 180.8 166.25 180.4 166.15 180
M 220.55 165.5
L 220.45 165.65 220.3 165.65
Q 220.4 165.55 220.55 165.5
M 134.9 206.9
L 134.85 206.95 134.75 206.95
Q 134.85 206.9 134.9 206.9
M 262.15 94.95
Q 261.65 94.4 261.15 93.85 261.55 94.5 261.95 95.2 262 95.3 262.1 95.45 262.65 96.4 263.2 97.5 263.95 99.05 266.45 100.3 264.5 97.6 262.15 94.95
M 248.25 25.9
Q 250.9 29.15 255.45 38.9 261.4 51.65 251.25 63.2 241.05 74.75 234.2 76.95
L 235.6 78.35
Q 243.95 77.35 256.3 88.9 265.9 79.7 266.1 71.25 266.25 62.7 265.35 56.9 262.8 40.1 248.25 25.9
M 379.9 137.2
Q 380.6 138.35 381.25 139.85 383.3 144.1 383.55 145.65 386.25 163.45 374.65 172.85 371.05 175.85 366.25 177.55 362.3 178.75 362.1 178.8 360.95 179 358.55 178.85 356.55 178.7 355.05 178.6 355 174.6 355.25 174.1
L 354.75 170.9
Q 349.4 178.3 344.6 181.4 337.65 185.8 324.6 187.8 307.3 190.45 292.5 185.85 289.3 184.85 286.1 183.5 281 181.25 276.85 178.4 281.6 185.85 290.6 191.45 303.15 199.2 317.2 199.15 326.2 200.2 335.4 197.95 338.45 197.2 341.5 196.1 348.7 193.45 352.4 189.7 353 189.85 357.2 191.2 361.35 192.5 370.95 190.7 380.6 188.95 386.1 179.9 391.65 170.7 389.5 156.5 388 146.75 379.9 137.2
M 353.05 189
L 353 189.1 352.9 189.1
Q 352.95 189 353.05 189
M 369.6 86.55
Q 370.85 89 371.25 91.6 372.7 101.3 368.5 112.6 365.05 121.85 361.55 124.65
L 362.5 125.7
Q 368.15 125 376.55 133.55 383 126.9 383 120.75 383.1 114.55 382.45 110.3 380.45 97.4 369.6 86.55
M 109.85 160.1
L 106.1 157.25
Q 105.8 157.65 105.55 158.1 101.85 156.3 100.85 156.05 99.35 155.65 96.7 156.1 92.25 156.75 88.85 162.15 86.15 167.6 85.95 168.05 86.2 168 88.15 166.4 90.05 164.85 91.35 164.6 95.8 163.95 100.7 166.25 101.35 166.5 102.05 166.9 102.95 167.45 103.95 168.05 110.1 172.15 110.9 175.85 111.7 174.5 112.35 172.55 113.4 169.55 113 167.1 112.6 164.3 110.5 161.1 110.15 160.55 109.85 160.1
M 171.85 43.7
Q 172.55 45.25 173.15 47.4 172.85 44.45 172.2 42.4 171.95 41.6 170.45 38.35 167.3 31.45 162.15 27.35 158.3 24.3 155.35 24.1 154.75 24.05 154.25 24.15 149.5 24.65 147.35 27.9 146.9 28.6 146.55 29.45 143.45 27.75 142.7 27.5 141.45 27.1 139.45 27.35 135.9 27.75 133.3 32.55 130.95 38 130.75 38.5 130.85 38.4 131.25 38.1 133.2 34.3 139.75 31.85 147.15 29.05 153.6 46.6 153.75 47.05 153.95 47.5 154.35 45.95 154.5 43.8 154.7 40.55 153.9 38.05 153 35.3 150.8 32.25 150.5 31.8 150.15 31.35 151.8 30.25 156 29.15 160 28.15 164.4 32.75 169.1 37.6 171.85 43.7
M 352.9 143.7
Q 352.95 142.7 352.3 138.55 350.8 128.75 344.1 122.65 338.05 117.1 331.95 118 323.85 119.25 319.55 124.5 318.65 125.6 317.95 126.85 314.3 124.95 312.9 124.4 312.6 124.3 312.4 124.25 310.65 123.75 307.55 124.2 302.3 125 298.4 131.75 295.3 138.6 295.1 139.15 295.4 139.1 297.65 137.1 299.8 135.15 301.35 134.95 302.75 134.75 304.2 134.8 308.15 134.95 312.4 137.15 313.15 137.5 313.9 137.95 315 138.7 316.25 139.5 323.45 144.75 324.45 149.4 325.35 147.7 326.1 145.3 327.3 141.45 326.8 138.35 326.25 134.8 323.8 130.75 323.4 130.1 323 129.45 324.6 128.9 326.55 128.6 336.7 127.05 343.95 132.6 350.45 137.55 351.65 145.25 351.95 147.1 351.8 149.6 352.85 146.2 352.9 143.7 Z"/>
</g>

<g id="Duplicate_Items_Folder_3_0_Layer0_0_FILL">
<path fill="#999999" stroke="none" d="
M 163.75 166.85
Q 163.45 167.05 163.15 167.25 163.55 167.6 163.95 168 163.8 167.3 163.75 166.85
M 184.85 68.3
Q 185.1 66.5 185.3 64.7 185.15 64.65 185.05 64.65 185.3 63.4 185.5 62.15 185.55 60.55 185.55 58.9 185.55 48.75 182.4 39.85 186.6 55.95 179.55 64.75
L 184.85 68.3
M 167.5 17.45
Q 167.3728515625 17.3728515625 167.25 17.25 151.75 2.6 130.75 0.4 127.5 0.05 124.15 0 123.65 0 123.15 0 97.35 0 79.05 17.25 67.55 28.1 63.3 41.8 54.3 34.65 42.25 34.65 28.55 34.65 18.85 43.8 9.2 52.95 9.2 65.85 9.2 78.8 18.85 87.9 19.15 88.2 19.5 88.5 0 108 0 135.2 0 135.65 0 136.1
L 0 136.5
Q 0.5 164 21.15 183.45
L 21.9 182.85
Q 5.3 163.25 8.7 135.95 8.75 135.8 8.75 135.65 12 110.1 31.15 91.45 30.9 91.2 30.65 90.95 28.2 88.35 26.75 85.35 26.7 85.25 26.7 85.15 26.55 84.85 26.4 84.6 23.85 78.8 24.75 71.6 26.15 60.25 35.3 51.8 44.45 43.3 56.2 42.5 59.85 42.25 63.15 42.8 69.2 43.8 73.9 47.5 78.7 35.3 89.6 25.2 104.7 11.25 124.15 8.1 126.95 7.6 129.8 7.4 130.45 7.3 131.1 7.3 152.24296875 5.90703125 167.5 17.45
M 64.95 146.4
Q 64.55 146.1 64.2 145.8 63.4 146.55 62.55 147.25
L 64.95 146.4
M 160.35 73
Q 159.15 72.45 157.1 73.4 157.9 73.25 159.05 73.1 159.7 73.05 160.35 73
M 266.6 94.15
Q 259.4 88.4 248.4 83.85 240 80.3 228.25 78.65 230.7 80.25 232.65 82.4 239.7 89.4 238.35 94.1 236.5 100 224.5 97 222.05 96.4 217.75 95.3 217.15 95.15 216.55 95 212.9 94.2 212.4 95.65 211.2 99.3 214.65 102.55 217.65 104.95 219.85 106.95 221.15 108.15 222.15 109.2 221 108.6 219.85 108.1 214.85 105.7 210.15 104.25
L 209.25 105.15
Q 207.55 104 205.8 103.05 200.8 101.8 195.95 101.65 184.6 101.1 182.7 106.35 182.1 108.05 181.75 110.4 181.75 110.45 181.8 110.55 181.65 111.3 181.6 112.15 181 117.9 183.2 120.65 184.8 116 188.2 113.25 194.9 107.6 206.1 112.95 209.1 114.35 210.05 115.5 211.25 116.7 208.25 137.4 205.6 155.75 178.1 160.85 179.9 160.65 181.6 160.5 188.85 159.7 193.7 159 204.15 157.45 211.4 154.05 224.05 148.2 226.45 137.05 228.05 128.85 235.75 126.65 241 125 252.1 126.05 265.7 127.15 268.75 127.05 272.15 126.7 274.2 125.75 277.4 124.25 278.2 121.25 280.25 113.2 276.6 105.85 275 102.5 272.3 99.45 269.85 96.6 266.6 94.15 Z"/>

<path fill="#FFFFFF" stroke="none" d="
M 185.3 64.7
Q 185.4 63.4 185.5 62.15 185.3 63.4 185.05 64.65 185.15 64.65 185.3 64.7
M 167.6 17.55
Q 167.5478515625 17.5126953125 167.5 17.45 152.24296875 5.90703125 131.1 7.3 130.45 7.3 129.8 7.4 126.95 7.6 124.15 8.1 104.7 11.25 89.6 25.2 78.7 35.3 73.9 47.5 69.2 43.8 63.15 42.8 59.85 42.25 56.2 42.5 44.45 43.3 35.3 51.8 26.15 60.25 24.75 71.6 23.85 78.8 26.4 84.6 26.55 84.85 26.7 85.15 26.7 85.25 26.75 85.35 28.2 88.35 30.65 90.95 30.9 91.2 31.15 91.45 12 110.1 8.75 135.65 8.75 135.8 8.7 135.95 5.3 163.25 21.9 182.85
L 21.15 183.45
Q 24.75 186.85 28.65 189.7 46.4 202.75 69.55 203.45 70.9 203.5 72.3 203.5 102.25 203.5 123.4 183.45 128.85 178.35 132.95 172.7 135.15 169.55 137 166.25 137.35 165.55 137.75 164.85 139.6 165.3 141.6 165.65 145.5 166.3 149.75 166.5 151.2 166.55 152.7 166.55 157.4 166.55 161.9 166 162.5 166.6 163.15 167.25 163.45 167.05 163.75 166.85 163.75 166.45 163.8 166.25 163.9 165.95 164.05 165.7 165.05 165.5 166.05 165.35 174.1 163.85 181.6 160.5 179.9 160.65 178.1 160.85 205.6 155.75 208.25 137.4 211.25 116.7 210.05 115.5 209.1 114.35 206.1 112.95 194.9 107.6 188.2 113.25 184.8 116 183.2 120.65 181 117.9 181.6 112.15 181.65 111.3 181.8 110.55 181.75 110.45 181.75 110.4 182.1 108.05 182.7 106.35 184.6 101.1 195.95 101.65 200.8 101.8 205.8 103.05 207.55 104 209.25 105.15
L 210.15 104.25
Q 214.85 105.7 219.85 108.1 221 108.6 222.15 109.2 221.15 108.15 219.85 106.95 217.65 104.95 214.65 102.55 211.2 99.3 212.4 95.65 212.9 94.2 216.55 95 217.15 95.15 217.75 95.3 222.05 96.4 224.5 97 236.5 100 238.35 94.1 239.7 89.4 232.65 82.4 230.7 80.25 228.25 78.65 217.35 76.95 203.55 76.9 202.05 75.8 200.4 74.8 193.05 70.25 184.85 68.3
L 179.55 64.75
Q 186.6 55.95 182.4 39.85 178.05 27.55 167.65 17.6
L 167.6 17.55
M 157.1 73.4
Q 159.15 72.45 160.35 73 159.7 73.05 159.05 73.1 157.9 73.25 157.1 73.4
M 64.2 145.8
Q 64.55 146.1 64.95 146.4
L 62.55 147.25
Q 63.4 146.55 64.2 145.8
M 102.6 145.4
Q 102.25 142.25 102.45 138.6 102.5 135.9 102.85 137.85 103.2 139.7 102.95 142.65 102.85 144.15 102.6 145.4 Z"/>
</g>

<g id="Duplicate_Items_Folder_4_0_Layer0_0_FILL">
<path fill="#999999" stroke="none" d="
M 90.3 277.4
L 90.25 277.4
Q 76.55 285.75 62.2 303.55 44.55 325.45 44.55 338.8 44.55 347.4 48.5 353.1 52.7 359.15 56.65 357.2 52.9 362.65 61.95 363.15 71 363.65 79.3 363.15
L 78.75 363.15
Q 107.85 359.3 114.3 357.95 119.35 356.95 125.2 354.85 117 352.7 112.85 347.65 110.6 344.9 109.8 341.55 109.45 340.1 109.45 338.5 109.45 334.35 109.75 333.8 110.95 332.25 112.8 328.65 106.4 337.45 97.75 340.9 91.75 343.25 83.65 343.25 64.65 343.25 64.65 326.8 64.65 317.7 70.25 305.55 77.25 290.45 90.3 277.4
M 162.05 195.5
Q 164.3 189.5 164.3 183.95 164.3 172.9 156.9 168.45 153.7 166.6 147.7 164.85 143.65 163.75 140.4 162.9 142.9 164.4 145.1 167.55 149.7 174.1 149.7 183.1 149.7 191.9 146.95 197.3 143.2 204.55 134.05 207.35 150.6 211.5 159.3 220.2 170.1 230.8 170.9 249.25 172.05 247.8 173.3 246.15 177.75 239.2 177.75 232.45 177.75 223.25 172.8 216.85 168.85 211.7 157.65 203.9 160.25 200.05 162.05 195.5 Z"/>

<path fill="#CCCCCC" stroke="none" d="
M 47.4 2.6
Q 45.05 1.5 42.8 0.7 30.35 0.15 17.85 0 12.4 1.9 8.5 5.75 0 14.25 0 30.95 0 38.35 5.7 43.7 7.9 45.75 18.1 52.1 26.5 57.35 30.15 62.5 35.45 70 34.85 81.15 33.7 104.8 54.3 127.6 59.45 133.35 68.65 142.7 75.25 150.15 75.25 154.95 75.25 157.5 66.95 167.6 58.6 180.35 58.6 196.4 58.6 223.45 71.9 245.55 73.95 249 76.3 252.35 76.5 252.5 76.6 252.75 79.6 256.8 83.2 260.85
L 83.2 260.9
Q 86 264 89.15 267.1
L 88.25 263.7
Q 86.25 262.15 84.55 260.15 81.55 256.75 79.35 251.9 79.25 251.7 79.2 251.6 77.8 248.4 76.75 244.65
L 76.45 244.05 76.55 244
Q 73.65 233.65 73.65 220.75 73.65 195.35 89.65 169.85 97.85 156.8 107.25 147.65 71.45 135.35 58.55 107.45 51.35 91.75 51.35 67.15 51.35 64.7 52.5 63.75 53.55 62.9 56.35 62.9 66.7 62.9 70.6 74.45 72.55 80.15 72.55 87.15 75.1 85.15 76.25 77.15 76.45 76 76.6 74.95 76.6 74.85 76.6 74.8 77 71.55 77 68.9 77 60.65 67.55 54.15 63.55 51.45 59.1 49.95 57.5 50.25 55.9 50.6
L 55.35 48.9
Q 50.3 47.8 44.65 48.15 47.35 46.15 52.25 44 55.8 41.65 55.8 36.05 55.8 33.7 52.6 32.5 48.25 31.2 45.75 30.4 35.65 27.3 35.65 18.2 35.65 10.9 42.9 5.3 45.05 3.6 47.4 2.6 Z"/>

<path fill="#FFFFFF" stroke="none" d="
M 195.9 147.75
Q 197.95 140.2 197.95 135.1 197.95 89.6 163.1 67.1 140.35 52.4 105.45 48.9 90.8 32.5 72.6 18.5 58.5 7.65 47.4 2.6 45.05 3.6 42.9 5.3 35.65 10.9 35.65 18.2 35.65 27.3 45.75 30.4 48.25 31.2 52.6 32.5 55.8 33.7 55.8 36.05 55.8 41.65 52.25 44 47.35 46.15 44.65 48.15 50.3 47.8 55.35 48.9
L 55.9 50.6
Q 57.5 50.25 59.1 49.95 63.55 51.45 67.55 54.15 77 60.65 77 68.9 77 71.55 76.6 74.8 76.6 74.85 76.6 74.95 76.45 76 76.25 77.15 75.1 85.15 72.55 87.15 72.55 80.15 70.6 74.45 66.7 62.9 56.35 62.9 53.55 62.9 52.5 63.75 51.35 64.7 51.35 67.15 51.35 91.75 58.55 107.45 71.45 135.35 107.25 147.65 97.85 156.8 89.65 169.85 73.65 195.35 73.65 220.75 73.65 233.65 76.55 244
L 76.45 244.05 76.75 244.65
Q 77.8 248.4 79.2 251.6 79.25 251.7 79.35 251.9 81.55 256.75 84.55 260.15 86.25 262.15 88.25 263.7
L 89.15 267.1
Q 96.2 274 96.3 274.1 93.3 275.5 90.3 277.35
L 90.25 277.4 90.3 277.4
Q 77.25 290.45 70.25 305.55 64.65 317.7 64.65 326.8 64.65 343.25 83.65 343.25 91.75 343.25 97.75 340.9 106.4 337.45 112.8 328.65 110.95 332.25 109.75 333.8 109.45 334.35 109.45 338.5 109.45 340.1 109.8 341.55 110.6 344.9 112.85 347.65 117 352.7 125.2 354.85 138.05 350.05 154.75 339.85 162.95 334.85 169.9 329.1 170.05 328.95 170.15 328.85 176.2 323.75 181.3 318.1 192.5 305.65 192.4 297.85 192.25 289.3 196.15 283.15 197 281.75 204.8 272.95 210.75 266.25 213.55 258.8 217.55 248.25 217.55 232.1 217.55 230.55 216.65 228.4 216.25 227.3 215.85 226.4 226.5 219.2 230.15 210.7 233.75 202.2 231.55 189.9 229.35 177.55 218.15 170.3 206.95 163 199.25 159.2 193.8 156.55 193.8 155.5 193.8 155.3 195.9 147.75
M 164.3 183.95
Q 164.3 189.5 162.05 195.5 160.25 200.05 157.65 203.9 168.85 211.7 172.8 216.85 177.75 223.25 177.75 232.45 177.75 239.2 173.3 246.15 172.05 247.8 170.9 249.25 170.1 230.8 159.3 220.2 150.6 211.5 134.05 207.35 143.2 204.55 146.95 197.3 149.7 191.9 149.7 183.1 149.7 174.1 145.1 167.55 142.9 164.4 140.4 162.9 143.65 163.75 147.7 164.85 153.7 166.6 156.9 168.45 164.3 172.9 164.3 183.95 Z"/>
</g>

<g id="Duplicate_Items_Folder_6_0_Layer0_0_FILL">
<path fill="#FFFFFF" stroke="none" d="
M 127.15 28.3
Q 126.1 23.3 124.3 19.35 122.5 15.35 117.05 14.75 111.25 14.1 107.15 17.45 107.1 14.95 105.95 11.9 104.55 8.25 101.95 5.25 101.9 5.2 98.35 2.1 94.85 -1.05 88.15 0.5 81.5 2.05 80.6 2.65 74.95 -1.05 70.7 0.9 66.45 2.85 63.45 6.05 60.45 9.25 58.55 13.6 57.8 15.2 57.35 16.75 57.25 17.05 57.2 17.3 57.15 17.3 57.1 17.3 48 12.4 39.7 18.6 35.05 22.1 33.9 26.7 33.35 26.65 32.75 26.65 27.55 26.65 23.85 30.25 20.25 33.8 20.15 38.8 15.15 40.5 11 43.35 6 46.85 3.2 51.45 0.5 55.9 0.1 61.1 0.05 61.65 0 62.2 0 62.55 0 62.9 0 63.65 0.05 64.45 0.05 64.5 0.65 67.25 1.2 69.95 5.8 74.2 10.35 78.4 14.3 83.6 18.25 88.85 25 90.9 29.75 92.3 34.3 92.65
L 34.7 92.65
Q 34.7 92.7 34.65 92.75 33.9 95.25 33.65 97.6 33.05 102.9 34.9 107.55 37.3 113.75 42.65 114.9 47.95 116 54.75 116.25 61.55 116.45 64 113.4 66.45 110.3 66.6 110.1
L 66.6 110.05
Q 66.65 109.95 66.6 110.25 66.55 110.45 66.55 110.55
L 66.55 110.65
Q 66.55 113.45 70.85 115.65 75.2 117.85 79.1 117.6 83.05 117.3 87.15 114.75 89.45 115.7 91.85 116.4 97 117.8 102.85 117.8 107.75 117.8 112.2 115.45 116.4 113.25 119.65 109.3 122.5 105.85 124.2 101.6 124.4 101.15 124.55 100.65 125.15 99.05 125.55 97.4 126.35 94.2 126.35 90.95 126.35 88.1 125.95 84.75 126.15 84.6 126.35 84.5 129.75 82.8 132.55 80 137.85 74.8 139.55 67.55 139.9 66 140.1 64.45 140.35 62.35 140.35 60.1 140.35 55.75 138.9 51.55 138.4 50.1 137.7 48.7 136.55 46.3 134.9 44.25 132.3 41 129 39.15 127.2 38.2 125.35 37.7 128.2 33.3 127.15 28.3
M 90 36.7
Q 93.75 34.5 97.8 34.5 103.85 34.5 107.05 38.2 108.1 39.45 108.75 41.1 110.3 44.8 109.8 50.5 109.3 46.95 105.3 44.15 105.05 43.95 104.8 43.8 100.45 40.9 95.05 40.9 94 40.9 93 41 90.85 41.25 88.95 41.95 88.8 42 88.65 42.1 86.2 43.3 85.8 45.2 84.15 43 85.8 40.55 84.8 40.3 83.8 40.3 79.85 40.3 75.75 42.7 73 44.35 71.75 45.8 71.45 45.15 71.45 43.05 71.45 39.35 73.6 36.95 76.3 33.9 81.9 33.9 86.85 33.9 90 36.7
M 67.95 105.4
Q 68.1 105.05 68.1 105
L 68.1 105.3
Q 68 105.35 67.95 105.4 Z"/>

<path fill="#999999" stroke="none" d="
M 97.8 34.5
Q 93.75 34.5 90 36.7 86.85 33.9 81.9 33.9 76.3 33.9 73.6 36.95 71.45 39.35 71.45 43.05 71.45 45.15 71.75 45.8 73 44.35 75.75 42.7 79.85 40.3 83.8 40.3 84.8 40.3 85.8 40.55 84.15 43 85.8 45.2 86.2 43.3 88.65 42.1 88.8 42 88.95 41.95 90.85 41.25 93 41 94 40.9 95.05 40.9 100.45 40.9 104.8 43.8 105.05 43.95 105.3 44.15 109.3 46.95 109.8 50.5 110.3 44.8 108.75 41.1 108.1 39.45 107.05 38.2 103.85 34.5 97.8 34.5 Z"/>
</g>

<g id="Duplicate_Items_Folder_5_0_Layer0_0_FILL">
<path fill="#999999" stroke="none" d="
M 24.55 70.95
Q 29 68.35 29 64.75 19.5 73.55 11.05 72.8 2.6 72.05 0 62.2 0 62.55 0 62.9 0 63.65 0.05 64.45 0.05 64.5 0.65 67.25 1.2 69.95 5.8 74.2 10.35 78.4 14.3 83.6 18.25 88.85 25 90.9 29.75 92.3 34.3 92.65
L 34.7 92.65
Q 34.7 92.7 34.65 92.75 33.9 95.25 33.65 97.6 33.05 102.9 34.9 107.55 37.3 113.75 42.65 114.9 47.95 116 54.75 116.25 61.55 116.45 64 113.4 66.45 110.3 66.6 110.1
L 66.6 110.05
Q 66.65 109.95 66.6 110.25 66.55 110.45 66.55 110.55
L 66.55 110.65
Q 66.55 113.45 70.85 115.65 75.2 117.85 79.1 117.6 83.05 117.3 87.15 114.75 89.45 115.7 91.85 116.4 97 117.8 102.85 117.8 107.75 117.8 112.2 115.45 116.4 113.25 119.65 109.3 122.5 105.85 124.2 101.6 115.45 115.7 104.65 116.5 97.45 118.4 93.25 111.75 94.85 107.95 95.05 107.5 95.45 106.5 95.65 104.7 95.75 104.1 95.75 103.4 95.75 103.25 95.8 103.1 95.05 104 94.3 104.8
L 94.65 105.15
Q 87.8 115.5 78.05 114.35 77.8 114.3 77.6 114.25 76.45 114.1 75.05 113.55 72.15 112.4 70.6 110.35
L 70.9 110.05
Q 70.45 109.6 70.05 109.05 69.3 107.8 69.2 106.25 69.25 104.8 69.25 104.6 69.2 103.6 69.2 102.95 69.2 102.4 69.25 102.1 69.3 101 69.75 100.3 69.9 100.05 70.1 99.85
L 70.05 99.5
Q 70.05 99.45 70.05 99.35 68.7 100.85 67.65 103.05 67.55 103.2 67.5 103.3 67.2 104 66.95 105.2 46.55 118.15 35.8 101.4 34.3 96.9 44.7 90.55 46.7 89.65 48.5 88.35 54.35 84 54.35 77.85 42.6 92.65 27.05 87.8 11.5 82.9 13.75 73.55 20.05 73.55 24.55 70.95
M 68.1 105.3
Q 68 105.35 67.95 105.4 68.1 105.05 68.1 105
L 68.1 105.3
M 117.65 75.2
Q 112.3 75.2 107.85 73.35 109.35 74.6 111.2 75.6 115.4 77.85 120.1 77.85 121.75 77.85 122.4 77.7 122.85 77.6 123.2 77.45 123.1 77.7 122.95 77.95 121.6 80.2 116.25 82.4 113.9 83.35 111.65 83.9 111.45 83.9 111.25 83.95 110.2 84.2 109.35 84.25 111.95 85.85 114.7 86.35 115.1 86.4 115.5 86.5 124.05 88.05 125.55 97.4 126.35 94.2 126.35 90.95 126.35 88.1 125.95 84.75 126.15 84.6 126.35 84.5 129.75 82.8 132.55 80 137.85 74.8 139.55 67.55 139.9 66 140.1 64.45 140.35 62.35 140.35 60.1 140.35 55.75 138.9 51.55 138.4 50.1 137.7 48.7 142.5 72.95 126 74 125.45 73.8 126.5 73.35 122.95 74.55 122.7 74.65 121.6 75.2 117.65 75.2
M 105.95 11.9
Q 104.55 8.25 101.95 5.25 110.95 27.5 88.4 21.3 99.25 27.3 105.7 21.95 106.3 21.4 106.9 20.8 106.95 20.6 107 20.45 107.15 20 107.15 17.7 107.15 17.6 107.15 17.5
L 107.15 17.45
Q 107.1 14.95 105.95 11.9
M 56.2 42.15
Q 52.35 42.15 50.7 44.45 50.15 45.2 49.95 46.1 49.8 46.6 49.8 46.85
L 49.8 47.65
Q 55.65 44.3 59.9 49.35 60 49.4 60 49.5 59.1783203125 50.3216796875 58.4 51.65 61.837890625 48.9 66.7 48.9 71.55 48.9 75 51.7 77.5 53.8 78.2 56.45 78.7 57.1 79.05 57.75 79.05 57.55 79.05 57.4 79.05 53 76.6 50.05 74.6 47.7 71.5 47 70.25 46.75 68.8 46.75 66.15 46.75 64.1 47.3 62.8 44.8 61 43.55 58.95 42.15 56.2 42.15
M 97.8 34.5
Q 93.75 34.5 90 36.7 86.85 33.9 81.9 33.9 76.3 33.9 73.6 36.95 71.45 39.35 71.45 43.05 71.45 45.15 71.75 45.8 73 44.35 75.75 42.7 79.85 40.3 83.8 40.3 84.8 40.3 85.8 40.55 84.15 43 85.8 45.2 86.2 43.3 88.65 42.1 88.8 42 88.95 41.95 90.85 41.25 93 41 94 40.9 95.05 40.9 100.45 40.9 104.8 43.8 105.05 43.95 105.3 44.15 109.3 46.95 109.8 50.5 110.3 44.8 108.75 41.1 108.1 39.45 107.05 38.2 103.85 34.5 97.8 34.5 Z"/>

<path fill="#FFFFFF" stroke="none" d="
M 127.15 28.3
Q 126.1 23.3 124.3 19.35 122.5 15.35 117.05 14.75 111.25 14.1 107.15 17.45
L 107.15 17.5
Q 107.15 17.6 107.15 17.7 107.15 20 107 20.45 106.95 20.6 106.9 20.8 106.3 21.4 105.7 21.95 99.25 27.3 88.4 21.3 110.95 27.5 101.95 5.25 101.9 5.2 98.35 2.1 94.85 -1.05 88.15 0.5 81.5 2.05 80.6 2.65 74.95 -1.05 70.7 0.9 66.45 2.85 63.45 6.05 60.45 9.25 58.55 13.6 57.8 15.2 57.35 16.75 57.25 17.05 57.2 17.3 57.15 17.3 57.1 17.3 48 12.4 39.7 18.6 35.05 22.1 33.9 26.7 33.35 26.65 32.75 26.65 27.55 26.65 23.85 30.25 20.25 33.8 20.15 38.8 15.15 40.5 11 43.35 6 46.85 3.2 51.45 0.5 55.9 0.1 61.1 0.05 61.65 0 62.2 2.6 72.05 11.05 72.8 19.5 73.55 29 64.75 29 68.35 24.55 70.95 20.05 73.55 13.75 73.55 11.5 82.9 27.05 87.8 42.6 92.65 54.35 77.85 54.35 84 48.5 88.35 46.7 89.65 44.7 90.55 34.3 96.9 35.8 101.4 46.55 118.15 66.95 105.2 67.2 104 67.5 103.3 67.55 103.2 67.65 103.05 68.7 100.85 70.05 99.35 70.05 99.45 70.05 99.5
L 70.1 99.85
Q 69.9 100.05 69.75 100.3 69.3 101 69.25 102.1 69.2 102.4 69.2 102.95 69.2 103.6 69.25 104.6 69.25 104.8 69.2 106.25 69.3 107.8 70.05 109.05 70.45 109.6 70.9 110.05
L 70.6 110.35
Q 72.15 112.4 75.05 113.55 76.45 114.1 77.6 114.25 77.8 114.3 78.05 114.35 87.8 115.5 94.65 105.15
L 94.3 104.8
Q 95.05 104 95.8 103.1 95.75 103.25 95.75 103.4 95.75 104.1 95.65 104.7 95.45 106.5 95.05 107.5 94.85 107.95 93.25 111.75 97.45 118.4 104.65 116.5 115.45 115.7 124.2 101.6 124.4 101.15 124.55 100.65 125.15 99.05 125.55 97.4 124.05 88.05 115.5 86.5 115.1 86.4 114.7 86.35 111.95 85.85 109.35 84.25 110.2 84.2 111.25 83.95 111.45 83.9 111.65 83.9 113.9 83.35 116.25 82.4 121.6 80.2 122.95 77.95 123.1 77.7 123.2 77.45 122.85 77.6 122.4 77.7 121.75 77.85 120.1 77.85 115.4 77.85 111.2 75.6 109.35 74.6 107.85 73.35 112.3 75.2 117.65 75.2 121.6 75.2 122.7 74.65 122.95 74.55 126.5 73.35 125.45 73.8 126 74 142.5 72.95 137.7 48.7 136.55 46.3 134.9 44.25 132.3 41 129 39.15 127.2 38.2 125.35 37.7 128.2 33.3 127.15 28.3
M 90 36.7
Q 93.75 34.5 97.8 34.5 103.85 34.5 107.05 38.2 108.1 39.45 108.75 41.1 110.3 44.8 109.8 50.5 109.3 46.95 105.3 44.15 105.05 43.95 104.8 43.8 100.45 40.9 95.05 40.9 94 40.9 93 41 90.85 41.25 88.95 41.95 88.8 42 88.65 42.1 86.2 43.3 85.8 45.2 84.15 43 85.8 40.55 84.8 40.3 83.8 40.3 79.85 40.3 75.75 42.7 73 44.35 71.75 45.8 71.45 45.15 71.45 43.05 71.45 39.35 73.6 36.95 76.3 33.9 81.9 33.9 86.85 33.9 90 36.7
M 50.7 44.45
Q 52.35 42.15 56.2 42.15 58.95 42.15 61 43.55 62.8 44.8 64.1 47.3 66.15 46.75 68.8 46.75 70.25 46.75 71.5 47 74.6 47.7 76.6 50.05 79.05 53 79.05 57.4 79.05 57.55 79.05 57.75 78.7 57.1 78.2 56.45 77.5 53.8 75 51.7 71.55 48.9 66.7 48.9 61.837890625 48.9 58.4 51.65 59.1783203125 50.3216796875 60 49.5 60 49.4 59.9 49.35 55.65 44.3 49.8 47.65
L 49.8 46.85
Q 49.8 46.6 49.95 46.1 50.15 45.2 50.7 44.45 Z"/>
</g>

<g id="Duplicate_Items_Folder_1_0_Layer0_0_FILL">
<path fill="#CCCCCC" stroke="none" d="
M 142.55 288.05
Q 141.3 291.9 139.45 295.7 133.4 308.1 123.6 313.85 99.05 327.9 66.25 298.45 55.9 289.15 45 275.65 41.95 271.6 38.65 265.4 39.45 265.65 40.3 265.95 38.55 262.05 37.5 256.8 35.9 249.05 35.9 239.35 35.9 238.55 36 237.7 35.8 237.7 35.65 237.75 31.1 238.65 28.75 240.9 28.15 238.6 27.75 236.4 26.85 240.05 26.65 244 22.95 251.85 27.25 257.75 27.65 258.3 28.1 258.8 28.35 259.95 28.65 261.15 32 273.9 40.5 287.45 44.95 294.5 48.7 298.9 97.05 349.4 132.35 333.35 143.6 328.2 151.45 316.65 153.85 313.05 155.6 309.15
L 156.95 306.15
Q 181.6 307.2 191.5 297.15 198.95 289.55 197.6 276 196.65 266.3 191.15 254.8
L 188.65 250.25
Q 183.85 254.55 178.15 257.45 176.45 258.3 174.65 259.1 176.05 269.75 171.5 276.25 170.35 277.95 168.6 279.4 160.65 285.95 143.45 284.95
L 142.55 288.05
M 201.75 190.15
Q 193.25 192.05 181.3 189.25 186.25 193.4 186.15 198.2 186.1 201.5 183.5 205.6 183.3 205.85 183.15 206.1 180.2 210.6 175.05 212.5 172.65 213.5 170.55 213.55 172.9 214.05 175.85 214.55 180.25 215.3 182.75 215.25 184.9 215.2 186.8 214.5 190.2 213.2 192.6 209.7 194.4 206.95 195 203.35 195.45 200.6 195.1 197.95 204.65 197.25 208.8 195.8 214 193.95 217.2 189.35 219.55 185.95 219.3 181.15 219.1 179.85 219 178.75 211.95 187.95 201.75 190.15
M 267.2 70
Q 264 62.95 260.6 56.95 247.95 34.65 232.35 27.2 234.25 24.95 234.55 22.3 235.8 10.85 227.8 5.1 225.6 3.5 222.75 2.5 216.4 0 207.1 0 199.9 -0.05 190.2 2.75 192.35 3.45 194.2 4.55 200.65 8.25 200 13 199.2 18.9 189.15 20.75 186.8 21.15 182.5 21.9 179.4 22.55 179.2 24.1 178.9 26.25 179.9 27.75 180.5 27.5 181.2 27.25 184.1 26.15 195.3 25.8 206.15 25.5 207.95 26.2 211.05 27.7 213.8 29.95 217.25 32.95 219.8 35.05 220.9 35.95 233.55 42.7 243.15 47.85 243.9 51.75 243.95 52.1 244.25 53.7 248.75 58.95 252.8 66.25 256.95 73.75 260.6 83.3 261.65 86.05 262.7 89 263.95 93.55 264.75 100.25 264.9 102.5 265.1 104.55 265.75 114.9 264 123.6 269.75 115.6 271.25 104.1 272.6 93.45 270.1 80.8 268.8 74.3 267.2 70 Z"/>

<path fill="#999999" stroke="none" d="
M 10.85 189.5
Q 5.65 179.5 6.25 170.6 4.15 173.9 2.75 177.4 -4.35 194.5 6.9 212.65 11.85 220.6 20.35 228.8 23.7 231.95 27.55 235.2 25.2 221.95 28.5 211.6 23.95 207.3 20.35 203.1 14.3 196.1 10.85 189.5
M 260.6 134.3
Q 258.45 139.05 255.35 142.8 258.75 149.4 260.6 155.3 262.05 159.95 262.5 164.15 263.45 172.5 260.6 179 260.4 179.45 260.15 179.95 260.4 179.8 260.6 179.65 263.15 177.7 265.15 175.5 276.45 163.75 273.2 147 271.2 136.8 263.75 124.6 262.6 129.9 260.6 134.3
M 79.65 125.5
Q 78.05 121.4 79.3 115.45 80.5 109.3 85.3 105.4 87.6 103.45 89.85 102.75 87 103 83.5 103.3 78.35 103.9 75.55 104.8 68.9 107 67.25 114.45 66.55 118.2 67.5 122.5 68.2 125.75 69.8 128.7 59.6 132.65 55.7 135.65 50.8 139.45 49.4 145.8 48.3 150.45 50.8 155.95 51.65 157.3 52.25 158.5 55.8 145.65 66.05 139.75 74.55 134.9 89.05 134.1 81.65 131 79.65 125.5 Z"/>

<path fill="#FFFFFF" stroke="none" d="
M 262.7 89
Q 261.65 86.05 260.6 83.3 256.95 73.75 252.8 66.25 248.75 58.95 244.25 53.7 243.95 52.1 243.9 51.75 243.15 47.85 233.55 42.7 220.9 35.95 219.8 35.05 217.25 32.95 213.8 29.95 211.05 27.7 207.95 26.2 206.15 25.5 195.3 25.8 184.1 26.15 181.2 27.25 180.5 27.5 179.9 27.75 178.9 26.25 179.2 24.1 179.4 22.55 182.5 21.9 186.8 21.15 189.15 20.75 199.2 18.9 200 13 200.65 8.25 194.2 4.55 192.35 3.45 190.2 2.75 179.4 5.9 165.6 12.55 147.95 20.95 133.55 30.85 104.1 31.9 84.25 40.05 70.15 45.8 61.45 54.95 51.8 65.15 48.3 79.9 47.55 83.05 48.05 87.95 48.1 88.75 48.2 89.5 48.5 92.9 48.45 93 48.4 93.65 43.85 94.95 37.55 96.65 28.25 100.25 23.55 102.05 20.35 104.9 17.25 107.65 15.55 111.35 11.9 118.95 13.25 124.8 14.4 130.3 20.35 135.95 20.75 136.35 21.15 136.7 20.8 137.1 20.35 137.75 20.3 137.8 20.25 137.9 19.2 139.25 19 140.3 17.8 145 17.4 149.3 16.95 153.8 17.45 157.65 10.5 163.95 6.25 170.6 5.65 179.5 10.85 189.5 14.3 196.1 20.35 203.1 23.95 207.3 28.5 211.6 25.2 221.95 27.55 235.2 27.7 235.35 27.95 235.55 27.85 236 27.75 236.4 28.15 238.6 28.75 240.9 31.1 238.65 35.65 237.75 35.8 237.7 36 237.7 35.9 238.55 35.9 239.35 35.9 249.05 37.5 256.8 38.55 262.05 40.3 265.95 39.45 265.65 38.65 265.4 41.95 271.6 45 275.65 55.9 289.15 66.25 298.45 99.05 327.9 123.6 313.85 133.4 308.1 139.45 295.7 141.3 291.9 142.55 288.05
L 143.45 284.95
Q 160.65 285.95 168.6 279.4 170.35 277.95 171.5 276.25 176.05 269.75 174.65 259.1 176.45 258.3 178.15 257.45 183.85 254.55 188.65 250.25 193.1 246.25 196.75 241.05 198.4 238.75 199.65 234.8 199.8 234.15 200 233.55 200.85 230.85 200.9 230.75 201.15 230.3 205.25 230.3 210.9 230.45 219.65 229.8 228.2 229.15 233.5 224.1 238.85 219 239.7 214.15 240.55 209.25 237.15 203 237.65 202.7 238.25 202.25 239.5 201.45 240.05 200.7 242.55 197.3 244.25 194 246.05 190.6 246.9 187.5 254.55 184.2 260.15 179.95 260.4 179.45 260.6 179 263.45 172.5 262.5 164.15 262.05 159.95 260.6 155.3 258.75 149.4 255.35 142.8 258.45 139.05 260.6 134.3 262.6 129.9 263.75 124.6 263.65 124.5 263.55 124.3 263.75 123.95 264 123.6 265.75 114.9 265.1 104.55 264.9 102.5 264.75 100.25 263.95 93.55 262.7 89
M 181.3 189.25
Q 193.25 192.05 201.75 190.15 211.95 187.95 219 178.75 219.1 179.85 219.3 181.15 219.55 185.95 217.2 189.35 214 193.95 208.8 195.8 204.65 197.25 195.1 197.95 195.45 200.6 195 203.35 194.4 206.95 192.6 209.7 190.2 213.2 186.8 214.5 184.9 215.2 182.75 215.25 180.25 215.3 175.85 214.55 172.9 214.05 170.55 213.55 172.65 213.5 175.05 212.5 180.2 210.6 183.15 206.1 183.3 205.85 183.5 205.6 186.1 201.5 186.15 198.2 186.25 193.4 181.3 189.25
M 79.3 115.45
Q 78.05 121.4 79.65 125.5 81.65 131 89.05 134.1 74.55 134.9 66.05 139.75 55.8 145.65 52.25 158.5 51.65 157.3 50.8 155.95 48.3 150.45 49.4 145.8 50.8 139.45 55.7 135.65 59.6 132.65 69.8 128.7 68.2 125.75 67.5 122.5 66.55 118.2 67.25 114.45 68.9 107 75.55 104.8 78.35 103.9 83.5 103.3 87 103 89.85 102.75 87.6 103.45 85.3 105.4 80.5 109.3 79.3 115.45 Z"/>
</g>

<g id="symbols_transform_dancer_sport_2_Layer3_0_FILL">
<path fill="#1E1E1E" stroke="none" d="
M 373.45 444.75
Q 372 442.6 371 440.85 366.55 432.95 367.05 426.75 367.55 420.6 366.95 411.95 365.05 412.5 362.9 413.1 362.7 413.1 362.5 413.2 346.3 417.2 325.8 417.95 325.9 418.65 326 419.5 326 419.7 326.05 419.9 328.45 440.7 340.4 453.25 345.95 459.1 353.45 463.15 381.2 477.95 397.3 497.85 404.9 507.15 409.2 528.5 409.65 530.9 410.15 533.4 411.15 530.4 411.6 527 411.95 524.2 411.95 521.15 411.7 507.85 403.6 490.2 401.45 482.05 394.7 472.3 391.65 467.95 382 455.95 376.65 449.4 373.45 444.75 Z"/>

<path fill="#6B8BC9" stroke="none" d="
M 179.85 186.25
L 179.55 187.8 180.2 186.45
Q 180 186.35 179.85 186.25
M 418.85 159.15
L 421.8 157.15
Q 413.75 161.5 418.85 159.15
M 263.65 79.1
Q 260.65 80.15 257.35 81.4 250.2 84.25 242.85 87.75
L 236.85 90.7
Q 236.6 92.65 237.35 93.35 237.4 93.45 239.4 94.4 253.65 85.3 264.4 80.55
L 263.65 79.1 Z"/>

<path fill="#FFFFFF" stroke="none" d="
M 303.8 47.6
L 303.75 47.6 303.8 49.6 303.8 47.6
M 381.95 52.2
Q 381.85 52.15 381.8 52.2 379.5 51.85 377.35 51.55
L 381.75 52.3 380.8 60.05 381.95 52.2
M 306.3 63.65
L 306.25 63.3
Q 304.95 63.5 303.65 63.75 304.95 63.7 306.3 63.65 Z"/>

<path fill="#38D4B1" stroke="none" d="
M 327.85 336.8
Q 364.15 326.35 387.95 308.35 397.95 300.55 405.75 291.55
L 403.8 287.85
Q 366.85 307.35 328.2 312.85 293.3 317.75 257.3 311.05 250.2 309.7 243.3 308.05 236.65 306.25 233.05 302.3 230.45 297 233.6 294.1 232.7 292.8 230.15 292.75 227.25 292.3 222.75 293.8 221.55 294.2 220.25 294.75 212.9 297.75 209.85 302.6 202.3 314.3 221.6 329.55 225.8 332.9 231.55 336.55 242.05 341.55 256.45 343.95 257.6 344.15 259 344.35 270.35 346.05 284 346.05 307.95 342.6 327.85 336.8
M 327.95 356.5
Q 327.8 356.5 327.55 356.65 289.35 367.45 259.35 360.6 282.15 380.7 303.9 383.45 308.9 384.05 313.8 383.8 320.5 383.75 327.15 382 347.05 376.55 366.7 355.05 368.9 352.7 371.1 350.05 377.35 342.6 383.55 333.55 354 349.1 327.95 356.5
M 442.4 72.45
Q 435.35 66.05 418.2 60.5 402.5 55.45 381.95 52.2
L 380.8 60.05 381.75 52.3 377.35 51.55 375.85 51.3
Q 340.85 46.4 303.8 47.6
L 303.8 49.6 303.75 47.6
Q 278.9 48.4 253.05 51.85 239.15 53 224.6 55.95 209.4 60.6 195.65 66.8 193.35 67.7 191.3 68.85 162.2 82.65 150.55 99.1 152.7 88.7 157.2 75 161.8 61.3 172.9 56.1 183.9 50.9 194.25 50.65 204.5 50.45 209.25 47.6
L 208 45.6
Q 172 49 156.15 70.45 146.05 84.05 142.75 109.35 141.85 116.2 141.75 118.75 141.65 123.1 142.75 125.7 144.25 142.1 160.65 155 163.3 158.35 163.5 159.9 163.9 162.65 163.95 168.75 164.6 174.4 168.55 178.55 172.3 182.6 179.85 186.25 180 186.35 180.2 186.45 195.1 193.5 224.45 199.25
L 262.1 204.2
Q 304.3 202.65 328.9 197.2 334.55 196 342.65 193.35 344.35 193.3 344.95 193.15 345.4 192.95 345.75 192.4 354.15 189.55 361.4 192.35 368.65 195.1 418.85 159.15 413.75 161.5 421.8 157.15 454.85 139.4 461.65 118.6 463.75 111.95 463.35 105.15 462.05 86.5 442.4 72.45
M 412.35 93
Q 412.55 93.35 412.8 93.7 416.6 99.5 417 106.1 417.1 109.15 416.65 112.05 414.7 121.7 404.85 130.35 399.95 134.75 392.75 138.9 390.2 140.45 387.4 141.85 386 142.65 384.6 143.3 375.45 147.8 365.15 151.3 363.55 151.8 361.85 152.3 338.9 159.25 310.1 161.15 275.75 163.3 248.3 157.05 245.35 156.45 242.5 155.75 235.6 153.9 229.2 151.55 228.55 151.3 228 151.1 220.55 148.25 214.7 144.95 208.15 141.35 203.85 137.2 194.6 128.7 194.5 118.15 194.3 115.45 194.8 112.95 195.9 107.55 199.4 102.5 201.9 98.7 206 95.1
L 206 95.05
Q 214 86.75 223.9 80 224.2 79.8 224.5 79.6
L 224.55 79.6
Q 255.5 58.65 303.8 52.95 346.15 48.1 375.6 59.55
L 380.1 59.95
Q 377.85 59.85 375.55 59.75 343.55 58.05 306.25 63.3
L 306.3 63.65
Q 351.7 61.55 383.95 74 404.5 82.05 412.35 93 Z"/>

<path fill="#333333" stroke="none" d="
M 371.95 374.75
L 371.1 350.05
Q 368.9 352.7 366.7 355.05 347.05 376.55 327.15 382 320.5 383.75 313.8 383.8 308.9 384.05 303.9 383.45
L 313.1 399.65
Q 319.35 399.9 325.55 399.15 326.2 399.05 326.8 398.95 344.75 396.15 360.5 384.65 366.35 380.3 371.95 374.75
M 405.7 286.75
L 411.85 281.7 395.45 257.7
Q 395 258.35 394.45 258.95 393.8 259.7 392.9 260.5 392.85 260.5 392.85 260.55 383 268.7 346.55 277.9 338 279.95 328.75 281.1 297.65 284.95 258.3 278.45 246.7 276.55 234.5 273.7
L 233.6 294.1
Q 230.45 297 233.05 302.3 236.65 306.25 243.3 308.05 250.2 309.7 257.3 311.05 293.3 317.75 328.2 312.85 366.85 307.35 403.8 287.85 404.8 287.25 405.7 286.75
M 397.95 123.3
Q 402.25 126.65 404.85 130.35 414.7 121.7 416.65 112.05 413.9 104.85 405.25 98.35 396.35 91.55 382.4 86.55 350.65 75.4 304.65 76.4 297.45 76.55 290.85 76.9 282.7 72.4 264.4 80.55 253.65 85.3 239.4 94.4 237.4 93.45 237.35 93.35 236.6 92.65 236.85 90.7
L 242.85 87.75
Q 250.2 84.25 257.35 81.4 260.65 80.15 263.65 79.1 242.45 81.65 228.9 86.55 227.9 86.95 226.9 87.35 216.35 91.5 208.65 97.8 208.55 97.85 208.45 97.95 201.1 103.75 194.8 112.95 194.3 115.45 194.5 118.15 194.6 128.7 203.85 137.2 209.2 129.1 215.25 123.65 223.25 116.8 234.1 112.35 257.25 103 304.55 101.7 347.3 100.35 376.7 111.6 389.6 116.45 397.95 123.3 Z"/>

<path fill="#774716" stroke="none" d="
M 360.55 384.65
L 360.5 384.65
Q 344.75 396.15 326.8 398.95 326.2 399.05 325.55 399.15 324.15 411.5 325.05 421.8 325.4 421.75 325.65 421.75 325.6 420.75 325.55 419.95 325.75 419.9 326.05 419.9 326 419.7 326 419.5 325.9 418.65 325.8 417.95 346.3 417.2 362.5 413.2 362.4 407.7 361.95 401.25
L 360.55 384.65
M 333.8 265.8
Q 331.4 265.45 329 265.3 324.85 264.85 320.75 264.4 319.05 266.55 313.1 268.3 310.75 268.95 308.05 269.4 297.1 271.1 280.3 268.95 280.2 268.9 280.15 268.9 272.45 267.9 261.7 264.75 252 261.85 243.65 258.3 241.55 257.4 239.55 256.45 218.95 246.8 215.55 236.75 214.1 236.05 212.8 235.3 170.5 212.45 179.55 187.8 168.35 185.7 159.6 193.5 150.6 201.6 151.2 214.05 152.05 228.4 166.15 241.85 182.95 257.8 215.55 269.05 219.55 270.1 223.55 271.05 229.05 272.45 234.5 273.7 246.7 276.55 258.3 278.45 297.65 284.95 328.75 281.1 338 279.95 346.55 277.9 383 268.7 392.85 260.55
L 391.7 259.05
Q 370.9 266.05 333.8 265.8
M 245.35 254.45
Q 252.1 257.25 262.8 259.5 270.8 261.15 281 262.5 284 262.9 307.05 264.75 308.65 264 310.1 263 303.2 262.05 296.75 261 259.2 254.8 232.5 244.35 232.8 244.85 233.15 245.35 235.4 248.8 238.7 251 240 251.9 241.7 252.8 243.35 253.65 245.35 254.45 Z"/>

<path fill="#833E77" stroke="none" d="
M 383.55 333.55
L 387.95 308.35
Q 364.15 326.35 327.85 336.8 307.95 342.6 284 346.05 270.35 346.05 259 344.35
L 259.35 360.6
Q 289.35 367.45 327.55 356.65 327.8 356.5 327.95 356.5 354 349.1 383.55 333.55
M 342.65 193.35
Q 334.55 196 328.9 197.2 304.3 202.65 262.1 204.2
L 224.45 199.25
Q 195.1 193.5 180.2 186.45
L 179.55 187.8
Q 170.5 212.45 212.8 235.3 214.1 236.05 215.55 236.75 218.95 246.8 239.55 256.45 241.55 257.4 243.65 258.3 252 261.85 261.7 264.75 272.45 267.9 280.15 268.9 280.2 268.9 280.3 268.95 297.1 271.1 308.05 269.4 310.75 268.95 313.1 268.3 319.05 266.55 320.75 264.4 324.85 264.85 329 265.3 331.4 265.45 333.8 265.8 370.9 266.05 391.7 259.05 393.65 258.45 395.45 257.7
L 399.5 235.1
Q 364.8 243.45 329.35 242.55 319.1 242.25 308.8 241.2 266.6 236.7 225.3 219.3 223.7 218.55 222 217.9 221.85 217.85 221.7 217.8 211.65 213.4 201.65 208.25 213.9 208.85 225.55 209.3 244.6 210.05 262.15 210.3 299.5 210.75 329.95 209 458 201.65 467.55 153.9
L 461.65 118.6
Q 454.85 139.4 421.8 157.15
L 418.85 159.15
Q 368.65 195.1 361.4 192.35 354.15 189.55 345.75 192.4 345.4 192.95 344.95 193.15 344.35 193.3 342.65 193.35
M 262.8 259.5
Q 252.1 257.25 245.35 254.45 243.35 253.65 241.7 252.8 240 251.9 238.7 251 235.4 248.8 233.15 245.35 232.8 244.85 232.5 244.35 259.2 254.8 296.75 261 303.2 262.05 310.1 263 308.65 264 307.05 264.75 284 262.9 281 262.5 270.8 261.15 262.8 259.5
M 412.8 93.7
Q 412.55 93.35 412.35 93 404.5 82.05 383.95 74 351.7 61.55 306.3 63.65 304.95 63.7 303.65 63.75 304.95 63.5 306.25 63.3 343.55 58.05 375.55 59.75
L 375.6 59.55
Q 346.15 48.1 303.8 52.95 255.5 58.65 224.55 79.6
L 224.5 79.6
Q 224.2 79.8 223.9 80 214 86.75 206 95.05
L 206 95.1
Q 201.9 98.7 199.4 102.5 195.9 107.55 194.8 112.95 201.1 103.75 208.45 97.95 208.55 97.85 208.65 97.8 216.35 91.5 226.9 87.35 227.9 86.95 228.9 86.55 242.45 81.65 263.65 79.1
L 264.4 80.55
Q 282.7 72.4 290.85 76.9 297.45 76.55 304.65 76.4 350.65 75.4 382.4 86.55 396.35 91.55 405.25 98.35 413.9 104.85 416.65 112.05 417.1 109.15 417 106.1 416.6 99.5 412.8 93.7 Z"/>

<path fill="#95B0E4" stroke="none" d="
M 392.85 260.55
Q 392.85 260.5 392.9 260.5
L 391.7 259.05 392.85 260.55
M 405.75 291.55
Q 406.85 290.2 408.05 288.9
L 405.7 286.75
Q 404.8 287.25 403.8 287.85
L 405.75 291.55 Z"/>

<path fill="#E5E5E5" stroke="none" d="
M 395.45 257.7
Q 393.65 258.45 391.7 259.05
L 392.9 260.5
Q 393.8 259.7 394.45 258.95 395 258.35 395.45 257.7
M 408.05 288.9
Q 410.4 285.85 412.65 282.9 409.2 284.8 405.7 286.75
L 408.05 288.9 Z"/>

<path fill="#9C9C9C" stroke="none" d="
M 412.65 282.9
L 411.85 281.7 405.7 286.75
Q 409.2 284.8 412.65 282.9 Z"/>

<path fill="#7D553B" stroke="none" d="
M 484.75 183.75
Q 488.25 168.65 467.55 153.9 458 201.65 329.95 209 299.5 210.75 262.15 210.3 244.6 210.05 225.55 209.3 213.9 208.85 201.65 208.25 211.65 213.4 221.7 217.8 221.85 217.85 222 217.9 223.7 218.55 225.3 219.3 266.6 236.7 308.8 241.2 319.1 242.25 329.35 242.55 364.8 243.45 399.5 235.1 416.85 230.9 433.85 224.35 480.05 203.5 484.75 183.75 Z"/>

<path fill="#6B6B6B" stroke="none" d="
M 361 149.05
L 361.85 152.3
Q 363.55 151.8 365.15 151.3 363.15 150.05 361 149.05 Z"/>

<path fill="#304E88" stroke="none" d="
M 361.85 152.3
L 361 149.05
Q 337.9 137.9 304.6 139.65 267.75 141.4 249.85 151.05 245.9 153.05 242.5 155.75 245.35 156.45 248.3 157.05 275.75 163.3 310.1 161.15 338.9 159.25 361.85 152.3 Z"/>

<path fill="#8A8A8A" stroke="none" d="
M 384.6 143.3
Q 386 142.65 387.4 141.85 390.2 140.45 392.75 138.9 385.2 133.15 374.2 128.8 345.65 117.65 304.2 119.05 258.55 120.7 236.3 130.15 225.65 134.6 218.05 141.6 216.3 143.15 214.7 144.95 220.55 148.25 228 151.1 228.55 151.3 229.2 151.55 235.6 153.9 242.5 155.75 245.9 153.05 249.85 151.05 267.75 141.4 304.6 139.65 337.9 137.9 361 149.05 363.15 150.05 365.15 151.3 375.45 147.8 384.6 143.3 Z"/>

<path fill="#CCCCCC" stroke="none" d="
M 392.75 138.9
Q 399.95 134.75 404.85 130.35 402.25 126.65 397.95 123.3 389.6 116.45 376.7 111.6 347.3 100.35 304.55 101.7 257.25 103 234.1 112.35 223.25 116.8 215.25 123.65 209.2 129.1 203.85 137.2 208.15 141.35 214.7 144.95 216.3 143.15 218.05 141.6 225.65 134.6 236.3 130.15 258.55 120.7 304.2 119.05 345.65 117.65 374.2 128.8 385.2 133.15 392.75 138.9 Z"/>

<path fill="#EFEFEF" stroke="none" d="
M 375.6 59.55
L 375.55 59.75
Q 377.85 59.85 380.1 59.95
L 375.6 59.55 Z"/>
</g>

<g id="symbols_transform_dancer_sport_2_Layer2_0_FILL">
<path fill="#1E1E1E" stroke="none" d="
M 380.2 406.45
Q 379.25 405.45 378.3 404.95 377.8 404.85 377.2 404.85 376 404.9 375.75 406.6 375.65 407.35 376.45 408.3 376.85 408.8 378.4 410.4 379.5 410.1 380 409.8 380.85 409.2 381.1 408.1 381.1 407.5 380.2 406.45
M 330.6 394.05
Q 330.6 393.9 330.45 393.75 330.15 393.15 329.8 392.6 328.85 390.95 327.9 389.4 324.6 384 320.8 379.3 305.3 359.55 293.6 363.7 291.9 365.05 291.25 365.6 290.4 366.4 290.45 367.2 290.5 368.9 291.3 369.05 291.85 369.05 292.95 369.15 312.15 376.25 330.6 394.05
M 333.95 387.2
Q 333.1 386.2 332.15 385.75 331.6 385.8 330.95 385.9 329.75 386.1 329.55 387.75 329.55 388 329.7 388.3 329.85 388.6 330.15 388.95 330.6 389.45 332.3 391.15 333 390.95 333.8 390.2 334.6 389.55 334.95 388.85 334.8 388.2 333.95 387.2
M 388 331.35
Q 387.85 331.3 387.75 331.2 386.6 331.9 388 331.35 Z"/>

<path fill="#774716" stroke="none" d="
M 251.1 385.95
Q 251.5 385.8 252.45 385.45 253.1 385.15 253.35 385.2
L 253.75 382.75
Q 252.95 381.45 251.05 380.45 251.05 380.6 249.8 380.35 248.55 380.4 248.3 382.05 248.2 382.75 249.05 383.7 249.6 384.35 251.1 385.95
M 179.65 290.9
Q 179.55 291.6 180.35 292.6 180.75 293.2 182.3 294.75 183.4 294.45 183.95 294.1 184.75 293.5 185 292.35 184.95 291.65 184.15 290.75 183.3 289.8 182.3 289.35 182.25 289.5 181.1 289.25 179.85 289.25 179.65 290.9
M 468.25 243.35
L 468.8 241.15
Q 468.55 237.55 465.75 237.5 463.05 237.45 462.7 240.35 462.65 240.7 463.3 241.5 463.55 241.85 465.4 243.8
L 468.25 243.35 Z"/>

<path fill="#95B0E4" stroke="none" d="
M 175.55 240.2
Q 175.35 242.05 176.95 245.1 178.75 248.45 180.95 248.7 182.8 248.95 183.4 248.5 183.65 247.9 183.8 247.9 184.05 248.25 184.45 245.25 184.75 242.9 182.05 241.25 179.2 239.45 175.55 240.2 Z"/>

<path fill="#5A9C58" stroke="none" d="
M 115.75 114
Q 115.45 113.9 115.45 113.7 113.75 113.45 112.35 113.75 111.05 114 110.4 114.55 110.65 115.3 111.45 116.45 112.2 117.55 113.15 118.4 114.6 118.25 115.55 116.85 115.45 118.45 115.8 115.75 116 114.15 115.75 114
M 71.85 157.35
Q 72.65 156.6 72.8 155.95 72.8 155.55 72.5 154.75 72.25 154 72.3 153.65 70.9 153.2 69.75 153.1 68.7 153 68.35 153
L 68.05 152.9
Q 67.65 153.15 67.4 154.85 67.35 155.2 68.1 156 68.5 156.55 70.15 158.35 71 158.15 71.85 157.35 Z"/>

<path fill="#833E77" stroke="none" d="
M 170.45 176.8
Q 181.65 177.55 188.35 180.15 192 181.6 195.95 184.65 199.35 187.25 200.65 187.45 205.9 188.1 207.65 187.1 208.55 186.7 208.75 185.1 208.85 184.25 207.25 181.7 205.5 178.8 203.8 178.6 202.45 178.4 202.25 179.45 202.05 180.4 200.7 180.2 197.2 178 193.25 175.7 185.45 171.2 182.35 170.75 159.85 167.8 154.85 160.2 153.2 157.6 152.9 153.5 152.5 147.95 152.35 147.15 149.4 138.15 148.2 134.1 146.1 127.05 146.75 122 146.95 120.65 148.35 119.85 149.8 119.1 150 117.7 150.2 116.05 149.9 115.9 149.55 115.75 149.6 115.7 147.85 115.55 145.1 116.45 141.65 117.5 141.45 119.15 140.4 126.95 142.8 136.15 144.3 141.7 149.2 154.05 154.85 167.8 158.65 172.1 162.4 176.3 170.45 176.8 Z"/>

<path fill="#AAC3F5" stroke="none" d="
M 290.7 31.55
Q 291.75 31.25 292.3 30.9 293.1 30.3 293.35 29.2 293.35 28.55 292.5 27.6 291.65 26.6 290.7 26.1 290.1 26.1 289.5 26.05 288.25 26.1 288 27.7 287.9 28.65 288.7 29.55 289.15 30.15 290.7 31.55
M 540.3 139.75
Q 540.05 139 540.1 138.65 538.2 138.15 537.15 138.25 535.9 138.4 535.35 139.4 535.95 141.5 538 143.2 538.7 143.1 539.6 142.3 540.5 141.6 540.65 140.95 540.65 140.55 540.3 139.75 Z"/>

<path fill="#653B10" stroke="none" d="
M 442.75 279.65
Q 443.1 277.05 440.05 273.3 428 291.55 427.65 291.95 418 304.75 405.7 313.65 370.45 339.15 306.75 338.55 305.7 338.45 305.2 338.45 304.4 338.5 304.2 340.2 304.1 340.95 304.85 341.9 305.3 342.45 306.9 344 351.15 345.5 387.15 329.8 396.05 325.9 404.4 321 421.15 311.2 431.85 299.25 441.6 288.35 442.75 279.65 Z"/>

<path fill="#7D553B" stroke="none" d="
M 414.7 235.55
Q 413.4 235.2 412.75 234.9 406.95 237.8 402.4 239.8 393.9 243.3 384.4 245.45 356.45 251.65 316.9 246.45 316.2 246.35 315.2 246.15 312.1 245.5 306.05 243.7 299.75 241.85 294.05 239.85 290.5 238.6 287.15 237.25 261.15 226.7 261.1 216.65 258.95 215.75 257.15 216.05 255.3 216.45 255.1 217.9 253.15 232.85 292.45 244.3 303.35 247.45 314.4 249.8 315.25 250 316.15 250.2 324.05 251.8 332.05 253 331.95 253.45 331.8 253.75 357 256.3 384.5 251.5 385.05 251.4 385.6 251.3 398.3 249 406.15 245.65 414.85 241.9 415.4 237.85 415.65 236.15 414.7 235.55 Z"/>

<path fill="#38D4B1" stroke="none" d="
M 406.2 51.75
Q 428 51.45 441.85 72.75 446.7 80.3 449.45 88.9 451.8 96.15 451.4 99.3 450.5 99.75 450.35 100.4 450.05 101.4 453.1 104.6 453.25 104.55 454.8 103.8 455.7 103.45 456.1 103.5 456.35 103.65 456.7 100.95 458.25 89.25 450.6 76.45 443.95 65.55 432.5 56.4 422.05 48.05 413.25 45.3 404.2 42.55 403.5 47.9 403.3 49.5 403.55 50.25 403.85 51 403.8 51.15
L 406.2 51.75 Z"/>
</g>

<g id="symbols_transform_dancer_sport_2_Layer1_0_FILL">
<path fill="#754F34" stroke="none" d="
M 198.25 280.55
Q 198.05 280.75 197.5 282.55 201.05 291.75 210.2 298.8 223.35 308.85 242.25 307.95
L 227.1 308.95
Q 282.05 311.6 306.6 309.35 324.8 307.65 325.35 305 293.8 304.55 305.9 304.45 259.5 297.4 246.45 292.3 233.35 287.2 228.9 281 224.45 274.75 223.7 283.4 226.6 286.85 237.1 292.05 241.2 294.1 252.35 299.05 243.3 299.45 239.15 299.45 221.25 299.45 211.9 289.45 207.95 284.45 206.5 282.6 204 279.45 201.85 279.45 199.2 279.45 198.25 280.55 Z"/>

<path fill="#38D4B1" stroke="none" d="
M 208.45 116.3
Q 208.8 116.3 212.8 115.75
L 214.8 115.4
Q 218.25 114.85 223.7 114
L 226.15 113.65
Q 226.25 113.6 226.3 113.6
L 230.5 113
Q 244.15 110.8 244.5 110.75
L 247.1 110.75
Q 257.85 109.3 292.5 107.8
L 299.2 106.5
Q 299.4 105.95 299.4 105.2 299.4 102.8 298.9 102.5 298.35 102.2 298.35 101.95 277.4 92.65 233.55 102.45 189.7 112.25 181.7 117.25 174.6 121.7 174.6 125.6 174.6 137.4 182.75 144.5 195.65 155.8 231.75 162.5
L 235.5 162.5
Q 225.05 160 215.45 156.2 202.05 150.95 194.55 144.3 189.9 140.2 188 136.05 183.45 131.3 183.45 125.6 183.45 122.45 189.95 120.85 191.45 120.5 193 120.25 197.95 117.6 206.8 116.65 207.55 116.45 208.45 116.3
M 444.5 90.6
Q 444 90.85 443.2 91.8 441.35 97.6 435.75 105.95 426.35 119.85 411.55 132.05 393.45 147.05 372.9 155.25 364.25 161.5 351.7 164.7 336.85 168.45 310.8 168.45 304.35 168.45 299.4 167.4 295.35 167.4 291 167.45 291.45 168.3 292.25 169.3 293.5 170.95 309.15 171.5
L 348.6 172
Q 339.2 175.8 330.05 178.5 325.15 179.95 320.1 181.15 313.6 182.7 306.95 183.85 293.05 186.2 278.15 186.85 279.3 190.2 282.7 192.45
L 308.45 192.85
Q 308.45 193.8 308.65 194.7 311.65 195.6 316.25 197.05 317.7 197.5 319.05 197.95 326.5 199.4 333.4 201.25 337.9 201.55 343 201.9
L 391.6 201.9
Q 397.6 200.9 402.5 200.05
L 402.55 200.05
Q 413.5 198.05 418.5 196.7 433.8 192.6 436.35 186.65
L 435.5 185
Q 434.7 183.85 434.25 183.5 433.55 182.95 430.95 182.95 428.7 182.95 415.55 188.3 407.35 191.65 401.25 192.9 397.55 193.65 394.65 193.65 393.4 193.65 391.9 193.6 390.4 193.55 388.7 193.45
L 385.8 193.25 392.4 190.8
Q 397.7 188.6 409.55 179.2 410.65 178.3 411.85 177.35 415.9 174.05 420.65 170 424.9 166.4 428.25 163.4 441.5 151.6 441.5 148.9 441.5 146.5 441.1 146.3 440.65 146.05 440.65 145.8 440.6 145.6 440.05 145.4 438.9 145 436.35 145 428.15 145 419.5 148.6 414.75 150.6 409.85 153.65 398.85 160.55 398.1 161 394.45 163.05 390.85 164.65 387.2 166.2 383.55 167.25
L 384.55 166.85
Q 389.55 163.05 405.45 152.9 408.45 151 411.85 148.85 429.05 137.95 434.5 132.4
L 432.4 130.15
Q 428.15 131.55 423.35 133.6 446.85 113.9 446.85 97.6 446.85 89.25 444.5 90.6
M 331.7 187.45
Q 338.6 186.15 348.5 184.35 362.8 181.75 371 179.7 381.8 176.95 393.6 172.15 407.7 166.45 423.15 157.8 422.85 160.05 416.8 166.4 416.7 166.5 416.6 166.6 412.35 171 409 173.8 407.9 174.75 406.85 175.5 397 182.8 388.15 186.05 367.6 193.65 334.45 193.65 332.85 193.65 328.7 192.2 324.45 190.7 319.6 190.55
L 322.05 189.35
Q 325.75 188.55 331.7 187.45 Z"/>
</g>

<path id="grid_0_Layer0_0_1_STROKES" stroke="#444444" stroke-width="1" stroke-linejoin="round" stroke-linecap="round" fill="none" d="
M 527 31
L 558 31 558 0 527 0 527 31 527 62 558 62 558 31
M 527 0
L 496 0 496 31 527 31
M 496 62
L 496 93 527 93 527 62 496 62 496 31 465 31 465 62 496 62 Z
M 558 93
L 527 93 527 124 558 124 558 93 558 62
M 496 155
L 496 186 527 186 527 155 496 155 496 124 465 124 465 155 496 155 Z
M 527 124
L 527 155 558 155 558 124
M 527 186
L 558 186 558 155
M 527 124
L 496 124 496 93 465 93 465 124 434 124 434 155 465 155 465 186 496 186 496 217 527 217 527 186
M 465 31
L 465 0 434 0 434 31 465 31 Z
M 434 62
L 434 93 465 93 465 62 434 62 434 31 403 31 403 62 434 62 Z
M 372 31
L 372 0 341 0 341 31 372 31 403 31 403 0 372 0
M 341 62
L 341 93 372 93 372 62 341 62 341 31 310 31 310 62 341 62 Z
M 372 93
L 403 93 403 62 372 62 372 31
M 403 124
L 372 124 372 155 403 155 403 124 403 93 434 93 434 124 403 124 Z
M 341 155
L 341 186 372 186 372 155 341 155 341 124 310 124 310 155 341 155 Z
M 403 186
L 372 186 372 217 403 217 403 186 403 155 434 155 434 186 465 186 465 217 496 217 496 248 527 248 527 217 558 217 558 186
M 341 93
L 341 124 372 124 372 93
M 403 217
L 434 217 434 186 403 186
M 403 0
L 434 0
M 434 248
L 434 279 465 279 465 248 434 248 434 217 465 217 465 248 496 248 496 279 527 279 527 248 558 248 558 217
M 341 248
L 341 279 372 279 372 248 341 248 341 217 310 217 310 248 341 248 Z
M 434 248
L 403 248 403 279 434 279 434 310 465 310 465 279 496 279 496 310 527 310 527 279 558 279 558 248
M 403 279
L 372 279 372 310 403 310 403 279 Z
M 403 248
L 372 248 372 217 341 217 341 186 310 186 310 217 279 217 279 248 310 248 310 279 341 279 341 310 372 310 372 341 403 341 403 310 434 310 434 341 465 341 465 310 496 310 496 341 527 341 527 310 558 310 558 279
M 403 217
L 403 248
M 341 310
L 341 341 372 341 372 372 403 372 403 341 434 341 434 372 465 372 465 341 496 341 496 372 527 372 527 341 558 341 558 310
M 341 341
L 341 372 372 372 372 403 403 403 403 372 434 372 434 403 465 403 465 372 496 372 496 403 527 403 527 372 558 372 558 341
M 465 0
L 496 0
M 341 0
L 310 0 310 31 279 31 279 62 310 62 310 93 341 93
M 279 0
L 248 0 248 31 279 31 279 0 310 0
M 248 31
L 248 62 279 62 279 93 310 93 310 124 279 124 279 155 310 155 310 186 279 186 279 217 248 217 248 248 279 248 279 279 310 279 310 310 341 310
M 248 62
L 248 93 279 93 279 124 248 124 248 155 279 155 279 186 248 186 248 217 217 217 217 248 248 248 248 279 279 279 279 310 310 310 310 341 341 341
M 248 0
L 217 0 217 31 248 31
M 186 31
L 186 0 155 0 155 31 186 31 217 31 217 62 248 62
M 186 93
L 186 62 155 62 155 93 186 93 217 93 217 62 186 62 186 31
M 186 0
L 217 0
M 186 186
L 186 155 155 155 155 186 186 186 217 186 217 155 186 155 186 124 155 124 155 155 124 155 124 186 155 186 155 217 186 217 186 186 Z
M 217 155
L 217 124 186 124 186 93
M 248 155
L 248 186 217 186 217 217 186 217 186 248 217 248 217 279 248 279 248 310 279 310 279 341 310 341 310 372 341 372 341 403 372 403
M 217 124
L 248 124 248 93 217 93 217 124 Z
M 248 155
L 217 155
M 155 0
L 124 0 124 31 155 31 155 62 124 62 124 93 155 93 155 124 124 124 124 155 93 155 93 186 124 186 124 217 155 217 155 248 186 248 186 279 217 279 217 310 248 310 248 341 279 341 279 372 310 372 310 403 341 403
M 93 31
L 93 0 62 0 62 31 93 31 124 31 124 62 93 62 93 93 124 93 124 124 93 124 93 155 62 155 62 186 93 186 93 217 124 217 124 248 155 248 155 279 186 279 186 310 217 310 217 341 248 341 248 372 279 372 279 403 310 403
M 62 31
L 62 62 93 62 93 31
M 93 0
L 124 0
M 279 403
L 248 403 217 403 186 403 155 403 124 403 93 403 62 403 31 403 0 403 0 372 0 341 0 310 0 279 0 248 0 217 0 186 0 155 0 124 0 93 0 62 0 31 0 0 31 0 62 0
M 0 62
L 31 62 31 31 0 31
M 31 0
L 31 31 62 31
M 0 93
L 31 93 31 62 62 62 62 93 93 93 93 124 62 124 62 155 31 155 31 186 62 186 62 217 93 217 93 248 124 248 124 279 155 279 155 310 186 310 186 341 217 341 217 372 248 372 248 403
M 62 93
L 31 93 31 124 62 124 62 93 Z
M 0 124
L 31 124 31 155 0 155
M 0 217
L 31 217 31 186 0 186
M 93 279
L 93 248 62 248 62 279 93 279 124 279 124 310 155 310 155 341 186 341 186 372 217 372 217 403
M 0 279
L 31 279 31 248 0 248
M 62 217
L 31 217 31 248 62 248 62 217 Z
M 62 279
L 31 279 31 310 62 310 62 279 Z
M 62 310
L 62 341 93 341 93 310 62 310 Z
M 0 372
L 31 372 31 341 0 341
M 0 310
L 31 310 31 341 62 341 62 372 93 372 93 341 124 341 124 310 93 310 93 279
M 62 403
L 62 372 31 372 31 403
M 155 341
L 124 341 124 372 155 372 155 341 Z
M 124 403
L 124 372 93 372 93 403
M 155 372
L 186 372 186 403
M 558 372
L 558 403 527 403
M 434 403
L 403 403
M 496 403
L 465 403
M 155 372
L 155 403"/>

<path id="Layer21_0_1_STROKES" stroke="#CCCCCC" stroke-width="1" stroke-linejoin="round" stroke-linecap="round" fill="none" d="
M 193.1 180.35
L 194.35 180.1
M 194.65 181.1
Q 194.55 181.1 194.4 181.1
L 193.95 181 193.5 181"/>

<path id="Layer3_0_1_STROKES" stroke="#00CC99" stroke-width="1" stroke-linejoin="round" stroke-linecap="round" fill="none" d="
M 95.5 56.35
Q 96.4 53.75 96.8 52.4 97.5 50.05 97.5 48.35 97.5 47 97.6 46.25 98.1 44.85 98.25 44.1 98.6 42.8 98.55 40.65 98.45 37.7 98.5 37.1 98.5 36.1 98.75 35.85 99 35.6 99.55 35.35 100.1 35.15 100.25 35 100.55 34.7 100.6 34.15 100.6 33.55 100.6 33.25 100.45 30.45 100.6 27.6 100.65 26.95 100.6 26.6 100.55 25.95 100.25 25.75 98.15 26.2 95.6 28.25 94.15 29.45 93.75 30.5 93.6 31 93.5 32.1 93.3 33.8 92.5 35.35"/>

<path id="Layer2_0_1_STROKES" stroke="#00CCCC" stroke-width="1" stroke-linejoin="round" stroke-linecap="round" fill="none" d="
M 72.15 50.35
Q 70.45 50.65 69.4 50 68 48.9 67.75 48.75 67.1 48.25 65.15 47.7 64.4 47.55 63.55 47.15
L 63.15 47.35
Q 61.65 48.25 62 49.25 60.95 49.05 59.65 50.35 58.1 51.9 57.65 52.1 57.35 52.25 56.3 52.45 55.5 52.65 55.15 53 55.2 52.7 55.15 49.55 55.15 47.45 55.75 46.25 56.9 44.7 58.4 44.35 60.4 43.9 61.5 45.25 61.9 45.6 62.65 46.6 63 46.95 63.55 47.15 64.55 46.6 65 46 65.25 45.5 65.5 44.5 65.75 44.1 66.65 43.5 66.9 43.25 67.25 42.35 67.45 41.9 68 40.95 68.55 40.05 68.75 39.5 69 38.65 69.25 35.75
L 69.25 30.35
Q 69.25 28.75 69 28 68.75 27.35 68.15 26.5 67.75 25.9 67 25.5 66.35 25.15 64.5 25.35 63.35 25.65 62.9 26 62.65 26.3 62.45 26.9 62.15 27.8 62.15 27.85 61.5 29.15 60.15 30.5 58.35 32.5 55.25 37.35"/>

<path id="positionChecker_20_Layer1_0_1_STROKES" stroke="#9933CC" stroke-width="5" stroke-linejoin="round" stroke-linecap="round" fill="none" d="
M 1 0
L 32.3 31.3 64.05 0
M 63.05 62.05
L 32.3 31.3 0 63.05"/>

<path id="Symbol_1_0_Layer0_0_1_STROKES" stroke="#9933CC" stroke-width="1" stroke-linejoin="round" stroke-linecap="round" fill="none" d="
M 21 0
L 42 15.25 34 39.75 8 39.75 0 15.25 21 0 Z"/>
</defs>

<g transform="matrix( 1, 0, 0, 1, -0.25,-0.25) ">
<g transform="matrix( 1, 0, 0, 1, 0,0) ">
<use xlink:href="#grid_0_Layer1_0_FILL"/>
</g>

<g transform="matrix( 1, 0, 0, 1, 0,0) ">
<use xlink:href="#grid_0_Layer0_0_1_STROKES"/>
</g>
</g>

<g transform="matrix( 0.26422119140625, 0.5398406982421875, -0.5538177490234375, 0.2308349609375, 182.4,242.1) "/>

<g transform="matrix( 1, 0, 0, 1, 0,0) ">
<use xlink:href="#Layer29_0_FILL"/>
</g>

<g transform="matrix( 0.26422119140625, 0.5398406982421875, -0.5538177490234375, 0.2308349609375, 191.4,227.55) "/>

<g transform="matrix( 1, 0, 0, 1, 0,0) ">
<use xlink:href="#Layer27_0_FILL"/>
</g>

<g transform="matrix( 1, 0, 0, 1, 0,0) ">
<use xlink:href="#Layer25_0_FILL"/>
</g>

<g transform="matrix( 1, 0, 0, 1, 0,0) ">
<use xlink:href="#Layer23_0_FILL"/>
</g>

<g transform="matrix( 1, 0, 0, 1, 0,0) ">
<use xlink:href="#Layer22_0_FILL"/>
</g>

<g transform="matrix( 1, 0, 0, 1, 0,0) ">
<use xlink:href="#Layer21_0_FILL"/>

<use xlink:href="#Layer21_0_1_STROKES"/>
</g>

<g transform="matrix( 0.26422119140625, 0.5398406982421875, -0.5538177490234375, 0.2308349609375, 182.4,242.1) "/>

<g transform="matrix( 1, 0, 0, 1, 0,0) ">
<use xlink:href="#Layer14_0_FILL"/>
</g>

<g transform="matrix( 1, 0, 0, 1, 0,0) ">
<use xlink:href="#Layer13_0_FILL"/>
</g>

<g transform="matrix( 1, 0, 0, 1, 0,0) ">
<use xlink:href="#Layer12_0_FILL"/>
</g>

<g transform="matrix( 1, 0, 0, 1, 0,0) ">
<use xlink:href="#Layer9_0_FILL"/>
</g>

<g transform="matrix( 0.2137908935546875, 0, 0, 0.2137908935546875, 40.35,78.3) ">
<g transform="matrix( 1, 0, 0, 1, 0,0) ">
<use xlink:href="#Duplicate_Items_Folder_poof_2_Layer0_0_FILL"/>
</g>

<g transform="matrix( 0.62969970703125, -0.53765869140625, -0.60137939453125, -0.7042694091796875, 648.45,842.75) ">
<g transform="matrix( 1, 0, 0, 1, 0,0) ">
<use xlink:href="#Duplicate_Items_Folder_2_0_Layer0_0_FILL"/>
</g>
</g>

<g transform="matrix( -0.4593963623046875, -0.162109375, 0.1425018310546875, -0.40374755859375, 457.85,678.1) ">
<g transform="matrix( 1, 0, 0, 1, 0,0) ">
<use xlink:href="#Duplicate_Items_Folder_3_0_Layer0_0_FILL"/>
</g>
</g>

<g transform="matrix( -0.728118896484375, 0.449920654296875, 0.449920654296875, 0.728118896484375, 330.7,403.85) ">
<g transform="matrix( 1, 0, 0, 1, 0,0) ">
<use xlink:href="#Duplicate_Items_Folder_4_0_Layer0_0_FILL"/>
</g>
</g>

<g transform="matrix( 1.1971435546875, 0, 0, 0.929443359375, 647.75,264.7) ">
<g transform="matrix( 1, 0, 0, 1, 0,0) ">
<use xlink:href="#Duplicate_Items_Folder_6_0_Layer0_0_FILL"/>
</g>
</g>

<g transform="matrix( -0.242584228515625, -0.23968505859375, 0.2197265625, -0.22235107421875, 335.55,728.7) ">
<g transform="matrix( 1, 0, 0, 1, 0,0) ">
<use xlink:href="#Duplicate_Items_Folder_3_0_Layer0_0_FILL"/>
</g>
</g>

<g transform="matrix( 0.68658447265625, 0.1021728515625, -0.1823577880859375, 0.52740478515625, 775.8,401.95) ">
<g transform="matrix( 1, 0, 0, 1, 0,0) ">
<use xlink:href="#Duplicate_Items_Folder_4_0_Layer0_0_FILL"/>
</g>
</g>

<g transform="matrix( -0.0944671630859375, 1.1285400390625, -1.1285400390625, -0.0944671630859375, 356.35,471) ">
<g transform="matrix( 1, 0, 0, 1, 0,0) ">
<use xlink:href="#Duplicate_Items_Folder_5_0_Layer0_0_FILL"/>
</g>
</g>

<g transform="matrix( -0.155914306640625, 0.676422119140625, -0.676422119140625, -0.155914306640625, 644.75,645.25) ">
<g transform="matrix( 1, 0, 0, 1, 0,0) ">
<use xlink:href="#Duplicate_Items_Folder_4_0_Layer0_0_FILL"/>
</g>
</g>

<g transform="matrix( 0.61810302734375, 0, 0, 0.821990966796875, 767.15,310.1) ">
<g transform="matrix( 1, 0, 0, 1, 0,0) ">
<use xlink:href="#Duplicate_Items_Folder_4_0_Layer0_0_FILL"/>
</g>
</g>

<g transform="matrix( 0.77496337890625, 0.258758544921875, -0.258758544921875, 0.77496337890625, 266.2,182.25) ">
<g transform="matrix( 1, 0, 0, 1, 0,0) ">
<use xlink:href="#Duplicate_Items_Folder_1_0_Layer0_0_FILL"/>
</g>
</g>

<g transform="matrix( 0.8963470458984375, 0, 0.1673583984375, 0.8821258544921875, 346.75,159) ">
<g transform="matrix( 1, 0, 0, 1, 0,0) ">
<use xlink:href="#Duplicate_Items_Folder_2_0_Layer0_0_FILL"/>
</g>
</g>

<g transform="matrix( 1.1573486328125, -0.173095703125, 0.4409637451171875, 1.146697998046875, 552.45,213.7) ">
<g transform="matrix( 1, 0, 0, 1, 0,0) ">
<use xlink:href="#Duplicate_Items_Folder_5_0_Layer0_0_FILL"/>
</g>
</g>
</g>

<g transform="matrix( 0.4968109130859375, 0.040802001953125, -0.1240234375, 0.546295166015625, 63.2,9.55) ">
<g transform="matrix( 1, 0, 0, 1, 0,0) ">
<use xlink:href="#symbols_transform_dancer_sport_2_Layer3_0_FILL"/>
</g>

<g transform="matrix( 1, 0, 0, 1, 0,0) ">
<use xlink:href="#symbols_transform_dancer_sport_2_Layer2_0_FILL"/>
</g>

<g transform="matrix( 1, 0, 0, 1, 0,0) ">
<use xlink:href="#symbols_transform_dancer_sport_2_Layer1_0_FILL"/>
</g>
</g>

<g transform="matrix( 1, 0, 0, 1, 0,0) ">
<use xlink:href="#Layer3_0_1_STROKES"/>
</g>

<g transform="matrix( 1, 0, 0, 1, 0,0) ">
<use xlink:href="#Layer2_0_1_STROKES"/>
</g>

<g transform="matrix( 1, 0, 0, 1, 125.85,58.85) ">
<g transform="matrix( 1, 0, 0, 1, 0,0) ">
<use xlink:href="#positionChecker_20_Layer1_0_1_STROKES"/>
</g>

<g transform="matrix( 1, 0, 0, 1, -19,6) ">
<g transform="matrix( 1, 0, 0, 1, 0,0) ">
<use xlink:href="#Symbol_1_0_Layer0_0_1_STROKES"/>
</g>
</g>
</g>
</svg>
