
<svg xmlns="http://www.w3.org/2000/svg" version="1.1" xmlns:xlink="http://www.w3.org/1999/xlink" preserveAspectRatio="none" x="0px" y="0px" width="550px" height="400px" viewBox="0 0 550 400">
<defs>
<g id="grid_0_Layer1_0_FILL">
<path fill="#0033FF" fill-opacity="0.5176470588235295" stroke="none" d="
M 558 31
L 558 0 527 0 496 0 465 0 434 0 403 0 372 0 341 0 310 0 279 0 248 0 217 0 186 0 155 0 124 0 93 0 62 0 31 0 0 0 0 31 0 62 0 93 0 99.25 0 119.3 0 124 0 155 0 186 0 217 0 248 0 279 0 310 0 341 0 372 0 403 31 403 62 403 93 403 124 403 155 403 186 403 217 403 248 403 279 403 310 403 341 403 372 403 403 403 434 403 465 403 496 403 527 403 558 403 558 372 558 341 558 310 558 279 558 248 558 217 558 186 558 155 558 124 558 119.3 558 99.25 558 93 558 62 558 31 Z"/>
</g>

<g id="Duplicate_Items_Folder_poof_3_Layer0_0_FILL">
<path fill="#999999" stroke="none" d="
M 648.65 595.05
Q 648.4 594.9 648.2 594.8 647.6 594.35 647.25 594 646.5 593.05 646.5 589.5 646.5 588.75 646.65 587.55 646.8 586.25 647.1 584.6 646.9 584.85 646.7 585.1 646.55 585.2 646.5 585.35 645.75 586.25 645.15 587.25 642.65 593 647.35 595.05 647.6 595.25 647.8 595.4 647.75 595.5 647.7 595.55 648.15 595.75 648.65 595.85 650.5 596.4 650.9 596.4 649.25 595.45 648.65 595.05
M 667.7 595.7
Q 667.8 595.95 667.85 596.25 668.1 597.05 668.1 597.4 668.1 600.7 665.65 602.1 664.95 602.55 664 602.8 663.25 602.85 663.2 602.85 663 602.85 662.55 602.8 662.15 602.7 661.9 602.65 662 601.9 662.05 601.8
L 662.05 601.25
Q 660.85 602.45 659.9 602.85 658.55 603.5 656 603.5 652.8 603.5 650.15 602.25 649.6 601.95 649.05 601.6 648.2 601.05 647.5 600.4 648.2 601.9 649.65 603.2 651.75 604.95 654.3 605.35 656.5 605.95 658.95 605.5 660.3 605.2 661.05 604.6 661.25 604.7 661.95 605 662.7 605.4 664.5 605.3 666.35 605.25 667.6 603.75 668.9 602.25 668.9 599.55 668.9 597.7 667.7 595.7
M 667.2 586.05
Q 667.35 586.55 667.35 587.05 667.35 588.85 666.25 590.85 665.35 592.45 664.65 592.85
L 664.75 593.1
Q 665.85 593.1 667.15 594.9 668.55 593.85 668.65 592.75 668.9 591.6 668.9 590.8 668.9 588.4 667.2 586.05
M 652 593.65
Q 652.05 593.65 652.5 593.35 652.95 593.1 653.25 593.1 654.25 593.1 655.25 593.8 655.35 593.85 655.45 594 655.65 594.15 655.85 594.3 657.05 595.5 657.1 596.4 657.25 596.1 657.5 595.7 657.8 595 657.8 594.4 657.8 593.75 657.5 592.95 657.4 592.75 657.4 592.65 657.7 592.6 658.05 592.6 659.95 592.6 661.2 593.8 662.25 594.9 662.25 596.4 662.25 596.75 662.1 597.2 662.45 596.55 662.5 596.15 662.5 595.95 662.5 595.2 662.5 593.35 661.45 592 660.5 590.8 659.35 590.8 657.8 590.8 656.9 591.65 656.7 591.9 656.5 592.05 655.75 591.5 655.55 591.4 655.25 591.25 654.7 591.25 653.7 591.25 652.8 592.4 652.05 593.6 652 593.65 Z"/>

<path fill="#FFFFFF" stroke="none" d="
M 667.2 586.05
Q 666.9 585.7 666.6 585.35 666.15 584.85 665.75 584.35 664.3 582.95 663.25 582.95 662.1 582.95 661.55 583.4 661.05 583.7 661.15 585.75 660.15 583.15 658.15 581.8 656.5 580.7 654.7 580.7 650.5 580.7 647.1 584.6 646.8 586.25 646.65 587.55 646.5 588.75 646.5 589.5 646.5 593.05 647.25 594 647.6 594.35 648.2 594.8 648.4 594.9 648.65 595.05 649.25 595.45 650.9 596.4 650.5 596.4 648.65 595.85 648.15 595.75 647.7 595.55 647.35 596.2 647.2 596.45 646.9 596.95 646.9 597.7 646.9 599.1 647.5 600.4 648.2 601.05 649.05 601.6 649.6 601.95 650.15 602.25 652.8 603.5 656 603.5 658.55 603.5 659.9 602.85 660.85 602.45 662.05 601.25
L 662.05 601.8
Q 662 601.9 661.9 602.65 662.15 602.7 662.55 602.8 663 602.85 663.2 602.85 663.25 602.85 664 602.8 664.95 602.55 665.65 602.1 668.1 600.7 668.1 597.4 668.1 597.05 667.85 596.25 667.8 595.95 667.7 595.7 667.55 595.5 667.35 595.25 667.35 595.2 667.3 595.05 667.2 595 667.15 594.9 665.85 593.1 664.75 593.1
L 664.65 592.85
Q 665.35 592.45 666.25 590.85 667.35 588.85 667.35 587.05 667.35 586.55 667.2 586.05
M 652.5 593.35
Q 652.05 593.65 652 593.65 652.05 593.6 652.8 592.4 653.7 591.25 654.7 591.25 655.25 591.25 655.55 591.4 655.75 591.5 656.5 592.05 656.7 591.9 656.9 591.65 657.8 590.8 659.35 590.8 660.5 590.8 661.45 592 662.5 593.35 662.5 595.2 662.5 595.95 662.5 596.15 662.45 596.55 662.1 597.2 662.25 596.75 662.25 596.4 662.25 594.9 661.2 593.8 659.95 592.6 658.05 592.6 657.7 592.6 657.4 592.65 657.4 592.75 657.5 592.95 657.8 593.75 657.8 594.4 657.8 595 657.5 595.7 657.25 596.1 657.1 596.4 657.05 595.5 655.85 594.3 655.65 594.15 655.45 594 655.35 593.85 655.25 593.8 654.25 593.1 653.25 593.1 652.95 593.1 652.5 593.35 Z"/>
</g>

<g id="Duplicate_Items_Folder_poof_3_Layer0_1_FILL">
<path fill="#FFFFFF" stroke="none" d="
M -34.3 373.85
Q -36.6 374 -38.9 374.05 -42.45 388.65 -34.3 400.1
L -34.3 373.85
M -43 262.1
Q -50.75 269.4 -53.1 280.8 -65.7 279.7 -81.55 303.35 -97.45 326.9 -95.5 333.4 -93.6 339.85 -86.35 344.75
L -86.2 344.75
Q -86.8 340.65 -86.75 340.5 -86.75 337.9 -86.55 335.3 -86.5 334.1 -86.35 332.9 -85.4 338.05 -83.9 342.4 -75.4 366.6 -49.25 366.65 -46.2 366.6 -43 366.3
L -43 371.65
Q -38.7 371.5 -34.3 370.7 43.25 277.2 -34.3 256.75 -37.6 258.7 -40.45 260.35 -41.8 261.15 -43 262.15
L -43 262.1
M -34.3 237.85
L -34.3 225.5
Q -36.05 230.8 -34.3 237.85 Z"/>

<path fill="#999999" stroke="none" d="
M -86.75 340.5
Q -86.8 340.65 -86.2 344.75 -85.9 346.8 -85.45 349.95 -84.2 359.4 -69.2 373.75 -57.1 385.3 -45.2 400.35
L -34.3 400.35 -34.3 400.1
Q -42.45 388.65 -38.9 374.05 -36.6 374 -34.3 373.85
L -34.3 370.7
Q -38.7 371.5 -43 371.65
L -43 366.3
Q -46.2 366.6 -49.25 366.65 -75.4 366.6 -83.9 342.4 -85.4 338.05 -86.35 332.9 -86.5 334.1 -86.55 335.3 -86.75 337.9 -86.75 340.5 Z"/>
</g>

<g id="Duplicate_Items_Folder_3_0_Layer0_0_FILL">
<path fill="#999999" stroke="none" d="
M 163.75 166.85
Q 163.45 167.05 163.15 167.25 163.55 167.6 163.95 168 163.8 167.3 163.75 166.85
M 184.85 68.3
Q 185.1 66.5 185.3 64.7 185.15 64.65 185.05 64.65 185.3 63.4 185.5 62.15 185.55 60.55 185.55 58.9 185.55 48.75 182.4 39.85 186.6 55.95 179.55 64.75
L 184.85 68.3
M 167.5 17.45
Q 167.3728515625 17.3728515625 167.25 17.25 151.75 2.6 130.75 0.4 127.5 0.05 124.15 0 123.65 0 123.15 0 97.35 0 79.05 17.25 67.55 28.1 63.3 41.8 54.3 34.65 42.25 34.65 28.55 34.65 18.85 43.8 9.2 52.95 9.2 65.85 9.2 78.8 18.85 87.9 19.15 88.2 19.5 88.5 0 108 0 135.2 0 135.65 0 136.1
L 0 136.5
Q 0.5 164 21.15 183.45
L 21.9 182.85
Q 5.3 163.25 8.7 135.95 8.75 135.8 8.75 135.65 12 110.1 31.15 91.45 30.9 91.2 30.65 90.95 28.2 88.35 26.75 85.35 26.7 85.25 26.7 85.15 26.55 84.85 26.4 84.6 23.85 78.8 24.75 71.6 26.15 60.25 35.3 51.8 44.45 43.3 56.2 42.5 59.85 42.25 63.15 42.8 69.2 43.8 73.9 47.5 78.7 35.3 89.6 25.2 104.7 11.25 124.15 8.1 126.95 7.6 129.8 7.4 130.45 7.3 131.1 7.3 152.24296875 5.90703125 167.5 17.45
M 64.95 146.4
Q 64.55 146.1 64.2 145.8 63.4 146.55 62.55 147.25
L 64.95 146.4
M 160.35 73
Q 159.15 72.45 157.1 73.4 157.9 73.25 159.05 73.1 159.7 73.05 160.35 73
M 266.6 94.15
Q 259.4 88.4 248.4 83.85 240 80.3 228.25 78.65 230.7 80.25 232.65 82.4 239.7 89.4 238.35 94.1 236.5 100 224.5 97 222.05 96.4 217.75 95.3 217.15 95.15 216.55 95 212.9 94.2 212.4 95.65 211.2 99.3 214.65 102.55 217.65 104.95 219.85 106.95 221.15 108.15 222.15 109.2 221 108.6 219.85 108.1 214.85 105.7 210.15 104.25
L 209.25 105.15
Q 207.55 104 205.8 103.05 200.8 101.8 195.95 101.65 184.6 101.1 182.7 106.35 182.1 108.05 181.75 110.4 181.75 110.45 181.8 110.55 181.65 111.3 181.6 112.15 181 117.9 183.2 120.65 184.8 116 188.2 113.25 194.9 107.6 206.1 112.95 209.1 114.35 210.05 115.5 211.25 116.7 208.25 137.4 205.6 155.75 178.1 160.85 179.9 160.65 181.6 160.5 188.85 159.7 193.7 159 204.15 157.45 211.4 154.05 224.05 148.2 226.45 137.05 228.05 128.85 235.75 126.65 241 125 252.1 126.05 265.7 127.15 268.75 127.05 272.15 126.7 274.2 125.75 277.4 124.25 278.2 121.25 280.25 113.2 276.6 105.85 275 102.5 272.3 99.45 269.85 96.6 266.6 94.15 Z"/>

<path fill="#FFFFFF" stroke="none" d="
M 185.3 64.7
Q 185.4 63.4 185.5 62.15 185.3 63.4 185.05 64.65 185.15 64.65 185.3 64.7
M 167.6 17.55
Q 167.5478515625 17.5126953125 167.5 17.45 152.24296875 5.90703125 131.1 7.3 130.45 7.3 129.8 7.4 126.95 7.6 124.15 8.1 104.7 11.25 89.6 25.2 78.7 35.3 73.9 47.5 69.2 43.8 63.15 42.8 59.85 42.25 56.2 42.5 44.45 43.3 35.3 51.8 26.15 60.25 24.75 71.6 23.85 78.8 26.4 84.6 26.55 84.85 26.7 85.15 26.7 85.25 26.75 85.35 28.2 88.35 30.65 90.95 30.9 91.2 31.15 91.45 12 110.1 8.75 135.65 8.75 135.8 8.7 135.95 5.3 163.25 21.9 182.85
L 21.15 183.45
Q 24.75 186.85 28.65 189.7 46.4 202.75 69.55 203.45 70.9 203.5 72.3 203.5 102.25 203.5 123.4 183.45 128.85 178.35 132.95 172.7 135.15 169.55 137 166.25 137.35 165.55 137.75 164.85 139.6 165.3 141.6 165.65 145.5 166.3 149.75 166.5 151.2 166.55 152.7 166.55 157.4 166.55 161.9 166 162.5 166.6 163.15 167.25 163.45 167.05 163.75 166.85 163.75 166.45 163.8 166.25 163.9 165.95 164.05 165.7 165.05 165.5 166.05 165.35 174.1 163.85 181.6 160.5 179.9 160.65 178.1 160.85 205.6 155.75 208.25 137.4 211.25 116.7 210.05 115.5 209.1 114.35 206.1 112.95 194.9 107.6 188.2 113.25 184.8 116 183.2 120.65 181 117.9 181.6 112.15 181.65 111.3 181.8 110.55 181.75 110.45 181.75 110.4 182.1 108.05 182.7 106.35 184.6 101.1 195.95 101.65 200.8 101.8 205.8 103.05 207.55 104 209.25 105.15
L 210.15 104.25
Q 214.85 105.7 219.85 108.1 221 108.6 222.15 109.2 221.15 108.15 219.85 106.95 217.65 104.95 214.65 102.55 211.2 99.3 212.4 95.65 212.9 94.2 216.55 95 217.15 95.15 217.75 95.3 222.05 96.4 224.5 97 236.5 100 238.35 94.1 239.7 89.4 232.65 82.4 230.7 80.25 228.25 78.65 217.35 76.95 203.55 76.9 202.05 75.8 200.4 74.8 193.05 70.25 184.85 68.3
L 179.55 64.75
Q 186.6 55.95 182.4 39.85 178.05 27.55 167.65 17.6
L 167.6 17.55
M 157.1 73.4
Q 159.15 72.45 160.35 73 159.7 73.05 159.05 73.1 157.9 73.25 157.1 73.4
M 64.2 145.8
Q 64.55 146.1 64.95 146.4
L 62.55 147.25
Q 63.4 146.55 64.2 145.8
M 102.6 145.4
Q 102.25 142.25 102.45 138.6 102.5 135.9 102.85 137.85 103.2 139.7 102.95 142.65 102.85 144.15 102.6 145.4 Z"/>
</g>

<g id="Duplicate_Items_Folder_4_0_Layer0_0_FILL">
<path fill="#999999" stroke="none" d="
M 90.3 277.4
L 90.25 277.4
Q 76.55 285.75 62.2 303.55 44.55 325.45 44.55 338.8 44.55 347.4 48.5 353.1 52.7 359.15 56.65 357.2 52.9 362.65 61.95 363.15 71 363.65 79.3 363.15
L 78.75 363.15
Q 107.85 359.3 114.3 357.95 119.35 356.95 125.2 354.85 117 352.7 112.85 347.65 110.6 344.9 109.8 341.55 109.45 340.1 109.45 338.5 109.45 334.35 109.75 333.8 110.95 332.25 112.8 328.65 106.4 337.45 97.75 340.9 91.75 343.25 83.65 343.25 64.65 343.25 64.65 326.8 64.65 317.7 70.25 305.55 77.25 290.45 90.3 277.4
M 162.05 195.5
Q 164.3 189.5 164.3 183.95 164.3 172.9 156.9 168.45 153.7 166.6 147.7 164.85 143.65 163.75 140.4 162.9 142.9 164.4 145.1 167.55 149.7 174.1 149.7 183.1 149.7 191.9 146.95 197.3 143.2 204.55 134.05 207.35 150.6 211.5 159.3 220.2 170.1 230.8 170.9 249.25 172.05 247.8 173.3 246.15 177.75 239.2 177.75 232.45 177.75 223.25 172.8 216.85 168.85 211.7 157.65 203.9 160.25 200.05 162.05 195.5 Z"/>

<path fill="#CCCCCC" stroke="none" d="
M 47.4 2.6
Q 45.05 1.5 42.8 0.7 30.35 0.15 17.85 0 12.4 1.9 8.5 5.75 0 14.25 0 30.95 0 38.35 5.7 43.7 7.9 45.75 18.1 52.1 26.5 57.35 30.15 62.5 35.45 70 34.85 81.15 33.7 104.8 54.3 127.6 59.45 133.35 68.65 142.7 75.25 150.15 75.25 154.95 75.25 157.5 66.95 167.6 58.6 180.35 58.6 196.4 58.6 223.45 71.9 245.55 73.95 249 76.3 252.35 76.5 252.5 76.6 252.75 79.6 256.8 83.2 260.85
L 83.2 260.9
Q 86 264 89.15 267.1
L 88.25 263.7
Q 86.25 262.15 84.55 260.15 81.55 256.75 79.35 251.9 79.25 251.7 79.2 251.6 77.8 248.4 76.75 244.65
L 76.45 244.05 76.55 244
Q 73.65 233.65 73.65 220.75 73.65 195.35 89.65 169.85 97.85 156.8 107.25 147.65 71.45 135.35 58.55 107.45 51.35 91.75 51.35 67.15 51.35 64.7 52.5 63.75 53.55 62.9 56.35 62.9 66.7 62.9 70.6 74.45 72.55 80.15 72.55 87.15 75.1 85.15 76.25 77.15 76.45 76 76.6 74.95 76.6 74.85 76.6 74.8 77 71.55 77 68.9 77 60.65 67.55 54.15 63.55 51.45 59.1 49.95 57.5 50.25 55.9 50.6
L 55.35 48.9
Q 50.3 47.8 44.65 48.15 47.35 46.15 52.25 44 55.8 41.65 55.8 36.05 55.8 33.7 52.6 32.5 48.25 31.2 45.75 30.4 35.65 27.3 35.65 18.2 35.65 10.9 42.9 5.3 45.05 3.6 47.4 2.6 Z"/>

<path fill="#FFFFFF" stroke="none" d="
M 195.9 147.75
Q 197.95 140.2 197.95 135.1 197.95 89.6 163.1 67.1 140.35 52.4 105.45 48.9 90.8 32.5 72.6 18.5 58.5 7.65 47.4 2.6 45.05 3.6 42.9 5.3 35.65 10.9 35.65 18.2 35.65 27.3 45.75 30.4 48.25 31.2 52.6 32.5 55.8 33.7 55.8 36.05 55.8 41.65 52.25 44 47.35 46.15 44.65 48.15 50.3 47.8 55.35 48.9
L 55.9 50.6
Q 57.5 50.25 59.1 49.95 63.55 51.45 67.55 54.15 77 60.65 77 68.9 77 71.55 76.6 74.8 76.6 74.85 76.6 74.95 76.45 76 76.25 77.15 75.1 85.15 72.55 87.15 72.55 80.15 70.6 74.45 66.7 62.9 56.35 62.9 53.55 62.9 52.5 63.75 51.35 64.7 51.35 67.15 51.35 91.75 58.55 107.45 71.45 135.35 107.25 147.65 97.85 156.8 89.65 169.85 73.65 195.35 73.65 220.75 73.65 233.65 76.55 244
L 76.45 244.05 76.75 244.65
Q 77.8 248.4 79.2 251.6 79.25 251.7 79.35 251.9 81.55 256.75 84.55 260.15 86.25 262.15 88.25 263.7
L 89.15 267.1
Q 96.2 274 96.3 274.1 93.3 275.5 90.3 277.35
L 90.25 277.4 90.3 277.4
Q 77.25 290.45 70.25 305.55 64.65 317.7 64.65 326.8 64.65 343.25 83.65 343.25 91.75 343.25 97.75 340.9 106.4 337.45 112.8 328.65 110.95 332.25 109.75 333.8 109.45 334.35 109.45 338.5 109.45 340.1 109.8 341.55 110.6 344.9 112.85 347.65 117 352.7 125.2 354.85 138.05 350.05 154.75 339.85 162.95 334.85 169.9 329.1 170.05 328.95 170.15 328.85 176.2 323.75 181.3 318.1 192.5 305.65 192.4 297.85 192.25 289.3 196.15 283.15 197 281.75 204.8 272.95 210.75 266.25 213.55 258.8 217.55 248.25 217.55 232.1 217.55 230.55 216.65 228.4 216.25 227.3 215.85 226.4 226.5 219.2 230.15 210.7 233.75 202.2 231.55 189.9 229.35 177.55 218.15 170.3 206.95 163 199.25 159.2 193.8 156.55 193.8 155.5 193.8 155.3 195.9 147.75
M 164.3 183.95
Q 164.3 189.5 162.05 195.5 160.25 200.05 157.65 203.9 168.85 211.7 172.8 216.85 177.75 223.25 177.75 232.45 177.75 239.2 173.3 246.15 172.05 247.8 170.9 249.25 170.1 230.8 159.3 220.2 150.6 211.5 134.05 207.35 143.2 204.55 146.95 197.3 149.7 191.9 149.7 183.1 149.7 174.1 145.1 167.55 142.9 164.4 140.4 162.9 143.65 163.75 147.7 164.85 153.7 166.6 156.9 168.45 164.3 172.9 164.3 183.95 Z"/>
</g>

<g id="Duplicate_Items_Folder_1_0_Layer0_0_FILL">
<path fill="#CCCCCC" stroke="none" d="
M 142.55 288.05
Q 141.3 291.9 139.45 295.7 133.4 308.1 123.6 313.85 99.05 327.9 66.25 298.45 55.9 289.15 45 275.65 41.95 271.6 38.65 265.4 39.45 265.65 40.3 265.95 38.55 262.05 37.5 256.8 35.9 249.05 35.9 239.35 35.9 238.55 36 237.7 35.8 237.7 35.65 237.75 31.1 238.65 28.75 240.9 28.15 238.6 27.75 236.4 26.85 240.05 26.65 244 22.95 251.85 27.25 257.75 27.65 258.3 28.1 258.8 28.35 259.95 28.65 261.15 32 273.9 40.5 287.45 44.95 294.5 48.7 298.9 97.05 349.4 132.35 333.35 143.6 328.2 151.45 316.65 153.85 313.05 155.6 309.15
L 156.95 306.15
Q 181.6 307.2 191.5 297.15 198.95 289.55 197.6 276 196.65 266.3 191.15 254.8
L 188.65 250.25
Q 183.85 254.55 178.15 257.45 176.45 258.3 174.65 259.1 176.05 269.75 171.5 276.25 170.35 277.95 168.6 279.4 160.65 285.95 143.45 284.95
L 142.55 288.05
M 201.75 190.15
Q 193.25 192.05 181.3 189.25 186.25 193.4 186.15 198.2 186.1 201.5 183.5 205.6 183.3 205.85 183.15 206.1 180.2 210.6 175.05 212.5 172.65 213.5 170.55 213.55 172.9 214.05 175.85 214.55 180.25 215.3 182.75 215.25 184.9 215.2 186.8 214.5 190.2 213.2 192.6 209.7 194.4 206.95 195 203.35 195.45 200.6 195.1 197.95 204.65 197.25 208.8 195.8 214 193.95 217.2 189.35 219.55 185.95 219.3 181.15 219.1 179.85 219 178.75 211.95 187.95 201.75 190.15
M 267.2 70
Q 264 62.95 260.6 56.95 247.95 34.65 232.35 27.2 234.25 24.95 234.55 22.3 235.8 10.85 227.8 5.1 225.6 3.5 222.75 2.5 216.4 0 207.1 0 199.9 -0.05 190.2 2.75 192.35 3.45 194.2 4.55 200.65 8.25 200 13 199.2 18.9 189.15 20.75 186.8 21.15 182.5 21.9 179.4 22.55 179.2 24.1 178.9 26.25 179.9 27.75 180.5 27.5 181.2 27.25 184.1 26.15 195.3 25.8 206.15 25.5 207.95 26.2 211.05 27.7 213.8 29.95 217.25 32.95 219.8 35.05 220.9 35.95 233.55 42.7 243.15 47.85 243.9 51.75 243.95 52.1 244.25 53.7 248.75 58.95 252.8 66.25 256.95 73.75 260.6 83.3 261.65 86.05 262.7 89 263.95 93.55 264.75 100.25 264.9 102.5 265.1 104.55 265.75 114.9 264 123.6 269.75 115.6 271.25 104.1 272.6 93.45 270.1 80.8 268.8 74.3 267.2 70 Z"/>

<path fill="#999999" stroke="none" d="
M 10.85 189.5
Q 5.65 179.5 6.25 170.6 4.15 173.9 2.75 177.4 -4.35 194.5 6.9 212.65 11.85 220.6 20.35 228.8 23.7 231.95 27.55 235.2 25.2 221.95 28.5 211.6 23.95 207.3 20.35 203.1 14.3 196.1 10.85 189.5
M 260.6 134.3
Q 258.45 139.05 255.35 142.8 258.75 149.4 260.6 155.3 262.05 159.95 262.5 164.15 263.45 172.5 260.6 179 260.4 179.45 260.15 179.95 260.4 179.8 260.6 179.65 263.15 177.7 265.15 175.5 276.45 163.75 273.2 147 271.2 136.8 263.75 124.6 262.6 129.9 260.6 134.3
M 79.65 125.5
Q 78.05 121.4 79.3 115.45 80.5 109.3 85.3 105.4 87.6 103.45 89.85 102.75 87 103 83.5 103.3 78.35 103.9 75.55 104.8 68.9 107 67.25 114.45 66.55 118.2 67.5 122.5 68.2 125.75 69.8 128.7 59.6 132.65 55.7 135.65 50.8 139.45 49.4 145.8 48.3 150.45 50.8 155.95 51.65 157.3 52.25 158.5 55.8 145.65 66.05 139.75 74.55 134.9 89.05 134.1 81.65 131 79.65 125.5 Z"/>

<path fill="#FFFFFF" stroke="none" d="
M 262.7 89
Q 261.65 86.05 260.6 83.3 256.95 73.75 252.8 66.25 248.75 58.95 244.25 53.7 243.95 52.1 243.9 51.75 243.15 47.85 233.55 42.7 220.9 35.95 219.8 35.05 217.25 32.95 213.8 29.95 211.05 27.7 207.95 26.2 206.15 25.5 195.3 25.8 184.1 26.15 181.2 27.25 180.5 27.5 179.9 27.75 178.9 26.25 179.2 24.1 179.4 22.55 182.5 21.9 186.8 21.15 189.15 20.75 199.2 18.9 200 13 200.65 8.25 194.2 4.55 192.35 3.45 190.2 2.75 179.4 5.9 165.6 12.55 147.95 20.95 133.55 30.85 104.1 31.9 84.25 40.05 70.15 45.8 61.45 54.95 51.8 65.15 48.3 79.9 47.55 83.05 48.05 87.95 48.1 88.75 48.2 89.5 48.5 92.9 48.45 93 48.4 93.65 43.85 94.95 37.55 96.65 28.25 100.25 23.55 102.05 20.35 104.9 17.25 107.65 15.55 111.35 11.9 118.95 13.25 124.8 14.4 130.3 20.35 135.95 20.75 136.35 21.15 136.7 20.8 137.1 20.35 137.75 20.3 137.8 20.25 137.9 19.2 139.25 19 140.3 17.8 145 17.4 149.3 16.95 153.8 17.45 157.65 10.5 163.95 6.25 170.6 5.65 179.5 10.85 189.5 14.3 196.1 20.35 203.1 23.95 207.3 28.5 211.6 25.2 221.95 27.55 235.2 27.7 235.35 27.95 235.55 27.85 236 27.75 236.4 28.15 238.6 28.75 240.9 31.1 238.65 35.65 237.75 35.8 237.7 36 237.7 35.9 238.55 35.9 239.35 35.9 249.05 37.5 256.8 38.55 262.05 40.3 265.95 39.45 265.65 38.65 265.4 41.95 271.6 45 275.65 55.9 289.15 66.25 298.45 99.05 327.9 123.6 313.85 133.4 308.1 139.45 295.7 141.3 291.9 142.55 288.05
L 143.45 284.95
Q 160.65 285.95 168.6 279.4 170.35 277.95 171.5 276.25 176.05 269.75 174.65 259.1 176.45 258.3 178.15 257.45 183.85 254.55 188.65 250.25 193.1 246.25 196.75 241.05 198.4 238.75 199.65 234.8 199.8 234.15 200 233.55 200.85 230.85 200.9 230.75 201.15 230.3 205.25 230.3 210.9 230.45 219.65 229.8 228.2 229.15 233.5 224.1 238.85 219 239.7 214.15 240.55 209.25 237.15 203 237.65 202.7 238.25 202.25 239.5 201.45 240.05 200.7 242.55 197.3 244.25 194 246.05 190.6 246.9 187.5 254.55 184.2 260.15 179.95 260.4 179.45 260.6 179 263.45 172.5 262.5 164.15 262.05 159.95 260.6 155.3 258.75 149.4 255.35 142.8 258.45 139.05 260.6 134.3 262.6 129.9 263.75 124.6 263.65 124.5 263.55 124.3 263.75 123.95 264 123.6 265.75 114.9 265.1 104.55 264.9 102.5 264.75 100.25 263.95 93.55 262.7 89
M 181.3 189.25
Q 193.25 192.05 201.75 190.15 211.95 187.95 219 178.75 219.1 179.85 219.3 181.15 219.55 185.95 217.2 189.35 214 193.95 208.8 195.8 204.65 197.25 195.1 197.95 195.45 200.6 195 203.35 194.4 206.95 192.6 209.7 190.2 213.2 186.8 214.5 184.9 215.2 182.75 215.25 180.25 215.3 175.85 214.55 172.9 214.05 170.55 213.55 172.65 213.5 175.05 212.5 180.2 210.6 183.15 206.1 183.3 205.85 183.5 205.6 186.1 201.5 186.15 198.2 186.25 193.4 181.3 189.25
M 79.3 115.45
Q 78.05 121.4 79.65 125.5 81.65 131 89.05 134.1 74.55 134.9 66.05 139.75 55.8 145.65 52.25 158.5 51.65 157.3 50.8 155.95 48.3 150.45 49.4 145.8 50.8 139.45 55.7 135.65 59.6 132.65 69.8 128.7 68.2 125.75 67.5 122.5 66.55 118.2 67.25 114.45 68.9 107 75.55 104.8 78.35 103.9 83.5 103.3 87 103 89.85 102.75 87.6 103.45 85.3 105.4 80.5 109.3 79.3 115.45 Z"/>
</g>

<g id="Duplicate_Items_Folder_2_0_Layer0_0_FILL">
<path fill="#FFFFFF" stroke="none" d="
M 3.75 167.35
Q 3.3 166.8 3.15 166.65 1.55 166.65 0 166.6 1.95 166.9 3.75 167.35
M 337.8 76.7
Q 335.4 79.05 337.25 90 329.9 76.85 318.35 71.4 308.75 66.8 299 68.3 276.85 71.7 262.15 94.95 264.5 97.6 266.45 100.3 263.95 99.05 263.2 97.5 262.65 96.4 262.1 95.45 262 95.3 261.95 95.2 261.55 94.5 261.15 93.85 259.9 92.45 258.35 90.9 257.85 90.4 257.5 89.95 256.85 89.4 256.3 88.9 243.95 77.35 235.6 78.35
L 234.2 76.95
Q 241.05 74.75 251.25 63.2 261.4 51.65 255.45 38.9 250.9 29.15 248.25 25.9 247.5 25.15 246.75 24.45 244.35 22.25 241.5 19.95 237.3 16.65 233.7 14.1 221.1 5.6 212.35 6.9 203.45 8.3 199.8 11.55 196.2 14.8 198.8 29.7 188.05 11.8 171.1 4.5 156.95 -1.6 142.45 0.6 109.55 5.65 87.3 37.8 88.85 38.35 82.15 50.55 75.45 62.75 78.9 79.55 82.3 96.3 92.15 102.4 101.95 108.45 107.15 110.75 108.85 111.45 110.9 112.25 114.85 113.7 124.7 117.15 123.7 117.65 123 118.25 122.7 118.5 122.5 118.9 118.65 118.6 113 118 109.95 115.7 106.45 114.2 100.1 111.45 93.65 111.65 91.8 111.7 89.95 112 71.05 114.85 58.2 133.4 57.9 140.75 58.05 146.05 58.3 151.15 58.8 154.45 61.05 169.1 65.1 172.75 66.65 174.05 69.65 175.35 70.65 175.75 71.85 176.2 74.65 177.25 82.85 180.15 81.15 180.4 72.4 179.5 70 179.2 67.9 179 66.75 181.7 66.25 182.85 65.25 185.25 65.7 188.15 66.6 194.25 70 199.2 73.55 201.45 77.9 203.15 80.55 204.25 83.3 205 95.85 208.45 110.65 206.2 121.8 204.5 127.75 200.9 131.85 198.45 136.55 192.55
L 136.95 195.05
Q 136.75 195.5 136.7 198.6 138 198.65 139.7 198.8 141.7 198.9 142.7 198.75 142.85 198.7 146.3 197.7 150.4 196.3 153.5 193.85 160.6 188.5 161.6 179.9 161.95 176.35 161.35 172.3 161.15 171.05 159.45 167.7 158.9 166.75 158.45 165.9 158.35 165.75 158.3 165.65 158.4 165.75 158.5 165.9 176.65 176.7 189.7 172.6 202.75 168.45 211.55 164.7 220.35 160.95 222.5 153.2 225.3 154.8 228.1 156 250.55 165.6 261.9 153.9 265.55 152.3 276.05 148.2 277.25 148.75 278.65 149.3 282 150.7 291.7 154.4 289.65 154.75 279.35 153.45 276.5 153.1 274.1 152.75 272.7 156.15 272.2 157.6 271.05 160.65 271.6 164.35 272.8 172.05 276.85 178.4 281 181.25 286.1 183.5 289.3 184.85 292.5 185.85 307.3 190.45 324.6 187.8 337.65 185.8 344.6 181.4 349.4 178.3 354.75 170.9
L 355.25 174.1
Q 355 174.6 355.05 178.6 356.55 178.7 358.55 178.85 360.95 179 362.1 178.8 362.3 178.75 366.25 177.55 371.05 175.85 374.65 172.85 386.25 163.45 383.55 145.65 383.3 144.1 381.25 139.85 380.6 138.35 379.9 137.2 379 136.15 377.95 135 377.6 134.7 377.35 134.3 376.95 133.85 376.55 133.55 368.15 125 362.5 125.7
L 361.55 124.65
Q 365.05 121.85 368.5 112.6 372.7 101.3 371.25 91.6 370.85 89 369.6 86.55 367.95 84.9 366 83.2 363.15 80.75 360.7 78.9 352.1 72.55 346.2 73.45 340.2 74.4 337.8 76.7
M 352.3 138.55
Q 352.95 142.7 352.9 143.7 352.85 146.2 351.8 149.6 351.95 147.1 351.65 145.25 350.45 137.55 343.95 132.6 336.7 127.05 326.55 128.6 324.6 128.9 323 129.45 323.4 130.1 323.8 130.75 326.25 134.8 326.8 138.35 327.3 141.45 326.1 145.3 325.35 147.7 324.45 149.4 323.45 144.75 316.25 139.5 315 138.7 313.9 137.95 313.15 137.5 312.4 137.15 308.15 134.95 304.2 134.8 302.75 134.75 301.35 134.95 299.8 135.15 297.65 137.1 295.4 139.1 295.1 139.15 295.3 138.6 298.4 131.75 302.3 125 307.55 124.2 310.65 123.75 312.4 124.25 312.6 124.3 312.9 124.4 314.3 124.95 317.95 126.85 318.65 125.6 319.55 124.5 323.85 119.25 331.95 118 338.05 117.1 344.1 122.65 350.8 128.75 352.3 138.55
M 173.15 47.4
Q 172.55 45.25 171.85 43.7 169.1 37.6 164.4 32.75 160 28.15 156 29.15 151.8 30.25 150.15 31.35 150.5 31.8 150.8 32.25 153 35.3 153.9 38.05 154.7 40.55 154.5 43.8 154.35 45.95 153.95 47.5 153.75 47.05 153.6 46.6 147.15 29.05 139.75 31.85 133.2 34.3 131.25 38.1 130.85 38.4 130.75 38.5 130.95 38 133.3 32.55 135.9 27.75 139.45 27.35 141.45 27.1 142.7 27.5 143.45 27.75 146.55 29.45 146.9 28.6 147.35 27.9 149.5 24.65 154.25 24.15 154.75 24.05 155.35 24.1 158.3 24.3 162.15 27.35 167.3 31.45 170.45 38.35 171.95 41.6 172.2 42.4 172.85 44.45 173.15 47.4
M 106.1 157.25
L 109.85 160.1
Q 110.15 160.55 110.5 161.1 112.6 164.3 113 167.1 113.4 169.55 112.35 172.55 111.7 174.5 110.9 175.85 110.1 172.15 103.95 168.05 102.95 167.45 102.05 166.9 101.35 166.5 100.7 166.25 95.8 163.95 91.35 164.6 90.05 164.85 88.15 166.4 86.2 168 85.95 168.05 86.15 167.6 88.85 162.15 92.25 156.75 96.7 156.1 99.35 155.65 100.85 156.05 101.85 156.3 105.55 158.1 105.8 157.65 106.1 157.25 Z"/>

<path fill="#999999" stroke="none" d="
M 345.55 203
Q 340.8 203 336.8 203.9 335 204.3 333.4 204.9 345.9 205.05 358.35 205.6 351.25 203 345.55 203
M 55.85 137.05
Q 53.2 141.35 51.15 145.95 43.2 171.65 66.05 177.2 67.15 177.55 68.35 177.95 68.1 178.5 67.9 179 70 179.2 72.4 179.5 81.15 180.4 82.85 180.15 74.65 177.25 71.85 176.2 70.65 175.75 69.65 175.35 66.65 174.05 65.1 172.75 61.05 169.1 58.8 154.45 58.3 151.15 58.05 146.05 57.9 140.75 58.2 133.4 57.45 134.6 56.6 135.9 56.2 136.45 55.85 137.05
M 84.45 42.2
Q 83.7 43.1 83.15 44.15 78.55 51.6 74.95 59.65 63.15 97.8 90.65 110.4 92.05 111.05 93.65 111.65 100.1 111.45 106.45 114.2 109.95 115.7 113 118 118.65 118.6 122.5 118.9 122.7 118.5 123 118.25 123.7 117.65 124.7 117.15 114.85 113.7 110.9 112.25 108.85 111.45 107.15 110.75 101.95 108.45 92.15 102.4 82.3 96.3 78.9 79.55 75.45 62.75 82.15 50.55 88.85 38.35 87.3 37.8 85.9 39.9 84.45 42.2
M 166.15 180
Q 166.7 180 167.2 180 185 181.8 203.25 175.45 214 171.65 219.55 166.5 220.45 166.75 226.6 168.55 232.75 170.15 247.05 167.55 261.3 164.95 269.7 152.4 270.4 151.35 271.05 150.25 271.45 150.35 271.85 150.45 273.15 150.95 274.6 151.5 274.3 152.15 274.1 152.75 276.5 153.1 279.35 153.45 289.65 154.75 291.7 154.4 282 150.7 278.65 149.3 277.25 148.75 276.05 148.2 265.55 152.3 261.9 153.9 250.55 165.6 228.1 156 225.3 154.8 222.5 153.2 220.35 160.95 211.55 164.7 202.75 168.45 189.7 172.6 176.65 176.7 158.5 165.9 158.4 165.75 158.3 165.65 158.35 165.75 158.45 165.9 158.9 166.75 159.45 167.7 161.15 171.05 161.35 172.3 161.95 176.35 161.6 179.9 160.6 188.5 153.5 193.85 150.4 196.3 146.3 197.7 142.85 198.7 142.7 198.75 141.7 198.9 139.7 198.8 138 198.65 136.7 198.6 136.75 195.5 136.95 195.05
L 136.55 192.55
Q 131.85 198.45 127.75 200.9 121.8 204.5 110.65 206.2 95.85 208.45 83.3 205 80.55 204.25 77.9 203.15 73.55 201.45 70 199.2 74.05 205.1 81.6 209.4 92.25 215.4 104.25 215.2 114.45 216.25 125 212.6 131.15 210.4 134.3 207.45 134.85 207.55 138.4 208.6 141.9 209.55 150.15 208.05 158.4 206.55 163.15 199.35 168 192.05 166.3 180.8 166.25 180.4 166.15 180
M 220.55 165.5
L 220.45 165.65 220.3 165.65
Q 220.4 165.55 220.55 165.5
M 134.9 206.9
L 134.85 206.95 134.75 206.95
Q 134.85 206.9 134.9 206.9
M 262.15 94.95
Q 261.65 94.4 261.15 93.85 261.55 94.5 261.95 95.2 262 95.3 262.1 95.45 262.65 96.4 263.2 97.5 263.95 99.05 266.45 100.3 264.5 97.6 262.15 94.95
M 248.25 25.9
Q 250.9 29.15 255.45 38.9 261.4 51.65 251.25 63.2 241.05 74.75 234.2 76.95
L 235.6 78.35
Q 243.95 77.35 256.3 88.9 265.9 79.7 266.1 71.25 266.25 62.7 265.35 56.9 262.8 40.1 248.25 25.9
M 379.9 137.2
Q 380.6 138.35 381.25 139.85 383.3 144.1 383.55 145.65 386.25 163.45 374.65 172.85 371.05 175.85 366.25 177.55 362.3 178.75 362.1 178.8 360.95 179 358.55 178.85 356.55 178.7 355.05 178.6 355 174.6 355.25 174.1
L 354.75 170.9
Q 349.4 178.3 344.6 181.4 337.65 185.8 324.6 187.8 307.3 190.45 292.5 185.85 289.3 184.85 286.1 183.5 281 181.25 276.85 178.4 281.6 185.85 290.6 191.45 303.15 199.2 317.2 199.15 326.2 200.2 335.4 197.95 338.45 197.2 341.5 196.1 348.7 193.45 352.4 189.7 353 189.85 357.2 191.2 361.35 192.5 370.95 190.7 380.6 188.95 386.1 179.9 391.65 170.7 389.5 156.5 388 146.75 379.9 137.2
M 353.05 189
L 353 189.1 352.9 189.1
Q 352.95 189 353.05 189
M 369.6 86.55
Q 370.85 89 371.25 91.6 372.7 101.3 368.5 112.6 365.05 121.85 361.55 124.65
L 362.5 125.7
Q 368.15 125 376.55 133.55 383 126.9 383 120.75 383.1 114.55 382.45 110.3 380.45 97.4 369.6 86.55
M 109.85 160.1
L 106.1 157.25
Q 105.8 157.65 105.55 158.1 101.85 156.3 100.85 156.05 99.35 155.65 96.7 156.1 92.25 156.75 88.85 162.15 86.15 167.6 85.95 168.05 86.2 168 88.15 166.4 90.05 164.85 91.35 164.6 95.8 163.95 100.7 166.25 101.35 166.5 102.05 166.9 102.95 167.45 103.95 168.05 110.1 172.15 110.9 175.85 111.7 174.5 112.35 172.55 113.4 169.55 113 167.1 112.6 164.3 110.5 161.1 110.15 160.55 109.85 160.1
M 171.85 43.7
Q 172.55 45.25 173.15 47.4 172.85 44.45 172.2 42.4 171.95 41.6 170.45 38.35 167.3 31.45 162.15 27.35 158.3 24.3 155.35 24.1 154.75 24.05 154.25 24.15 149.5 24.65 147.35 27.9 146.9 28.6 146.55 29.45 143.45 27.75 142.7 27.5 141.45 27.1 139.45 27.35 135.9 27.75 133.3 32.55 130.95 38 130.75 38.5 130.85 38.4 131.25 38.1 133.2 34.3 139.75 31.85 147.15 29.05 153.6 46.6 153.75 47.05 153.95 47.5 154.35 45.95 154.5 43.8 154.7 40.55 153.9 38.05 153 35.3 150.8 32.25 150.5 31.8 150.15 31.35 151.8 30.25 156 29.15 160 28.15 164.4 32.75 169.1 37.6 171.85 43.7
M 352.9 143.7
Q 352.95 142.7 352.3 138.55 350.8 128.75 344.1 122.65 338.05 117.1 331.95 118 323.85 119.25 319.55 124.5 318.65 125.6 317.95 126.85 314.3 124.95 312.9 124.4 312.6 124.3 312.4 124.25 310.65 123.75 307.55 124.2 302.3 125 298.4 131.75 295.3 138.6 295.1 139.15 295.4 139.1 297.65 137.1 299.8 135.15 301.35 134.95 302.75 134.75 304.2 134.8 308.15 134.95 312.4 137.15 313.15 137.5 313.9 137.95 315 138.7 316.25 139.5 323.45 144.75 324.45 149.4 325.35 147.7 326.1 145.3 327.3 141.45 326.8 138.35 326.25 134.8 323.8 130.75 323.4 130.1 323 129.45 324.6 128.9 326.55 128.6 336.7 127.05 343.95 132.6 350.45 137.55 351.65 145.25 351.95 147.1 351.8 149.6 352.85 146.2 352.9 143.7 Z"/>
</g>

<g id="Duplicate_Items_Folder_5_0_Layer0_0_FILL">
<path fill="#999999" stroke="none" d="
M 24.55 70.95
Q 29 68.35 29 64.75 19.5 73.55 11.05 72.8 2.6 72.05 0 62.2 0 62.55 0 62.9 0 63.65 0.05 64.45 0.05 64.5 0.65 67.25 1.2 69.95 5.8 74.2 10.35 78.4 14.3 83.6 18.25 88.85 25 90.9 29.75 92.3 34.3 92.65
L 34.7 92.65
Q 34.7 92.7 34.65 92.75 33.9 95.25 33.65 97.6 33.05 102.9 34.9 107.55 37.3 113.75 42.65 114.9 47.95 116 54.75 116.25 61.55 116.45 64 113.4 66.45 110.3 66.6 110.1
L 66.6 110.05
Q 66.65 109.95 66.6 110.25 66.55 110.45 66.55 110.55
L 66.55 110.65
Q 66.55 113.45 70.85 115.65 75.2 117.85 79.1 117.6 83.05 117.3 87.15 114.75 89.45 115.7 91.85 116.4 97 117.8 102.85 117.8 107.75 117.8 112.2 115.45 116.4 113.25 119.65 109.3 122.5 105.85 124.2 101.6 115.45 115.7 104.65 116.5 97.45 118.4 93.25 111.75 94.85 107.95 95.05 107.5 95.45 106.5 95.65 104.7 95.75 104.1 95.75 103.4 95.75 103.25 95.8 103.1 95.05 104 94.3 104.8
L 94.65 105.15
Q 87.8 115.5 78.05 114.35 77.8 114.3 77.6 114.25 76.45 114.1 75.05 113.55 72.15 112.4 70.6 110.35
L 70.9 110.05
Q 70.45 109.6 70.05 109.05 69.3 107.8 69.2 106.25 69.25 104.8 69.25 104.6 69.2 103.6 69.2 102.95 69.2 102.4 69.25 102.1 69.3 101 69.75 100.3 69.9 100.05 70.1 99.85
L 70.05 99.5
Q 70.05 99.45 70.05 99.35 68.7 100.85 67.65 103.05 67.55 103.2 67.5 103.3 67.2 104 66.95 105.2 46.55 118.15 35.8 101.4 34.3 96.9 44.7 90.55 46.7 89.65 48.5 88.35 54.35 84 54.35 77.85 42.6 92.65 27.05 87.8 11.5 82.9 13.75 73.55 20.05 73.55 24.55 70.95
M 68.1 105.3
Q 68 105.35 67.95 105.4 68.1 105.05 68.1 105
L 68.1 105.3
M 117.65 75.2
Q 112.3 75.2 107.85 73.35 109.35 74.6 111.2 75.6 115.4 77.85 120.1 77.85 121.75 77.85 122.4 77.7 122.85 77.6 123.2 77.45 123.1 77.7 122.95 77.95 121.6 80.2 116.25 82.4 113.9 83.35 111.65 83.9 111.45 83.9 111.25 83.95 110.2 84.2 109.35 84.25 111.95 85.85 114.7 86.35 115.1 86.4 115.5 86.5 124.05 88.05 125.55 97.4 126.35 94.2 126.35 90.95 126.35 88.1 125.95 84.75 126.15 84.6 126.35 84.5 129.75 82.8 132.55 80 137.85 74.8 139.55 67.55 139.9 66 140.1 64.45 140.35 62.35 140.35 60.1 140.35 55.75 138.9 51.55 138.4 50.1 137.7 48.7 142.5 72.95 126 74 125.45 73.8 126.5 73.35 122.95 74.55 122.7 74.65 121.6 75.2 117.65 75.2
M 105.95 11.9
Q 104.55 8.25 101.95 5.25 110.95 27.5 88.4 21.3 99.25 27.3 105.7 21.95 106.3 21.4 106.9 20.8 106.95 20.6 107 20.45 107.15 20 107.15 17.7 107.15 17.6 107.15 17.5
L 107.15 17.45
Q 107.1 14.95 105.95 11.9
M 56.2 42.15
Q 52.35 42.15 50.7 44.45 50.15 45.2 49.95 46.1 49.8 46.6 49.8 46.85
L 49.8 47.65
Q 55.65 44.3 59.9 49.35 60 49.4 60 49.5 59.1783203125 50.3216796875 58.4 51.65 61.837890625 48.9 66.7 48.9 71.55 48.9 75 51.7 77.5 53.8 78.2 56.45 78.7 57.1 79.05 57.75 79.05 57.55 79.05 57.4 79.05 53 76.6 50.05 74.6 47.7 71.5 47 70.25 46.75 68.8 46.75 66.15 46.75 64.1 47.3 62.8 44.8 61 43.55 58.95 42.15 56.2 42.15
M 97.8 34.5
Q 93.75 34.5 90 36.7 86.85 33.9 81.9 33.9 76.3 33.9 73.6 36.95 71.45 39.35 71.45 43.05 71.45 45.15 71.75 45.8 73 44.35 75.75 42.7 79.85 40.3 83.8 40.3 84.8 40.3 85.8 40.55 84.15 43 85.8 45.2 86.2 43.3 88.65 42.1 88.8 42 88.95 41.95 90.85 41.25 93 41 94 40.9 95.05 40.9 100.45 40.9 104.8 43.8 105.05 43.95 105.3 44.15 109.3 46.95 109.8 50.5 110.3 44.8 108.75 41.1 108.1 39.45 107.05 38.2 103.85 34.5 97.8 34.5 Z"/>

<path fill="#FFFFFF" stroke="none" d="
M 127.15 28.3
Q 126.1 23.3 124.3 19.35 122.5 15.35 117.05 14.75 111.25 14.1 107.15 17.45
L 107.15 17.5
Q 107.15 17.6 107.15 17.7 107.15 20 107 20.45 106.95 20.6 106.9 20.8 106.3 21.4 105.7 21.95 99.25 27.3 88.4 21.3 110.95 27.5 101.95 5.25 101.9 5.2 98.35 2.1 94.85 -1.05 88.15 0.5 81.5 2.05 80.6 2.65 74.95 -1.05 70.7 0.9 66.45 2.85 63.45 6.05 60.45 9.25 58.55 13.6 57.8 15.2 57.35 16.75 57.25 17.05 57.2 17.3 57.15 17.3 57.1 17.3 48 12.4 39.7 18.6 35.05 22.1 33.9 26.7 33.35 26.65 32.75 26.65 27.55 26.65 23.85 30.25 20.25 33.8 20.15 38.8 15.15 40.5 11 43.35 6 46.85 3.2 51.45 0.5 55.9 0.1 61.1 0.05 61.65 0 62.2 2.6 72.05 11.05 72.8 19.5 73.55 29 64.75 29 68.35 24.55 70.95 20.05 73.55 13.75 73.55 11.5 82.9 27.05 87.8 42.6 92.65 54.35 77.85 54.35 84 48.5 88.35 46.7 89.65 44.7 90.55 34.3 96.9 35.8 101.4 46.55 118.15 66.95 105.2 67.2 104 67.5 103.3 67.55 103.2 67.65 103.05 68.7 100.85 70.05 99.35 70.05 99.45 70.05 99.5
L 70.1 99.85
Q 69.9 100.05 69.75 100.3 69.3 101 69.25 102.1 69.2 102.4 69.2 102.95 69.2 103.6 69.25 104.6 69.25 104.8 69.2 106.25 69.3 107.8 70.05 109.05 70.45 109.6 70.9 110.05
L 70.6 110.35
Q 72.15 112.4 75.05 113.55 76.45 114.1 77.6 114.25 77.8 114.3 78.05 114.35 87.8 115.5 94.65 105.15
L 94.3 104.8
Q 95.05 104 95.8 103.1 95.75 103.25 95.75 103.4 95.75 104.1 95.65 104.7 95.45 106.5 95.05 107.5 94.85 107.95 93.25 111.75 97.45 118.4 104.65 116.5 115.45 115.7 124.2 101.6 124.4 101.15 124.55 100.65 125.15 99.05 125.55 97.4 124.05 88.05 115.5 86.5 115.1 86.4 114.7 86.35 111.95 85.85 109.35 84.25 110.2 84.2 111.25 83.95 111.45 83.9 111.65 83.9 113.9 83.35 116.25 82.4 121.6 80.2 122.95 77.95 123.1 77.7 123.2 77.45 122.85 77.6 122.4 77.7 121.75 77.85 120.1 77.85 115.4 77.85 111.2 75.6 109.35 74.6 107.85 73.35 112.3 75.2 117.65 75.2 121.6 75.2 122.7 74.65 122.95 74.55 126.5 73.35 125.45 73.8 126 74 142.5 72.95 137.7 48.7 136.55 46.3 134.9 44.25 132.3 41 129 39.15 127.2 38.2 125.35 37.7 128.2 33.3 127.15 28.3
M 90 36.7
Q 93.75 34.5 97.8 34.5 103.85 34.5 107.05 38.2 108.1 39.45 108.75 41.1 110.3 44.8 109.8 50.5 109.3 46.95 105.3 44.15 105.05 43.95 104.8 43.8 100.45 40.9 95.05 40.9 94 40.9 93 41 90.85 41.25 88.95 41.95 88.8 42 88.65 42.1 86.2 43.3 85.8 45.2 84.15 43 85.8 40.55 84.8 40.3 83.8 40.3 79.85 40.3 75.75 42.7 73 44.35 71.75 45.8 71.45 45.15 71.45 43.05 71.45 39.35 73.6 36.95 76.3 33.9 81.9 33.9 86.85 33.9 90 36.7
M 50.7 44.45
Q 52.35 42.15 56.2 42.15 58.95 42.15 61 43.55 62.8 44.8 64.1 47.3 66.15 46.75 68.8 46.75 70.25 46.75 71.5 47 74.6 47.7 76.6 50.05 79.05 53 79.05 57.4 79.05 57.55 79.05 57.75 78.7 57.1 78.2 56.45 77.5 53.8 75 51.7 71.55 48.9 66.7 48.9 61.837890625 48.9 58.4 51.65 59.1783203125 50.3216796875 60 49.5 60 49.4 59.9 49.35 55.65 44.3 49.8 47.65
L 49.8 46.85
Q 49.8 46.6 49.95 46.1 50.15 45.2 50.7 44.45 Z"/>
</g>

<g id="symbols_transform_dancer_sport_3_Layer3_0_FILL">
<path fill="#774716" stroke="none" d="
M 237.4 356.7
Q 236.3 355.05 234.4 354.3 233.45 354.55 232.45 355.45 231.4 356.35 231.4 357
L 231.7 358.8
Q 232.6 359.7 234.4 360.3 235.85 359.7 236.7 358.5 237.4 357.5 237.4 356.7
M 244.45 289.05
Q 244.45 287.3 244.15 286.9 243.85 286.55 243.85 286.35 240.25 285.2 238.35 286.45 237.45 287.05 236.2 289.35 236.8 289.8 238.9 291.5 240.8 292.95 241.45 292.95 243.3 292.95 243.8 292.35 244.1 292.05 244.15 291.75 244.45 292.05 244.45 289.05
M 343.45 388.7
L 343.5 388.7
Q 354.55 399.15 365.7 403.6 371.45 405.85 377.25 406.65 381.55 407.1 385.9 407.1 397.3 406.7 409.2 400.25 417.3 395.85 425.5 388.7 398.4 392.9 364.5 379.4 364.2 379.2 364 379.15 341.15 370.05 315.2 352.9 321.05 362.05 326.7 369.8 328.7 372.35 330.75 374.8 337.1 382.7 343.45 388.7
M 341.75 161.55
L 342 160.55
Q 340.05 160.05 338.15 159.55 333.35 158.25 328.8 156.8
L 341.75 161.55
M 556.1 98.15
Q 555.8 96.7 555.6 95.5
L 556.7 105.45
Q 556.65 102.3 556.2 99.2 556.15 98.65 556.1 98.15 Z"/>

<path fill="#7D553B" stroke="none" d="
M 168.85 144.3
Q 168.85 146.25 169.65 146.85 169.7 146.85 171.7 147.6 174.95 146.2 180.35 144.75 184.15 143.45 184.15 141 184.15 139.25 183.85 139.1 183.55 138.95 183.55 138.75 177.85 136.55 172.85 139.95 168.85 142.65 168.85 144.3
M 169.9 109.85
Q 169.8 110 169.7 110.1 166.1 111.6 163.3 118.15 160.6 124.5 160.6 129.3 160.6 130.3 161.25 131.1 161.3 131.2 163.45 133.5 164.65 133.2 165.55 132.6 167.1 127.85 170.65 120 172.7 115.4 173.3 113.6 173.7 113.25 174 112.8 174.7 111.8 174.7 111 173.6 109.35 171.7 108.6 170.75 108.85 169.9 109.85 Z"/>

<path fill="#5A9C58" stroke="none" d="
M 201.85 108.6
Q 200.8 107 199 106.2 198.05 106.45 197.05 107.35 196 108.25 196 108.9
L 196.3 110.7
Q 197.2 111.6 199 112.2 200.35 111.6 201.15 110.4 201.85 109.4 201.85 108.6
M 191.2 43.8
Q 190.05 42.1 188.35 41.4 187.4 41.65 186.4 42.55 185.35 43.45 185.35 44.1
L 185.65 45.9
Q 186.55 46.65 188.35 47.25 189.7 46.65 190.5 45.55 191.2 44.6 191.2 43.8
M 604.75 142.95
Q 603.65 141.3 601.75 140.55 600.85 140.8 599.8 141.65 598.75 142.55 598.75 143.1
L 599.05 144.9
Q 599.95 145.8 601.75 146.4 603.2 145.8 604.05 144.7 604.75 143.75 604.75 142.95
M 486.85 4.5
Q 487.75 5.4 489.55 6 491 5.4 491.85 4.2 492.55 3.2 492.55 2.4 491.45 0.75 489.55 0 488.6 0.25 487.6 1.15 486.55 2.05 486.55 2.7
L 486.85 4.5
M 602.65 68.25
Q 603.55 69.15 605.35 69.75 606.7 69.15 607.5 67.95 608.2 66.95 608.2 66.15 607.25 64.75 605.35 63.9 604.4 64.15 603.4 64.95 602.35 65.8 602.35 66.45
L 602.65 68.25
M 556.7 105.45
Q 555.3 107.85 553.85 110.15 553.5 122.95 550.05 133.25 549.1 136.15 547.9 138.75 555 127 556.4 113.5 556.5 112.6 556.55 111.75 556.85 108.55 556.7 105.45
M 464.2 176.6
Q 462.25 177.25 460.25 177.85 402.55 195.3 321.75 185.8 345.75 192.8 374.05 195.5 427.3 200.45 471.3 187.6 471.95 187.35 472.6 187.05 480.7 183.6 486.9 179.55
L 467.05 179.55
Q 465.05 178.9 464.95 178.8 464.25 178.25 464.2 176.6
M 502.45 163.8
Q 503.85 161.35 505.35 157.8 490.55 166.95 473.1 173.5
L 494.85 173.35
Q 499.6 168.85 502.45 163.8
M 548.35 118.7
Q 548.35 118.5 548.35 118.3 542.65 126 535.9 133.15 527.1 142.3 516.8 150 515.95 152.05 515.35 153.5 514.6 155.2 514.2 156.1 511.65 161.85 508.85 167.2 508.2 168.35 507.55 169.5 506.5 171.45 505.25 173.25
L 506.35 173.25
Q 520.45 162.35 528.2 156.25 524.7 157.05 520.75 157.05 518.75 157.05 517.8 156.65 517.25 156.4 516.4 155.55
L 516.1 153.75
Q 540.95 140.15 546.15 129.2 548.2 124.8 548.35 118.7 Z"/>

<path fill="#1E1E1E" stroke="none" d="
M 382.35 442.3
L 378.1 441.6
Q 359.55 440.5 346.05 436.6 345.1 436.25 344.2 436
L 341.1 435.5 339.15 435.2
Q 338.4 435 337.85 434.9 338.7 443.9 348.5 452.7 375.45 477.45 387.15 504.85 395.1 522.85 395.6 540.95
L 404.25 504.2
Q 406.25 495.4 401.3 482.45 399.2 477.1 392.35 463.85 392.05 463.05 391.6 462.3 385.9 451.4 384.9 446.5 383.9 444.95 383.1 443.65 382.7 442.95 382.35 442.3 Z"/>

<path fill="#653B10" stroke="none" d="
M 307.55 399.45
L 310.7 407
Q 315.3 416.05 323.05 423.3 329.15 429.05 336.65 433.25 337.75 433.85 338.85 434.4 339.95 434.95 341.1 435.5
L 344.2 436
Q 345.1 436.25 346.05 436.6 359.55 440.5 378.1 441.6
L 382.35 442.3
Q 382.7 442.95 383.1 443.65 388.05 443.6 393.35 443.2 396.55 438.8 398.75 434.45 401.95 427.7 399.25 426.3 391.8 427.05 384.95 428.1 383.15 428.9 380.55 429.55 380.2 429.65 379.9 429.7 378.45 430 376.85 430.25 372.75 430.95 368.7 431.05 362.6 431.15 356.7 429.8 346.25 427.45 337.1 421.2 321.45 410.5 310 388.15 306.2 391.85 307.55 399.45
M 530.4 182.05
Q 539.65 182.7 539.15 195.6
L 537.25 215
Q 529.8 209.15 529.5 213.6 529 221.1 526.45 228.3 544.9 217.65 546.55 216.75 546.6 216.8 547.65 217.1 548.05 217.2 548.05 219 548.05 223.5 530.3 234.4 530.2 234.45 530.15 234.5 525.9 237.1 520.6 240.1 520.15 240.75 519.7 241.45 491.45 284.25 394.8 299.1 377.35 301.8 359.6 301.95 340.6 302.05 321.2 299.2 340.4 304.7 358.5 307.75 359.25 307.85 360 308 367.6 309.3 375 310.1 375.05 310.1 375.05 310.15 391.85 312 407.55 311.8 429.75 311.5 449.95 306.9 482.4 299.65 509.35 281.6 511.55 280.1 513.7 278.55
L 513.6 278.5
Q 518.7 274.95 523.35 271 524 270.55 524.55 270.05 537.15 259.5 547.9 246.75 554.8 238.55 560.95 229.55 566.65 221.2 571.55 212 571.5 209.9 571.2 208.15 571.1 207.25 570.85 206.3 565.2 182.35 530.4 182.05 Z"/>

<path fill="#6B8BC9" stroke="none" d="
M 320.8 336.5
Q 315 332.2 309.85 327.5
L 309.8 327.45 309.8 327.5 311.4 334.9
Q 315.85 335.75 320.8 336.5
M 247.5 189.25
L 249.15 187.1
Q 236.5 178.1 227.45 160.15 232.5 176.8 247.5 189.25
M 341.75 161.55
L 328.8 156.8
Q 325.9 155.85 323.2 154.8 322.6 154.55 322.15 154.35 321 153.95 319.95 153.6
L 319.15 157.45
Q 328.7 159.3 341.75 161.55 Z"/>

<path fill="#E5E5E5" stroke="none" d="
M 303.05 276.25
Q 301.45 275.45 299.75 274.65 300.2 275.3 300.8 276.15 301.4 276.95 302.25 277.8
L 303.05 276.25 Z"/>

<path fill="#6B6B6B" stroke="none" d="
M 323.8 150.8
Q 321.85 152.15 319.95 153.6 321 153.95 322.15 154.35 322.6 154.55 323.2 154.8
L 323.25 154.75 323.8 150.8 Z"/>

<path fill="#833E77" stroke="none" d="
M 320.05 92.3
L 320.05 92.25
Q 320 90.95 319.75 90.8 319.45 90.65 319.45 90.45 318.9 90.45 318.3 90.5 317.75 90.1 317.05 89.85 315.7 89.95 315.1 90.2 314.2 90.6 314.1 92 311.2 93.7 308.35 97.3 304.65 102 303.8 105.3 303.55 106.25 303.55 107.1 303.55 109.1 303.8 109.8 304.35 111.4 306.4 112.2 307.1 111.9 308.25 111.25 309.1 110.7 309.4 110.7 309.55 106.8 314.85 100.95 315.85 99.85 316.65 98.9 320.05 94.75 320.05 92.7 320.05 92.5 320.05 92.3
M 460 237.05
Q 461.9 236 463.65 235.3 474.4 230.15 484.95 224.15 472.1 224.55 460.05 224.9 399.95 226.4 356.5 222.4 279.45 215.5 247.5 189.25 232.5 176.8 227.45 160.15 226.9 159.05 226.4 157.95 212.8 172.7 214.65 187.55 214.95 189.75 215.6 191.95 217.85 199.65 224.7 207.8 202.7 224.4 203.4 238.8 203.7 244.9 208 249.7
L 212.25 253.4
Q 238.25 267.45 262.85 278.15 277.2 284.3 290.95 289.35 291.65 289.55 292.15 289.85 307 295.2 321.2 299.2 340.6 302.05 359.6 301.95 377.35 301.8 394.8 299.1 491.45 284.25 519.7 241.45
L 519.35 240.8
Q 518.85 241.05 518.3 241.35 497.8 252.75 480.7 260.25 477.65 261.6 474.7 262.8 472.15 263.85 469.65 264.85 453.75 271.15 441.4 274.4 418.55 280.35 389.3 282.25 375.15 284.3 359.75 285.65 357.5 285.7 355.35 285.95 337.05 285.15 323.05 282.3
L 321.85 282.3
Q 320.15 281.75 319.8 281.6 310.35 279.45 303.05 276.25
L 302.25 277.8
Q 301.4 276.95 300.8 276.15 300.2 275.3 299.75 274.65
L 294.45 250.15
Q 326.1 260.35 358.45 260.6 368.05 260.5 377.8 259.65 418.4 256.05 460 237.05
M 496.8 106.8
L 496.9 106.85
Q 497 105.05 497 103.25 496.9 99.95 496.6 96.55 494.75 79.1 484.15 59.25 478.9 49.3 473.9 42.8 461.2 26.25 432.05 17.2 426.9 15.55 421.3 14.2
L 417.35 15.05
Q 395.8 13.25 376.75 13.75
L 376.75 15.85 376.85 20.75 376.35 13.8
Q 346.9 14.7 323.4 21.35 311.05 24.9 300.55 29.95 300.4 30.05 300.25 30.1 300.2 30.1 300.2 30.15 298.85 30.75 297.55 31.5 297.45 31.5 297.4 31.55
L 297.35 31.55
Q 297.25 31.6 297.1 31.65 283.2 38.9 272.7 48.85 258.75 62.15 252.05 78.95 249.95 84.2 248.8 89.2
L 248.05 93.15
Q 249.3 122.9 271.95 139.75 282.65 147.65 297.85 152.5 297.9 152.5 298 152.55 304.3 154.55 319.15 157.45
L 319.95 153.6
Q 321.85 152.15 323.8 150.8 345.45 136.55 379 138.2 416.6 139.8 435.45 152 439.55 154.65 443.2 158.05 450.55 155.7 457.35 152.55 458.05 152.2 458.65 151.9 466.85 148 473.1 143.65 471.55 141.3 469.65 139.3 461.7 130.15 450.25 124.45 426.35 112.3 378.5 111.6 336.95 110.8 309.7 125.8 299.7 131.4 293 138.8 285.9 133.7 280.85 128.35 270.9 117.9 268.1 105.85 270 96.6 277.55 87.95 285.4 78.8 298.45 71.7 318.1 61 344.65 56.75 349.75 55.9 355.15 55.35 353.1 56.05 345.2 59.9 337.75 63.5 325.05 69.9 298.9 83.05 301.2 85.15 302.95 86.75 311.7 82.8 314.3 81.6 317.55 79.95 331.55 72.6 345.4 60.35 354.2 60.4 373.65 55.15 375.4 54.7 378.75 53.9 432.1 52.75 459.1 64.2 472.25 69.55 481.4 78.8 481.55 78.9 481.65 78.9 489.9 86.9 496.7 99.7 496.9 101.45 496.9 103.25 496.9 105 496.8 106.8
M 374.6 36.05
L 374.7 35.6
Q 376 35.75 377.35 36.1 376 36.05 374.6 36.05
M 303.05 35.05
Q 301.4 35.25 299.6 35.55
L 303 34.9 303.05 35.05 Z"/>

<path fill="#FFFFFF" stroke="none" d="
M 296.25 25.05
Q 296.1 25 296.05 25.05
L 297.2 31.2 296.25 25.25 302.05 23.5
Q 299.1 24.1 296.25 25.05
M 376.75 13.75
L 376.75 13 376.65 13 376.75 15.85 376.75 13.75
M 374.7 35.6
L 374.6 36.05
Q 376 36.05 377.35 36.1 376 35.75 374.7 35.6 Z"/>

<path fill="#95B0E4" stroke="none" d="
M 520.6 240.1
Q 520 240.4 519.35 240.8
L 519.7 241.45
Q 520.15 240.75 520.6 240.1
M 477.55 253.25
Q 475.1 254.8 472.45 256.3 470 257.7 467.45 259.05 472.85 256.8 478.2 254.35
L 477.55 253.25
M 328.8 156.8
Q 333.35 158.25 338.15 159.55 340.05 160.05 342 160.55 356.95 164.1 374 165.4 408.55 167.9 436.95 159.9 439.6 159.2 442.1 158.35 442.65 158.2 443.2 158.05 439.55 154.65 435.45 152 416.6 139.8 379 138.2 345.45 136.55 323.8 150.8
L 323.25 154.75 323.2 154.8
Q 325.9 155.85 328.8 156.8
M 345.2 59.9
Q 353.1 56.05 355.15 55.35 349.75 55.9 344.65 56.75
L 345.2 59.9 Z"/>

<path fill="#333333" stroke="none" d="
M 326.7 369.8
L 327.15 384.85
Q 325.5 384.65 323.85 384.55 313.9 384.05 310 388.15 321.45 410.5 337.1 421.2 346.25 427.45 356.7 429.8 362.6 431.15 368.7 431.05 372.75 430.95 376.85 430.25 378.45 430 379.9 429.7 380.2 429.65 380.55 429.55 383.15 428.9 384.95 428.1 391.8 427.05 399.25 426.3 398.45 425.9 397.1 425.95 394.05 426.05 396.7 421.8 401.1 415.8 403.65 412.25 408.45 405.7 409.1 402.2 409.35 401.15 409.2 400.25 397.3 406.7 385.9 407.1 381.55 407.1 377.25 406.65 371.45 405.85 365.7 403.6 354.55 399.15 343.5 388.7
L 343.45 388.7
Q 337.1 382.7 330.75 374.8 328.7 372.35 326.7 369.8
M 326.8 342.4
L 324.85 342.9 313.1 342.9 315.2 352.9
Q 341.15 370.05 364 379.15 364.2 379.2 364.5 379.4 398.4 392.9 425.5 388.7
L 425.7 372.5
Q 427.1 372.2 428.3 372.2 441.7 370.75 451.65 366.55 457.2 363.3 461.45 360.05 480.5 345.25 473.45 332.3 470.45 326.7 463.35 323.1 462.05 322.3 461 321.85 460.55 321.65 460.15 321.5 450.2 322.55 440 324.2
L 419.95 328.05
Q 359.5 333.3 321.45 329.1 315.35 328.4 309.85 327.5 315 332.2 320.8 336.5 322.75 336.8 324.85 337.05 325.6 337.35 326.9 337.6 327.85 338 327.85 339.9 327.85 340.75 327.65 341.35 327.4 342.05 326.8 342.4
M 507.8 183.9
L 507.75 183.95 509.75 199.1
Q 517.55 228.15 477.55 253.25
L 478.2 254.35
Q 492.7 247.65 512.95 236 520.55 231.65 526.45 228.3 529 221.1 529.5 213.6 529.8 209.15 537.25 215
L 539.15 195.6
Q 539.65 182.7 530.4 182.05 529.4 182.05 528.4 182.05 519.1 182.15 507.8 183.9
M 496.8 106.8
Q 496.9 105 496.9 103.25 496.9 101.45 496.7 99.7 489.9 86.9 481.65 78.9 481.55 78.9 481.4 78.8 472.25 69.55 459.1 64.2 432.1 52.75 378.75 53.9 375.4 54.7 373.65 55.15 354.2 60.4 345.4 60.35 331.55 72.6 317.55 79.95 314.3 81.6 311.7 82.8 302.95 86.75 301.2 85.15 298.9 83.05 325.05 69.9 337.75 63.5 345.2 59.9
L 344.65 56.75
Q 318.1 61 298.45 71.7 285.4 78.8 277.55 87.95 270 96.6 268.1 105.85 270.9 117.9 280.85 128.35 283.05 123.75 286.7 119.45 293.4 111.5 303.8 105.3 304.65 102 308.35 97.3 311.2 93.7 314.1 92 314.2 90.6 315.1 90.2 315.7 89.95 317.05 89.85 317.75 90.1 318.3 90.5 318.9 90.45 319.45 90.45 319.45 90.65 319.75 90.8 320 90.95 320.05 92.25
L 320.05 92.3
Q 320.05 92.5 320.05 92.7 320.05 94.75 316.65 98.9 342.1 88.3 377.8 88.4 427.8 88.3 452.75 100.3 464.8 106 473.05 115.15 479.9 122.3 485.45 133.2 496 121.4 496.8 106.8 Z"/>

<path fill="#38D4B1" stroke="none" d="
M 375.05 310.15
Q 375.05 310.1 375 310.1 367.6 309.3 360 308 359.25 307.85 358.5 307.75 340.4 304.7 321.2 299.2 307 295.2 292.15 289.85 291.65 289.55 290.95 289.35 277.2 284.3 262.85 278.15 260.8 283.2 260.2 287.9 258.65 283.95 257.95 284.2 256.9 284.65 256.9 293.25 256.9 306.75 269.15 320.7 283.55 337.1 307.15 342.9
L 313.1 342.9 324.85 342.9 326.8 342.4
Q 327.4 342.05 327.65 341.35 327.85 340.75 327.85 339.9 327.85 338 326.9 337.6 325.6 337.35 324.85 337.05 322.75 336.8 320.8 336.5 315.85 335.75 311.4 334.9 289.8 330.65 279.65 323.2 275.05 319.85 272 315.2 271.35 314 270.75 313 281 321.2 301 325.75 305.25 326.65 309.8 327.5
L 309.8 327.45 309.85 327.5
Q 315.35 328.4 321.45 329.1 359.5 333.3 419.95 328.05
L 440 324.2
Q 450.2 322.55 460.15 321.5 474.1 319.95 487.3 319.65
L 498.7 318.6
Q 512.1 316.4 522.55 310.5 554.4 292.3 547.9 246.75 537.15 259.5 524.55 270.05 524 270.55 523.35 271 518.7 274.95 513.6 278.5
L 513.7 278.55
Q 511.55 280.1 509.35 281.6 482.4 299.65 449.95 306.9 429.75 311.5 407.55 311.8 391.85 312 375.05 310.15
M 579.85 91.65
Q 579.85 79.15 569.55 98.85 566.9 103.9 562.25 114.25 559.85 119.6 556.9 126.3 554.55 131.65 547.9 138.75 549.1 136.15 550.05 133.25 553.5 122.95 553.85 110.15 555.3 107.85 556.7 105.45
L 555.6 95.5
Q 553.75 86.2 548.95 77.5 546.35 71.95 542.35 64.2 539.65 60.8 537.2 53.9 533.45 43.4 533.05 42.45 527.25 29.5 513.7 29.85
L 514 31.65
Q 524.7 44.6 531.95 56.4 520.25 45.65 503.05 36 500.55 34.55 498.05 33.35 482.25 24.95 464.85 19.25 448.3 15.95 432.55 15.3 426.9 14.65 421.3 14.2 426.9 15.55 432.05 17.2 461.2 26.25 473.9 42.8 478.9 49.3 484.15 59.25 494.75 79.1 496.6 96.55 496.9 99.95 497 103.25 497 105.05 496.9 106.85
L 496.8 106.8
Q 496 121.4 485.45 133.2 484.2 134.55 482.85 135.9 478.6 139.9 473.1 143.65 466.85 148 458.65 151.9 458.05 152.2 457.35 152.55 450.55 155.7 443.2 158.05 442.65 158.2 442.1 158.35 439.6 159.2 436.95 159.9 408.55 167.9 374 165.4 356.95 164.1 342 160.55
L 341.75 161.55
Q 328.7 159.3 319.15 157.45 304.3 154.55 298 152.55 297.9 152.5 297.85 152.5 282.65 147.65 271.95 139.75 249.3 122.9 248.05 93.15
L 248.8 89.2
Q 249.95 84.2 252.05 78.95 258.75 62.15 272.7 48.85 283.2 38.9 297.1 31.65 297.25 31.6 297.35 31.55
L 297.4 31.55
Q 297.45 31.5 297.55 31.5 298.85 30.75 300.2 30.15 300.2 30.1 300.25 30.1 300.4 30.05 300.55 29.95 311.05 24.9 323.4 21.35 346.9 14.7 376.35 13.8
L 376.3 13.05
Q 348.65 13.85 322.85 18.85 322.6 18.85 322.35 18.9 312.05 20.8 302.05 23.5
L 296.25 25.25 297.2 31.2 296.05 25.05
Q 285.2 28.2 275.85 32 268.05 35.15 261.3 38.75 245.65 47.1 239.75 56 223.3 75.1 224.6 98.55 224.95 107.2 227.7 115.15
L 227.1 142.85
Q 223.95 135 223.75 134.55 216.3 118.3 218.5 105.45 218.5 101.5 218.35 98.8 217.8 90.3 215.5 94.25 214.4 96.2 213.45 100.25 212.5 104.2 212.5 106.8 212.95 112.2 214.55 120.55 217.75 137.3 223.45 151.25 224.85 154.75 226.4 157.95 226.9 159.05 227.45 160.15 236.5 178.1 249.15 187.1
L 247.5 189.25
Q 279.45 215.5 356.5 222.4 399.95 226.4 460.05 224.9 472.1 224.55 484.95 224.15 474.4 230.15 463.65 235.3 461.9 236 460 237.05 418.4 256.05 377.8 259.65 368.05 260.5 358.45 260.6 326.1 260.35 294.45 250.15
L 299.75 274.65
Q 301.45 275.45 303.05 276.25 310.35 279.45 319.8 281.6 320.15 281.75 321.85 282.3
L 323.05 282.3
Q 337.05 285.15 355.35 285.95 357.5 285.7 359.75 285.65 375.15 284.3 389.3 282.25 418.55 280.35 441.4 274.4 453.75 271.15 469.65 264.85 472.15 263.85 474.7 262.8 477.65 261.6 480.7 260.25 497.8 252.75 518.3 241.35 518.85 241.05 519.35 240.8 520 240.4 520.6 240.1 525.9 237.1 530.15 234.5 530.2 234.45 530.3 234.4 548.05 223.5 548.05 219 548.05 217.2 547.65 217.1 546.6 216.8 546.55 216.75 544.9 217.65 526.45 228.3 520.55 231.65 512.95 236 492.7 247.65 478.2 254.35 472.85 256.8 467.45 259.05 470 257.7 472.45 256.3 475.1 254.8 477.55 253.25 517.55 228.15 509.75 199.1
L 507.75 183.95 507.2 179.3
Q 515.15 177.8 526.75 168 538.6 158.05 551.4 142.05 563.45 127.05 571.55 112.9 579.85 98.35 579.85 91.65
M 548.35 118.3
Q 548.35 118.5 548.35 118.7 548.2 124.8 546.15 129.2 540.95 140.15 516.1 153.75
L 516.4 155.55
Q 517.25 156.4 517.8 156.65 518.75 157.05 520.75 157.05 524.7 157.05 528.2 156.25 520.45 162.35 506.35 173.25
L 505.25 173.25
Q 506.5 171.45 507.55 169.5 508.2 168.35 508.85 167.2 511.65 161.85 514.2 156.1 514.6 155.2 515.35 153.5 515.95 152.05 516.8 150 527.1 142.3 535.9 133.15 542.65 126 548.35 118.3
M 505.35 157.8
Q 503.85 161.35 502.45 163.8 499.6 168.85 494.85 173.35
L 473.1 173.5
Q 490.55 166.95 505.35 157.8
M 460.25 177.85
Q 462.25 177.25 464.2 176.6 464.25 178.25 464.95 178.8 465.05 178.9 467.05 179.55
L 486.9 179.55
Q 480.7 183.6 472.6 187.05 471.95 187.35 471.3 187.6 427.3 200.45 374.05 195.5 345.75 192.8 321.75 185.8 402.55 195.3 460.25 177.85 Z"/>

<path fill="#CCCCCC" stroke="none" d="
M 473.1 143.65
Q 478.6 139.9 482.85 135.9 484.2 134.55 485.45 133.2 479.9 122.3 473.05 115.15 464.8 106 452.75 100.3 427.8 88.3 377.8 88.4 342.1 88.3 316.65 98.9 315.85 99.85 314.85 100.95 309.55 106.8 309.4 110.7 309.1 110.7 308.25 111.25 307.1 111.9 306.4 112.2 304.35 111.4 303.8 109.8 303.55 109.1 303.55 107.1 303.55 106.25 303.8 105.3 293.4 111.5 286.7 119.45 283.05 123.75 280.85 128.35 285.9 133.7 293 138.8 299.7 131.4 309.7 125.8 336.95 110.8 378.5 111.6 426.35 112.3 450.25 124.45 461.7 130.15 469.65 139.3 471.55 141.3 473.1 143.65 Z"/>

<path fill="#AAC3F5" stroke="none" d="
M 376.3 13.05
L 376.35 13.8 376.85 20.75 376.75 15.85 376.65 13
Q 376.45 13.05 376.3 13.05 Z"/>

<path fill="#9EB7E8" stroke="none" d="
M 417.35 15.05
L 421.3 14.2
Q 398.55 12.25 376.75 13
L 376.75 13.75
Q 395.8 13.25 417.35 15.05 Z"/>

<path fill="#EFEFEF" stroke="none" d="
M 299.6 35.55
Q 301.4 35.25 303.05 35.05
L 303 34.9 299.6 35.55 Z"/>
</g>

<g id="symbols_transform_dancer_sport_3_Layer2_0_FILL">
<path fill="#CCCCCC" stroke="none" d="
M 217.45 191.8
Q 214.9 185.25 214.9 197.7
L 214.7 206.5
Q 219.95 212.35 223.15 219 233.75 240.9 245.05 240.9 246.9 240.9 247.6 240.05 248.05 239.5 249.1 237.3 235.6 231.95 230.6 223.75 228.95 221 224.2 216.95 219.45 212.85 219.7 205.6 219.95 198.3 217.45 191.8
M 581.05 213.9
Q 569.25 231.1 569.3 234.7 569.35 238.3 564.65 244.9 559.95 251.5 549.4 258.7 538.8 265.9 525.8 270.85 522.3 272.15 517.95 273.25 514.9 274 514.9 274.2 514.9 276.15 515.75 276.75 515.8 276.8 517.9 277.5 549.5 265.7 569.95 239.1 573.8 234.05 585.3 216.8 586.95 214.35 588.7 211.4 589.9 206.4 589.9 204.9 589.9 203.5 589.75 202.3 585.55 207.3 581.05 213.9 Z"/>
</g>

<g id="symbols_transform_dancer_sport_3_Layer1_0_FILL">
<path fill="#7C563A" stroke="none" d="
M 293.2 74.3
Q 295.5 72.55 296.3 71.85 296.55 71.6 296.75 71.4
L 293.2 74.3
M 346.8 182.95
Q 344.65 180.7 342.3 179.85 286.25 178 266.15 156.35 259.15 148.8 256.75 139 255.45 133.65 255.45 125.6 255.45 114.15 255.5 113.3 255.6 111.65 255.75 110.05 256.2 111.35 256.7 112.65 265.55 135.5 286.2 135.5 288.8 135.5 289.75 134 290.25 133.2 290.5 131.6 272.4 118.5 266.35 109.75 261.75 103.1 260.85 93.95 255.3 74.3 274.45 69.1 258 70.45 253.85 75.4 251.95 77.7 251.75 81.7 251.95 86.6 251.95 89.35 251.95 90.3 252.05 91.2 251.8 91.7 251.55 92.15 247.8 99.85 246.9 110.3 246.6 113.65 246.6 125.6 246.6 136.7 248.25 142.95 250.6 151.7 257.25 158.5 272.6 174.15 321.25 187.7
L 342.3 187.7
Q 345.7 185.2 346.8 182.95
M 486.8 113.1
Q 486.25 112.85 486.25 112.6 481.05 113.7 476.65 120.65 469.45 132.2 467.15 134.8 449.75 154.25 402.1 154.25 396.75 151.95 390.9 149.65 379.25 145 375.7 145 373.75 145 372.7 146.9 371.8 149.25 371.35 150.15 373 152.55 381.2 155.3 385.55 156.75 392 158.6 383.3 157.8 380 161.2 378.4 162.85 378.4 165.2 378.4 166.8 380.95 168.85 384.2 171.5 384.55 172
L 433.65 172
Q 464.95 167.9 478.1 148.9 487.3 135.65 487.3 115.7 487.3 113.3 486.8 113.1
M 471.9 139.3
Q 470.6 142.95 469.3 145.65 466.5 151.45 460.05 153.85 463.55 152.25 466.9 147.05 468.65 144.35 471.9 139.3
M 423.55 163.15
L 430.15 162.5
Q 435.1 161.3 447.25 161.3
L 442.95 162.1
Q 439.4 162.85 436.25 163.1 431.7 163.4 423.55 163.15 Z"/>

<path fill="#754F34" stroke="none" d="
M 390.35 339.8
Q 391.3 340.95 393.25 342.6
L 444.15 342.6
Q 449.9 340.65 466.85 335.55 472.75 333.8 477.55 332.3 441.8 353.1 366 356 366.95 358.5 370.35 361.55
L 439 361.55
Q 445.2 360.5 458.4 353.1 470.8 346.15 484.45 336.5 494.15 329.6 501.4 323.55 515.35 316.9 515.35 310.6 515.35 310.1 515.15 309.7 517 306.95 517 305.25 517 302.8 516.6 302.65 516.15 302.5 516.15 302.35 513.65 303.2 510.7 305.25 512.65 303.4 517.1 299.8 522.55 295.4 524 293.5
L 521.95 291.2
Q 511.8 292.05 500.8 302.7 494.8 308.85 491.65 311.85 486.15 317.2 481.5 320.1 472.15 325.95 466 328.25 459.9 330.6 451.2 331.55 422.75 333.2 388.9 337 389.35 338.5 390.35 339.8 Z"/>
</g>

<path id="grid_0_Layer0_0_1_STROKES" stroke="#444444" stroke-width="1" stroke-linejoin="round" stroke-linecap="round" fill="none" d="
M 527 31
L 558 31 558 0 527 0 527 31 527 62 558 62 558 31
M 527 0
L 496 0 496 31 527 31
M 496 62
L 496 93 527 93 527 62 496 62 496 31 465 31 465 62 496 62 Z
M 558 93
L 527 93 527 124 558 124 558 93 558 62
M 496 155
L 496 186 527 186 527 155 496 155 496 124 465 124 465 155 496 155 Z
M 527 124
L 527 155 558 155 558 124
M 527 186
L 558 186 558 155
M 527 124
L 496 124 496 93 465 93 465 124 434 124 434 155 465 155 465 186 496 186 496 217 527 217 527 186
M 465 31
L 465 0 434 0 434 31 465 31 Z
M 434 62
L 434 93 465 93 465 62 434 62 434 31 403 31 403 62 434 62 Z
M 372 31
L 372 0 341 0 341 31 372 31 403 31 403 0 372 0
M 341 62
L 341 93 372 93 372 62 341 62 341 31 310 31 310 62 341 62 Z
M 372 93
L 403 93 403 62 372 62 372 31
M 403 124
L 372 124 372 155 403 155 403 124 403 93 434 93 434 124 403 124 Z
M 341 155
L 341 186 372 186 372 155 341 155 341 124 310 124 310 155 341 155 Z
M 403 186
L 372 186 372 217 403 217 403 186 403 155 434 155 434 186 465 186 465 217 496 217 496 248 527 248 527 217 558 217 558 186
M 341 93
L 341 124 372 124 372 93
M 403 217
L 434 217 434 186 403 186
M 403 0
L 434 0
M 434 248
L 434 279 465 279 465 248 434 248 434 217 465 217 465 248 496 248 496 279 527 279 527 248 558 248 558 217
M 341 248
L 341 279 372 279 372 248 341 248 341 217 310 217 310 248 341 248 Z
M 434 248
L 403 248 403 279 434 279 434 310 465 310 465 279 496 279 496 310 527 310 527 279 558 279 558 248
M 403 279
L 372 279 372 310 403 310 403 279 Z
M 403 248
L 372 248 372 217 341 217 341 186 310 186 310 217 279 217 279 248 310 248 310 279 341 279 341 310 372 310 372 341 403 341 403 310 434 310 434 341 465 341 465 310 496 310 496 341 527 341 527 310 558 310 558 279
M 403 217
L 403 248
M 341 310
L 341 341 372 341 372 372 403 372 403 341 434 341 434 372 465 372 465 341 496 341 496 372 527 372 527 341 558 341 558 310
M 341 341
L 341 372 372 372 372 403 403 403 403 372 434 372 434 403 465 403 465 372 496 372 496 403 527 403 527 372 558 372 558 341
M 465 0
L 496 0
M 341 0
L 310 0 310 31 279 31 279 62 310 62 310 93 341 93
M 279 0
L 248 0 248 31 279 31 279 0 310 0
M 248 31
L 248 62 279 62 279 93 310 93 310 124 279 124 279 155 310 155 310 186 279 186 279 217 248 217 248 248 279 248 279 279 310 279 310 310 341 310
M 248 62
L 248 93 279 93 279 124 248 124 248 155 279 155 279 186 248 186 248 217 217 217 217 248 248 248 248 279 279 279 279 310 310 310 310 341 341 341
M 248 0
L 217 0 217 31 248 31
M 186 31
L 186 0 155 0 155 31 186 31 217 31 217 62 248 62
M 186 93
L 186 62 155 62 155 93 186 93 217 93 217 62 186 62 186 31
M 186 0
L 217 0
M 186 186
L 186 155 155 155 155 186 186 186 217 186 217 155 186 155 186 124 155 124 155 155 124 155 124 186 155 186 155 217 186 217 186 186 Z
M 217 155
L 217 124 186 124 186 93
M 248 155
L 248 186 217 186 217 217 186 217 186 248 217 248 217 279 248 279 248 310 279 310 279 341 310 341 310 372 341 372 341 403 372 403
M 217 124
L 248 124 248 93 217 93 217 124 Z
M 248 155
L 217 155
M 155 0
L 124 0 124 31 155 31 155 62 124 62 124 93 155 93 155 124 124 124 124 155 93 155 93 186 124 186 124 217 155 217 155 248 186 248 186 279 217 279 217 310 248 310 248 341 279 341 279 372 310 372 310 403 341 403
M 93 31
L 93 0 62 0 62 31 93 31 124 31 124 62 93 62 93 93 124 93 124 124 93 124 93 155 62 155 62 186 93 186 93 217 124 217 124 248 155 248 155 279 186 279 186 310 217 310 217 341 248 341 248 372 279 372 279 403 310 403
M 62 31
L 62 62 93 62 93 31
M 93 0
L 124 0
M 279 403
L 248 403 217 403 186 403 155 403 124 403 93 403 62 403 31 403 0 403 0 372 0 341 0 310 0 279 0 248 0 217 0 186 0 155 0 124 0 93 0 62 0 31 0 0 31 0 62 0
M 0 62
L 31 62 31 31 0 31
M 31 0
L 31 31 62 31
M 0 93
L 31 93 31 62 62 62 62 93 93 93 93 124 62 124 62 155 31 155 31 186 62 186 62 217 93 217 93 248 124 248 124 279 155 279 155 310 186 310 186 341 217 341 217 372 248 372 248 403
M 62 93
L 31 93 31 124 62 124 62 93 Z
M 0 124
L 31 124 31 155 0 155
M 0 217
L 31 217 31 186 0 186
M 93 279
L 93 248 62 248 62 279 93 279 124 279 124 310 155 310 155 341 186 341 186 372 217 372 217 403
M 0 279
L 31 279 31 248 0 248
M 62 217
L 31 217 31 248 62 248 62 217 Z
M 62 279
L 31 279 31 310 62 310 62 279 Z
M 62 310
L 62 341 93 341 93 310 62 310 Z
M 0 372
L 31 372 31 341 0 341
M 0 310
L 31 310 31 341 62 341 62 372 93 372 93 341 124 341 124 310 93 310 93 279
M 62 403
L 62 372 31 372 31 403
M 155 341
L 124 341 124 372 155 372 155 341 Z
M 124 403
L 124 372 93 372 93 403
M 155 372
L 186 372 186 403
M 558 372
L 558 403 527 403
M 434 403
L 403 403
M 496 403
L 465 403
M 155 372
L 155 403"/>

<path id="Layer3_0_1_STROKES" stroke="#00CCCC" stroke-width="1" stroke-linejoin="round" stroke-linecap="round" fill="none" d="
M 87.6 36.35
Q 90.7 31.5 92.5 29.5 93.85 28.15 94.5 26.85 94.5 26.8 94.8 25.9 95 25.3 95.25 25 95.7 24.65 96.85 24.35 98.7 24.15 99.35 24.5 100.1 24.9 100.5 25.5 101.1 26.35 101.35 27 101.6 27.75 101.6 29.35
L 101.6 34.75
Q 101.35 37.65 101.1 38.5 100.9 39.05 100.35 39.95 99.8 40.9 99.6 41.35 99.25 42.25 99 42.5 98.1 43.1 97.85 43.5 97.6 44.5 97.35 45 97.0052734375 45.56015625 95.875 46.15 96.530859375 46.4576171875 97.5 46.7 99.4 47.2 100.1 47.75 100.35 47.9 101.75 49 102.8 49.65 104.5 49.35
M 95.875 46.15
Q 95.7005859375 46.253125 95.5 46.35 94 47.25 94.35 48.25 93.3 48.05 92 49.35 90.45 50.9 90 51.1 89.7 51.25 88.65 51.45 87.85 51.65 87.5 52 87.55 51.7 87.5 48.55 87.5 46.45 88.1 45.25 89.25 43.7 90.75 43.35 92.75 42.9 93.85 44.25 94.25 44.6 95 45.6 95.323046875 45.9 95.875 46.15 Z"/>

<path id="Layer2_0_1_STROKES" stroke="#00CCCC" stroke-width="1" stroke-linejoin="round" stroke-linecap="round" fill="none" d="
M 72.15 50.35
Q 70.45 50.65 69.4 50 68 48.9 67.75 48.75 67.1 48.25 65.15 47.7 64.4 47.55 63.55 47.15
L 63.15 47.35
Q 61.65 48.25 62 49.25 60.95 49.05 59.65 50.35 58.1 51.9 57.65 52.1 57.35 52.25 56.3 52.45 55.5 52.65 55.15 53 55.2 52.7 55.15 49.55 55.15 47.45 55.75 46.25 56.9 44.7 58.4 44.35 60.4 43.9 61.5 45.25 61.9 45.6 62.65 46.6 63 46.95 63.55 47.15 64.55 46.6 65 46 65.25 45.5 65.5 44.5 65.75 44.1 66.65 43.5 66.9 43.25 67.25 42.35 67.45 41.9 68 40.95 68.55 40.05 68.75 39.5 69 38.65 69.25 35.75
L 69.25 30.35
Q 69.25 28.75 69 28 68.75 27.35 68.15 26.5 67.75 25.9 67 25.5 66.35 25.15 64.5 25.35 63.35 25.65 62.9 26 62.65 26.3 62.45 26.9 62.15 27.8 62.15 27.85 61.5 29.15 60.15 30.5 58.35 32.5 55.25 37.35"/>

<path id="positionChecker_21_Layer1_0_1_STROKES" stroke="#9933CC" stroke-width="5" stroke-linejoin="round" stroke-linecap="round" fill="none" d="
M 1 0
L 32.3 31.3 64.05 0
M 63.05 62.05
L 32.3 31.3 0 63.05"/>

<path id="Symbol_1_0_Layer0_0_1_STROKES" stroke="#9933CC" stroke-width="1" stroke-linejoin="round" stroke-linecap="round" fill="none" d="
M 21 0
L 42 15.25 34 39.75 8 39.75 0 15.25 21 0 Z"/>
</defs>

<g transform="matrix( 1, 0, 0, 1, -0.25,-0.25) ">
<g transform="matrix( 1, 0, 0, 1, 0,0) ">
<use xlink:href="#grid_0_Layer1_0_FILL"/>
</g>

<g transform="matrix( 1, 0, 0, 1, 0,0) ">
<use xlink:href="#grid_0_Layer0_0_1_STROKES"/>
</g>
</g>

<g transform="matrix( 0.21380615234375, 0, 0, 0.21380615234375, 35.35,78.3) ">
<g transform="matrix( 1, 0, 0, 1, 0,0) ">
<use xlink:href="#Duplicate_Items_Folder_poof_3_Layer0_0_FILL"/>
</g>

<g transform="matrix( 1, 0, 0, 1, 207.7,0) ">
<use xlink:href="#Duplicate_Items_Folder_poof_3_Layer0_1_FILL"/>
</g>

<g transform="matrix( 0.68408203125, -0.1705322265625, 0.172760009765625, 0.6930389404296875, 388.75,664.85) ">
<g transform="matrix( 1, 0, 0, 1, 0,0) ">
<use xlink:href="#Duplicate_Items_Folder_3_0_Layer0_0_FILL"/>
</g>
</g>

<g transform="matrix( -0.246246337890625, -0.2432861328125, 0.2230224609375, -0.2257080078125, 284.3,551.55) ">
<g transform="matrix( 1, 0, 0, 1, 0,0) ">
<use xlink:href="#Duplicate_Items_Folder_3_0_Layer0_0_FILL"/>
</g>
</g>

<g transform="matrix( 0.6968994140625, 0.10369873046875, -0.10369873046875, 0.6968994140625, 889.35,0.85) ">
<g transform="matrix( 1, 0, 0, 1, 0,0) ">
<use xlink:href="#Duplicate_Items_Folder_4_0_Layer0_0_FILL"/>
</g>
</g>

<g transform="matrix( 0.710693359375, 0.250457763671875, -0.250457763671875, 0.710693359375, 209.85,-17.6) ">
<g transform="matrix( 1, 0, 0, 1, 0,0) ">
<use xlink:href="#Duplicate_Items_Folder_1_0_Layer0_0_FILL"/>
</g>
</g>

<g transform="matrix( 0.56292724609375, 0, -0.03582763671875, 0.55517578125, 372,-22.9) ">
<g transform="matrix( 1, 0, 0, 1, 0,0) ">
<use xlink:href="#Duplicate_Items_Folder_2_0_Layer0_0_FILL"/>
</g>
</g>

<g transform="matrix( -0.12652587890625, 1.51153564453125, -1.51153564453125, -0.12652587890625, 300.05,272.3) ">
<g transform="matrix( 1, 0, 0, 1, 0,0) ">
<use xlink:href="#Duplicate_Items_Folder_5_0_Layer0_0_FILL"/>
</g>
</g>

<g transform="matrix( 1.41204833984375, 0.505706787109375, -0.5529022216796875, 1.0306396484375, 780.9,-179.35) ">
<g transform="matrix( 1, 0, 0, 1, 0,0) ">
<use xlink:href="#Duplicate_Items_Folder_5_0_Layer0_0_FILL"/>
</g>
</g>

<g transform="matrix( 0.38580322265625, -0.471893310546875, -0.5278167724609375, -0.431488037109375, 704.55,784.2) ">
<g transform="matrix( 1, 0, 0, 1, 0,0) ">
<use xlink:href="#Duplicate_Items_Folder_2_0_Layer0_0_FILL"/>
</g>
</g>
</g>

<g transform="matrix( 0.4733123779296875, 0.0188140869140625, 0.0084991455078125, 0.5296478271484375, 7,22.1) ">
<g transform="matrix( 1, 0, 0, 1, 0,0) ">
<use xlink:href="#symbols_transform_dancer_sport_3_Layer3_0_FILL"/>
</g>

<g transform="matrix( 1, 0, 0, 1, 0,0) ">
<use xlink:href="#symbols_transform_dancer_sport_3_Layer2_0_FILL"/>
</g>

<g transform="matrix( 1, 0, 0, 1, 0,0) ">
<use xlink:href="#symbols_transform_dancer_sport_3_Layer1_0_FILL"/>
</g>
</g>

<g transform="matrix( 1, 0, 0, 1, 0,0) ">
<use xlink:href="#Layer3_0_1_STROKES"/>
</g>

<g transform="matrix( 1, 0, 0, 1, 0,0) ">
<use xlink:href="#Layer2_0_1_STROKES"/>
</g>

<g transform="matrix( 1, 0, 0, 1, 128.85,61.25) ">
<g transform="matrix( 1, 0, 0, 1, 0,0) ">
<use xlink:href="#positionChecker_21_Layer1_0_1_STROKES"/>
</g>

<g transform="matrix( 1, 0, 0, 1, -19,10.15) ">
<g transform="matrix( 1, 0, 0, 1, 0,0) ">
<use xlink:href="#Symbol_1_0_Layer0_0_1_STROKES"/>
</g>
</g>
</g>
</svg>
