<svg id="svg-10" xmlns:rdf="http://www.w3.org/1999/02/22-rdf-syntax-ns#" xmlns="http://www.w3.org/2000/svg" height="400px" viewBox="0 0 550 400" width="550px" version="1.1" y="0px" x="0px" xmlns:cc="http://creativecommons.org/ns#" xmlns:xlink="http://www.w3.org/1999/xlink" preserveAspectRatio="none" xmlns:dc="http://purl.org/dc/elements/1.1/">
 <defs id="defs4">
  <g id="grid_0_Layer1_0_FILL">
   <path id="path7" fill-opacity=".51765" d="m558 31v-31h-31-31-31-31-31-31-31-31-31-31-31-31-31-31-31-31-31-31v31 31 31 6.25 20.05 4.7 31 31 31 31 31 31 31 31 31h31 31 31 31 31 31 31 31 31 31 31 31 31 31 31 31 31 31v-31-31-31-31-31-31-31-31-31-4.7-20.05-6.25-31-31z" fill="#03f"/>
  </g>
  <g id="Symbol_199_0_Layer0_0_FILL">
   <path id="path10" d="m111.3 12.35q-3.7-11.85-11.25-12.35-74.8 3.05-79.85 2.75-5.1-0.3-13.2 41.3-3.05 15.6-5.1 32.25-1.9 15.35-1.9 22.35 0 16.65 1 21.4 1.05 5.25 5.6 9.35 2.45 2.2 7.1 5.05 6.35 3.8 11.05 4.85 6.65 1.75 11.8 2.9 10 2.3 10.05 1.2 6.65 0 12.9-1.65 2.55-0.65 10.35-3.4 4.44-1.55 8.8-2.35 1.832-0.34 3.65-0.55 6.131-0.7 12.1 0.1 12.07 1.66 20.8-3.3 0.05 0.01 0.05 0 0.09-0.04 0.15-0.1 1.1-0.61 2.15-1.35 2.33-1.64 4.4-3.8 9.95-10.4 9.95-28.3 0-11.85-6.15-33.55-11.4-40-14.45-52.8z" fill="#09c"/>
  </g>
  <g id="bodyParts_legs_Scientist_hip_S_53_Layer2_0_FILL">
   <path id="path13" d="m14.2 8.35q0-1.85-0.3-4.9-0.3-2.35-0.8-5-8.7 5.95-10.45 16.5-1.25 7.55-2.25 15.1l-0.7 10.25q0 4.95-0.1 5.85t-0.1 4.85l-0.2 5.3q-0.25 1.35-0.65 3.2-1.2 7.6-1.3 12.75 0 0.35 0 0.7l0.65 12.9q0.35 10.6 2.9 16.65 0.1 0.35 0.3 0.7 0.4 0.85 0.85 1.65 0.1 0.1 0.2 0.2 1.6 2.25 3.7 4 0.46 0.4 1.05 0.75-1.2402-2.34-2.25-5-2.9656-7.859-0.35-11.95-0.1211-0.203-0.2-0.4 0.15 0.1 0.3 0.15 5.75 2.95 9.95 2.95 1.3 0 2.95-0.4-0.75-0.05-2.05-0.45-3.1-0.95-6.9-3.05-7.2-4-9.2-7.5-0.1-1.55-0.1-3.2-0.1-2.95-0.1-6.3 0-12.35 2.95-24.85 1.75-7.7 4.65-15.4 3.75-9.6 5.2-13.85 2.35-7.05 2.35-12.2z" fill="#1C957A"/>
   <path id="path15" d="m13.2-1.65q-0.05 0.05-0.1 0.1 0.5 2.65 0.8 5 0.3 3.05 0.3 4.9 0 5.15-2.35 12.2-1.45 4.25-5.2 13.85-2.9 7.7-4.65 15.4-2.95 12.5-2.95 24.85 0 3.35 0.1 6.3 0 1.65 0.1 3.2 2 3.5 9.2 7.5 3.8 2.1 6.9 3.05 1.3 0.4 2.05 0.45-1.65 0.4-2.95 0.4-4.2 0-9.95-2.95-0.15-0.05-0.3-0.15 0.0789 0.197 0.2 0.4-2.6156 4.091 0.35 11.95 1.0098 2.66 2.25 5 0.8652 0.49 2 0.9 1.9 0.65 4.1 1.2 2 0.5 5.3 0.85 0.15 0 0.35 0 3.55 0.35 7.25-1.9 3.55-2.55 6.15-6.55 0.1-0.15 0.15-0.25 0.3-0.5 0.6-1 1.95-3.35 3.35-7.75 2.35-7.4 3.1-17.65 0.4-5.2 0.4-11.1 0-5.1-0.6-14.4 0-2.2 0-3.5 0-0.95 0.25-3.15 0.2-2.15 0.2-2.85 0.95-16.85 0.95-18.6-0.35-4.65-0.35-5.55-0.4-3-0.4-3.75l-0.2-1.6-2.4-7.25q-7.35-11.65-20.25-8.55-1.9 0.5-3.75 1m4.9 33.35h0.1l0.05 0.35h-0.05v0.15q-0.05-0.2-0.1-0.5m0.15 0.45l0.05 0.05v0.05q-0.05-0.05-0.05-0.1m0.6-0.05l0.1-0.15-0.05 1.5-0.05-0.05v-1.3m-0.45 2.35h-0.05v-0.25l0.05 0.25m21.3-4.5l0.2-2.95q0 0.45-0.05 0.9-0.05 1-0.15 2.05z" fill="#38D4B1"/>
   <path id="path17" d="m39.9 27l-0.2 2.95q0.1-1.05 0.15-2.05 0.05-0.45 0.05-0.9z" fill="#B66AA9"/>
  </g>
  <g id="Duplicate_Items_Folder_ass_Policeman_49_Layer1_0_FILL">
   <path id="path20" d="m89.85 30.4q-0.196-6.652-2.9-12-2.782-5.611-8.3-9.8-12-9.1-31.15-8.55-19.15 0.5-32.55 10-2.35 1.649-4.35 3.45-10.68 9.788-10.3 24.1 0.6 3.5 1.2 6.6 0 0.4 0.15 0.85 0.35 1.85 0.7 3.65 1.75 9.3 2.8 13.55 2.85 11.75 7.05 18.7 1.799 3.004 4.05 5.5 1.119 1.237 2.35 2.35 1.637 1.488 3.45 2.75 1.527 1.024 3.15 1.9 8.65 4.65 22.55 6.1 8.406-0.198 15-2.6 7.812-2.85 13.05-8.8 2.689-3.004 4.7-6.8 0.068-0.133 0.1-0.3 5.134-10.187 7.7-32 0.25-2.7 0.55-5.5 0.25-2.9 0.45-5.95 0.55-3.85 0.55-7.2z" fill="#38D4B1"/>
  </g>
  <g id="bodyParts_hands_Shoulder_Scientist_dancer_52_Layer2_0_FILL">
   <path id="path23" d="m58.9 48.9l4.85-3.8q5.134-9.945-0.1-25.15-1.454-4.254-3.35-8.1-3.371-3.0939-7.85-5.75-3.05-1.75-5.9-3-7.9-3.35-14.8-2.6-10.5 1.15-16.35 12.75-1.5 3-2.7 6.1-0.55 1.35-1.05 2.75-1.273 3.563-2.2 7.25-0.1516 0.62-0.3 1.2-0.9613 4.072-1.55 8.3-0.0164 0.332-0.05 0.65-0.109 0.879-0.2 1.75-1.1 3.05-1.6 14.75-0.1068 2.5-0.2 5.2-0.3641 10.09-0.6 23.3-0.1617 7.766-0.7 14.25-0.1744 1.26-0.4 2.65-0.0439 0.38-0.1 0.75-0.0352 0.25-0.1 0.5-0.6197 4.31-1.35 10 0.1238 0.34 0.2 0.65 0 0.3 0 0.6l0.2 0.1q0.8293 2.67 1.3 3.7 0.1895 0.4 0.3 0.55 0.5697 0.6 1.3 1.8l0.3-0.05v0.05q0.05 0.1 0.1 0.2 0.3219 1.01 0.8 1.95 0.1084 0.18 0.2 0.3 1.9986 2.54 6 6.55 0.702 0.43 1.45 0.75 3.704 1.61 7.25 0.65 1.317-0.32 2.6-1 2.56-1.35 4.7-3.95 0.194-0.18 0.35-0.4l5.95-16.75q-1.433 3.56-1.75 3.35-0.25-0.18-0.5-0.35l-0.05-0.05q3.52-11.501 7.55-23.75 3.35-10.05 6.7-19.85 0.45-1.2 0.9-2.45 0.85-2.45 1.7-4.85l-0.1 0.1-19.95 10.55 29.7-22.4q0-0.151-0.6 0.25z" fill="#F1BB97"/>
   <path id="path25" d="m61.1 49.25q1.574-1.95 2.65-4.15l-4.85 3.8q0.6-0.401 0.6-0.25l-29.7 22.4 19.95-10.55 0.1-0.1q-0.85 2.4-1.7 4.85-0.45 1.25-0.9 2.45-3.35 9.8-6.7 19.85-4.03 12.249-7.55 23.75l0.05 0.05q0.25 0.17 0.5 0.35 2.82-7.08 5.55-14.05l3.05-8.55q-0.976 2.988-1.9 5.55 1.53-3.782 3-7.55 4.25-10.8 8.3-21.3 0.55-1.6 1.2-3.15 0-0.1 0.1-0.25 0.8-2.25 1.7-4.5 0.114-0.344 0.2-0.7 0.234-0.524 0.45-1.05l0.25-0.3 4-4.65 0.25-0.35 1.4-1.6z" fill="#C6906E"/>
  </g>
  <g id="bodyParts_hands_Shoulder_Scientist_dancer_52_Layer1_0_FILL">
   <path id="path28" d="m38.85 85.8q-0.186 0.613-0.4 1.2-2.396 7.047-4.65 13.8-0.084 0.35-0.2 0.65-0.102 0.34-0.2 0.65-0.09 0.27-0.2 0.55-0.329 1.06-0.7 2.1 0.218 0.81 0.45 1.65-0.041 0.24-0.1 0.45 0.092-0.13 0.15-0.3 1.908-4.58 3.75-9.15 2.253-5.42 4.4-10.8 0.807-1.893 1.55-3.8 3.598-8.772 7-17.35 1.958-4.827 3.85-9.6l10.6-12-13.55 9.5q-0.101 0.274-0.2 0.55-2.007 5.418-4.1 10.95-1.705 4.821-3.45 9.65-1.979 5.627-4 11.3z" fill="#C6906E"/>
   <path id="path30" d="m67.15 22.85q-4.25-9.85-15.7-16.85-11.15-6.8-20.6-5.9-6.43 0.64297-9.9 3.65-0.781 1.3801-1.5 2.9 0.016 0.0643 0 0.1h-0.05q-0.675 1.6363-1.3 3.4-0.219 0.642-0.45 1.25-1.734 5.495-2.8 12.55-0.143 1.141-0.3 2.3l-0.15 1.05q-1.064 7.653-2.5 15.5-3.1225 17.594-7.9 36.25-1.5812 6.326-3.4 12.75-1.7529 6.463-3.75 13 0 0.52 0 1 0 7.95 4 13.8 0.01758 0.05 0.05 0.1 0.03184 0.13 0.05 0.2 0.4535 1.28 1.1 2.5 2.65 5.05 7.4 7.1 5.05 2.2 9.85-0.35 4.373-2.32 7.5-8.15 0.431-0.24 0.8-0.5 0.579-1 1.7-2.85 4.752-7.5 3.7-11.1-0.058 0.17-0.15 0.3 0.059-0.21 0.1-0.45-0.232-0.84-0.45-1.65 0.371-1.04 0.7-2.1 0.11-0.28 0.2-0.55 0.098-0.31 0.2-0.65 0.116-0.3 0.2-0.65 2.254-6.753 4.65-13.8 0.214-0.587 0.4-1.2 2.021-5.673 4-11.3 1.745-4.829 3.45-9.65 2.093-5.532 4.1-10.95 0.099-0.276 0.2-0.55l13.55-9.5q7.85-9.7 3-21z" fill="#F1BB97"/>
  </g>
  <g id="bodyParts_accesories_Shoe_Scientist_S_43_Layer1_0_FILL">
   <path id="path33" d="m61.6 53.2q-0.2 0.05-0.3 0.3-0.75 0.6-1.15 0.8 1.4 0.1 1.6-1.3-0.1 0-0.15 0.15v0.05m-59-23.85l-0.2 0.75q0.1-0.25 0.15-0.45 0-0.1 0.1-0.2-0.05-0.05-0.05-0.1m44.6 12.9q0.2 0 0.7 0.05l-2.45-1.55q0.15 0.1 0.4 0.35l0.05 0.05q0.45 0.45 1.15 1.1h0.15z" fill="#63625E"/>
   <path id="path35" d="m38.5 50.1h0.05l0.25-1.2-0.3 1.2m8.55-5.75q-0.1-0.1-0.15-0.05-0.1-0.1-0.15 0.05 0.1 0 0.3 0z" fill="#AF2815"/>
   <path id="path37" d="m33.7 32.2q0.05 0.05 0.2 0.1l-0.15-0.15-0.05 0.05z" fill="#4BB1D0"/>
   <path id="path39" d="m33.35 32q0.162 0.059 0.35 0.2l0.05-0.05q-0.234-0.094-0.4-0.15m-30.6-2.8q-0.1 0.05-0.15 0.15 0 0.05 0.05 0.1 0-0.15 0.1-0.25z" fill="#E5E5E5"/>
   <path id="path41" d="m0.8 40h-0.05q-0.5-0.2-0.95-0.3h-0.1l-0.25 0.95q-0.45 0-0.6 0.85-0.05 0.7-0.2 1.25-0.1 0.05-0.05 0.2-0.0471 0.235 0.3 0.65 0.0262 0.023 0.05 0.05 0.0414 0.041 0.1 0.1 3.7 2.45 26.65 3.75 7.05 1.95 12.65 3.5 15.25 3.85 19.8 3.8 1.45-0.1 1.85-0.45l0.05-0.05h0.1q0.4-0.2 1.15-0.8 0.1-0.25 0.3-0.3v-0.05q0.05-0.15 0.15-0.15-13.25-1.65-22.95-4.1l-0.25 1.2h-0.05l0.3-1.2q-6.05-1.65-10.95-3.55-0.8-0.05-1.55-0.1-14.3-1.25-25.5-5.25z" fill="#B2B2B2"/>
   <path id="path43" d="m24.9 19.65q-1.4-2.5-4.5-3.65-2.2-0.9-4.55-0.85-0.95 0-1.85 0.15-5.3 0.85-5.3 6.4-1.6 3.9-4.6 6.6 0.95-0.45 2.45-0.2 2.5 0.25 4.8 3.1 2.1 2.85 6.25 3.35 5.3 0.55 7.7-1.95 0.5-0.7 1.55-1.75 0.85-0.8 2.35-0.6 1 0.05 2.25 0.7-6-3.85-6.55-11.3m29.85 23.35q-0.4-0.1-0.65-0.15-0.2-0.15-0.35-0.1-0.35 0.35-0.6 1.1-0.15 0.25-0.2 0.55 0.45 0 1-0.05 0.45-0.95 0.8-1.35z" fill="#fff"/>
   <path id="path45" d="m51.1 45.5q1.6 0.05 3.4-0.05 3.65 2.8 6.1 5.85-15.9-1.95-31.9-8-14.35-0.4-28.3-6.05l-0.7 2.45h0.1q0.45 0.1 0.95 0.3h0.05q11.2 4 25.5 5.25 0.75 0.05 1.55 0.1 4.9 1.9 10.95 3.55 9.7 2.45 22.95 4.1 0.35-0.7 0.7-1.5-3.5-4.6-8.5-7.15-0.55 0.05-1 0.05h-0.05q-0.9 0.05-1.8 0-0.05 0.4 0 1.1m-4.55-1.2q-0.8-0.1-0.95-0.2-0.5-0.45-1.2-1.15-0.25 0.45-0.5 0.95 1.15 0.45 2.6 0.8l0.05-0.4m1.6 0.8q0.8 0.05 1.7 0.3-0.15-0.4 0-0.75 0-0.15 0-0.2h-1.55q-0.15 0.2-0.15 0.65m-5.35-2q0.1-0.4 0.55-0.95-1.8-1.55-2.95-2.6-0.8-0.65-1.3-1.1-0.2 0.05-0.35 0.1-2.1-1.25-2.6-1.75-1.2-1.35-2.35-3.9 0.1-0.15 0.3-0.25l-0.2-0.35q-0.15-0.05-0.2-0.1-0.188-0.141-0.35-0.2h-0.05q-1.05-0.65-1.85-1.05-1.25-0.65-2.25-0.7-1.5-0.2-2.35 0.6-1.05 1.05-1.55 1.75-2.4 2.5-7.7 1.95-4.15-0.5-6.25-3.35-2.3-2.85-4.8-3.1-1.5-0.25-2.45 0.2-0.9 0.25-1.35 0.9-0.1 0.1-0.1 0.25-0.1 0.1-0.1 0.2-0.05 0.2-0.15 0.45l-0.4 1.55 10.55 4.15q6 1.5 13.3-0.65 5.65-1.45 13.75 5.5 1.15 1.6 3.1 2.7 0-0.1 0.1-0.25z" fill="#2D2A2A"/>
   <path id="path47" d="m51.8 42.4q-0.1-0.1-0.2 0l-0.45 1.2q0 0.25-0.05 0.8 0.9 0.05 1.8 0h0.05q0.05-0.3 0.2-0.55 0.25-0.75 0.6-1.1-1.1-0.3-1.95-0.35m-8.45-0.25q0.15-0.3 0.35-0.5 0.15-0.2 0.3-0.3-1.4-0.5-3.6-1.8 1.15 1.05 2.95 2.6m3.8 0.2q0-0.05 0.05-0.1h-0.15q-0.7-0.65-1.15-1.1l-0.05-0.05q-0.35 0.3-0.35 0.35-0.25 0.25-0.5 0.6-0.35 0.45-0.6 0.9 0.7 0.7 1.2 1.15 0.15 0.1 0.95 0.2l0.05-0.25q0.1-0.9 0.55-1.7m1.85-0.05h-0.05q-0.55 0.95-0.65 2.15h1.55q0.1-0.6 0.45-1.4 0.15-0.45 0.35-0.75-0.75-0.05-1.65 0m-7.6-11.35q0.1 0.05 0.85 0.55-0.6 0.15-0.75 0.35 0.6-0.05 1.4 0.1 0.3 0 1.65 0.35 0.1 0.25 0.25 0.9 0.2 0.8 0.65 1.25 1.35 1.6 2.7 1.85 0.15 0 0.45 0 1.35-0.85 1.55-1.95 0.15-1.45-1.45-3.4-2.1-2.5-5.65-2.85-2.65-0.35-5.35 1.4-0.75 0.4-1.45 0.95-0.2 0.2-0.4 0.45-0.65 0.65-1.1 1.1-0.35 0.3-0.6 0.55 0.25 0.2 0.65 0.4 0.05 0 0.1 0.1 0.25-0.2 0.6-0.45 0.1-0.1 0.2-0.15 0.9-0.7 1.7-1.05 0.3-0.2 1.5-0.4 1.15-0.2 1.6-0.1 0.75 0 0.9 0.05z" fill="#A2A2A2"/>
   <path id="path49" d="m54.9 43.05q-0.05-0.15-0.15-0.05-0.35 0.4-0.8 1.35 5 2.55 8.5 7.15 0.2-0.7 0.3-1.5 0.05-0.65 0.1-1.15-0.05-1.3-0.35-1.95-0.6-0.7-2.6-2.05-0.9-0.7-3.55-1.4-0.75-0.3-1.45-0.4m-11.1 0.95q-1.2 0.3-1.1-0.65-1.95-1.1-3.1-2.7-8.1-6.95-13.75-5.5-7.3 2.15-13.3 0.65l-10.55-4.15-1.6 5.6q13.95 5.65 28.3 6.05 16 6.05 31.9 8-2.45-3.05-6.1-5.85-1.8 0.1-3.4 0.05v0.15q-0.3 0.2-0.5 0.15l-0.6-0.15q-0.1-0.2-0.15-0.25-0.9-0.25-1.7-0.3 0 0.2 0 0.5-1.1 0.6-1.75-0.35 0-0.2 0.05-0.5l0.05-0.05q-1.45-0.35-2.6-0.8-0.05-0.05-0.1 0.1m-0.9-12.05q-0.8-0.15-1.4-0.1-1.7-0.1-3.2 0.35-1.45 0.3-2.05 0.9h0.05q1.05 1 1.5 1.3 3.05 2.1 6 3.3 0.25-0.15 0.55-0.2 0.65-0.1 1.3-0.2 1.8-0.4 2.95-1-0.3 0-0.45 0-1.35-0.25-2.7-1.85-0.45-0.45-0.65-1.25-0.15-0.65-0.25-0.9-1.35-0.35-1.65-0.35z" fill="#3A68C7"/>
   <path id="path51" d="m49.85 44.65q-0.15 0.35 0 0.75 0.05 0.05 0.15 0.25l0.6 0.15q0.2 0.05 0.5-0.15v-0.15q-0.05-0.7 0-1.1 0.05-0.55 0.05-0.8l0.45-1.2q-0.5-0.1-0.95-0.1-0.2 0.3-0.35 0.75-0.35 0.8-0.45 1.4 0 0.05 0 0.2m-5.45-1.7q0.25-0.45 0.6-0.9 0.25-0.35 0.5-0.6-0.3 0.15-0.6 0.1-0.45-0.05-0.9-0.2-0.15 0.1-0.3 0.3-0.2 0.2-0.35 0.5-0.45 0.55-0.55 0.95-0.1 0.15-0.1 0.25-0.1 0.95 1.1 0.65 0.05-0.15 0.1-0.1 0.25-0.5 0.5-0.95m3.5-0.65q-0.5-0.05-0.7-0.05-0.05 0.05-0.05 0.1-0.45 0.8-0.55 1.7l-0.05 0.25-0.05 0.4-0.05 0.05q-0.05 0.3-0.05 0.5 0.65 0.95 1.75 0.35 0-0.3 0-0.5 0-0.45 0.15-0.65 0.1-1.2 0.65-2.15-0.7 0-1.05 0m-1 2q0.05-0.05 0.15 0.05-0.2 0-0.3 0 0.05-0.15 0.15-0.05z" fill="#E9C923"/>
   <path id="path53" d="m45.45 40.75q-0.25-0.2-0.4-0.35-0.45 0.3-1.05 0.95 0.45 0.15 0.9 0.2 0.3 0.05 0.6-0.1 0-0.05 0.35-0.35-0.25-0.25-0.4-0.35z" fill="#B49805"/>
   <path id="path55" d="m40.85 38.1q0.1 0 0.3-0.05l-0.25-0.1q0.2-0.05 0.4 0.1 1.05-0.15 2.5-0.35-2.95-1.2-6-3.3-0.45-0.3-1.5-1.3h-0.05q-0.35 0.15-0.55 0.5-0.4-0.3-0.8-0.55-0.05-0.1-0.1-0.1-0.4-0.2-0.65-0.4-0.05 0-0.05 0.1-0.2 0.1-0.3 0.25 1.15 2.55 2.35 3.9 0.5 0.5 2.6 1.75 0.15-0.05 0.35-0.1 0.8-0.2 1.75-0.35z" fill="#0E2933"/>
   <path id="path57" d="m41.15 38.05q-0.2 0.05-0.3 0.05-0.95 0.15-1.75 0.35 0.5 0.45 1.3 1.1 2.2 1.3 3.6 1.8 0.6-0.65 1.05-0.95-0.1-0.1-0.25-0.25l-2.4-1.65q-0.15-0.2-1.1-0.45h-0.15m1.1-6.55q-0.75-0.5-0.85-0.55-0.15-0.05-0.9-0.05-0.45-0.1-1.6 0.1-1.2 0.2-1.5 0.4-0.8 0.35-1.7 1.05-0.1 0.05-0.2 0.15-0.35 0.25-0.6 0.45 0.4 0.25 0.8 0.55 0.2-0.35 0.55-0.5 0.6-0.6 2.05-0.9 1.5-0.45 3.2-0.35 0.15-0.2 0.75-0.35z" fill="#676767"/>
  </g>
  <g id="bodyParts_legs_Scientist_hip_S_50_Layer2_0_FILL">
   <path id="path60" d="m5.2 60.85l-0.1-0.25q-2.15 6.15-7.1 18.25-0.85 2.3-1.45 4.25-2.75 7.9-2.35 11.15 0.65 5.75 5.05 11.3 0.4 0.5 0.8 1-0.55-1.7-0.9-3.8-2.4-13.5 4.45-34.25 1.75-6.45 1.6-7.65m13.15-12.5q-2.4-1.3-3.55-1.25 0.8 0.65 3.9 3.65 0.35 0.4 0.75 0.85 4.05 3.8 6.65 5.45 3.25 1.9 8.7 5.05 3.95 2.45 4.2 4.8 0.45 3.95 0 8.95-0.3 3.1-1.15 11.35 0.05 5.75-2.35 14.15 0.8-2.15 1.55-4.65 3.15-11 4-33.2 0.35-5.35 0.6-10.1-0.25 0.1-0.45 0.2-1.9 0.75-3.35 0.95-7.05 0.7-14.5-3.3-0.05 0-0.1-0.05-3.5-2.1-4.9-2.85z" fill="#1C957A"/>
   <path id="path62" d="m35.45-2.65q-4.45-2.7-9.5-2.9-5.25-0.1-10.7 1.4-5.45 1.4-11.9 9.35-6.55 7.7-4.25 20.3 2.4 12.45 1.8 15.85t-0.65 7.5q-3.85 20.6-3.7 34.25 0.6-1.95 1.45-4.25 4.95-12.1 7.1-18.25l0.1 0.25q0.15 1.2-1.6 7.65-6.85 20.75-4.45 34.25 0.35 2.1 0.9 3.8 3.25 3.95 5.05 3.8 0.3 0 0.85 0.25 0.75 0.5 1.5 0.7 2.2 1.4 4.85 2.05 2.35 0.65 5.1 0.8 1.45 0.55 4.05 0.3 9.25-0.95 14.05-13.1 2.4-8.4 2.35-14.15 0.85-8.25 1.15-11.35 0.45-5 0-8.95-0.25-2.35-4.2-4.8-5.45-3.15-8.7-5.05-2.6-1.65-6.65-5.45-0.4-0.45-0.75-0.85-3.1-3-3.9-3.65 1.15-0.05 3.55 1.25 1.4 0.75 4.9 2.85 0.05 0.05 0.1 0.05 7.45 4 14.5 3.3 1.45-0.2 3.35-0.95 0.2-0.1 0.45-0.2 0.85-15.85 1.2-24.5 0.8-19.4-0.4-24.35-2.35-4.5-7-7.2z" fill="#38D4B1"/>
  </g>
  <g id="bodyParts_legs_shok_scientist_S_32_Layer1_0_FILL">
   <path id="path65" d="m20.15 103.25q-8.95 4.5-17.15 0.8-0.25 1.45-0.45 3.35 3.5 2.15 8.05 2.05 4.55-0.15 9.45-3.5v-0.05q-0.05-0.6 0.3-2.25l-0.2-0.4z" fill="#F95B05"/>
   <path id="path67" d="m20.35 103.65q0.05-0.3 0.1-0.55 0.5-2.65 0.45-3.1-4.75 2.9-11.2 2.3-6.15-0.6-5.95-1.65-0.4 1.2-0.75 3.4 8.2 3.7 17.15-0.8l0.2 0.4z" fill="#9B3600"/>
   <path id="path69" d="m5.3 70q2.1 1.8 3.1 3.1 2.65 3.3 3.2 4.7-1.9-6.3-3.85-11-0.4-0.95-0.75-1.7-0.2 2.8-1.7 4.8-0.05 0-0.05 0.05l0.05 0.05m2.2-25.2q0.0348 0.07 0.05 0.35-0.3729 2.875-0.45 5.7 0.4076 0.498 0.95 1 3.82 4.125 7.05 4.15l1.15-0.1v-0.1q-2.552-2.68-4.85-5.9-3.3775-4.618-3.65-7.2-0.1434 0.866-0.25 2.1z" fill="#1C957A"/>
   <path id="path71" d="m30.15-4.75q-1.199-0.1078-2.45 0-10.186 0.9961-16.25 10.55-0.129 0.1561-0.2 0.35-0.039 0.0191-0.1 0.15-2.4143 6.219-0.45 14.7 0.197 0.949 0.45 1.8 0.433 1.676 1.05 3.15-0.052 0.185-0.05 0.4-0.954 0.58-2.7 6.05-1.6773 5.737-1.65 8.1 0.0291 0.514-0.05 2.2 0.2725 2.582 3.65 7.2 2.298 3.22 4.85 5.9v0.1l-1.15 0.1q-3.23-0.025-7.05-4.15-0.5424-0.502-0.95-1-0.1191 1.162-0.05 2.3-0.0305 0.574 0.1 1.2 0.1045 2.879 0.05 5.75-0.0092 1.678-0.1 3.35-0.05 0.2-0.05 0.4-0.35 1.2-1.75 6.05 1.5-2 1.7-4.8 0.35 0.75 0.75 1.7 1.95 4.7 3.85 11-0.55-1.4-3.2-4.7-1-1.3-3.1-3.1-0.65 2.15-1.55 5.1-3.15 10.5-3.25 15 0 0.1 0 0.2 0 4.5 1.2 7.45 0.85 2 2.05 2.8 0 0.05 0 0.1-0.2 1.05 5.95 1.65 6.45 0.6 11.2-2.3 2.3-1.85 3.7-5.55 0.6-1.65 1-3.5l0.7-8.4q0.05-2.05 0.35-4.6l0.6-7.3 4.6-22.6q0.403-1.96 2.1-9.05 1.749-7.057 4.6-15.15 2.849-8.046 2.45-12.45-0.401-4.3537-1.05-6.3-0.595-1.893-0.6-4-3.556-4.7682-8.15-5.7-0.512-0.0766-1.05-0.15z" fill="#38D4B1"/>
  </g>
  <g id="bodyParts_legs_shok_scientist_S_33_Layer1_0_FILL">
   <path id="path74" d="m4.45 102.55l-0.15 2.95q-0.35 3.3 1.7 5.85 1.9 2.25 4.85 2.85t5.4-0.85q2.7-1.55 3.6-5.2l0.6-2.55q-7.9 1.25-16-3.05z" fill="#fff"/>
   <path id="path76" d="m25.25 65.7q-9.15 3.45-18.3-7.7l-2.5 44.55q8.1 4.3 16 3.05l2.2-9.9 2.6-30z" fill="#F1BB97"/>
   <path id="path78" d="m29.95 62.8q-2.35 1.9-4.7 2.9l-2.6 30 7.3-32.9z" fill="#C6906E"/>
   <path id="path80" d="m25.25 65.7q2.35-1 4.7-2.9l0.5-0.7q0.2-0.6 0.8-1.95-16.05 2.4-24.7-7.6-0.1 0.5-0.15 1.1l0.05-1.2q-0.4 3.75-0.1 4.45l0.6 1.1q9.15 11.15 18.3 7.7z" fill="#F95B05"/>
   <path id="path82" d="m31.15 58.3q0.35-0.1 0.7-0.15 0.5-1.3 1.1-2.5-1.8 0.3-4 0.5-4.55 0.2-8.45-2.45-3.05-2.65-3.15-2.65-0.35 0-1.8 0.4-1.45 0.3-1.9 0.35-2.5 0.1-4.15-1.1-0.85-0.55-3.65-3.65 0.9 1.9 0.95 2.6 0 0.2-0.05 0.65 0.6 0.6 1.05 1.05 0.05 0.1 0.1 0.15 1.2 1.2 1.7 1.5 1.7 1.25 4.2 1.1 0.45 0 1.85-0.4 1.4-0.35 1.8-0.4 0.1 0.05 3.15 2.75 3.9 2.6 8.45 2.4 1.05-0.1 2.1-0.15z" fill="#0F6955"/>
   <path id="path84" d="m31.85 58.15q-0.35 0.05-0.7 0.15-1.05 0.05-2.1 0.15-4.55 0.2-8.45-2.4-3.05-2.7-3.15-2.75-0.4 0.05-1.8 0.4-1.4 0.4-1.85 0.4-2.5 0.15-4.2-1.1-0.5-0.3-1.7-1.5-0.05-0.05-0.1-0.15-0.45-0.45-1.05-1.05-0.05 0.8-0.2 2.25 8.65 10 24.7 7.6 0.05-0.6 0.6-2z" fill="#9B3600"/>
   <path id="path86" d="m3.9 42.95q0.4 1.05 0.95 2.1 0.6 1.2 1 2 2.8 3.1 3.65 3.65 1.65 1.2 4.15 1.1 0.45-0.05 1.9-0.35 1.45-0.4 1.8-0.4 0.1 0 3.15 2.65 3.9 2.65 8.45 2.45 2.2-0.2 4-0.5 0.8-0.5 1.4-1.3 0.9-1.5 1.1-4.3-0.45 0.45-1.9 1-1.75 0.55-3.2 0.6-4.8 0.25-8.65-2.75-3.1-3.1-3.75-3.05-5.05-2.25-6.8-2.85 0.7 0.6 2.45 1.9 1.45 1.25 1.5 1.75 0.05 0.7-1.5 0.75-4.4 0.2-8.1-2.85-0.95-0.7-1.6-1.6z" fill="#1C957A"/>
   <path id="path88" d="m39.05-5.6q-4.7-8.1-14.35-4.8-9.55 3.3-12.25 14.6-0.25 1.05-0.45 2.05-4.75 3.1-7.25 8.7-2.15 4.65-1.95 8.65 0.15 2.2 1.4 6 0.65 1.85 1.25 3.35 0.05 0.6-1.3 2.1-1.45 1.4-1.35 3.4 0.1 2.2 1.1 4.5 0.65 0.9 1.6 1.6 3.7 3.05 8.1 2.85 1.55-0.05 1.5-0.75-0.05-0.5-1.5-1.75-1.75-1.3-2.45-1.9 1.75 0.6 6.8 2.85 0.65-0.05 3.75 3.05 3.85 3 8.65 2.75 1.45-0.05 3.2-0.6 1.45-0.55 1.9-1-0.2 2.8-1.1 4.3 0.4-0.4 0.8-0.85 2.45-2.7 2.15-7.8-0.1-2.75-0.75-4.95-0.1-0.3-0.2-0.5-0.05-1 1.3-2.7 2.65-3.65 2.9-4.1 4.2-6.6 3.7-16.1-0.05-1.2-0.8-4.6-0.8-3.45-1.45-4.95 0-0.1 0.05-0.2 0.45-7.3-3-13.2z" fill="#38D4B1"/>
  </g>
  <g id="bodyParts_Torso_Scientist_29_Layer1_0_FILL">
   <path id="path91" d="m129.7 203.3q-1.15 3.15-2.15 5.15 2.1-0.05 4.15-0.05 14.1-1.75 25.65-7.3 0.6-0.7 1.3-1.35 0.7-2.95 1.45-5.75-10.2 8-30.4 9.3m1.05-30.65q0.05 0.55 0.5 2.15 27.15-0.85 20.3-10.1-1.35 4.85-20.95 6.65 0.05 0.65 0.15 1.3m-20.9-58.9l-0.05-0.5q0.6-1.55 1.2-3 0.55-1.35 1.05-2.5-25.1 1.95-49.2 14.55 25.5-6.8 46.75-8.55 0.1-0.05 0.25 0m-46.75 81.95q-0.15 1.15 0.35 2.1 0.1 0.45 0.8 0.95 0.15 0.2 0.45 0.45 4.491 1.44 8.85 2.65 3.646 1.06 7.2 1.95 1.378 0.35 2.75 0.65 0.69 0.19 1.35 0.35 7.62 1.75 14.75 2.8 5.45 0.25 10.5 0.55 0.9-1.9 1.9-4.6 0-0.25 0.15-0.3-12.01-0.75-26.5-3.15-0.741-0.14-1.55-0.3-0.282-0.02-0.6-0.1-3.778-0.62-7.75-1.4-5.971-1.14-12.35-2.55-0.15-0.05-0.3-0.05m14.6-10.4q-1.255-0.2-2.7-0.5-5.4-1.25-10.1-3.5-4.15-2.05-6.75-4.2l2.85 10.1q6 1.15 12.3 1.2 2.602-0.1 4.5-0.75 1.031-0.29 1.85-0.75 1.441-0.88 2.2-1.2 0.312-0.12 0.5-0.15-0.256 0.02-0.55 0.05-0.051 0-0.15 0-1.618 0.05-3.95-0.3m-2.75-13.7q0.312 0.06 0.6 0.1 4.095 0.4 7.95 0.75 17.11 1.63 30.05 2.15h0.15l-0.5-1.75q-0.05-0.3-0.1-0.65-12.67 0.2-29.6-0.3-3.862-0.12-7.95-0.3-0.294 0.01-0.6 0-0.103 0-0.2 0 0.103 0.01 0.2 0m-25.15-24.7q0.13 0.43 0.25 0.85 0.6 2.3 1.15 4.45l3.2 11.45q1.913-7.24 0.1-16.45-0.894-4.81-2.85-10.2-1.014-2.85-2.35-5.9-1.95-1.35-3.55-2.8-11.15-9.7-12.25-25.1-1.5 0.15-2.9 0.25 0.9 1.95 1.75 4.05 0.45 3.25 0.45 4.1-0.2 2.65-0.45 7.2 0.35 3.6 3.9 6.4 0.7 0.6 1.4 1.15 5.95 4.7 7.3 6.95 0.15 0.25 0.25 0.5 0.801 1.82 1.55 3.85 1.014 2.69 1.95 5.75 0.571 1.71 1.1 3.5m122.05-29.1l3.9-10.75q-7.05 6.25-33.5 2-6.55-1.1-12.85-1.45-0.4 1.2-0.9 2.55-0.75 1.5-1.3 3 17.85 0.2 32.1 4.8 7.9 1.6 12.55-0.15z"/>
   <path id="path93" d="m124.45 208.5q1.6-0.05 3.1-0.05 1-2 2.15-5.15-8.05 0.4-17.55-0.05-0.15 0.05-0.15 0.3-1 2.7-1.9 4.6 7.8 0.2 14.35 0.35m-11.35-36.3q0.05 0.35 0.1 0.65l0.5 1.75q10.05 0.45 17.55 0.2-0.45-1.6-0.5-2.15-0.1-0.65-0.15-1.3-7.45 0.6-17.5 0.85m14.1-59.05q0.55-1.5 1.3-3 0.5-1.35 0.9-2.55-8.85-0.6-17.35 0.15-0.5 1.15-1.05 2.5-0.6 1.45-1.2 3l0.05 0.5q8.95-0.8 17.15-0.6 0.1-0.1 0.2 0z" fill="#A5A5A5"/>
   <path id="path95" d="m113.7 174.6l-0.05 0.4q0.4 1.75 1.25 4.8 1 4.1 0.9 7.9-0.25 4.9-2.9 13.3-0.45 1.1-0.75 2.25 9.5 0.45 17.55 0.05 0.4-1.25 0.9-2.55 2.65-8.4 2.85-13.2 0.1-3.9-0.95-8-0.85-3.05-1.25-4.75-7.5 0.25-17.55-0.2m15.25-41.45q-2.05-19.45-1.95-19.6v-0.4q-8.2-0.2-17.15 0.6-0.15-0.05-0.25 0 0 1.3 1.85 19.55 1.9 19.85 1.9 23.4 0 0.4-0.4 8.4-0.25 3.8 0.1 6.4-0.05 0.3 0.05 0.7 10.05-0.25 17.5-0.85-0.3-2.7-0.05-6.45 0.3-8 0.3-8.4 0-3.5-1.9-23.35m-21.3-67.05q2.55 8.55 4 20 1.2 10.65 1 18.1-0.1 1.6-0.6 3.5v0.05q8.5-0.75 17.35-0.15 0.5-1.9 0.6-3.5 0.2-7.45-1.1-18.05-1.5-12-4.2-20.8-8.65 0.8-17.05 0.85z" fill="#E1E1E1"/>
   <path id="path97" d="m15.75 68.7q4.35 10.75 11.05 25.95 1.8 4.15 3.8 8.8 1.4-0.1 2.9-0.25 9.4-1.1 15.1-5.35 1.8-55.05-38.9-55.2-0.4 10.4 6.05 26.05z" fill="#C6906E"/>
   <path id="path99" d="m34.15 21.8q-7.85 3.2-15.3 7.1-9.85 5.1-10.15 10.3-0.1 1.7 1 3.45 40.7 0.15 38.9 55.2 12.5-9.35 6.15-33.85-10.5-40.45-20.6-42.2m114.65 8.95q-6.4-10-15.35-19.7-10.25-2.7-22.05-3.6-4.7-0.45-9.35-0.4-0.7-0.05-1.3 0-18-0.15-35.35 4.3-10.45 2.6-20.35 6.25 6.55 1.15 16.5 26.75l0.3 0.9q6.65 15.85 25.45 19.4 9.9 1.35 20.35 1.45 8.4-0.05 17.05-0.85 7.75-0.85 15.8-2.3 22.1-5.95 8.3-32.2m27.5 18.25q-1.4-4.9-3.05-10.35-5.2-12.85-22.5-21.3-0.35-0.25-0.7-0.35 32.05 38.65 31.45 65.55-0.2 6.95-2.55 13.3-0.05 0.35 0.05 0.85-0.05-0.35 0.05-0.55 3.75-3.75 3.95-11.65 0-0.55 0-1.05 0-0.9-0.05-1.8-0.6-11.2-6.65-32.65z" fill="#F1BB97"/>
   <path id="path101" d="m111.65 86.1q-1.45-11.45-4-20-10.45-0.1-20.35-1.45-18.8-3.55-25.45-19.4l-0.3-0.9q-9.95-25.6-16.5-26.75-5.6 1.9-10.9 4.2 10.1 1.75 20.6 42.2 6.35 24.5-6.15 33.85-5.7 4.25-15.1 5.35 1.1 15.4 12.25 25.1 1.6 1.45 3.55 2.8 1.336 3.05 2.35 5.9 1.956 5.39 2.85 10.2 1.813 9.21-0.1 16.45l3.75 13.45q2.6 2.15 6.75 4.2 4.7 2.25 10.1 3.5 1.445 0.3 2.7 0.5 2.332 0.35 3.95 0.3 0.099 0 0.15 0 0.294-0.03 0.55-0.05-0.188 0.03-0.5 0.15-0.759 0.32-2.2 1.2-0.819 0.46-1.85 0.75-1.898 0.65-4.5 0.75-6.3-0.05-12.3-1.2l0.95 4.35q-0.146-1.18-0.05-1.35 0 0.11 0 0.2 0 0.3 0.1 1.05 0.02 0.12 0.05 0.2 0.278 0.49 0.7 1.15 0.152 0.24 0.25 0.5 0.053 0.03 0.1 0.05 0.006 0.14 0 0.25 0.15 0.43 0.15 0.9-0.096 0.48-0.2 0.9 0.017 0.15 0.05 0.3 0.15 0 0.3 0.05 6.379 1.41 12.35 2.55 3.972 0.78 7.75 1.4 0.318 0.08 0.6 0.1 0.809 0.16 1.55 0.3 14.49 2.4 26.5 3.15 0.3-1.15 0.75-2.25 2.65-8.4 2.9-13.3 0.1-3.8-0.9-7.9-0.85-3.05-1.25-4.8l0.05-0.4h-0.15q-12.94-0.52-30.05-2.15-3.855-0.35-7.95-0.75-0.288-0.04-0.6-0.1-0.097 0.01-0.2 0 0.097 0 0.2 0 0.306 0.01 0.6 0 4.088 0.18 7.95 0.3 16.93 0.5 29.6 0.3-0.1-0.4-0.05-0.7-0.35-2.6-0.1-6.4 0.4-8 0.4-8.4 0-3.55-1.9-23.4-1.85-18.25-1.85-19.55-21.25 1.75-46.75 8.55 24.1-12.6 49.2-14.55v-0.05q0.5-1.9 0.6-3.5 0.2-7.45-1-18.1m59.35 33.55q0.45-0.95 0.85-1.85-4.65 1.75-12.55 0.15-14.25-4.6-32.1-4.8-0.1-0.1-0.2 0v0.4q-0.1 0.15 1.95 19.6 1.9 19.85 1.9 23.35 0 0.4-0.3 8.4-0.25 3.75 0.05 6.45 19.6-1.8 20.95-6.65 6.85 9.25-20.3 10.1 0.4 1.7 1.25 4.75 1.05 4.1 0.95 8-0.2 4.8-2.85 13.2-0.5 1.3-0.9 2.55 20.2-1.3 30.4-9.3 1.6-6.3 3.65-11.85 1.65-4.6-0.9-5.7 3.15-20.7 3.4-38.95l-0.75-3.35q0-2.7 0.7-5 0.75-2.8 2.55-5.35l0.5-0.85q0.85-1.65 1.75-3.3m7.6-20.85q0.1-1.1 0.4-2.1-0.1-0.5-0.05-0.85 2.35-6.35 2.55-13.3 0.6-26.9-31.45-65.55-7.65-3.7-16.6-5.95 8.95 9.7 15.35 19.7 13.8 26.25-8.3 32.2-8.05 1.45-15.8 2.3 2.7 8.8 4.2 20.8 1.3 10.6 1.1 18.05-0.1 1.6-0.6 3.5 6.3 0.35 12.85 1.45 26.45 4.25 33.5-2l2.55-6.95q0.15-0.65 0.3-1.3z" fill="#1E1A12"/>
  </g>
  <g id="bodyParts_hands_Shoulder_Scientist_dancer_40_Layer1_0_FILL">
   <path id="path104" d="m58.9 48.9q0.6-0.401 0.6-0.25l-29.7 22.4 19.95-10.55 0.1-0.1q-0.85 2.4-1.7 4.85-0.45 1.25-0.9 2.45-3.35 9.8-6.7 19.85-4.03 12.249-7.55 23.75l0.05 0.05q0.25 0.17 0.5 0.35 1.47-3.69 2.9-7.35 0.541-1.47 1.15-3.25-0.043 0.32-0.1 0.6 0.81-2.015 1.6-4.05l3.05-8.55q-0.976 2.988-1.9 5.55 1.53-3.782 3-7.55 4.25-10.8 8.3-21.3 0.55-1.6 1.2-3.15 0-0.1 0.1-0.25 0.8-2.25 1.7-4.5 0.114-0.344 0.2-0.7 0.234-0.524 0.45-1.05l0.25-0.3 4-4.65 0.25-0.35 1.4-1.6q1.574-1.95 2.65-4.15l-4.85 3.8m-49.2-19.45q-0.85 4.75-1.65 9.25l5.25 12.6-3.6-21.85z" fill="#C6906E"/>
   <path id="path106" d="m52.45 6.1q-3.05-1.75-5.9-3-7.9-3.35-14.8-2.6-10.5 1.15-16.35 12.75-1.5 3-2.7 6.1-0.55 1.35-1.05 2.75-1.273 3.563-2.2 7.25-1.1781 4.648-1.85 9.5-0.1238 1.192-0.25 2.4-1.1 3.05-1.6 14.75t-0.8 28.5q-0.1617 7.766-0.7 14.25-0.1744 1.26-0.4 2.65-0.0439 0.38-0.1 0.75-0.0352 0.25-0.1 0.5-0.6197 4.31-1.35 10 0.1238 0.34 0.2 0.65 0 0.3 0 0.6l0.2 0.1q1.1543 3.74 1.6 4.25 0.5697 0.6 1.3 1.8l0.3-0.05v0.05q0.05 0.1 0.1 0.2 0.3219 1.01 0.8 1.95 0.1084 0.18 0.2 0.3 1.9986 2.54 6 6.55 0.702 0.43 1.45 0.75 3.704 1.61 7.25 0.65 1.317-0.32 2.6-1 2.56-1.35 4.7-3.95 0.194-0.18 0.35-0.4 5.94-8.93 8.15-23.4 0.057-0.28 0.1-0.6-0.609 1.78-1.15 3.25-1.43 3.66-2.9 7.35-0.25-0.18-0.5-0.35l-0.05-0.05q3.52-11.501 7.55-23.75 3.35-10.05 6.7-19.85 0.45-1.2 0.9-2.45 0.85-2.45 1.7-4.85l-0.1 0.1-19.95 10.55 29.7-22.4q0-0.151-0.6 0.25l4.85-3.8q5.134-9.945-0.1-25.15-1.454-4.254-3.35-8.1-3.371-3.0939-7.85-5.75m-44.4 32.6q0.8-4.5 1.65-9.25l3.6 21.85-5.25-12.6z" fill="#F1BB97"/>
  </g>
  <g id="bodyParts_hands_Shoulder_Scientist_dancer_40_Layer0_0_FILL">
   <path id="path109" d="m33.95 83.6q-3.05 0-3.05 1.45 0 1.1 2.6 2.45 1.6 0.8 5.9 2.75 3.1 1.5 5.7 4.05 0.863 0.847 1.4 1.55-0.1-0.436-0.1-0.6 0-2.15 2.25-4.25 2.2-2.05 2.2-5.3 0-0.255-0.05-0.55-0.15 3.4-3.55 3.4-1.6 0-5.9-2.45-4.35-2.5-7.4-2.5m-14.75 2.5q-1.42 1.1-2.35 1.85 2.523 0.582 8.3 1.7 5.65 1.4 9.35 3.95 4.601 3.196 6.9 5.55 2.298 2.41 2.55 2.3 0.302-0.11 1.65-1.15 0.421-0.29 0.7-0.7-0.35 0.25-0.55 0.25-0.7 0-4.65-2.85-5.3-3.85-8.05-5.45-4.2-2.5-9.45-4.2-2.392-0.797-4.4-1.25m-9.15-6.25q-1.45-0.9-2.35-0.9-1.3 0-3.1 0.8-0.1223 0.056-0.25 0.1-1.676 0.833-2.75 2-1.15 1.15-3.1 2.35-1.6467 1.056-2.65 1.3 0.0902 0 0.15 0 1.85-0.7 3.3-0.7 0.95 0 3.8 0.3 0.7883 0 1.5-0.15 0.1051 0.236 0.25 0.4 0.5779 0.578 1.7 0.85 0.1451-0.05 0.5-0.05 0.299 0 0.9 0.05 0.5135 0.094 1.2 0.2 0-0.718 0.05-1.45-0.5773-0.15-1.6-0.3-0.6904-0.099-1.3-0.2 0.4654-0.186 0.85-0.45 1.1391-0.792 2.55-2.8 0.1703-0.664 0.35-1.35m5.8-18.3q-2.657-0.9-4.15-0.9-2.15 0-3.55 1.05-1.35 1.1-1.35 2.7 0 0.65 0.5 2.05 0.3842 1.076 0.45 1.8 0.3863-0.093 0.75-0.15 0.9828-0.2 1.95-0.2 0.565 0 1.1 0-0.03-0.209-0.05-0.45 0.002-0.14 0-0.3 0-0.01 0-0.05 0-0.343 0.05-0.7 0.029-0.322 0.1-0.65 0.35-1.416 1.5-2.6 1.201-1.238 2.7-1.6m0.05 24.85q0.419-0.37 0.8-0.75 3.971-3.65 4.6-6.15 0.132-0.563 0.15-0.8 0-0.022 0-0.05 0-0.05 0-0.1-0.026-0.884-0.5-1.65-0.037-0.106-0.1-0.2-0.8-1.2-2.25-1.2-4.655 0-7.3 11.3 1.514 0.317 3.55 0.75 0.508-0.705 1.05-1.15z" fill="#970000"/>
   <path id="path111" d="m25.15 62.7q-1.809 0-4.05 0.4-0.054-0.099-0.15-0.2-1.3-1.45-3.95-1.45-0.598 0-1.15 0.1-1.499 0.362-2.7 1.6-1.15 1.184-1.5 2.6-0.071 0.328-0.1 0.65-0.05 0.357-0.05 0.7 0 0.04 0 0.05 0.002 0.16 0 0.3 0.02 0.241 0.05 0.45-0.535 0-1.1 0-0.9672 0-1.95 0.2-0.3637 0.057-0.75 0.15-1.2459 0.322-2.55 0.95-3.25 1.55-4.5 4.2-1.35 2.7-2.55 6-0.3 0.9-1.1 2.2-0.7 1.2-1.15 1.75-0.75 0.5-0.75 1 0 0.4 0.2 0.75 0.1277 0.204 0.3 0.3 0.1002 0.076 0.2 0.1 1.0033-0.244 2.65-1.3 1.95-1.2 3.1-2.35 1.074-1.167 2.75-2 0.1277-0.044 0.25-0.1 1.8-0.8 3.1-0.8 0.9 0 2.35 0.9-0.1797 0.686-0.35 1.35-1.4109 2.008-2.55 2.8-0.3846 0.264-0.85 0.45 0.6096 0.101 1.3 0.2 1.0227 0.15 1.6 0.3-0.05 0.732-0.05 1.45 0.0012 2.657 0.45 5.5 0.7 4.4 2.05 4.4 0.25 0 0.3-0.05l0.35-1.05q-0.011-0.17-0.05-0.35 0.024-0.122 0-0.25 0.091-1.725 1.15-3.25 0.8-1.1 2.9-2.9 0.25-0.219 0.55-0.5 0.93-0.75 2.35-1.85 2.008 0.453 4.4 1.25 5.25 1.7 9.45 4.2 2.75 1.6 8.05 5.45 3.95 2.85 4.65 2.85 0.2 0 0.55-0.25 0.649-0.813 0.65-1.95 0-0.3-0.25-1.2-0.103-0.325-0.2-0.6-0.537-0.703-1.4-1.55-2.6-2.55-5.7-4.05-4.3-1.95-5.9-2.75-2.6-1.35-2.6-2.45 0-1.45 3.05-1.45t7.4 2.5q4.3 2.45 5.9 2.45 3.4 0 3.55-3.4-0.052-0.472-0.25-1-0.125-0.32-0.25-0.6-0.195-0.638-0.3-1.15-1.206-7.627-5.95-12.65-6.65-7.05-18.9-7.05m-2.95 3.2q-0.521-0.395-0.95-0.55l-0.9 0.1q-0.499-0.275-1-0.4-0.9-0.2-2.75-0.2-2.961 0-5 1.5 0.471-0.615 1.1-1.15 1.95-1.55 5.2-1.55 1.841 0 3.9 0.8 0.25 0.63 0.4 1.45m-7.4-0.05q0.092 0.009 0.2 0-0.25 1.15 0.6 2.65 0.124 0.224 0.25 0.4l-0.05 0.05q-0.18 0.221-0.4 0.45-0.155 0.179-0.3 0.35-0.149-0.476-0.3-1.1-0.3-1.5-0.3-2.05 0-0.4 0.3-0.75m1.9 19.8q-0.381 0.38-0.8 0.75-0.542 0.445-1.05 1.15-2.036-0.433-3.55-0.75 2.645-11.3 7.3-11.3 1.45 0 2.25 1.2 0.063 0.094 0.1 0.2 0.474 0.766 0.5 1.65 0 0.05 0 0.1 0 0.028 0 0.05-0.018 0.237-0.15 0.8-0.629 2.5-4.6 6.15z" fill="#f00"/>
   <path id="path113" d="m15 65.85q-0.108 0.009-0.2 0-0.3 0.35-0.3 0.75 0 0.55 0.3 2.05 0.151 0.624 0.3 1.1 0.145-0.171 0.3-0.35 0.22-0.229 0.4-0.45l0.05-0.05q-0.126-0.176-0.25-0.4-0.85-1.5-0.6-2.65m6.25-0.5q0.429 0.155 0.95 0.55-0.15-0.82-0.4-1.45-2.059-0.8-3.9-0.8-3.25 0-5.2 1.55-0.629 0.535-1.1 1.15 2.039-1.5 5-1.5 1.85 0 2.75 0.2 0.501 0.125 1 0.4l0.9-0.1z" fill="#C61C1C"/>
  </g>
  <g id="Symbol_197_0_Layer0_0_FILL">
   <path id="path116" d="m21.5 72.15q0-1.05-0.05-1.7-0.55 0.7-1.25 1.35-2.45 2.3-5.05 2.3-4.9 0-8.2-3.15 0 2.65 0.5 5.8 1.45 0.9 2.7 1.3 1.6 0.45 4.35 0.45 2.55 0 3.95-0.55 1.8-0.7 3-2.6 0.1-1.9 0.05-3.2z" fill="#1E1A12"/>
   <path id="path118" d="m20.9 64.35v0.25l0.05 0.6q0.38 4.642 0.4 4.8 0.05 0.2 0.1 0.4 0.089-0.125 0.15-0.25 1.114-1.65 1.3-3.6-0.074-0.793-0.15-1.55-0.05-0.769-0.1-1.5l-1.8 0.15q-0.004 0.051 0 0.1 0.015 0.169 0 0.3l0.05 0.3m1.75-1.2l-1.8 0.5 1.8-0.15q0-0.2 0-0.35m-1.8-22.7q-0.197-4.554-0.3-10.55-0.113-6.592 0.25-11.15l-1.9-0.15q-0.843 9.127 0.15 21.95l1.8-0.1m0.45 7.4l-0.65 0.05-0.3 0.05-0.75 0.05q0.815 10.187 1.25 15.65l1.8-0.5q-0.798-8.982-1.35-15.3m-1.25 0.1h-0.45v0.05l0.75-0.05h-0.3m-1-7.35q0.311 3.964 0.55 7.35h0.45l1.25-0.1q-0.267-3.057-0.45-7.4l-1.8 0.1q0.003 0.037 0 0.05m2-24.65q0.238-1.726 0.55-3.05l-1.8-0.4q-0.017 0.061-0.05 0.1-0.26 1.448-0.5 3 0.018 0.076 0 0.1l1.8 0.25m-0.25 2.8q0.107-1.512 0.25-2.8l-1.8-0.25q-0.175 1.367-0.35 2.8 0.019 0.062 0 0.1l1.9 0.15m3.3-17.2q-0.179 0.2438-0.35 0.5-2.636 3.8846-3.95 10.4-0.005 0.049 0 0.05l1.8 0.4q1.25-5.35 4.3-9.5-0.5-0.8-1.35-1.55-0.2-0.2-0.45-0.3z" fill="#A03800"/>
   <path id="path120" d="m20.65 47.9l0.65-0.05-1.25 0.1h0.3l0.3-0.05m-13.95-9.75l-0.9-1.45q0.3 1.45 0.9 1.45z" fill="#A90000"/>
   <path id="path122" d="m18.85 2.9q-1.15-1.2-2.3-1.9-4.35 4.35-7.5 14.35-3.5 11.1-3.5 18.8 0 1.45 0.25 2.55l0.9 1.45q1.7 0 4.65-15.15 3.15-16.35 7.5-20.1z" fill="#B33F00"/>
   <path id="path124" d="m22.1 1.1q-1.05 0-1.8 0.45-0.6 0.4-1.45 1.35-4.35 3.75-7.5 20.1-2.95 15.15-4.65 15.15-0.6 0-0.9-1.45-0.25-1.1-0.25-2.55 0-7.7 3.5-18.8 3.15-10 7.5-14.35-4.3-2.65-8.35 1.85-6.2 6.95-7.4 16.2-1.25 9.9-0.5 19.8 0.65 9.1 1.15 18.2 0.4 8.05 5.5 13.9 3.3 3.15 8.2 3.15 2.6 0 5.05-2.3 0.7-0.65 1.25-1.35v-0.05q-0.05-0.2-0.1-0.4-0.02-0.158-0.4-4.8l-0.05-0.6v-0.25l-0.05-0.3q0.015-0.131 0-0.3-0.004-0.049 0-0.1-0.435-5.463-1.25-15.65v-0.05q-0.239-3.386-0.55-7.35 0.003-0.013 0-0.05-0.993-12.823-0.15-21.95 0.019-0.038 0-0.1 0.175-1.433 0.35-2.8 0.018-0.024 0-0.1 0.24-1.552 0.5-3 0.033-0.039 0.05-0.1-0.005-0.001 0-0.05 1.314-6.5154 3.95-10.4l-1.65-0.95z" fill="#F95B05"/>
   <path id="path126" d="m23.75 2.05q0.171-0.2562 0.35-0.5-0.8-0.45-2-0.45l1.65 0.95z" fill="#f00"/>
  </g>
  <g id="Symbol_196_0_Layer0_0_FILL">
   <path id="path129" d="m-35.15 1.2l1.55-0.5q-2.073-1.6894-2.85-2.85 0.619 1.4748 1.3 3.35m90.9-4.6q0.307-0.9938 0.5-1.9-0.664 0.4441-1.35 0.9l0.85 1.35q0.012-0.1553 0-0.35z" fill="#A90000"/>
   <path id="path131" d="m-29.9 11q-0.569-0.185-1.15-0.4 0.816 0.73 1.75 1.5l0.2-0.85q-0.403-0.118-0.8-0.25z" fill="#f00"/>
   <path id="path133" d="m-14.45 10.5q0-1.4-3.55-2.8-2.25-0.9-9.3-3.3-3.2-1.2-6.3-3.7l-1.55 0.5q0.378 0.9229 0.75 1.95-2.638 3.7834 3.35 7.45 0.581 0.215 1.15 0.4 0.397 0.132 0.8 0.25 4.159 1.25 8.9 1.25 5.75 0 5.75-2m69.35-14.9q-1.975 1.2904-4.15 2.65-6.35 4.05-9.9 5.65-0.75 0.35-6.7 2.8-1.288 0.515-2.15 0.9-0.05 0.051-0.1 0.05-1.386 0.7033-1.6 1.1v0.4l2.45 0.15q4.9 0 13-4.6 5.938-3.376 10-7.75l-0.85-1.35z" fill="#B33F00"/>
   <path id="path135" d="m48.65-7.45q-0.369 0.3053-0.8 0.6-4.043 2.7771-15.7 8.55-11.664 5.7662-16.1 6.75-28.756-2.1104-54.05-19.8-0.579 3.5965 1.25 8.55 0.158 0.3426 0.3 0.65 0.777 1.1606 2.85 2.85 3.1 2.5 6.3 3.7 7.05 2.4 9.3 3.3 3.55 1.4 3.55 2.8 0 2-5.75 2-4.741 0-8.9-1.25l-0.2 0.85q4.45 3.05 9.85 4.05 9 1.95 17.8-0.55 0.0604-0.011 0.1-0.05 0.1861 0.065 0.35 0.1 9.5508 1.504 19.9 5 10.406 3.489 21.85-3.15 11.486-6.64 13.5-10.9 2.02-4.2527 1.7-9.65-4.062 4.374-10 7.75-8.1 4.6-13 4.6l-2.45-0.15v-0.4q0.214-0.3967 1.6-1.1 0.05 0.001 0.1-0.05 0.862-0.385 2.15-0.9 5.95-2.45 6.7-2.8 3.55-1.6 9.9-5.65 2.175-1.3596 4.15-2.65 0.686-0.4559 1.35-0.9 0.715-1.1975 1.05-2.4 0.384-1.1465-0.05-3.35-0.148-0.753-1.2-2.25-2.022 1.967-4.55 3.8l-2.85 2.05z" fill="#F95B05"/>
  </g>
  <g id="Duplicate_Items_Folder_neck_Policeman_29_Layer0_0_FILL">
   <path id="path138" d="m49.75 38.8q0.5-12.8-3.65-28.35-4.2-15.55-14.45-17.4-10.3-1.9-15.55 8.05-5.3 9.95-4.2 33.45-0.85 13.75-2.65 22.85-2.15 10.95-6.2 18.55-4.75 12.7 6.55 17.1 9.6 3.7 25.85 0.45 15.65-3.2 23.65-9.75 8.9-7.3 0-13.4-6.2-3.9-8.1-11.7-1.75-7.1-1.25-19.85z" fill="#F1BB97"/>
  </g>
  <g id="bodyParts_accesories_Shoe_Scientist_S_41_Layer1_0_FILL">
   <path id="path141" d="m31.1 30.35q-0.1 0.1-0.15 0.2 0.5 0.75 1.1 1.65 0.65-0.65 1.45-1.25-0.3-0.65-0.5-1.1-0.1-0.25-0.2-0.55-0.1 0.1-0.15 0.1t-0.1 0.05q-0.8 0.4-1.45 0.9m-7.3-9.3q-0.2-0.15-0.3-0.25h0.05q-0.65-0.55-2-2-0.15-0.15-0.35-0.35-0.65-0.25-1.3-0.45-1.75-0.55-2.9-1.6-0.05-0.15-0.1-0.3-0.45-1-0.85-1.85-1.2-2.25-2.6-3-0.1 0.2-0.25 0.45-0.85 0.35-1.55 0.9 1.65 4.35 5.65 6.15 4.1 1.8 8.5 5.45 1.85 1.75 4.25 5.05l0.05-0.15q0.7-0.8 1.7-1.5-0.6-1-1.2-1.95-0.6 0.3-1.05 0.65-0.25 0.25-0.5 0.45-0.55-0.25-0.65-0.5-0.2-0.25-0.2-0.7l0.3-0.5q0.5-0.45 1.1-0.95-0.2-0.2-0.25-0.3-2.2-0.7-3.6-1.55-1.05-0.6-1.95-1.2m21.7 3.6v0.05q-0.3 0.05-0.55 0.1-0.35 0.15-0.7 0.2 0.05 0.05 0.1 0.1l1.25 1.75 1.3 0.4 0.2 0.95-0.5 0.1 0.05 0.1 1 1.7q-0.35 0.5-0.7 0.95-0.55 0.6-1.05 1.05-0.4 0.3-0.75 0.45-1.25 0.5-1.8 0.8-0.55 0.25-1.2 0.4-3.3 1-5.55 0.8-0.65-0.05-1.2-0.2-0.15 0-0.3-0.1-0.4-0.3-0.75-1.2-0.05-0.15-0.05-0.2-0.1 0-0.15 0.05-0.6 0.35-1.15 0.75 1.25 2.05 2.65 3.55 0.45 5.4-0.7 10.2-22.3-5.8-20.9-20.3l-0.15-1.35-5.1-7.95q-0.2 0.95-0.25 1.9l3.85 5.95q-2.55 18 22.2 23.2 1.05 0.2 2.2 0.45 1.3 0.2 2.7 0.4 2.15 0 3.85-0.2 5.4-0.4 7.75-5.45 0.35-0.75 0.75-1.45 0.55-1.15 0.95-2.35-6.25 9.8-15.6 7.45 1.35-5.9 0.2-10.65 7.25-0.75 10.75-3.45 3.65 2.6 4.8 6.1 0.35-1.55 0.4-3.05-2-3.35-5.2-5.05 1.85-0.9-2.65-6.95z" fill="#2D2A2A"/>
   <path id="path143" d="m30.6 25.65q0.6 0.95 1.2 1.95 0-0.1 0.1-0.15 1.55-1.15 3.75-2.15-1.5-0.25-3.15-0.6-0.4 0.1-0.6 0.25-0.45 0.15-0.7 0.35-0.05 0.05-0.1 0.05t-0.1 0.05q-0.2 0.15-0.4 0.25m-1.25-1.85q0.05 0.1 0.25 0.3 0.05-0.1 0.2-0.2-0.25-0.05-0.45-0.1m14.55 1.3l-0.55 0.15q-2.95 0.8-5.75 1.95-2.7 1.05-4.15 1.75-0.45 0.2-0.65 0.35 0.1 0.3 0.2 0.55 0.2 0.45 0.5 1.1 1.6-1.2 3.9-2.25 3-1.3 5.95-1.7 1.15-0.15 2.25-0.15l-1.25-1.75q-0.05-0.05-0.1-0.1-0.2 0.05-0.35 0.1m2.75 3.3l-0.05-0.1q-1.65 0.4-3.25 0.95-2.1 0.65-4.15 1.45-2.7 1-4.15 1.75 2.4 0.4 6.15-0.75 1.2-0.3 2.15-0.75 1.1-0.5 1.95-1.15 1.1-0.7 1.35-1.4m5.35-23.75q-0.25-0.6-0.6-1-1-1.15-2.35-1.15-0.9 0-5.85 2.1-4.9 2.1-8.55 2.1-0.85 0-4.35-0.7-3.45-0.8-4.7-0.8-2.25 0-3.75 1.7 0.95 0.2 2.6 0.75 1.5 0.5 3.65 1.25 4.5 1.65 8.2 2.1 1.35 0.15 2.55 0.15 4.25 0 8.45-2.1 4.1-2.1 4.7-4.4z" fill="#A2A2A2"/>
   <path id="path145" d="m9.25 16.1q-0.3 0.85-0.45 1.7l5.1 7.95 0.15 1.35q-1.4 14.5 20.9 20.3 1.15-4.8 0.7-10.2-1.4-1.5-2.65-3.55-0.15 0.05-0.3 0.15-0.2 0.25-0.45 0.45-0.55-0.25-0.65-0.5-0.2-0.25-0.2-0.7l0.3-0.5q0.15-0.2 0.35-0.35-0.6-0.9-1.1-1.65-0.2 0.1-0.35 0.2-0.5-0.25-0.65-0.45-0.15-0.25-0.15-0.75l0.25-0.3q-2.4-3.3-4.25-5.05-4.4-3.65-8.5-5.45-4-1.8-5.65-6.15-1.4 1.05-2.15 2.9-0.1 0.3-0.25 0.6m43.55 24.15q0.05-0.3 0.15-0.55-1.15-3.5-4.8-6.1-3.5 2.7-10.75 3.45 1.15 4.75-0.2 10.65 9.35 2.35 15.6-7.45m-7.35-16.2q0.05 0.3 0.05 0.6 4.5 6.05 2.65 6.95 3.2 1.7 5.2 5.05 0-2.65-1.1-5.35-0.95-2.25-3.1-3.7l-2.1-2.5q-0.3-0.6-0.75-1.55-0.5 0.25-0.85 0.5m7.05-16.35q0-1.85-0.5-3.05-0.6 2.3-4.7 4.4-4.2 2.1-8.45 2.1-1.2 0-2.55-0.15-3.7-0.45-8.2-2.1-2.15-0.75-3.65-1.25-1.65-0.55-2.6-0.75-0.3 0.3-0.55 0.65-0.15 0.25-0.3 0.45-1.05 1.8-1.05 4.05 0 1.95 0.65 3.1 0.5 0.85 1.6 1.75 1.6 0.35 3.55 0.65 7.45 1.15 15.75 1.15 0.9 0 1.8-0.05 1.35-0.05 2.7-0.3 0.6-0.15 1.05-0.2 0.25-0.25 0.5-0.45 4.95-4.7 4.95-10z" fill="#3A68C7"/>
   <path id="path147" d="m29.8 23.9q-0.15 0.1-0.2 0.2-0.6 0.5-1.1 0.95l-0.3 0.5q0 0.45 0.2 0.7 0.1 0.25 0.65 0.5 0.25-0.2 0.5-0.45 0.45-0.35 1.05-0.65 0.2-0.1 0.4-0.25 0.05-0.05 0.1-0.05t0.1-0.05q0.25-0.2 0.7-0.35 0.2-0.15 0.6-0.25-0.1-0.05-0.15-0.05-1.35-0.35-2.55-0.75m16.8 4.4l0.5-0.1-0.2-0.95-1.3-0.4q-1.1 0-2.25 0.15-2.95 0.4-5.95 1.7-2.3 1.05-3.9 2.25-0.8 0.6-1.45 1.25-0.2 0.15-0.35 0.35l-0.3 0.5q0 0.45 0.2 0.7 0.1 0.25 0.65 0.5 0.25-0.2 0.45-0.45 0.15-0.1 0.3-0.15 0.55-0.4 1.15-0.75 0.05-0.05 0.15-0.05 0.3-0.15 0.75-0.4 1.45-0.75 4.15-1.75 2.05-0.8 4.15-1.45 1.6-0.55 3.25-0.95m-1.1-3.65q0-0.3-0.05-0.6-0.15 0.1-0.25 0.15-0.4 0.25-0.65 0.3-0.25 0.15-0.55 0.25-2.4 0.85-5.3 0.85-1.3 0-3.05-0.3-2.2 1-3.75 2.15-0.1 0.05-0.1 0.15-1 0.7-1.7 1.5l-0.05 0.15-0.25 0.3q0 0.5 0.15 0.75 0.15 0.2 0.65 0.45 0.15-0.1 0.35-0.2 0.05-0.1 0.15-0.2 0.65-0.5 1.45-0.9 0.05-0.05 0.1-0.05t0.15-0.1q0.2-0.15 0.65-0.35 1.45-0.7 4.15-1.75 2.8-1.15 5.75-1.95l0.55-0.15q0.15-0.05 0.35-0.1 0.35-0.05 0.7-0.2 0.25-0.05 0.55-0.1v-0.05z" fill="#E9C923"/>
   <path id="path149" d="m30.3 23.45q-0.05 0.05-0.05 0.1-0.25 0.2-0.45 0.35 1.2 0.4 2.55 0.75 0.05 0 0.15 0.05 0.9-0.5 2.15-0.95-2.3-0.15-4.1-0.45-0.1 0.1-0.25 0.15m13.35 0.85q-0.35-0.45-0.75-0.85-3.6 0.25-7.1 1.8-0.1 0.05-0.15 0.05 1.75 0.3 3.05 0.3 2.9 0 5.3-0.85-0.2-0.3-0.35-0.45z" fill="#B49805"/>
   <path id="path151" d="m30.25 23.55q0-0.05 0.05-0.1 0.15-0.05 0.25-0.15-1-0.2-1.85-0.45 0.05 0.1 0.2 0.3 0.2 0.3 0.45 0.65 0.2 0.05 0.45 0.1 0.2-0.15 0.45-0.35m12.65-0.1q-0.2-0.3-0.45-0.55-1.5 0.7-2.05 0.85-0.4 0.05-3.35 0.05-1.25 0-2.4-0.05-1.25 0.45-2.15 0.95 1.65 0.35 3.15 0.6 0.05 0 0.15-0.05 3.5-1.55 7.1-1.8z" fill="#676767"/>
   <path id="path153" d="m24.25 20.2q-0.05 0.05-0.1 0.1-1.2-1.1-2.95-1.85 0.2 0.2 0.35 0.35 1.35 1.45 2 2h-0.05q0.1 0.1 0.3 0.25 0.9 0.6 1.95 1.2 1.4 0.85 3.6 1.55-0.25-0.35-0.45-0.65-0.15-0.2-0.2-0.3-2.6-0.75-3.9-2.05-0.35-0.3-0.55-0.6m22.8-2.05q-0.45 0.05-1.05 0.2-1.35 0.25-2.7 0.3-0.9 0.05-1.8 0.05-8.3 0-15.75-1.15-1.95-0.3-3.55-0.65 0.7 0.55 1.6 1.1 0.5 0.35 1.35 1 0.2 0.1 0.35 0.25 0.15 0.05 0.2 0.15 0.2 0.1 0.3 0.2 0.9 0.95 2.7 3.25 0.85 0.25 1.85 0.45 1.8 0.3 4.1 0.45 1.15 0.05 2.4 0.05 2.95 0 3.35-0.05 0.55-0.15 2.05-0.85 0.25 0.25 0.45 0.55 0.4 0.4 0.75 0.85 0.15 0.15 0.35 0.45 0.3-0.1 0.55-0.25 0.25-0.05 0.65-0.3 0.1-0.05 0.25-0.15 0.35-0.25 0.85-0.5-0.15-0.25-0.25-0.45-0.85-1.65-1.55-2.8-0.1-0.05-0.1-0.1t0.1-0.05q0.05-0.2 0.05-0.45 0.05 0.15 0.15 0.3 1.15-0.75 2.35-1.85z" fill="#0E2933"/>
   <path id="path155" d="m22.2 16.9q-1.1-0.9-1.6-1.75-0.65-1.15-0.65-3.1 0-2.25 1.05-4.05-3.35 0.55-6.9 2.2-0.35 0.5-0.65 1.05 1.4 0.75 2.6 3 0.4 0.85 0.85 1.85 0.05 0.15 0.1 0.3 1.15 1.05 2.9 1.6 0.65 0.2 1.3 0.45 1.75 0.75 2.95 1.85 0.05-0.05 0.1-0.1 0.2 0.3 0.55 0.6 1.3 1.3 3.9 2.05-1.8-2.3-2.7-3.25-0.1-0.1-0.3-0.2-0.05-0.1-0.2-0.15-0.15-0.15-0.35-0.25-0.85-0.65-1.35-1-0.9-0.55-1.6-1.1m25.45 13.2l-1-1.7q-0.25 0.7-1.35 1.4-0.85 0.65-1.95 1.15-0.95 0.45-2.15 0.75-3.75 1.15-6.15 0.75-0.45 0.25-0.75 0.4 0 0.05 0.05 0.2 0.35 0.9 0.75 1.2 0.15 0.1 0.3 0.1 0.55 0.15 1.2 0.2 2.25 0.2 5.55-0.8 0.65-0.15 1.2-0.4 0.55-0.3 1.8-0.8 0.35-0.15 0.75-0.45 0.5-0.45 1.05-1.05 0.35-0.45 0.7-0.95z" fill="#fff"/>
   <path id="path157" d="m51.15 44.15q0.35-0.8 0.7-1.55-0.4 0.7-0.75 1.45-2.35 5.05-7.75 5.45-1.7 0.2-3.85 0.2-1.4-0.2-2.7-0.4-1.15-0.25-2.2-0.45-24.75-5.2-22.2-23.2l-3.85-5.95q-0.95-0.4-0.6 0.8 0 0.1 0.05 0.25 0.1 0.3 0.4 0.75 0.1 0.1 0.15 0.2l3.05 4.8q-2.8 20 28.1 24.3 1.8-0.1 3.65-0.6 5.45-1 7.8-6.05z" fill="#B2B2B2"/>
   <path id="path159" d="m44.5 20.3q0-0.1 0-0.15-0.1 0-0.1 0.05t0.1 0.1z" fill="#54C6E8"/>
   <path id="path161" d="m44.5 20.15q0 0.05 0 0.15 0.7 1.15 1.55 2.8 0.1 0.2 0.25 0.45 0.45 0.95 0.75 1.55l2.1 2.5-1.25-2.5q-0.55-0.9-1.1-1.85-0.95-1.6-2.1-3.25-0.1-0.15-0.15-0.3 0 0.25-0.05 0.45z" fill="#63625E"/>
  </g>
  <g id="bodyParts_head_head_businessman_transform_dancer_9_Layer9_0_FILL">
   <path id="path164" d="m10.85 79.3q4.441 8.036 9.65 12 5.583 4.312 12.05 3.95 0.15 0 0.3 0 0.95-0.1 1.9-0.25 14.35-3.85 19.05-33.3-6.25 26.25-21.25 29.6-4.939 0.803-12.05-3.95-4.408-2.961-9.65-8.05z" fill="#C58D68"/>
  </g>
  <g id="bodyParts_face_whiteFace_0_Layer0_0_FILL">
   <path id="path167" d="m32.55 91.9q-8 1.3-21.7-12 0.463 0.839 0.9 1.6 8.93 15.015 20.8 14.35 0.15 0 0.3 0 0.95-0.1 1.9-0.25 14.35-3.85 19.05-33.3-1.116 4.688-2.55 8.6-1.3 3.776-2.85 6.85-1.497 3.02-3.25 5.4-5.256 7.11-12.6 8.75z" fill="#C58D68"/>
   <path id="path169" d="m55.7 36.5q-0.1-13.4-2.5-26.8-2.2-11.7-27.4-9.3-25.25 2.4-25.8 17.2l1.85 35.9q3.1 16.75 8.75 26.9 0.598 0.581 1.15 1.1-0.437-0.761-0.9-1.6 13.7 13.3 21.7 12 7.344-1.64 12.6-8.75 1.753-2.38 3.25-5.4 1.55-3.074 2.85-6.85 1.257-3.721 2.3-8.1 1.75-11.25 2.15-26.3z" fill="#F1BC97"/>
  </g>
  <g id="nose_dancer_0_Layer0_0_FILL">
   <path id="path172" d="m6.6 16.85q0.2 0.15 0.4 0.3 4.9 3.15 9.55 2.05 1.2-8.4-4.7-19-1.15-1.3-2.7 6.1-1.8 6.35-6 8.35-2.3-1.15-3.05-0.05-0.1 0.55-0.1 1.15 0.05-0.05 0.15-0.1 0.55-0.25 1.95-0.25 0.5 0 1 0.1 0.8 0.1 1.65 0.4 0.6 0.25 1.85 0.95z" fill="#DFA57F"/>
   <path id="path174" d="m7 17.15q-0.2-0.15-0.4-0.3-1.25-0.7-1.85-0.95-0.85-0.3-1.65-0.4-0.5-0.1-1-0.1-1.4 0-1.95 0.25-0.1 0.05-0.15 0.1 0 0.5 0.15 1.05 0.05 0.15 0.1 0.25 0.05 0.2 0.1 0.35 0.85 2.1 3.8 3.8 1.5 0.4 2.85 0.7 7.1 1.5 9-0.3 0.35-1.2 0.55-2.4-4.65 1.1-9.55-2.05m-1.5 0.7q0.05 0.05 0.15 0.15 1 0.85 1.65 2-4.25-1.3-4-3.4 1.25 0.5 2.2 1.25z" fill="#AC744E"/>
   <path id="path176" d="m5.65 18q-0.1-0.1-0.15-0.15-0.95-0.75-2.2-1.25-0.25 2.1 4 3.4-0.65-1.15-1.65-2z" fill="#905731"/>
  </g>
  <g id="Symbol_93_0_Layer0_0_FILL">
   <path id="path179" d="m14.75 34.1q-1.47-1.429-3.1-2.5-0.814-0.532-1.7-1-1.0887-0.553-2.3-1-0.0633-0.007-0.15-0.05-0.1127-0.02-0.25-0.05-1.4514-0.513-3.05-0.8l0.45 2.75q7.459 7.045 11.45 4.05-0.657-0.727-1.35-1.4z" fill="#B07A24"/>
   <path id="path181" d="m16.45 12.15q-2-18.05-16.45-9.25l4.2 25.8q1.5986 0.287 3.05 0.8 0.1373 0.03 0.25 0.05v-1.65 1.65q0.0867 0.043 0.15 0.05 1.2113 0.447 2.3 1l-0.25-1.1 0.25 1.1q0.886 0.468 1.7 1l0.1-1.3-0.1 1.3q1.63 1.071 3.1 2.5v-2.2 2.2q0.693 0.673 1.35 1.4 1.313-0.954 2.25-3 5.5-16.25-1.9-20.35m-3.65 16.6l-0.1-1.05 0.1 1.05m-2.45-0.95v-1.3 1.3m3.75 1.95l-0.1-0.85 0.1 0.85m-0.75 1.8l0.1-0.95-0.1 0.95m-7.45-5.25v-0.65 0.65m2.8 1.6v-1.6 1.6z" fill="#D19C3A"/>
  </g>
  <g id="Symbol_92_0_Layer0_0_FILL">
   <path id="path184" d="m49.25 34.3q8.1 3.1 10.6 2.2 2.7-2.3 4.95-4.5-14.9-4.35-30.6-6-13.15-1-18.35 5.4-3 5.05 0.9 10.8-0.75-4-0.4-5.2 0.9-2.9 2.85-4t7.1-1.35q18 0.35 22.95 2.65z" fill="#B07A24"/>
   <path id="path186" d="m73.1 20.65q-2-1.95-2.65-4-0.05-0.2-0.35-1.3-0.35-1.15-2.55-1.5t-5.45 1.5q-3.25 1.8-5.5-0.3-3.25-1.8-8.1 1.7-4.4 4.4-7.55 3.6-3.3-1.15-6.05-0.4-16.3 2.95-29.4 2 18.55-1.05 28.55-4.05 3.7-1.8 5.7-0.95 1.85 0.75 3.8-1.6l5.55-5.8q4.45-4.35 10.45-2 2 0.95 5.55-0.3 3.3-3.1 5.65-0.1t3.45 10.4q1.75-6.55-1.7-12.45-9.65-10.65-26.45 0.85-16.8 11.45-26.4 10.95-0.8-6.75-6.15 0-2.05-5.6-8 1.75-1.35 0.7-2 1.25-0.65 0.5-1.15 1.2-0.55 0.65-1.15 2.25-1.25 3.4-1.2 7.05 0.05 4.4 2.65 7.85 2.75 3.6 7.1 5.45 3.65 1.05 7-1.5-3.9-5.75-0.9-10.8 5.2-6.4 18.35-5.4 15.7 1.65 30.6 6 5.85-5.9 8.3-11.35z" fill="#D19C3A"/>
   <path id="path188" d="m70.45 16.65q0.65 2.05 2.65 4 0.7-1.6 1.1-3.1-1.1-7.4-3.45-10.4t-5.65 0.1q-3.55 1.25-5.55 0.3-6-2.35-10.45 2l-5.55 5.8q-1.95 2.35-3.8 1.6-2-0.85-5.7 0.95-10 3-28.55 4.05 13.1 0.95 29.4-2 2.75-0.75 6.05 0.4 3.15 0.8 7.55-3.6 4.85-3.5 8.1-1.7 2.25 2.1 5.5 0.3 3.25-1.85 5.45-1.5t2.55 1.5q0.3 1.1 0.35 1.3z" fill="#F2E3B5"/>
  </g>
  <g id="Duplicate_Items_Folder_Symbol_88_copy_0_Layer0_0_FILL">
   <path id="path191" d="m1.45 1.3q4.7 6.8 14.8 4.1-10.1 1-14.8-4.1m-1.2 2q-0.4-3.05 2.6-3.2-3.75-0.6-2.6 3.2z" fill="#C6906E"/>
  </g>
  <g id="bodyParts_face_eye_Policeman_dancer_24_Layer3_0_FILL">
   <path id="path194" d="m7.4 2.35q-1.6676-0.4279-3.15-0.3-1.65 0.15-2.8 0.8-1.45 0.85-1.45 2.05-0.0011719 1.1941 1.45 1.7 1.5031 0.5176 3.65 0.45 2.1467-0.0676 3.65-0.5 1.551-0.4441 1.55-1.65 0-0.6-0.35-1.1-0.4-0.5-1.2-0.95-0.65-0.35-1.35-0.5z" fill="#fff"/>
  </g>
  <g id="Mask_bodyParts_face_eye_Policeman_dancer_24_2_MASK_0_MEMBER_0_FILL">
   <path id="path197" d="m7.4 2.35q-1.6676-0.4279-3.15-0.3-1.65 0.15-2.8 0.8-1.45 0.85-1.45 2.05-0.0011719 1.1941 1.45 1.7 1.5031 0.5176 3.65 0.45 2.1467-0.0676 3.65-0.5 1.551-0.4441 1.55-1.65 0-0.6-0.35-1.1-0.4-0.5-1.2-0.95-0.65-0.35-1.35-0.5z" fill="#fff"/>
  </g>
  <g id="Duplicate_Items_Folder_adsa_49_Layer1_0_FILL">
   <path id="path200" d="m5.15 2.25q0-0.1234 0-0.25-0.1613-0.7113-0.7-1.25-0.75-0.75-1.85-0.75t-1.85 0.75-0.75 1.85q0 0.1236 0 0.25 0.084375 0.9344 0.75 1.6 0.5 0.5 1.1 0.65 0.1764 0.0662 0.35 0.1 0.3605-0.3 0.45-0.3 1.0172 0 1.7-0.75 0.0281-0.025 0.05-0.05l0.3-0.3q0.4-0.55 0.45-1.15 0-0.1 0-0.25 0-0.1 0-0.15m-2.35-0.75q0.0814-0.0406 0.15-0.05h0.05q0.5 0 0.85 0.35t0.35 0.85-0.35 0.85-0.85 0.35q-0.1 0-0.2 0-0.102-0.0146-0.2-0.05-0.2375-0.0875-0.45-0.3-0.35-0.35-0.35-0.85t0.35-0.85q0.3-0.3 0.65-0.3z" fill="#31A2C0"/>
   <path id="path202" d="m4.2 2.65q0-0.5-0.35-0.85t-0.85-0.35h-0.05q0.2848 0.0848 0.5 0.3 0.35 0.35 0.35 0.85t-0.35 0.85-0.85 0.35q0.098 0.0354 0.2 0.05 0.1 0 0.2 0 0.5 0 0.85-0.35t0.35-0.85z" fill="#0D4C5D"/>
   <path id="path204" d="m2.95 1.45q-0.0686 0.0094-0.15 0.05-0.35 0-0.65 0.3-0.35 0.35-0.35 0.85t0.35 0.85q0.2125 0.2125 0.45 0.3 0.5 0 0.85-0.35t0.35-0.85-0.35-0.85q-0.2152-0.2152-0.5-0.3z" fill="#186A80"/>
   <path id="path206" d="m5.2 2.6q0-0.31-0.05-0.6 0 0.1266 0 0.25 0 0.05 0 0.15 0 0.15 0 0.25-0.05 0.6-0.45 1.15l-0.3 0.3q-0.0219 0.025-0.05 0.05-0.6828 0.75-1.7 0.75-0.0895 0-0.45 0.3 0.2484 0.05 0.5 0.05 1.05 0 1.65-0.65l0.4-0.45q0.4-0.55 0.45-1.15 0-0.1 0-0.25 0-0.1 0-0.15z" fill="#278BA5"/>
  </g>
  <g id="Duplicate_Items_Folder_adsa_49_Layer0_0_FILL">
   <path id="path209" d="m1.9 2.9q-0.1-0.1-0.2-0.1-0.15 0-0.2 0.1-0.1 0.1-0.1 0.2t0.1 0.2q0.05 0.1 0.2 0.1 0.1 0 0.2-0.1 0.05-0.1 0.05-0.2t-0.05-0.2m0.85-0.9q0-0.3-0.2-0.5t-0.5-0.2-0.5 0.2-0.2 0.5 0.2 0.5 0.5 0.2 0.5-0.2 0.2-0.5z" fill="#fff"/>
  </g>
  <g id="bodyParts_face_eye_Policeman_dancer_24_Layer0_0_FILL">
   <path id="path212" d="m10.9 2.95l-0.1-0.1q-5.1-5.4-10.7-0.6l3.1-1.05q0.5-0.15 1-0.2 0.25-0.05 0.55-0.05h0.45q0.3 0 0.6 0.05l1.7 0.25 0.85 0.3q0.4 0.15 0.85 0.35 0.8 0.4 1.6 1 0.047 0 0.1 0.05z" fill="#C6906E"/>
  </g>
  <g id="bodyParts_face_ear_Policeman_9_Layer0_0_FILL">
   <path id="path215" d="m11.1 6q-0.1-0.3-0.2-0.65l-0.9-2.15q-3.1-3.9-6.25-3.05-4.7 1.65-3.5 8.1 1.55 6.65 7.2 5.95 5.7-1.3 3.7-8 0-0.05 0-0.1-0.05-0.05-0.05-0.1m-1.35 0.45q-2.4-0.15-3.6 2.05-0.7-1.9 2-2.75-2.6-1.95-4.05 1.3-0.7-2.4 0.5-3.45 3.5-1.5 5.15 2.85z" fill="#F1BC97"/>
   <path id="path217" d="m6.15 8.5q1.2-2.2 3.6-2.05-1.65-4.35-5.15-2.85-1.2 1.05-0.5 3.45 1.45-3.25 4.05-1.3-2.7 0.85-2 2.75z" fill="#C58D68"/>
  </g>
  <g id="bodyParts_face_eyebrow_Policeman_dancer_0_Layer0_0_FILL">
   <path id="path220" d="m13.1 3.3q2.95-0.05 2.95-0.95-0.05-1-1.6-1.3-10.6-0.75-14.15 1.4-0.85 1.45 0.7 1.4 3.8-0.85 6.45-0.7 2.65 0.2 5.65 0.15z" fill="#D19C3A"/>
  </g>
  <g id="bodyParts_face_eyebrow_Policeman_dancer_1_Layer0_0_FILL">
   <path id="path223" d="m0.8 3.4q-0.4 0.6 0.7 1.25 4.35 1 8.2 0.8 3.8-0.2 5.75-1.45 0.95-0.65-0.3-1.7-1.3-1-3.25-0.2-1.9 0.8-4.4 0.9-1.6 0.1-4.95-0.1-1.45-0.05-1.75 0.5z" fill="#D19C3A"/>
  </g>
  <g id="Duplicate_Items_Folder_Dancer_hat_0_Layer2_0_FILL">
   <path id="path226" d="m16.05 38.1q-7.1494 4.117-14.8 5.85-2.3943 2.494-0.15 5.75 4.4834-2.035 14.95-11.6m19.2-29.4q-0.4-1.75-4.7-1.8-11.15-0.1-18.45 5.65-5.6 4.45-7.6 10.9-1.3 3.7 0.7 5.65t4.2-1.75q2.95-4.95 8.3-9.5 6.75-5.8 13.1-6.55 4.85-0.85 4.45-2.6z" fill="#fff"/>
   <path id="path228" d="m37.5 3.45v-0.05q-0.05-0.1092-0.05-0.25 0-0.35-0.5-0.6-0.45-0.25-1.1-0.25t-1.15 0.25q-0.45 0.25-0.45 0.6 0 0.1184 0.05 0.2v0.05h0.55 0.1q0.052-0.0027 0.1 0 0.45 0 0.95 0 0.527 0.0043 1.05 0l0.05 0.05v-0.05l0.4 0.05z" fill="#8F7965"/>
   <path id="path230" d="m40.7 40.85q1.004-0.095 2-0.2 0.05 0 0.15 0 6.671-0.764 13.25-0.9 4.028 0.101 8 0.45 0.1 0 0.15 0 0.6 0.05 1.15 0.1 0.1 0 0.2 0.05 1.029 0.077 2 0.15l-3.15-0.3v-21.9q-10.7-12.65-26-11.3l0.9 14.15h0.15l1.2 19.7z" fill="#A8A8A8"/>
   <path id="path232" d="m68.55 18.95q0.014-0.05 0-0.1-1.853-14.827-31.05-15.45v0.05l-0.4-0.05v0.05l-0.05-0.05q-0.523 0.0043-1.05 0-0.5 0-0.95 0-0.048-0.0027-0.1 0h-0.1-0.55v-0.05q-0.528 0.0209-1.05 0.05-26.5 0.45-31 16.05-0.25 0.85-0.45 1.7-0.0703 0.369-0.55 2.65h-0.05q0.0312 0.443 0.05 0.9v19.25q7.6506-1.733 14.8-5.85-10.467 9.565-14.95 11.6-0.2084-0.03 1.1 1.45 0.0275 0.025 0.05 0.05 0.35-0.15 0.7-0.25 13.829-5.82 28.7-8.6 1.097-0.211 2.2-0.4 0.15-0.05 0.4-0.1 2.788-0.498 5.6-0.85 0.064-0.017 0.1-0.05 0.394-0.024 0.75-0.1l-1.2-19.7h-0.15l-0.9-14.15q15.3-1.35 26 11.3v21.9l3.15 0.3q0.369 0.043 0.7 0.05 0.265 0.064 0.5 0.1v-0.05-19q0.029-0.228 0.05-0.45h0.1q-0.022-0.271-0.05-0.55 0.062-0.858-0.3-1.65h-0.05m-38-12.05q4.3 0.05 4.7 1.8t-4.45 2.6q-6.35 0.75-13.1 6.55-5.35 4.55-8.3 9.5-2.2 3.7-4.2 1.75t-0.7-5.65q2-6.45 7.6-10.9 7.3-5.75 18.45-5.65z" fill="#EDEDED"/>
  </g>
  <g id="Duplicate_Items_Folder_Dancer_hat_0_Layer0_0_FILL">
   <path id="path235" d="m84.95 46.65q0.65 0.5 1.05 1 0.2 0.25 0.35 0.5 0.1-0.25 0.2-0.45-2.5-4.7-17.8-6.45-16.3-1.9-35.15 1.35-13.85 2.7-24.15 6.45-5.2 1.9-8.4 3.55-0.05 0.25 0.15 0.5 0.75-0.35 1.55-0.65 0.25-0.15 0.5-0.25 0.1-0.05 0.2-0.05 1.85-0.8 3.7-1.5l17.8-5.65 1.75-0.4q2.6-0.6 5.2-1.1 1.55-0.3 3.05-0.5 2.55-0.45 5.1-0.75 12.15-1.45 24.05-0.4 0.2 0.015 0.4 0 0.45 0.065 0.9 0.1h0.05q14.5 1.1 19.3 4.55l0.05 0.05q0.05 0 0.1 0.05l0.05 0.05z" fill="#309"/>
   <path id="path237" d="m86 47.65q-0.4-0.5-1.05-1l-0.05-0.05q-0.05-0.05-0.1-0.05l-0.05-0.05q-4.8-3.45-19.3-4.55h-0.05q-0.45-0.035-0.9-0.1-0.2 0.015-0.4 0-11.9-1.05-24.05 0.4-2.55 0.3-5.1 0.75-1.5 0.2-3.05 0.5-2.6 0.5-5.2 1.1l-1.75 0.4-17.8 5.65q-1.85 0.7-3.7 1.5-0.1 0-0.2 0.05-0.25 0.1-0.5 0.25-0.8 0.3-1.55 0.65 0.5 0.65 1.95 0.55 0.0518 0.006 22.95-2.3 22.897-2.271 30-1.5 7.103 0.784 9.3 1.15 2.194 0.41 1.95 1.15-0.189 0.753-1.75 1.2l-0.35 0.05q0.004 0.267-0.05 0.55l4.45-0.7 8.4-1.7 0.35-0.05 3-0.6 0.25-0.05q0.862-0.28 1.55-0.6 2.49-0.975 3.15-2.1-0.15-0.25-0.35-0.5z" fill="#7D7D7D"/>
   <path id="path239" d="m85.95 45.95q-0.05-0.1-0.15-0.15-0.35-0.45-0.85-0.8-4.1-3.15-16.15-4.35-0.25-0.05-0.45-0.05-1.35-0.15-2.75-0.25-0.1-0.05-0.2-0.05-0.55-0.05-1.15-0.1-0.05 0-0.15 0-3.95-0.35-7.95-0.4-6.65 0.1-13.3 0.85-0.1 0-0.15 0-1.35 0.15-2.7 0.35-0.1 0-0.15 0-2.8 0.35-5.6 0.85-0.25 0.05-0.4 0.1-1.1 0.2-2.2 0.4-14.85 2.8-28.7 8.6-0.35 0.1-0.7 0.25l-0.05-0.05q-0.05 0-0.1 0.05-0.95 0.8-1.05 1.4 3.2-1.65 8.4-3.55 10.3-3.75 24.15-6.45 18.85-3.25 35.15-1.35 15.3 1.75 17.8 6.45 0.15-0.8-0.45-1.6-0.1-0.1-0.15-0.15z" fill="#fff"/>
  </g>
  <g id="bodyParts_hands_Palm_Scientist_dancer_0_Layer1_0_FILL">
   <path id="path242" d="m4.75 22.8q0.8-1.7-0.9-0.9 0.3 0.4 0.75 0.9l0.8 1.2q1.75 2.7 4.15 4.4 2 1.5 3.5 2.15 0.9 0.35 1.8 0.55 0.45 0.05 0.75 0.05 0.15 0.05 0.2 0.2 0.75 0.05 1.55 0.05 1.4 0 2.5-0.65 0.9-0.5 1.05-1.1-9.25 1.4-14.65-6.45 2.4-2.45 2.9-4.85-1.75 3.05-4.25 4.45h-0.15m21.75-9.55v-0.1q0-0.05 0-0.1-0.1-0.4-0.15-0.65-2.45-1.15-5-3.05 1.95 2.4 5.15 3.9z" fill="#C6906E"/>
   <path id="path244" d="m24.9 9q-0.35-0.5-0.7-0.75-1.3-1.1-4.6-1.15-0.4-0.05-0.7-0.05-0.85 0-1.95 0.05-1.05 0.1-1.2 0.1l-0.9-0.1h-0.15q-0.75-0.15-1.95-0.8-1.3-0.6-2.3-1.05-0.8-0.35-1.4-0.4-0.2 0-0.35 0-0.8-0.05-1.75 0.3-2 0.75-3.55 2.5-1.5 1.75-2.35 3.95-0.1 0.1-0.15 0.3-0.7 2-1.1 4.55-0.3 2.55 1.05 3.4 0.3 0.25 0.65 0.45 0.85 0.5 1.35 0.8 0.4 0.15 1 0.8 1.7-0.8 0.9 0.9h0.15q2.5-1.4 4.25-4.45-0.5 2.4-2.9 4.85 5.4 7.85 14.65 6.45 0.05-0.2 0.05-0.35 0-0.6 1.05-0.75 1.45-0.05 2.05-0.8 0.5-0.55 0.85-1.1 0.45-0.8 0.6-1.45 0.25-0.95-0.05-1.85-0.6-2.05 1.85-2.95 0.1-0.05 0.15-0.1 3-1 3-2.35 0-1.4-0.85-2.35-0.1-0.1-0.2-0.3-0.85-0.7-2.6-1.85-0.1-0.1-0.15-0.15-0.1 0-0.1-0.05l-0.05-0.1v0.1q-3.2-1.5-5.15-3.9 2.55 1.9 5 3.05-0.65-2.25-1.45-3.4z" fill="#F1BB97"/>
  </g>
  <g id="bodyParts_hands_Arm_Scientist_Dancer_41_Layer1_0_FILL">
   <path id="path247" d="m3.6 27q1.9 8.1 5.1 15.4 3.4 7.8 8.25 14.65 9 13.4 18.65 30.25 2.35 3.15 6.7 3.4 3.95 0.2 7.8-1.85 3.9-2.1 5.5-5.4 1.8-3.7-0.3-7.35-0.1-0.2-0.25-0.75 0-0.35-0.25-0.4-6.15-16.1-9.2-28.75-3.95-12.5-9.7-21.9-1.15-1.95-2.4-3.75-14.25-23.15-22.25-18.5-9.75 9.2-7.65 24.95z" fill="#F1BB97"/>
  </g>
  <g id="bodyParts_hands_Arm_Scientist_Dancer_41_Layer0_0_FILL">
   <path id="path250" d="m53.1 70.45h-0.05l1.15 2.85q0.1-0.15 0.2-0.3 0.05-0.15 0.15-0.3 0.1-0.2 0.2-0.25-0.401-0.45-1.05-0.75-0.102-0.052-0.6-1.25m-18.4 16.7q0.149-0.012 0.35-0.05 0.512 0.025 1-0.05l-1.6-2.05q-0.359 1.293 0.25 2.15z" fill="#AA1010"/>
   <path id="path252" d="m35.05 91.35q1.071 1.968 2.5 3.5 7.316-0.304 13.9-6.6 6.473-6.232 7.35-10.7-0.125-0.475-0.35-0.9-0.225-0.475-0.5-0.95-0.175-0.225-0.35-0.55-0.125 0.375-0.3 0.7-0.425 0.775-0.8 1.45-0.625 1.224-1.3 2.35-0.175 0.375-0.45 0.65-0.675 1.135-1.85 2.5-1.523 2.01-3.3 3.65-2.696 2.513-5.85 3.8-1.187 0.413-2.35 0.7-0.5 0.087-0.9 0.3-2.237 0.328-4.45 0.25-0.475-0.1-1-0.15z" fill="#fff"/>
   <path id="path254" d="m38.65 95.8q0.2 0.174 0.4 0.35 0.404-0.079 4.5-0.35 4.19-0.226 9.45-4.7 5.365-4.487 7.25-9.2-0.251-1.301-0.7-2.6 0-0.05 0-0.15-0.1-0.25-0.15-0.3-0.188-0.688-0.6-1.3-0.877 4.468-7.35 10.7-6.584 6.296-13.9 6.6 0.537 0.475 1.1 0.95m-5.55-10.2q-0.025 0.124-0.05 0.4-0.031 1.151 1.7 4.75 0.124 0.3 0.3 0.6 0.525 0.05 1 0.15 2.213 0.078 4.45-0.25 0.4-0.213 0.9-0.3 1.163-0.287 2.35-0.7 3.154-1.287 5.85-3.8 1.777-1.64 3.3-3.65 1.175-1.365 1.85-2.5 0.275-0.275 0.45-0.65 0.675-1.126 1.3-2.35 0.375-0.675 0.8-1.45 0.175-0.325 0.3-0.7-0.964-1.713-2.45-3.55l-2.05-1.15q0.498 1.198 0.6 1.25 0.649 0.3 1.05 0.75-0.1 0.05-0.2 0.25-0.1 0.15-0.15 0.3-0.1 0.15-0.2 0.3-0.949 1.736-1.9 3.3-0.799 1.036-1.9 2.4-0.8 0.899-1.6 1.75-1.661 1.824-3.5 3.05-0.587 0.349-1.25 0.75-3.631 2.142-8 2.5-0.488 0.075-1 0.05-0.201 0.038-0.35 0.05-0.609-0.857-0.25-2.15l-0.55-0.75q-0.36 0.358-0.8 1.35z" fill="#f00"/>
  </g>
  <path id="grid_0_Layer0_0_1_STROKES" stroke-linejoin="round" d="m527 31h31v-31h-31v31 31h31v-31m-31-31h-31v31h31m-31 31v31h31v-31h-31v-31h-31v31h31zm62 31h-31v31h31v-31-31m-62 93v31h31v-31h-31v-31h-31v31h31zm31-31v31h31v-31m-31 62h31v-31m-31-31h-31v-31h-31v31h-31v31h31v31h31v31h31v-31m-62-155v-31h-31v31h31zm-31 31v31h31v-31h-31v-31h-31v31h31zm-62-31v-31h-31v31h31 31v-31h-31m-31 62v31h31v-31h-31v-31h-31v31h31zm31 31h31v-31h-31v-31m31 93h-31v31h31v-31-31h31v31h-31zm-62 31v31h31v-31h-31v-31h-31v31h31zm62 31h-31v31h31v-31-31h31v31h31v31h31v31h31v-31h31v-31m-217-93v31h31v-31m31 124h31v-31h-31m0-186h31m0 248v31h31v-31h-31v-31h31v31h31v31h31v-31h31v-31m-217 31v31h31v-31h-31v-31h-31v31h31zm93 0h-31v31h31v31h31v-31h31v31h31v-31h31v-31m-155 31h-31v31h31v-31zm0-31h-31v-31h-31v-31h-31v31h-31v31h31v31h31v31h31v31h31v-31h31v31h31v-31h31v31h31v-31h31v-31m-155-62v31m-62 62v31h31v31h31v-31h31v31h31v-31h31v31h31v-31h31v-31m-217 31v31h31v31h31v-31h31v31h31v-31h31v31h31v-31h31v-31m-93-341h31m-155 0h-31v31h-31v31h31v31h31m-62-93h-31v31h31v-31h31m-62 31v31h31v31h31v31h-31v31h31v31h-31v31h-31v31h31v31h31v31h31m-93-248v31h31v31h-31v31h31v31h-31v31h-31v31h31v31h31v31h31v31h31m-93-341h-31v31h31m-62 0v-31h-31v31h31 31v31h31m-62 31v-31h-31v31h31 31v-31h-31v-31m0-31h31m-31 186v-31h-31v31h31 31v-31h-31v-31h-31v31h-31v31h31v31h31v-31zm31-31v-31h-31v-31m62 62v31h-31v31h-31v31h31v31h31v31h31v31h31v31h31v31h31m-155-279h31v-31h-31v31zm31 31h-31m-62-155h-31v31h31v31h-31v31h31v31h-31v31h-31v31h31v31h31v31h31v31h31v31h31v31h31v31h31v31h31m-248-372v-31h-31v31h31 31v31h-31v31h31v31h-31v31h-31v31h31v31h31v31h31v31h31v31h31v31h31v31h31v31h31m-248-372v31h31v-31m0-31h31m155 403h-31-31-31-31-31-31-31-31-31v-31-31-31-31-31-31-31-31-31-31-31-31-31h31 31m-62 62h31v-31h-31m31-31v31h31m-62 62h31v-31h31v31h31v31h-31v31h-31v31h31v31h31v31h31v31h31v31h31v31h31v31h31v31m-186-310h-31v31h31v-31zm-62 31h31v31h-31m0 62h31v-31h-31m93 93v-31h-31v31h31 31v31h31v31h31v31h31v31m-217-124h31v-31h-31m62-31h-31v31h31v-31zm0 62h-31v31h31v-31zm0 31v31h31v-31h-31zm-62 62h31v-31h-31m0-31h31v31h31v31h31v-31h31v-31h-31v-31m-31 124v-31h-31v31m124-62h-31v31h31v-31zm-31 62v-31h-31v31m62-31h31v31m372-31v31h-31m-93 0h-31m93 0h-31m-310-31v31" stroke="#444" stroke-linecap="round" fill="none"/>
  <path id="bodyParts_accesories_Shoe_Scientist_S_43_Layer1_0_1_STROKES" stroke-linejoin="round" d="m53.95 44.35q5 2.55 8.5 7.15" stroke="#000" stroke-linecap="round" fill="none"/>
  <path id="Symbol_93_0_Layer0_0_1_STROKES" stroke-linejoin="round" d="m7.275 29.5q0.1123 0.03 0.225 0.075v-1.675m5.3 0.85l-0.1-1.05m-2.35 0.1v-1.3m3.75 3.25l-0.1-0.85m0.75 5.2v-2.2m-7.075-2.275q-0.0883-0.032-0.175-0.05m4.15 2.025l0.1-1.3m1.6 1.25l0.1-0.95m-7.55-4.3v-0.65m4.075 4.975l-0.275-1.125m-1-1.6v-1.6" stroke="#B07A24" stroke-linecap="round" fill="none"/>
  <path id="Duplicate_Items_Folder_Dancer_hat_0_Layer0_0_1_STROKES" stroke-linejoin="round" d="m61.85 54.55l1.275-0.2" stroke="#ccc" stroke-linecap="round" fill="none"/>
  <path id="Layer3_0_1_STROKES" stroke-linejoin="round" d="m98.6 39.95q0 4.75-2.5 8.1-2.5 3.4-6 3.4t-6-3.4q-2.5-3.35-2.5-8.1t2.5-8.15q2.5-3.35 6-3.35t6 3.35q2.5 3.4 2.5 8.15z" stroke="#0cc" stroke-linecap="round" fill="none"/>
  <path id="Layer2_0_1_STROKES" stroke-linejoin="round" d="m64.9 55.1q0.9-2.6 1.3-3.95 0.7-2.35 0.7-4.05 0-1.35 0.1-2.1 0.5-1.4 0.65-2.15 0.35-1.3 0.3-3.45-0.1-2.95-0.05-3.55 0-1 0.25-1.25t0.8-0.5q0.55-0.2 0.7-0.35 0.3-0.3 0.35-0.85 0-0.6 0-0.9-0.15-2.8 0-5.65 0.05-0.65 0-1-0.05-0.65-0.35-0.85-2.1 0.45-4.65 2.5-1.45 1.2-1.85 2.25-0.15 0.5-0.25 1.6-0.2 1.7-1 3.25" stroke="#0c9" stroke-linecap="round" fill="none"/>
  <path id="positionChecker_9_Layer1_0_1_STROKES" stroke-linejoin="round" d="m1 0l31.3 31.3 31.75-31.3m-1 62.05l-30.75-30.75-32.3 31.75" stroke="#93c" stroke-linecap="round" stroke-width="5" fill="none"/>
  <path id="Symbol_1_0_Layer0_0_1_STROKES" stroke-linejoin="round" d="m21 0l21 15.25-8 24.5h-26l-8-24.5 21-15.25z" stroke="#93c" stroke-linecap="round" fill="none"/>
 </defs>
 <g id="g264" transform="translate(-.25 -.25)">
  <g id="g266">
   <use id="use268" xlink:href="#grid_0_Layer1_0_FILL"/>
  </g>
  <g id="g270">
   <use id="use272" xlink:href="#grid_0_Layer0_0_1_STROKES"/>
  </g>
 </g>
 <g id="g274" transform="matrix(.59894 .021179 -.026062 .58345 149.7 192)">
  <g id="g276" transform="matrix(.99695 .082809 -.082809 .99695 .1 19.3)">
   <g id="g278">
    <use id="use280" xlink:href="#Symbol_199_0_Layer0_0_FILL"/>
   </g>
  </g>
 </g>
 <g id="g282" transform="matrix(.58476 -.12218 .12901 .56934 183.8 207.9)">
  <g id="g284">
   <use id="use286" xlink:href="#bodyParts_legs_Scientist_hip_S_53_Layer2_0_FILL"/>
  </g>
 </g>
 <g id="g288" transform="matrix(.59894 .021179 -.026062 .58345 158.65 177.4)">
  <g id="g290">
   <use id="use292" xlink:href="#Duplicate_Items_Folder_ass_Policeman_49_Layer1_0_FILL"/>
  </g>
 </g>
 <g id="g294" transform="matrix(-.59213 .083435 .075195 .51501 243.55 112.2)">
  <g id="g296">
   <use id="use298" xlink:href="#bodyParts_hands_Shoulder_Scientist_dancer_52_Layer2_0_FILL"/>
  </g>
  <g id="g300">
   <use id="use302" xlink:href="#bodyParts_hands_Shoulder_Scientist_dancer_52_Layer1_0_FILL"/>
  </g>
 </g>
 <g id="g304" transform="matrix(.59390 -.078476 .080338 .59001 181.75 307.2)">
  <g id="g306">
   <use id="use308" xlink:href="#bodyParts_accesories_Shoe_Scientist_S_43_Layer1_0_FILL"/>
   <use id="use310" xlink:href="#bodyParts_accesories_Shoe_Scientist_S_43_Layer1_0_1_STROKES"/>
  </g>
 </g>
 <g id="g312" transform="matrix(.59886 .032028 .0027618 .59879 159.4 208.1)">
  <g id="g314">
   <use id="use316" xlink:href="#bodyParts_legs_Scientist_hip_S_50_Layer2_0_FILL"/>
  </g>
 </g>
 <g id="g318" transform="matrix(.59761 .042007 -.041260 .58226 192.45 254.95)">
  <g id="g320">
   <use id="use322" xlink:href="#bodyParts_legs_shok_scientist_S_32_Layer1_0_FILL"/>
  </g>
 </g>
 <g id="g324" transform="matrix(.59450 .070770 -.091812 .57655 154.9 259.1)">
  <g id="g326">
   <use id="use328" xlink:href="#bodyParts_legs_shok_scientist_S_33_Layer1_0_FILL"/>
  </g>
 </g>
 <g id="g330" transform="matrix(.59933 .010727 -.017868 .58383 124.75 95.95)">
  <g id="g332">
   <use id="use334" xlink:href="#bodyParts_Torso_Scientist_29_Layer1_0_FILL"/>
  </g>
 </g>
 <g id="g336" transform="matrix(.59830 .026749 -.037125 .60330 113.8 109.85)">
  <g id="g338">
   <use id="use340" xlink:href="#bodyParts_hands_Shoulder_Scientist_dancer_40_Layer1_0_FILL"/>
  </g>
  <g id="g342" transform="matrix(.99815 -.060730 .060730 .99815 -8.5 -3.1)">
   <use id="use344" xlink:href="#bodyParts_hands_Shoulder_Scientist_dancer_40_Layer0_0_FILL"/>
  </g>
 </g>
 <g id="g346" transform="matrix(.59894 .021179 -.026062 .58345 149.7 192)">
  <g id="g348" transform="matrix(-.99657 -.086945 -.053131 .60904 93.25 44.55)">
   <g id="g350">
    <use id="use352" xlink:href="#Symbol_197_0_Layer0_0_FILL"/>
   </g>
  </g>
  <g id="g354" transform="matrix(1.1036 -.025864 .030594 .99982 56 34.1)">
   <g id="g356">
    <use id="use358" xlink:href="#Symbol_196_0_Layer0_0_FILL"/>
   </g>
  </g>
  <g id="g360" transform="matrix(-.99625 .091034 .075897 .83063 102.9 35.2)">
   <g id="g362">
    <use id="use364" xlink:href="#Symbol_197_0_Layer0_0_FILL"/>
   </g>
  </g>
 </g>
 <g id="g366" transform="matrix(.59244 .078659 -.089249 .57726 171.2 57.85)">
  <g id="g368">
   <use id="use370" xlink:href="#Duplicate_Items_Folder_neck_Policeman_29_Layer0_0_FILL"/>
  </g>
 </g>
 <g id="g372" transform="matrix(.59941 -.021286 .021164 .59569 136.15 314.35)">
  <g id="g374">
   <use id="use376" xlink:href="#bodyParts_accesories_Shoe_Scientist_S_41_Layer1_0_FILL"/>
  </g>
 </g>
 <g id="g378" transform="matrix(.59898 .023773 -.023773 .59898 175.4 28.7)">
  <g id="g380">
   <use id="use382" xlink:href="#bodyParts_head_head_businessman_transform_dancer_9_Layer9_0_FILL"/>
  </g>
  <g id="g384">
   <g id="g386">
    <use id="use388" xlink:href="#bodyParts_face_whiteFace_0_Layer0_0_FILL"/>
   </g>
  </g>
  <g id="g390" transform="translate(29.25 35.55)">
   <g id="g392">
    <use id="use394" xlink:href="#nose_dancer_0_Layer0_0_FILL"/>
   </g>
  </g>
  <g id="g396" transform="matrix(1 0 0 1.1071 -5.6 3.65)">
   <g id="g398">
    <use id="use400" xlink:href="#Symbol_93_0_Layer0_0_FILL"/>
    <use id="use402" xlink:href="#Symbol_93_0_Layer0_0_1_STROKES"/>
   </g>
  </g>
  <g id="g404" transform="matrix(.85760 0 .040482 .57947 -5.65 -10.55)">
   <g id="g406">
    <use id="use408" xlink:href="#Symbol_92_0_Layer0_0_FILL"/>
   </g>
  </g>
  <g id="g410" transform="matrix(1.1 0 0 1.1 24.9 60.75)">
   <g id="g412">
    <use id="use414" xlink:href="#Duplicate_Items_Folder_Symbol_88_copy_0_Layer0_0_FILL"/>
   </g>
  </g>
  <g id="g416" transform="translate(44.35 31.85)">
   <g id="g418">
    <use id="use420" xlink:href="#bodyParts_face_eye_Policeman_dancer_24_Layer3_0_FILL"/>
   </g>
   <mask id="Mask_Mask_1">
    <g id="g423">
     <use id="use425" xlink:href="#Mask_bodyParts_face_eye_Policeman_dancer_24_2_MASK_0_MEMBER_0_FILL"/>
    </g>
   </mask>
   <g id="g427" mask="url(#Mask_Mask_1)">
    <g id="g429" transform="translate(1.8 1.9)">
     <g id="g431">
      <use id="use433" xlink:href="#Duplicate_Items_Folder_adsa_49_Layer1_0_FILL"/>
     </g>
     <g id="g435">
      <use id="use437" xlink:href="#Duplicate_Items_Folder_adsa_49_Layer0_0_FILL"/>
     </g>
    </g>
   </g>
   <g id="g439">
    <use id="use441" xlink:href="#bodyParts_face_eye_Policeman_dancer_24_Layer0_0_FILL"/>
   </g>
  </g>
  <g id="g443" transform="translate(25.05 31.65)">
   <g id="g445">
    <use id="use447" xlink:href="#bodyParts_face_eye_Policeman_dancer_24_Layer3_0_FILL"/>
   </g>
   <mask id="Mask_Mask_2">
    <g id="g450">
     <use id="use452" xlink:href="#Mask_bodyParts_face_eye_Policeman_dancer_24_2_MASK_0_MEMBER_0_FILL"/>
    </g>
   </mask>
   <g id="g454" mask="url(#Mask_Mask_2)">
    <g id="g456" transform="translate(1.8 1.9)">
     <g id="g458">
      <use id="use460" xlink:href="#Duplicate_Items_Folder_adsa_49_Layer1_0_FILL"/>
     </g>
     <g id="g462">
      <use id="use464" xlink:href="#Duplicate_Items_Folder_adsa_49_Layer0_0_FILL"/>
     </g>
    </g>
   </g>
   <g id="g466">
    <use id="use468" xlink:href="#bodyParts_face_eye_Policeman_dancer_24_Layer0_0_FILL"/>
   </g>
  </g>
  <g id="g470" transform="translate(-5.6 39.3)">
   <g id="g472">
    <use id="use474" xlink:href="#bodyParts_face_ear_Policeman_9_Layer0_0_FILL"/>
   </g>
  </g>
  <g id="g476" transform="translate(23.1 24.65)">
   <g id="g478">
    <use id="use480" xlink:href="#bodyParts_face_eyebrow_Policeman_dancer_0_Layer0_0_FILL"/>
   </g>
  </g>
  <g id="g482" transform="matrix(-.85136 .014862 .016785 .96161 56.2 25.25)">
   <g id="g484">
    <use id="use486" xlink:href="#bodyParts_face_eyebrow_Policeman_dancer_1_Layer0_0_FILL"/>
   </g>
  </g>
  <g id="g488" transform="matrix(.96074 -.024307 .025116 .99255 -8.95 -26.6)">
   <g id="g490">
    <use id="use492" xlink:href="#Duplicate_Items_Folder_Dancer_hat_0_Layer2_0_FILL"/>
   </g>
   <g id="g494">
    <use id="use496" xlink:href="#Duplicate_Items_Folder_Dancer_hat_0_Layer0_0_FILL"/>
    <use id="use498" xlink:href="#Duplicate_Items_Folder_Dancer_hat_0_Layer0_0_1_STROKES"/>
   </g>
  </g>
 </g>
 <g id="g500" transform="matrix(-.68820 -.21381 -.22949 .68701 206.3 177.05)">
  <g id="g502">
   <use id="use504" xlink:href="#bodyParts_hands_Palm_Scientist_dancer_0_Layer1_0_FILL"/>
  </g>
 </g>
 <g id="g506" transform="matrix(-.40405 -.47585 -.46846 .39844 257.8 173)">
  <g id="g508">
   <use id="use510" xlink:href="#bodyParts_hands_Arm_Scientist_Dancer_41_Layer1_0_FILL"/>
  </g>
  <g id="g512">
   <use id="use514" xlink:href="#bodyParts_hands_Arm_Scientist_Dancer_41_Layer0_0_FILL"/>
  </g>
 </g>
 <g id="g516" transform="matrix(.72192 -.21097 .26111 .70616 151.4 193.1)">
  <g id="g518">
   <use id="use520" xlink:href="#bodyParts_hands_Palm_Scientist_dancer_0_Layer1_0_FILL"/>
  </g>
 </g>
 <g id="g522" transform="matrix(.44789 -.37054 .37962 .46269 106.2 179.3)">
  <g id="g524">
   <use id="use526" xlink:href="#bodyParts_hands_Arm_Scientist_Dancer_41_Layer1_0_FILL"/>
  </g>
  <g id="g528">
   <use id="use530" xlink:href="#bodyParts_hands_Arm_Scientist_Dancer_41_Layer0_0_FILL"/>
  </g>
 </g>
 <g id="g532">
  <use id="use534" xlink:href="#Layer3_0_1_STROKES"/>
 </g>
 <g id="g536">
  <use id="use538" xlink:href="#Layer2_0_1_STROKES"/>
 </g>
 <g id="g540" transform="translate(92.75 32.4)">
  <g id="g542">
   <use id="use544" xlink:href="#positionChecker_9_Layer1_0_1_STROKES"/>
  </g>
  <g id="g546" transform="translate(31.9 -18.85)">
   <g id="g548">
    <use id="use550" xlink:href="#Symbol_1_0_Layer0_0_1_STROKES"/>
   </g>
  </g>
 </g>
</svg>
