<svg id="svg-2" xmlns="http://www.w3.org/2000/svg" version="1.1" xmlns:xlink="http://www.w3.org/1999/xlink" preserveAspectRatio="none" x="0px" y="0px" width="550px" height="400px" viewBox="0 0 550 400">
<defs>
<g id="grid_0_Layer1_0_FILL">
<path fill="#0033FF" fill-opacity="0.5176470588235295" stroke="none" d="
M 558 31
L 558 0 527 0 496 0 465 0 434 0 403 0 372 0 341 0 310 0 279 0 248 0 217 0 186 0 155 0 124 0 93 0 62 0 31 0 0 0 0 31 0 62 0 93 0 99.25 0 119.3 0 124 0 155 0 186 0 217 0 248 0 279 0 310 0 341 0 372 0 403 31 403 62 403 93 403 124 403 155 403 186 403 217 403 248 403 279 403 310 403 341 403 372 403 403 403 434 403 465 403 496 403 527 403 558 403 558 372 558 341 558 310 558 279 558 248 558 217 558 186 558 155 558 124 558 119.3 558 99.25 558 93 558 62 558 31 Z"/>
</g>

<g id="Symbol_199_0_Layer0_0_FILL">
<path fill="#0099CC" stroke="none" d="
M 111.3 12.35
Q 107.6 0.5 100.05 0 25.25 3.05 20.2 2.75 15.1 2.45 7 44.05 3.95 59.65 1.9 76.3 0 91.65 0 98.65 0 115.3 1 120.05 2.05 125.3 6.6 129.4 9.05 131.6 13.7 134.45 20.05 138.25 24.75 139.3 31.4 141.05 36.55 142.2 46.55 144.5 46.6 143.4 53.25 143.4 59.5 141.75 62.05 141.1 69.85 138.35 74.28984375 136.799609375 78.65 136 80.4822265625 135.66015625 82.3 135.45 88.430859375 134.75078125 94.4 135.55 106.466796875 137.208203125 115.2 132.25 115.25078125 132.263671875 115.25 132.25 115.3384765625 132.2138671875 115.4 132.15 116.502734375 131.5419921875 117.55 130.8 119.8802734375 129.158984375 121.95 127 131.9 116.6 131.9 98.7 131.9 86.85 125.75 65.15 114.35 25.15 111.3 12.35 Z"/>
</g>

<g id="bodyParts_legs_Scientist_hip_S_53_Layer2_0_FILL">
<path fill="#1C957A" stroke="none" d="
M 14.2 8.35
Q 14.2 6.5 13.9 3.45 13.6 1.1 13.1 -1.55 4.4 4.4 2.65 14.95 1.4 22.5 0.4 30.05
L -0.3 40.3
Q -0.3 45.25 -0.4 46.15 -0.5 47.05 -0.5 51
L -0.7 56.3
Q -0.95 57.65 -1.35 59.5 -2.55 67.1 -2.65 72.25 -2.65 72.6 -2.65 72.95
L -2 85.85
Q -1.65 96.45 0.9 102.5 1 102.85 1.2 103.2 1.6 104.05 2.05 104.85 2.15 104.95 2.25 105.05 3.85 107.3 5.95 109.05 6.4099609375 109.4470703125 7 109.8 5.759765625 107.458984375 4.75 104.8 1.784375 96.941015625 4.4 92.85 4.27890625 92.6470703125 4.2 92.45 4.35 92.55 4.5 92.6 10.25 95.55 14.45 95.55 15.75 95.55 17.4 95.15 16.65 95.1 15.35 94.7 12.25 93.75 8.45 91.65 1.25 87.65 -0.75 84.15 -0.85 82.6 -0.85 80.95 -0.95 78 -0.95 74.65 -0.95 62.3 2 49.8 3.75 42.1 6.65 34.4 10.4 24.8 11.85 20.55 14.2 13.5 14.2 8.35 Z"/>

<path fill="#38D4B1" stroke="none" d="
M 13.2 -1.65
Q 13.15 -1.6 13.1 -1.55 13.6 1.1 13.9 3.45 14.2 6.5 14.2 8.35 14.2 13.5 11.85 20.55 10.4 24.8 6.65 34.4 3.75 42.1 2 49.8 -0.95 62.3 -0.95 74.65 -0.95 78 -0.85 80.95 -0.85 82.6 -0.75 84.15 1.25 87.65 8.45 91.65 12.25 93.75 15.35 94.7 16.65 95.1 17.4 95.15 15.75 95.55 14.45 95.55 10.25 95.55 4.5 92.6 4.35 92.55 4.2 92.45 4.27890625 92.6470703125 4.4 92.85 1.784375 96.941015625 4.75 104.8 5.759765625 107.458984375 7 109.8 7.865234375 110.292578125 9 110.7 10.9 111.35 13.1 111.9 15.1 112.4 18.4 112.75 18.55 112.75 18.75 112.75 22.3 113.1 26 110.85 29.55 108.3 32.15 104.3 32.25 104.15 32.3 104.05 32.6 103.55 32.9 103.05 34.85 99.7 36.25 95.3 38.6 87.9 39.35 77.65 39.75 72.45 39.75 66.55 39.75 61.45 39.15 52.15 39.15 49.95 39.15 48.65 39.15 47.7 39.4 45.5 39.6 43.35 39.6 42.65 40.55 25.8 40.55 24.05 40.2 19.4 40.2 18.5 39.8 15.5 39.8 14.75
L 39.6 13.15 37.2 5.9
Q 29.85 -5.75 16.95 -2.65 15.05 -2.15 13.2 -1.65
M 18.1 31.7
L 18.2 31.7 18.25 32.05 18.2 32.05 18.2 32.2
Q 18.15 32 18.1 31.7
M 18.25 32.15
L 18.3 32.2 18.3 32.25
Q 18.25 32.2 18.25 32.15
M 18.85 32.1
L 18.95 31.95 18.9 33.45 18.85 33.4 18.85 32.1
M 18.4 34.45
L 18.35 34.45 18.35 34.2 18.4 34.45
M 39.7 29.95
L 39.9 27
Q 39.9 27.45 39.85 27.9 39.8 28.9 39.7 29.95 Z"/>

<path fill="#B66AA9" stroke="none" d="
M 39.9 27
L 39.7 29.95
Q 39.8 28.9 39.85 27.9 39.9 27.45 39.9 27 Z"/>
</g>

<g id="Duplicate_Items_Folder_ass_Policeman_49_Layer1_0_FILL">
<path fill="#38D4B1" stroke="none" d="
M 89.85 30.4
Q 89.654296875 23.7482421875 86.95 18.4 84.167578125 12.7892578125 78.65 8.6 66.65 -0.5 47.5 0.05 28.35 0.55 14.95 10.05 12.600390625 11.6994140625 10.6 13.5 -0.0798828125 23.2875 0.3 37.6 0.9 41.1 1.5 44.2 1.5 44.6 1.65 45.05 2 46.9 2.35 48.7 4.1 58 5.15 62.25 8 74 12.2 80.95 13.9986328125 83.9537109375 16.25 86.45 17.3689453125 87.6865234375 18.6 88.8 20.2373046875 90.28828125 22.05 91.55 23.5771484375 92.573828125 25.2 93.45 33.85 98.1 47.75 99.55 56.15625 99.35234375 62.75 96.95 70.5615234375 94.0998046875 75.8 88.15 78.4888671875 85.146484375 80.5 81.35 80.567578125 81.2173828125 80.6 81.05 85.7337890625 70.8626953125 88.3 49.05 88.55 46.35 88.85 43.55 89.1 40.65 89.3 37.6 89.85 33.75 89.85 30.4 Z"/>
</g>

<g id="bodyParts_hands_Shoulder_Scientist_dancer_52_Layer2_0_FILL">
<path fill="#F1BB97" stroke="none" d="
M 58.9 48.9
L 63.75 45.1
Q 68.883984375 35.1552734375 63.65 19.95 62.1962890625 15.6955078125 60.3 11.85 56.9287109375 8.7560546875 52.45 6.1 49.4 4.35 46.55 3.1 38.65 -0.25 31.75 0.5 21.25 1.65 15.4 13.25 13.9 16.25 12.7 19.35 12.15 20.7 11.65 22.1 10.37734375 25.66328125 9.45 29.35 9.2984375 29.9697265625 9.15 30.55 8.188671875 34.6220703125 7.6 38.85 7.58359375 39.18203125 7.55 39.5 7.441015625 40.3787109375 7.35 41.25 6.25 44.3 5.75 56 5.6431640625 58.5001953125 5.55 61.2 5.1859375 71.28984375 4.95 84.5 4.78828125 92.265625 4.25 98.75 4.0755859375 100.010546875 3.85 101.4 3.8060546875 101.7783203125 3.75 102.15 3.71484375 102.4044921875 3.65 102.65 3.0302734375 106.9572265625 2.3 112.65 2.423828125 112.991796875 2.5 113.3 2.5 113.603125 2.5 113.9
L 2.7 114
Q 3.529296875 116.671484375 4 117.7 4.189453125 118.103515625 4.3 118.25 4.8697265625 118.8546875 5.6 120.05
L 5.9 120 5.9 120.05
Q 5.95 120.15 6 120.25 6.321875 121.255859375 6.8 122.2 6.9083984375 122.3822265625 7 122.5 8.9986328125 125.03671875 13 129.05 13.701953125 129.4771484375 14.45 129.8 18.154296875 131.4138671875 21.7 130.45 23.0169921875 130.131640625 24.3 129.45 26.8599609375 128.096484375 29 125.5 29.19375 125.3216796875 29.35 125.1
L 35.3 108.35
Q 33.8666015625 111.9078125 33.55 111.7 33.2998046875 111.5208984375 33.05 111.35
L 33 111.3
Q 36.5197265625 99.79921875 40.55 87.55 43.9 77.5 47.25 67.7 47.7 66.5 48.15 65.25 49 62.8 49.85 60.4
L 49.75 60.5 29.8 71.05 59.5 48.65
Q 59.5 48.49921875 58.9 48.9 Z"/>

<path fill="#C6906E" stroke="none" d="
M 61.1 49.25
Q 62.673828125 47.3 63.75 45.1
L 58.9 48.9
Q 59.5 48.49921875 59.5 48.65
L 29.8 71.05 49.75 60.5 49.85 60.4
Q 49 62.8 48.15 65.25 47.7 66.5 47.25 67.7 43.9 77.5 40.55 87.55 36.5197265625 99.79921875 33 111.3
L 33.05 111.35
Q 33.2998046875 111.5208984375 33.55 111.7 36.3697265625 104.62109375 39.1 97.65
L 42.15 89.1
Q 41.17421875 92.0880859375 40.25 94.65 41.7798828125 90.867578125 43.25 87.1 47.5 76.3 51.55 65.8 52.1 64.2 52.75 62.65 52.75 62.55 52.85 62.4 53.65 60.15 54.55 57.9 54.664453125 57.5564453125 54.75 57.2 54.98359375 56.6755859375 55.2 56.15
L 55.45 55.85 59.45 51.2 59.7 50.85 61.1 49.25 Z"/>
</g>

<g id="bodyParts_hands_Shoulder_Scientist_dancer_52_Layer1_0_FILL">
<path fill="#C6906E" stroke="none" d="
M 38.85 85.8
Q 38.664453125 86.4126953125 38.45 87 36.053515625 94.047265625 33.8 100.8 33.71640625 101.1517578125 33.6 101.45 33.4982421875 101.7873046875 33.4 102.1 33.3099609375 102.3744140625 33.2 102.65 32.8705078125 103.71484375 32.5 104.75 32.717578125 105.5580078125 32.95 106.4 32.9091796875 106.6376953125 32.85 106.85 32.9423828125 106.715625 33 106.55 34.9080078125 101.965234375 36.75 97.4 39.003125 91.9802734375 41.15 86.6 41.957421875 84.70703125 42.7 82.8 46.298046875 74.0283203125 49.7 65.45 51.6583984375 60.623046875 53.55 55.85
L 64.15 43.85 50.6 53.35
Q 50.4986328125 53.6240234375 50.4 53.9
L 50.4 53.9
Q 48.39296875 59.3181640625 46.3 64.85 44.5947265625 69.67109375 42.85 74.5 40.871484375 80.1267578125 38.85 85.8 Z"/>

<path fill="#F1BB97" stroke="none" d="
M 67.15 22.85
Q 62.9 13 51.45 6 40.3 -0.8 30.85 0.1 24.4203125 0.74296875 20.95 3.75 20.1685546875 5.130078125 19.45 6.65 19.4658203125 6.7142578125 19.45 6.75
L 19.45 6.75 19.4 6.75
Q 18.7248046875 8.386328125 18.1 10.15 17.88125 10.7921875 17.65 11.4 15.915625 16.89453125 14.85 23.95 14.70703125 25.09140625 14.55 26.25
L 14.4 27.3
Q 13.3359375 34.9533203125 11.9 42.8 8.7775390625 60.3939453125 4 79.05 2.41875 85.3755859375 0.6 91.8 -1.1529296875 98.26328125 -3.15 104.8 -3.15 105.319140625 -3.15 105.8 -3.15 113.7494140625 0.85 119.6 0.867578125 119.653125 0.9 119.7
L 0.9 119.7
Q 0.9318359375 119.826953125 0.95 119.9 1.403515625 121.1763671875 2.05 122.4 4.7 127.45 9.45 129.5 14.5 131.7 19.3 129.15 23.673046875 126.8255859375 26.8 121 27.230859375 120.75859375 27.6 120.5 28.178515625 119.4984375 29.3 117.65 34.0515625 110.153125 33 106.55 32.9423828125 106.715625 32.85 106.85 32.9091796875 106.6376953125 32.95 106.4 32.717578125 105.5580078125 32.5 104.75 32.8705078125 103.71484375 33.2 102.65 33.3099609375 102.3744140625 33.4 102.1 33.4982421875 101.7873046875 33.6 101.45 33.71640625 101.1517578125 33.8 100.8 36.053515625 94.047265625 38.45 87 38.664453125 86.4126953125 38.85 85.8 40.871484375 80.1267578125 42.85 74.5 44.5947265625 69.67109375 46.3 64.85 48.39296875 59.3181640625 50.4 53.9
L 50.4 53.9
Q 50.4986328125 53.6240234375 50.6 53.35
L 64.15 43.85
Q 72 34.15 67.15 22.85 Z"/>
</g>

<g id="bodyParts_accesories_Shoe_Scientist_S_43_Layer1_0_FILL">
<path fill="#63625E" stroke="none" d="
M 61.6 53.2
Q 61.4 53.25 61.3 53.5 60.55 54.1 60.15 54.3 61.55 54.4 61.75 53 61.65 53 61.6 53.15
L 61.6 53.2
M 2.6 29.35
L 2.4 30.1
Q 2.5 29.85 2.55 29.65 2.55 29.55 2.65 29.45 2.6 29.4 2.6 29.35
M 47.2 42.25
Q 47.4 42.25 47.9 42.3
L 45.45 40.75
Q 45.6 40.85 45.85 41.1
L 45.9 41.15
Q 46.35 41.6 47.05 42.25
L 47.2 42.25 Z"/>

<path fill="#AF2815" stroke="none" d="
M 38.5 50.1
L 38.55 50.1 38.8 48.9 38.5 50.1
M 47.05 44.35
Q 46.95 44.25 46.9 44.3 46.8 44.2 46.75 44.35 46.85 44.35 47.05 44.35 Z"/>

<path fill="#4BB1D0" stroke="none" d="
M 33.7 32.2
Q 33.75 32.25 33.9 32.3
L 33.75 32.15 33.7 32.2 Z"/>

<path fill="#E5E5E5" stroke="none" d="
M 33.35 32
Q 33.5125 32.059375 33.7 32.2
L 33.75 32.15
Q 33.515625 32.05625 33.35 32
M 2.75 29.2
Q 2.65 29.25 2.6 29.35 2.6 29.4 2.65 29.45 2.65 29.3 2.75 29.2 Z"/>

<path fill="#B2B2B2" stroke="none" d="
M 0.8 40
L 0.75 40
Q 0.25 39.8 -0.2 39.7
L -0.3 39.7 -0.55 40.65
Q -1 40.65 -1.15 41.5 -1.2 42.2 -1.35 42.75 -1.45 42.8 -1.4 42.95 -1.4470703125 43.1849609375 -1.1 43.6 -1.073828125 43.623046875 -1.05 43.65 -1.00859375 43.69140625 -0.95 43.75 2.75 46.2 25.7 47.5 32.75 49.45 38.35 51 53.6 54.85 58.15 54.8 59.6 54.7 60 54.35
L 60.05 54.3 60.15 54.3
Q 60.55 54.1 61.3 53.5 61.4 53.25 61.6 53.2
L 61.6 53.15
Q 61.65 53 61.75 53 48.5 51.35 38.8 48.9
L 38.55 50.1 38.5 50.1 38.8 48.9
Q 32.75 47.25 27.85 45.35 27.05 45.3 26.3 45.25 12 44 0.8 40 Z"/>

<path fill="#FFFFFF" stroke="none" d="
M 24.9 19.65
Q 23.5 17.15 20.4 16 18.2 15.1 15.85 15.15 14.9 15.15 14 15.3 8.7 16.15 8.7 21.7 7.1 25.6 4.1 28.3 5.05 27.85 6.55 28.1 9.05 28.35 11.35 31.2 13.45 34.05 17.6 34.55 22.9 35.1 25.3 32.6 25.8 31.9 26.85 30.85 27.7 30.05 29.2 30.25 30.2 30.3 31.45 30.95 25.45 27.1 24.9 19.65
M 54.75 43
Q 54.35 42.9 54.1 42.85 53.9 42.7 53.75 42.75 53.4 43.1 53.15 43.85 53 44.1 52.95 44.4 53.4 44.4 53.95 44.35 54.4 43.4 54.75 43 Z"/>

<path fill="#2D2A2A" stroke="none" d="
M 51.1 45.5
Q 52.7 45.55 54.5 45.45 58.15 48.25 60.6 51.3 44.7 49.35 28.7 43.3 14.35 42.9 0.4 37.25
L -0.3 39.7 -0.2 39.7
Q 0.25 39.8 0.75 40
L 0.8 40
Q 12 44 26.3 45.25 27.05 45.3 27.85 45.35 32.75 47.25 38.8 48.9 48.5 51.35 61.75 53 62.1 52.3 62.45 51.5 58.95 46.9 53.95 44.35 53.4 44.4 52.95 44.4
L 52.9 44.4
Q 52 44.45 51.1 44.4 51.05 44.8 51.1 45.5
M 46.55 44.3
Q 45.75 44.2 45.6 44.1 45.1 43.65 44.4 42.95 44.15 43.4 43.9 43.9 45.05 44.35 46.5 44.7
L 46.55 44.3
M 48.15 45.1
Q 48.95 45.15 49.85 45.4 49.7 45 49.85 44.65 49.85 44.5 49.85 44.45
L 48.3 44.45
Q 48.15 44.65 48.15 45.1
M 42.8 43.1
Q 42.9 42.7 43.35 42.15 41.55 40.6 40.4 39.55 39.6 38.9 39.1 38.45 38.9 38.5 38.75 38.55 36.65 37.3 36.15 36.8 34.95 35.45 33.8 32.9 33.9 32.75 34.1 32.65
L 33.9 32.3
Q 33.75 32.25 33.7 32.2 33.5125 32.059375 33.35 32
L 33.3 32
Q 32.25 31.35 31.45 30.95 30.2 30.3 29.2 30.25 27.7 30.05 26.85 30.85 25.8 31.9 25.3 32.6 22.9 35.1 17.6 34.55 13.45 34.05 11.35 31.2 9.05 28.35 6.55 28.1 5.05 27.85 4.1 28.3 3.2 28.55 2.75 29.2 2.65 29.3 2.65 29.45 2.55 29.55 2.55 29.65 2.5 29.85 2.4 30.1
L 2 31.65 12.55 35.8
Q 18.55 37.3 25.85 35.15 31.5 33.7 39.6 40.65 40.75 42.25 42.7 43.35 42.7 43.25 42.8 43.1 Z"/>

<path fill="#A2A2A2" stroke="none" d="
M 51.8 42.4
Q 51.7 42.3 51.6 42.4
L 51.15 43.6
Q 51.15 43.85 51.1 44.4 52 44.45 52.9 44.4
L 52.95 44.4
Q 53 44.1 53.15 43.85 53.4 43.1 53.75 42.75 52.65 42.45 51.8 42.4
M 43.35 42.15
Q 43.5 41.85 43.7 41.65 43.85 41.45 44 41.35 42.6 40.85 40.4 39.55 41.55 40.6 43.35 42.15
M 47.15 42.35
Q 47.15 42.3 47.2 42.25
L 47.05 42.25
Q 46.35 41.6 45.9 41.15
L 45.85 41.1
Q 45.5 41.4 45.5 41.45 45.25 41.7 45 42.05 44.65 42.5 44.4 42.95 45.1 43.65 45.6 44.1 45.75 44.2 46.55 44.3
L 46.6 44.05
Q 46.7 43.15 47.15 42.35
M 49 42.3
L 48.95 42.3
Q 48.4 43.25 48.3 44.45
L 49.85 44.45
Q 49.95 43.85 50.3 43.05 50.45 42.6 50.65 42.3 49.9 42.25 49 42.3
M 41.4 30.95
Q 41.5 31 42.25 31.5 41.65 31.65 41.5 31.85 42.1 31.8 42.9 31.95 43.2 31.95 44.55 32.3 44.65 32.55 44.8 33.2 45 34 45.45 34.45 46.8 36.05 48.15 36.3 48.3 36.3 48.6 36.3 49.95 35.45 50.15 34.35 50.3 32.9 48.7 30.95 46.6 28.45 43.05 28.1 40.4 27.75 37.7 29.5 36.95 29.9 36.25 30.45 36.05 30.65 35.85 30.9 35.2 31.55 34.75 32 34.4 32.3 34.15 32.55 34.4 32.75 34.8 32.95 34.85 32.95 34.9 33.05 35.15 32.85 35.5 32.6 35.6 32.5 35.7 32.45 36.6 31.75 37.4 31.4 37.7 31.2 38.9 31 40.05 30.8 40.5 30.9 41.25 30.9 41.4 30.95 Z"/>

<path fill="#3A68C7" stroke="none" d="
M 54.9 43.05
Q 54.85 42.9 54.75 43 54.4 43.4 53.95 44.35 58.95 46.9 62.45 51.5 62.65 50.8 62.75 50 62.8 49.35 62.85 48.85 62.8 47.55 62.5 46.9 61.9 46.2 59.9 44.85 59 44.15 56.35 43.45 55.6 43.15 54.9 43.05
M 43.8 44
Q 42.6 44.3 42.7 43.35 40.75 42.25 39.6 40.65 31.5 33.7 25.85 35.15 18.55 37.3 12.55 35.8
L 2 31.65 0.4 37.25
Q 14.35 42.9 28.7 43.3 44.7 49.35 60.6 51.3 58.15 48.25 54.5 45.45 52.7 45.55 51.1 45.5
L 51.1 45.65
Q 50.8 45.85 50.6 45.8
L 50 45.65
Q 49.9 45.45 49.85 45.4 48.95 45.15 48.15 45.1 48.15 45.3 48.15 45.6 47.05 46.2 46.4 45.25 46.4 45.05 46.45 44.75
L 46.5 44.7
Q 45.05 44.35 43.9 43.9 43.85 43.85 43.8 44
M 42.9 31.95
Q 42.1 31.8 41.5 31.85 39.8 31.75 38.3 32.2 36.85 32.5 36.25 33.1
L 36.3 33.1
Q 37.35 34.1 37.8 34.4 40.85 36.5 43.8 37.7 44.05 37.55 44.35 37.5 45 37.4 45.65 37.3 47.45 36.9 48.6 36.3 48.3 36.3 48.15 36.3 46.8 36.05 45.45 34.45 45 34 44.8 33.2 44.65 32.55 44.55 32.3 43.2 31.95 42.9 31.95 Z"/>

<path fill="#E9C923" stroke="none" d="
M 49.85 44.65
Q 49.7 45 49.85 45.4 49.9 45.45 50 45.65
L 50.6 45.8
Q 50.8 45.85 51.1 45.65
L 51.1 45.5
Q 51.05 44.8 51.1 44.4 51.15 43.85 51.15 43.6
L 51.6 42.4
Q 51.1 42.3 50.65 42.3 50.45 42.6 50.3 43.05 49.95 43.85 49.85 44.45 49.85 44.5 49.85 44.65
M 44.4 42.95
Q 44.65 42.5 45 42.05 45.25 41.7 45.5 41.45 45.2 41.6 44.9 41.55 44.45 41.5 44 41.35 43.85 41.45 43.7 41.65 43.5 41.85 43.35 42.15 42.9 42.7 42.8 43.1 42.7 43.25 42.7 43.35 42.6 44.3 43.8 44 43.85 43.85 43.9 43.9 44.15 43.4 44.4 42.95
M 47.9 42.3
Q 47.4 42.25 47.2 42.25 47.15 42.3 47.15 42.35 46.7 43.15 46.6 44.05
L 46.55 44.3 46.5 44.7 46.45 44.75
Q 46.4 45.05 46.4 45.25 47.05 46.2 48.15 45.6 48.15 45.3 48.15 45.1 48.15 44.65 48.3 44.45 48.4 43.25 48.95 42.3 48.25 42.3 47.9 42.3
M 46.9 44.3
Q 46.95 44.25 47.05 44.35 46.85 44.35 46.75 44.35 46.8 44.2 46.9 44.3 Z"/>

<path fill="#B49805" stroke="none" d="
M 45.45 40.75
Q 45.2 40.55 45.05 40.4 44.6 40.7 44 41.35 44.45 41.5 44.9 41.55 45.2 41.6 45.5 41.45 45.5 41.4 45.85 41.1 45.6 40.85 45.45 40.75 Z"/>

<path fill="#0E2933" stroke="none" d="
M 40.85 38.1
Q 40.95 38.1 41.15 38.05
L 40.9 37.95
Q 41.1 37.9 41.3 38.05 42.35 37.9 43.8 37.7 40.85 36.5 37.8 34.4 37.35 34.1 36.3 33.1
L 36.25 33.1
Q 35.9 33.25 35.7 33.6 35.3 33.3 34.9 33.05 34.85 32.95 34.8 32.95 34.4 32.75 34.15 32.55 34.1 32.55 34.1 32.65 33.9 32.75 33.8 32.9 34.95 35.45 36.15 36.8 36.65 37.3 38.75 38.55 38.9 38.5 39.1 38.45 39.9 38.25 40.85 38.1 Z"/>

<path fill="#676767" stroke="none" d="
M 41.15 38.05
Q 40.95 38.1 40.85 38.1 39.9 38.25 39.1 38.45 39.6 38.9 40.4 39.55 42.6 40.85 44 41.35 44.6 40.7 45.05 40.4 44.95 40.3 44.8 40.15
L 42.4 38.5
Q 42.25 38.3 41.3 38.05
L 41.15 38.05
M 42.25 31.5
Q 41.5 31 41.4 30.95 41.25 30.9 40.5 30.9 40.05 30.8 38.9 31 37.7 31.2 37.4 31.4 36.6 31.75 35.7 32.45 35.6 32.5 35.5 32.6 35.15 32.85 34.9 33.05 35.3 33.3 35.7 33.6 35.9 33.25 36.25 33.1 36.85 32.5 38.3 32.2 39.8 31.75 41.5 31.85 41.65 31.65 42.25 31.5 Z"/>
</g>

<g id="bodyParts_legs_Scientist_hip_S_50_Layer2_0_FILL">
<path fill="#1C957A" stroke="none" d="
M 5.2 60.85
L 5.1 60.6
Q 2.95 66.75 -2 78.85 -2.85 81.15 -3.45 83.1 -6.2 91 -5.8 94.25 -5.15 100 -0.75 105.55 -0.35 106.05 0.05 106.55 -0.5 104.85 -0.85 102.75 -3.25 89.25 3.6 68.5 5.35 62.05 5.2 60.85
M 18.35 48.35
Q 15.95 47.05 14.8 47.1 15.6 47.75 18.7 50.75 19.05 51.15 19.45 51.6 23.5 55.4 26.1 57.05 29.35 58.95 34.8 62.1 38.75 64.55 39 66.9 39.45 70.85 39 75.85 38.7 78.95 37.85 87.2 37.9 92.95 35.5 101.35 36.3 99.2 37.05 96.7 40.2 85.7 41.05 63.5 41.4 58.15 41.65 53.4 41.4 53.5 41.2 53.6 39.3 54.35 37.85 54.55 30.8 55.25 23.35 51.25 23.3 51.25 23.25 51.2 19.75 49.1 18.35 48.35 Z"/>

<path fill="#38D4B1" stroke="none" d="
M 35.45 -2.65
Q 31 -5.35 25.95 -5.55 20.7 -5.65 15.25 -4.15 9.8 -2.75 3.35 5.2 -3.2 12.9 -0.9 25.5 1.5 37.95 0.9 41.35 0.3 44.75 0.25 48.85 -3.6 69.45 -3.45 83.1 -2.85 81.15 -2 78.85 2.95 66.75 5.1 60.6
L 5.2 60.85
Q 5.35 62.05 3.6 68.5 -3.25 89.25 -0.85 102.75 -0.5 104.85 0.05 106.55 3.3 110.5 5.1 110.35 5.4 110.35 5.95 110.6 6.7 111.1 7.45 111.3 9.65 112.7 12.3 113.35 14.65 114 17.4 114.15 18.85 114.7 21.45 114.45 30.7 113.5 35.5 101.35 37.9 92.95 37.85 87.2 38.7 78.95 39 75.85 39.45 70.85 39 66.9 38.75 64.55 34.8 62.1 29.35 58.95 26.1 57.05 23.5 55.4 19.45 51.6 19.05 51.15 18.7 50.75 15.6 47.75 14.8 47.1 15.95 47.05 18.35 48.35 19.75 49.1 23.25 51.2 23.3 51.25 23.35 51.25 30.8 55.25 37.85 54.55 39.3 54.35 41.2 53.6 41.4 53.5 41.65 53.4 42.5 37.55 42.85 28.9 43.65 9.5 42.45 4.55 40.1 0.05 35.45 -2.65 Z"/>
</g>

<g id="bodyParts_legs_shok_scientist_S_32_Layer1_0_FILL">
<path fill="#F95B05" stroke="none" d="
M 20.15 103.25
Q 11.2 107.75 3 104.05 2.75 105.5 2.55 107.4 6.05 109.55 10.6 109.45 15.15 109.3 20.05 105.95
L 20.05 105.9
Q 20 105.3 20.35 103.65
L 20.15 103.25 Z"/>

<path fill="#9B3600" stroke="none" d="
M 20.35 103.65
Q 20.4 103.35 20.45 103.1 20.95 100.45 20.9 100 16.15 102.9 9.7 102.3 3.55 101.7 3.75 100.65 3.35 101.85 3 104.05 11.2 107.75 20.15 103.25
L 20.35 103.65 Z"/>

<path fill="#1C957A" stroke="none" d="
M 5.3 70
Q 7.4 71.8 8.4 73.1 11.05 76.4 11.6 77.8 9.7 71.5 7.75 66.8 7.35 65.85 7 65.1 6.8 67.9 5.3 69.9 5.25 69.9 5.25 69.95
L 5.3 70
M 7.5 44.8
Q 7.534765625 44.869921875 7.55 45.15 7.1771484375 48.0251953125 7.1 50.85 7.5076171875 51.3484375 8.05 51.85 11.8697265625 55.974609375 15.1 56
L 16.25 55.9 16.25 55.8
Q 13.6984375 53.11953125 11.4 49.9 8.0224609375 45.2822265625 7.75 42.7 7.606640625 43.566015625 7.5 44.8 Z"/>

<path fill="#38D4B1" stroke="none" d="
M 30.15 -4.75
Q 28.9513671875 -4.8578125 27.7 -4.75 17.5138671875 -3.75390625 11.45 5.8 11.3205078125 5.9560546875 11.25 6.15 11.2109375 6.169140625 11.15 6.3 8.7357421875 12.5189453125 10.7 21 10.897265625 21.948828125 11.15 22.8 11.5830078125 24.47578125 12.2 25.95 12.1478515625 26.134765625 12.15 26.35 11.195703125 26.930078125 9.45 32.4 7.77265625 38.137109375 7.8 40.5 7.8291015625 41.013671875 7.75 42.7 8.0224609375 45.2822265625 11.4 49.9 13.6984375 53.11953125 16.25 55.8
L 16.25 55.9 15.1 56
Q 11.8697265625 55.974609375 8.05 51.85 7.5076171875 51.3484375 7.1 50.85 6.980859375 52.01171875 7.05 53.15 7.01953125 53.7236328125 7.15 54.35 7.2544921875 57.2294921875 7.2 60.1
L 7.2 60.1
Q 7.1908203125 61.7783203125 7.1 63.45 7.05 63.65 7.05 63.85 6.7 65.05 5.3 69.9 6.8 67.9 7 65.1 7.35 65.85 7.75 66.8 9.7 71.5 11.6 77.8 11.05 76.4 8.4 73.1 7.4 71.8 5.3 70 4.65 72.15 3.75 75.1 0.6 85.6 0.5 90.1 0.5 90.2 0.5 90.3 0.5 94.8 1.7 97.75 2.55 99.75 3.75 100.55 3.75 100.6 3.75 100.65 3.55 101.7 9.7 102.3 16.15 102.9 20.9 100 23.2 98.15 24.6 94.45 25.2 92.8 25.6 90.95
L 26.3 82.55
Q 26.35 80.5 26.65 77.95
L 27.25 70.65 31.85 48.05
Q 32.2525390625 46.0896484375 33.95 39 35.6986328125 31.94296875 38.55 23.85 41.39921875 15.803515625 41 11.4 40.59921875 7.0462890625 39.95 5.1 39.3546875 3.20703125 39.35 1.1 35.79375 -3.6681640625 31.2 -4.6 30.6876953125 -4.6765625 30.15 -4.75 Z"/>
</g>

<g id="bodyParts_legs_shok_scientist_S_33_Layer1_0_FILL">
<path fill="#FFFFFF" stroke="none" d="
M 4.45 102.55
L 4.3 105.5
Q 3.95 108.8 6 111.35 7.9 113.6 10.85 114.2 13.8 114.8 16.25 113.35 18.95 111.8 19.85 108.15
L 20.45 105.6
Q 12.55 106.85 4.45 102.55 Z"/>

<path fill="#F1BB97" stroke="none" d="
M 25.25 65.7
Q 16.1 69.15 6.95 58
L 4.45 102.55
Q 12.55 106.85 20.45 105.6
L 22.65 95.7 25.25 65.7 Z"/>

<path fill="#C6906E" stroke="none" d="
M 29.95 62.8
Q 27.6 64.7 25.25 65.7
L 22.65 95.7 29.95 62.8 Z"/>

<path fill="#F95B05" stroke="none" d="
M 25.25 65.7
Q 27.6 64.7 29.95 62.8
L 30.45 62.1
Q 30.65 61.5 31.25 60.15 15.2 62.55 6.55 52.55 6.45 53.05 6.4 53.65
L 6.45 52.45
Q 6.05 56.2 6.35 56.9
L 6.95 58
Q 16.1 69.15 25.25 65.7 Z"/>

<path fill="#0F6955" stroke="none" d="
M 31.15 58.3
Q 31.5 58.2 31.85 58.15 32.35 56.85 32.95 55.65 31.15 55.95 28.95 56.15 24.4 56.35 20.5 53.7 17.45 51.05 17.35 51.05 17 51.05 15.55 51.45 14.1 51.75 13.65 51.8 11.15 51.9 9.5 50.7 8.65 50.15 5.85 47.05 6.75 48.95 6.8 49.65 6.8 49.85 6.75 50.3 7.35 50.9 7.8 51.35 7.85 51.45 7.9 51.5 9.1 52.7 9.6 53 11.3 54.25 13.8 54.1 14.25 54.1 15.65 53.7 17.05 53.35 17.45 53.3 17.55 53.35 20.6 56.05 24.5 58.65 29.05 58.45 30.1 58.35 31.15 58.3 Z"/>

<path fill="#9B3600" stroke="none" d="
M 31.85 58.15
Q 31.5 58.2 31.15 58.3 30.1 58.35 29.05 58.45 24.5 58.65 20.6 56.05 17.55 53.35 17.45 53.3 17.05 53.35 15.65 53.7 14.25 54.1 13.8 54.1 11.3 54.25 9.6 53 9.1 52.7 7.9 51.5 7.85 51.45 7.8 51.35 7.35 50.9 6.75 50.3 6.7 51.1 6.55 52.55 15.2 62.55 31.25 60.15 31.3 59.55 31.85 58.15 Z"/>

<path fill="#1C957A" stroke="none" d="
M 3.9 42.95
Q 4.3 44 4.85 45.05 5.45 46.25 5.85 47.05 8.65 50.15 9.5 50.7 11.15 51.9 13.65 51.8 14.1 51.75 15.55 51.45 17 51.05 17.35 51.05 17.45 51.05 20.5 53.7 24.4 56.35 28.95 56.15 31.15 55.95 32.95 55.65 33.75 55.15 34.35 54.35 35.25 52.85 35.45 50.05 35 50.5 33.55 51.05 31.8 51.6 30.35 51.65 25.55 51.9 21.7 48.9 18.6 45.8 17.95 45.85 12.9 43.6 11.15 43 11.85 43.6 13.6 44.9 15.05 46.15 15.1 46.65 15.15 47.35 13.6 47.4 9.2 47.6 5.5 44.55 4.55 43.85 3.9 42.95 Z"/>

<path fill="#38D4B1" stroke="none" d="
M 39.05 -5.6
Q 34.35 -13.7 24.7 -10.4 15.15 -7.1 12.45 4.2 12.2 5.25 12 6.25 7.25 9.35 4.75 14.95 2.6 19.6 2.8 23.6 2.95 25.8 4.2 29.6 4.85 31.45 5.45 32.95 5.5 33.55 4.15 35.05 2.7 36.45 2.8 38.45 2.9 40.65 3.9 42.95 4.55 43.85 5.5 44.55 9.2 47.6 13.6 47.4 15.15 47.35 15.1 46.65 15.05 46.15 13.6 44.9 11.85 43.6 11.15 43 12.9 43.6 17.95 45.85 18.6 45.8 21.7 48.9 25.55 51.9 30.35 51.65 31.8 51.6 33.55 51.05 35 50.5 35.45 50.05 35.25 52.85 34.35 54.35 34.75 53.95 35.15 53.5 37.6 50.8 37.3 45.7 37.2 42.95 36.55 40.75 36.45 40.45 36.35 40.25 36.3 39.25 37.65 37.55 40.3 33.9 40.55 33.45 44.75 26.85 44.25 17.35 44.2 16.15 43.45 12.75 42.65 9.3 42 7.8 42 7.7 42.05 7.6 42.5 0.3 39.05 -5.6 Z"/>
</g>

<g id="bodyParts_Torso_Scientist_29_Layer1_0_FILL">
<path fill="#000000" stroke="none" d="
M 129.7 203.3
Q 128.55 206.45 127.55 208.45 129.65 208.4 131.7 208.4 145.8 206.65 157.35 201.1 157.95 200.4 158.65 199.75 159.35 196.8 160.1 194 149.9 202 129.7 203.3
M 130.75 172.65
Q 130.8 173.2 131.25 174.8 158.4 173.95 151.55 164.7 150.2 169.55 130.6 171.35 130.65 172 130.75 172.65
M 109.85 113.75
L 109.8 113.25
Q 110.4 111.7 111 110.25 111.55 108.9 112.05 107.75 86.95 109.7 62.85 122.3 88.35 115.5 109.6 113.75 109.7 113.7 109.85 113.75
M 63.1 195.7
Q 62.95 196.85 63.45 197.8 63.55 198.25 64.25 198.75 64.4 198.95 64.7 199.2 69.1908203125 200.6447265625 73.55 201.85 77.1955078125 202.9134765625 80.75 203.8 82.1279296875 204.1505859375 83.5 204.45 84.1904296875 204.6390625 84.85 204.8 92.4697265625 206.5470703125 99.6 207.6 105.05 207.85 110.1 208.15 111 206.25 112 203.55 112 203.3 112.15 203.25 100.137109375 202.4974609375 85.65 200.1 84.9087890625 199.9591796875 84.1 199.8 83.81796875 199.7798828125 83.5 199.7 79.721875 199.076953125 75.75 198.3 69.77890625 197.1625 63.4 195.75 63.25 195.7 63.1 195.7
M 77.7 185.3
Q 76.4453125 185.104296875 75 184.8 69.6 183.55 64.9 181.3 60.75 179.25 58.15 177.1
L 61 187.2
Q 67 188.35 73.3 188.4 75.90234375 188.301171875 77.8 187.65 78.83125 187.360546875 79.65 186.9 81.0908203125 186.021484375 81.85 185.7
L 81.85 185.7
Q 82.1623046875 185.57890625 82.35 185.55 82.0939453125 185.574609375 81.8 185.6 81.7494140625 185.59609375 81.65 185.6 80.0322265625 185.648828125 77.7 185.3
M 74.95 171.6
Q 75.2623046875 171.65703125 75.55 171.7 79.6451171875 172.1048828125 83.5 172.45 100.6111328125 174.079296875 113.55 174.6
L 113.7 174.6 113.2 172.85
Q 113.15 172.55 113.1 172.2 100.4259765625 172.4 83.5 171.9 79.6380859375 171.7818359375 75.55 171.6 75.2556640625 171.612109375 74.95 171.6 74.846875 171.6037109375 74.75 171.6 74.8529296875 171.6107421875 74.95 171.6
M 49.8 146.9
Q 49.930078125 147.334765625 50.05 147.75 50.65 150.05 51.2 152.2
L 54.4 163.65
Q 56.3130859375 156.413671875 54.5 147.2 53.6056640625 142.387109375 51.65 137 50.6359375 134.146875 49.3 131.1 47.35 129.75 45.75 128.3 34.6 118.6 33.5 103.2 32 103.35 30.6 103.45 31.5 105.4 32.35 107.5 32.8 110.75 32.8 111.6 32.6 114.25 32.35 118.8 32.7 122.4 36.25 125.2 36.95 125.8 37.65 126.35 43.6 131.05 44.95 133.3 45.1 133.55 45.2 133.8 46.0009765625 135.618359375 46.75 137.65 47.7642578125 140.3376953125 48.7 143.4 49.2708984375 145.1125 49.8 146.9
M 171.85 117.8
L 175.75 107.05
Q 168.7 113.3 142.25 109.05 135.7 107.95 129.4 107.6 129 108.8 128.5 110.15 127.75 111.65 127.2 113.15 145.05 113.35 159.3 117.95 167.2 119.55 171.85 117.8 Z"/>

<path fill="#A5A5A5" stroke="none" d="
M 124.45 208.5
Q 126.05 208.45 127.55 208.45 128.55 206.45 129.7 203.3 121.65 203.7 112.15 203.25 112 203.3 112 203.55 111 206.25 110.1 208.15 117.9 208.35 124.45 208.5
M 113.1 172.2
Q 113.15 172.55 113.2 172.85
L 113.7 174.6
Q 123.75 175.05 131.25 174.8 130.8 173.2 130.75 172.65 130.65 172 130.6 171.35 123.15 171.95 113.1 172.2
M 127.2 113.15
Q 127.75 111.65 128.5 110.15 129 108.8 129.4 107.6 120.55 107 112.05 107.75 111.55 108.9 111 110.25 110.4 111.7 109.8 113.25
L 109.85 113.75
Q 118.8 112.95 127 113.15 127.1 113.05 127.2 113.15 Z"/>

<path fill="#E1E1E1" stroke="none" d="
M 113.7 174.6
L 113.65 175
Q 114.05 176.75 114.9 179.8 115.9 183.9 115.8 187.7 115.55 192.6 112.9 201 112.45 202.1 112.15 203.25 121.65 203.7 129.7 203.3 130.1 202.05 130.6 200.75 133.25 192.35 133.45 187.55 133.55 183.65 132.5 179.55 131.65 176.5 131.25 174.8 123.75 175.05 113.7 174.6
M 128.95 133.15
Q 126.9 113.7 127 113.55
L 127 113.15
Q 118.8 112.95 109.85 113.75 109.7 113.7 109.6 113.75 109.6 115.05 111.45 133.3 113.35 153.15 113.35 156.7 113.35 157.1 112.95 165.1 112.7 168.9 113.05 171.5 113 171.8 113.1 172.2 123.15 171.95 130.6 171.35 130.3 168.65 130.55 164.9 130.85 156.9 130.85 156.5 130.85 153 128.95 133.15
M 107.65 66.1
Q 110.2 74.65 111.65 86.1 112.85 96.75 112.65 104.2 112.55 105.8 112.05 107.7
L 112.05 107.75
Q 120.55 107 129.4 107.6 129.9 105.7 130 104.1 130.2 96.65 128.9 86.05 127.4 74.05 124.7 65.25 116.05 66.05 107.65 66.1 Z"/>

<path fill="#C6906E" stroke="none" d="
M 15.75 68.7
Q 20.1 79.45 26.8 94.65 28.6 98.8 30.6 103.45 32 103.35 33.5 103.2 42.9 102.1 48.6 97.85 50.4 42.8 9.7 42.65 9.3 53.05 15.75 68.7 Z"/>

<path fill="#F1BB97" stroke="none" d="
M 34.15 21.8
Q 26.3 25 18.85 28.9 9 34 8.7 39.2 8.6 40.9 9.7 42.65 50.4 42.8 48.6 97.85 61.1 88.5 54.75 64 44.25 23.55 34.15 21.8
M 148.8 30.75
Q 142.4 20.75 133.45 11.05 123.2 8.35 111.4 7.45 106.7 7 102.05 7.05 101.35 7 100.75 7.05 82.75 6.9 65.4 11.35 54.95 13.95 45.05 17.6 51.6 18.75 61.55 44.35
L 61.85 45.25
Q 68.5 61.1 87.3 64.65 97.2 66 107.65 66.1 116.05 66.05 124.7 65.25 132.45 64.4 140.5 62.95 162.6 57 148.8 30.75
M 176.3 49
Q 174.9 44.1 173.25 38.65 168.05 25.8 150.75 17.35 150.4 17.1 150.05 17 182.1 55.65 181.5 82.55 181.3 89.5 178.95 95.85 178.9 96.2 179 96.7 178.95 96.35 179.05 96.15 182.8 92.4 183 84.5 183 83.95 183 83.45 183 82.55 182.95 81.65 182.35 70.45 176.3 49 Z"/>

<path fill="#1E1A12" stroke="none" d="
M 111.65 86.1
Q 110.2 74.65 107.65 66.1 97.2 66 87.3 64.65 68.5 61.1 61.85 45.25
L 61.55 44.35
Q 51.6 18.75 45.05 17.6 39.45 19.5 34.15 21.8 44.25 23.55 54.75 64 61.1 88.5 48.6 97.85 42.9 102.1 33.5 103.2 34.6 118.6 45.75 128.3 47.35 129.75 49.3 131.1 50.6359375 134.146875 51.65 137 53.6056640625 142.387109375 54.5 147.2 56.3130859375 156.413671875 54.4 163.65
L 58.15 177.1
Q 60.75 179.25 64.9 181.3 69.6 183.55 75 184.8 76.4453125 185.104296875 77.7 185.3 80.0322265625 185.648828125 81.65 185.6 81.7494140625 185.59609375 81.8 185.6 82.0939453125 185.574609375 82.35 185.55 82.1623046875 185.57890625 81.85 185.7
L 81.85 185.7
Q 81.0908203125 186.021484375 79.65 186.9 78.83125 187.360546875 77.8 187.65 75.90234375 188.301171875 73.3 188.4 67 188.35 61 187.2
L 61.95 191.55
Q 61.803515625 190.3666015625 61.9 190.2 61.9 190.3078125 61.9 190.4 61.9 190.7 62 191.45 62.0201171875 191.57109375 62.05 191.65 62.327734375 192.1392578125 62.75 192.8 62.90234375 193.04375 63 193.3 63.052734375 193.334765625 63.1 193.35 63.1060546875 193.4888671875 63.1 193.6 63.25 194.0328125 63.25 194.5 63.1537109375 194.9810546875 63.05 195.4 63.0671875 195.5521484375 63.1 195.7 63.25 195.7 63.4 195.75 69.77890625 197.1625 75.75 198.3 79.721875 199.076953125 83.5 199.7 83.81796875 199.7798828125 84.1 199.8 84.9087890625 199.9591796875 85.65 200.1 100.137109375 202.4974609375 112.15 203.25 112.45 202.1 112.9 201 115.55 192.6 115.8 187.7 115.9 183.9 114.9 179.8 114.05 176.75 113.65 175
L 113.7 174.6 113.55 174.6
Q 100.6111328125 174.079296875 83.5 172.45 79.6451171875 172.1048828125 75.55 171.7 75.2623046875 171.65703125 74.95 171.6 74.8529296875 171.6107421875 74.75 171.6 74.846875 171.6037109375 74.95 171.6 75.2556640625 171.612109375 75.55 171.6 79.6380859375 171.7818359375 83.5 171.9 100.4259765625 172.4 113.1 172.2 113 171.8 113.05 171.5 112.7 168.9 112.95 165.1 113.35 157.1 113.35 156.7 113.35 153.15 111.45 133.3 109.6 115.05 109.6 113.75 88.35 115.5 62.85 122.3 86.95 109.7 112.05 107.75
L 112.05 107.7
Q 112.55 105.8 112.65 104.2 112.85 96.75 111.65 86.1
M 171 119.65
Q 171.45 118.7 171.85 117.8 167.2 119.55 159.3 117.95 145.05 113.35 127.2 113.15 127.1 113.05 127 113.15
L 127 113.55
Q 126.9 113.7 128.95 133.15 130.85 153 130.85 156.5 130.85 156.9 130.55 164.9 130.3 168.65 130.6 171.35 150.2 169.55 151.55 164.7 158.4 173.95 131.25 174.8 131.65 176.5 132.5 179.55 133.55 183.65 133.45 187.55 133.25 192.35 130.6 200.75 130.1 202.05 129.7 203.3 149.9 202 160.1 194 161.7 187.7 163.75 182.15 165.4 177.55 162.85 176.45 166 155.75 166.25 137.5
L 165.5 134.15
Q 165.5 131.45 166.2 129.15 166.95 126.35 168.75 123.8
L 169.25 122.95
Q 170.1 121.3 171 119.65
M 178.6 98.8
Q 178.7 97.7 179 96.7 178.9 96.2 178.95 95.85 181.3 89.5 181.5 82.55 182.1 55.65 150.05 17 142.4 13.3 133.45 11.05 142.4 20.75 148.8 30.75 162.6 57 140.5 62.95 132.45 64.4 124.7 65.25 127.4 74.05 128.9 86.05 130.2 96.65 130 104.1 129.9 105.7 129.4 107.6 135.7 107.95 142.25 109.05 168.7 113.3 175.75 107.05
L 178.3 100.1
Q 178.45 99.45 178.6 98.8 Z"/>
</g>

<g id="bodyParts_hands_Shoulder_Scientist_dancer_40_Layer1_0_FILL">
<path fill="#C6906E" stroke="none" d="
M 58.9 48.9
Q 59.5 48.49921875 59.5 48.65
L 29.8 71.05 49.75 60.5 49.85 60.4
Q 49 62.8 48.15 65.25 47.7 66.5 47.25 67.7 43.9 77.5 40.55 87.55 36.5197265625 99.79921875 33 111.3
L 33.05 111.35
Q 33.2998046875 111.5208984375 33.55 111.7 35.0201171875 108.009375 36.45 104.35 36.9908203125 102.884765625 37.6 101.1 37.55703125 101.41640625 37.5 101.7 38.3099609375 99.684765625 39.1 97.65
L 42.15 89.1
Q 41.17421875 92.0880859375 40.25 94.65 41.7798828125 90.867578125 43.25 87.1 47.5 76.3 51.55 65.8 52.1 64.2 52.75 62.65 52.75 62.55 52.85 62.4 53.65 60.15 54.55 57.9 54.664453125 57.5564453125 54.75 57.2 54.98359375 56.6755859375 55.2 56.15
L 55.45 55.85 59.45 51.2 59.7 50.85 61.1 49.25
Q 62.673828125 47.3 63.75 45.1
L 58.9 48.9
M 9.7 29.45
Q 8.85 34.2 8.05 38.7
L 13.3 51.3 9.7 29.45 Z"/>

<path fill="#F1BB97" stroke="none" d="
M 52.45 6.1
Q 49.4 4.35 46.55 3.1 38.65 -0.25 31.75 0.5 21.25 1.65 15.4 13.25 13.9 16.25 12.7 19.35 12.15 20.7 11.65 22.1 10.37734375 25.66328125 9.45 29.35 8.271875 33.9978515625 7.6 38.85 7.476171875 40.0423828125 7.35 41.25 6.25 44.3 5.75 56 5.25 67.7 4.95 84.5 4.78828125 92.265625 4.25 98.75 4.0755859375 100.010546875 3.85 101.4 3.8060546875 101.7783203125 3.75 102.15 3.71484375 102.4044921875 3.65 102.65 3.0302734375 106.9572265625 2.3 112.65 2.423828125 112.991796875 2.5 113.3 2.5 113.603125 2.5 113.9
L 2.7 114
Q 3.854296875 117.7408203125 4.3 118.25 4.8697265625 118.8546875 5.6 120.05
L 5.9 120 5.9 120.05
Q 5.95 120.15 6 120.25 6.321875 121.255859375 6.8 122.2 6.9083984375 122.3822265625 7 122.5 8.9986328125 125.03671875 13 129.05 13.701953125 129.4771484375 14.45 129.8 18.154296875 131.4138671875 21.7 130.45 23.0169921875 130.131640625 24.3 129.45 26.8599609375 128.096484375 29 125.5 29.19375 125.3216796875 29.35 125.1 35.2896484375 116.16875 37.5 101.7 37.55703125 101.41640625 37.6 101.1 36.9908203125 102.884765625 36.45 104.35 35.0201171875 108.009375 33.55 111.7 33.2998046875 111.5208984375 33.05 111.35
L 33 111.3
Q 36.5197265625 99.79921875 40.55 87.55 43.9 77.5 47.25 67.7 47.7 66.5 48.15 65.25 49 62.8 49.85 60.4
L 49.75 60.5 29.8 71.05 59.5 48.65
Q 59.5 48.49921875 58.9 48.9
L 63.75 45.1
Q 68.883984375 35.1552734375 63.65 19.95 62.1962890625 15.6955078125 60.3 11.85 56.9287109375 8.7560546875 52.45 6.1
M 8.05 38.7
Q 8.85 34.2 9.7 29.45
L 13.3 51.3 8.05 38.7 Z"/>
</g>

<g id="bodyParts_hands_Shoulder_Scientist_dancer_40_Layer0_0_FILL">
<path fill="#970000" stroke="none" d="
M 33.95 83.6
Q 30.9 83.6 30.9 85.05 30.9 86.15 33.5 87.5 35.1 88.3 39.4 90.25 42.5 91.75 45.1 94.3 45.96328125 95.147265625 46.5 95.85 46.4 95.414453125 46.4 95.25 46.4 93.1 48.65 91 50.85 88.95 50.85 85.7 50.85 85.4451171875 50.8 85.15 50.65 88.55 47.25 88.55 45.65 88.55 41.35 86.1 37 83.6 33.95 83.6
M 19.2 86.1
Q 17.78046875 87.2 16.85 87.95 19.37265625 88.5318359375 25.15 89.65 30.8 91.05 34.5 93.6 39.10078125 96.7962890625 41.4 99.15 43.69765625 101.5607421875 43.95 101.45 44.25234375 101.3390625 45.6 100.3 46.0212890625 100.0060546875 46.3 99.6 45.9501953125 99.85 45.75 99.85 45.05 99.85 41.1 97 35.8 93.15 33.05 91.55 28.85 89.05 23.6 87.35 21.2083984375 86.552734375 19.2 86.1
M 10.05 79.85
Q 8.6 78.95 7.7 78.95 6.4 78.95 4.6 79.75 4.477734375 79.80625 4.35 79.85 2.6740234375 80.6826171875 1.6 81.85 0.45 83 -1.5 84.2 -3.1466796875 85.2556640625 -4.15 85.5 -4.059765625 85.5 -4 85.5 -2.15 84.8 -0.7 84.8 0.25 84.8 3.1 85.1 3.88828125 85.1 4.6 84.95 4.705078125 85.1857421875 4.85 85.35 5.4279296875 85.9279296875 6.55 86.2 6.6951171875 86.15 7.05 86.15 7.3490234375 86.15 7.95 86.2 8.4634765625 86.29375 9.15 86.4
L 9.15 86.4
Q 9.15 85.681640625 9.2 84.95 8.62265625 84.800390625 7.6 84.65 6.9095703125 84.5513671875 6.3 84.45 6.7654296875 84.264453125 7.15 84 8.2890625 83.2076171875 9.7 81.2 9.8703125 80.5361328125 10.05 79.85
M 15.85 61.55
Q 13.1931640625 60.65 11.7 60.65 9.55 60.65 8.15 61.7 6.8 62.8 6.8 64.4 6.8 65.05 7.3 66.45 7.6841796875 67.5259765625 7.75 68.25 8.136328125 68.1568359375 8.5 68.1 9.4828125 67.9 10.45 67.9 11.0150390625 67.9 11.55 67.9 11.5203125 67.6908203125 11.5 67.45 11.5015625 67.31015625 11.5 67.15 11.5 67.1404296875 11.5 67.1 11.5 66.7572265625 11.55 66.4
L 11.55 66.4
Q 11.5794921875 66.0775390625 11.65 65.75 12.000390625 64.334375 13.15 63.15 14.351171875 61.9125 15.85 61.55
M 15.9 86.4
Q 16.3193359375 86.0296875 16.7 85.65 20.67109375 81.999609375 21.3 79.5 21.432421875 78.93671875 21.45 78.7 21.45 78.677734375 21.45 78.65 21.45 78.599609375 21.45 78.55 21.4244140625 77.6658203125 20.95 76.9 20.9126953125 76.7939453125 20.85 76.7 20.05 75.5 18.6 75.5 13.94453125 75.5 11.3 86.8 12.8140625 87.1171875 14.85 87.55 15.358203125 86.844921875 15.9 86.4 Z"/>

<path fill="#FF0000" stroke="none" d="
M 25.15 62.7
Q 23.3412109375 62.7 21.1 63.1 21.045703125 63.0013671875 20.95 62.9 19.65 61.45 17 61.45 16.4015625 61.45 15.85 61.55 14.351171875 61.9125 13.15 63.15 12.000390625 64.334375 11.65 65.75 11.5794921875 66.0775390625 11.55 66.4
L 11.55 66.4
Q 11.5 66.7572265625 11.5 67.1 11.5 67.1404296875 11.5 67.15 11.5015625 67.31015625 11.5 67.45 11.5203125 67.6908203125 11.55 67.9 11.0150390625 67.9 10.45 67.9 9.4828125 67.9 8.5 68.1 8.136328125 68.1568359375 7.75 68.25 6.5041015625 68.5720703125 5.2 69.2 1.95 70.75 0.7 73.4 -0.65 76.1 -1.85 79.4 -2.15 80.3 -2.95 81.6 -3.65 82.8 -4.1 83.35 -4.85 83.85 -4.85 84.35 -4.85 84.75 -4.65 85.1 -4.522265625 85.3041015625 -4.35 85.4 -4.2498046875 85.476171875 -4.15 85.5 -3.1466796875 85.2556640625 -1.5 84.2 0.45 83 1.6 81.85 2.6740234375 80.6826171875 4.35 79.85 4.477734375 79.80625 4.6 79.75 6.4 78.95 7.7 78.95 8.6 78.95 10.05 79.85 9.8703125 80.5361328125 9.7 81.2 8.2890625 83.2076171875 7.15 84 6.7654296875 84.264453125 6.3 84.45 6.9095703125 84.5513671875 7.6 84.65 8.62265625 84.800390625 9.2 84.95 9.15 85.681640625 9.15 86.4
L 9.15 86.4
Q 9.151171875 89.0572265625 9.6 91.9 10.3 96.3 11.65 96.3 11.9 96.3 11.95 96.25
L 12.3 95.2
Q 12.2890625 95.0298828125 12.25 94.85 12.2744140625 94.728125 12.25 94.6 12.3408203125 92.875 13.4 91.35 14.2 90.25 16.3 88.45 16.549609375 88.2306640625 16.85 87.95 17.78046875 87.2 19.2 86.1 21.2083984375 86.552734375 23.6 87.35 28.85 89.05 33.05 91.55 35.8 93.15 41.1 97 45.05 99.85 45.75 99.85 45.9501953125 99.85 46.3 99.6 46.9494140625 98.7873046875 46.95 97.65 46.95 97.35 46.7 96.45 46.5974609375 96.125 46.5 95.85 45.96328125 95.147265625 45.1 94.3 42.5 91.75 39.4 90.25 35.1 88.3 33.5 87.5 30.9 86.15 30.9 85.05 30.9 83.6 33.95 83.6 37 83.6 41.35 86.1 45.65 88.55 47.25 88.55 50.65 88.55 50.8 85.15 50.748046875 84.678125 50.55 84.15 50.425 83.8302734375 50.3 83.55 50.1052734375 82.9125 50 82.4 48.794140625 74.773046875 44.05 69.75 37.4 62.7 25.15 62.7
M 22.2 65.9
Q 21.678515625 65.5048828125 21.25 65.35
L 20.35 65.45
Q 19.8509765625 65.1751953125 19.35 65.05 18.45 64.85 16.6 64.85 13.6388671875 64.85 11.6 66.35 12.0708984375 65.734765625 12.7 65.2 14.65 63.65 17.9 63.65 19.740625 63.65 21.8 64.45 22.0501953125 65.080078125 22.2 65.9
M 14.8 65.85
Q 14.8919921875 65.8591796875 15 65.85 14.75 67 15.6 68.5 15.72421875 68.7236328125 15.85 68.9
L 15.8 68.95
Q 15.6197265625 69.170703125 15.4 69.4 15.2447265625 69.5787109375 15.1 69.75 14.951171875 69.2736328125 14.8 68.65 14.5 67.15 14.5 66.6 14.5 66.2 14.8 65.85
M 16.7 85.65
Q 16.3193359375 86.0296875 15.9 86.4 15.358203125 86.844921875 14.85 87.55 12.8140625 87.1171875 11.3 86.8 13.94453125 75.5 18.6 75.5 20.05 75.5 20.85 76.7 20.9126953125 76.7939453125 20.95 76.9 21.4244140625 77.6658203125 21.45 78.55 21.45 78.599609375 21.45 78.65 21.45 78.677734375 21.45 78.7 21.432421875 78.93671875 21.3 79.5 20.67109375 81.999609375 16.7 85.65 Z"/>

<path fill="#C61C1C" stroke="none" d="
M 15 65.85
Q 14.8919921875 65.8591796875 14.8 65.85 14.5 66.2 14.5 66.6 14.5 67.15 14.8 68.65 14.951171875 69.2736328125 15.1 69.75 15.2447265625 69.5787109375 15.4 69.4 15.6197265625 69.170703125 15.8 68.95
L 15.85 68.9
Q 15.72421875 68.7236328125 15.6 68.5 14.75 67 15 65.85
M 21.25 65.35
Q 21.678515625 65.5048828125 22.2 65.9 22.0501953125 65.080078125 21.8 64.45 19.740625 63.65 17.9 63.65 14.65 63.65 12.7 65.2 12.0708984375 65.734765625 11.6 66.35 13.6388671875 64.85 16.6 64.85 18.45 64.85 19.35 65.05 19.8509765625 65.1751953125 20.35 65.45
L 21.25 65.35 Z"/>
</g>

<g id="Symbol_197_0_Layer0_0_FILL">
<path fill="#1E1A12" stroke="none" d="
M 21.5 72.15
Q 21.5 71.1 21.45 70.45 20.9 71.15 20.2 71.8 17.75 74.1 15.15 74.1 10.25 74.1 6.95 70.95 6.95 73.6 7.45 76.75 8.9 77.65 10.15 78.05 11.75 78.5 14.5 78.5 17.05 78.5 18.45 77.95 20.25 77.25 21.45 75.35 21.55 73.45 21.5 72.15 Z"/>

<path fill="#A03800" stroke="none" d="
M 20.9 64.35
L 20.9 64.6 20.95 65.2
Q 21.3302734375 69.841796875 21.35 70 21.4 70.2 21.45 70.4 21.5390625 70.2751953125 21.6 70.15 22.7142578125 68.5001953125 22.9 66.55 22.8255859375 65.7572265625 22.75 65 22.700390625 64.2314453125 22.65 63.5
L 20.85 63.65
Q 20.84609375 63.7005859375 20.85 63.75 20.8654296875 63.9189453125 20.85 64.05
L 20.9 64.35
M 22.65 63.15
L 20.85 63.65 22.65 63.5
Q 22.65 63.3 22.65 63.15
M 20.85 40.45
Q 20.6529296875 35.8962890625 20.55 29.9 20.4373046875 23.3080078125 20.8 18.75
L 18.9 18.6
Q 18.0568359375 27.726953125 19.05 40.55
L 20.85 40.45
M 21.3 47.85
L 20.65 47.9 20.35 47.95 19.6 48
Q 20.4150390625 58.187109375 20.85 63.65
L 22.65 63.15
Q 21.8515625 54.167578125 21.3 47.85
M 20.05 47.95
L 19.6 47.95 19.6 48 20.35 47.95 20.05 47.95
M 19.05 40.6
Q 19.3609375 44.5642578125 19.6 47.95
L 20.05 47.95 21.3 47.85
Q 21.0330078125 44.792578125 20.85 40.45
L 19.05 40.55
Q 19.0529296875 40.5873046875 19.05 40.6
M 21.05 15.95
Q 21.2876953125 14.2244140625 21.6 12.9
L 19.8 12.5
Q 19.7826171875 12.561328125 19.75 12.6 19.4904296875 14.0478515625 19.25 15.6 19.26796875 15.6755859375 19.25 15.7
L 21.05 15.95
M 20.8 18.75
Q 20.90703125 17.2376953125 21.05 15.95
L 19.25 15.7
Q 19.075 17.0673828125 18.9 18.5 18.919140625 18.56171875 18.9 18.6
L 20.8 18.75
M 24.1 1.55
Q 23.9212890625 1.79375 23.75 2.05 21.1142578125 5.9345703125 19.8 12.45 19.7951171875 12.4990234375 19.8 12.5
L 21.6 12.9
Q 22.85 7.55 25.9 3.4 25.4 2.6 24.55 1.85 24.35 1.65 24.1 1.55 Z"/>

<path fill="#A90000" stroke="none" d="
M 20.65 47.9
L 21.3 47.85 21.3 47.85 20.05 47.95 20.35 47.95 20.65 47.9
M 6.7 38.15
L 5.8 36.7
Q 6.1 38.15 6.7 38.15 Z"/>

<path fill="#B33F00" stroke="none" d="
M 18.85 2.9
Q 17.7 1.7 16.55 1 12.2 5.35 9.05 15.35 5.55 26.45 5.55 34.15 5.55 35.6 5.8 36.7
L 6.7 38.15
Q 8.4 38.15 11.35 23 14.5 6.65 18.85 2.9 Z"/>

<path fill="#F95B05" stroke="none" d="
M 22.1 1.1
Q 21.05 1.1 20.3 1.55 19.7 1.95 18.85 2.9 14.5 6.65 11.35 23 8.4 38.15 6.7 38.15 6.1 38.15 5.8 36.7 5.55 35.6 5.55 34.15 5.55 26.45 9.05 15.35 12.2 5.35 16.55 1 12.25 -1.65 8.2 2.85 2 9.8 0.8 19.05 -0.45 28.95 0.3 38.85 0.95 47.95 1.45 57.05 1.85 65.1 6.95 70.95 10.25 74.1 15.15 74.1 17.75 74.1 20.2 71.8 20.9 71.15 21.45 70.45
L 21.45 70.4
Q 21.4 70.2 21.35 70 21.3302734375 69.841796875 20.95 65.2
L 20.9 64.6 20.9 64.35 20.85 64.05
Q 20.8654296875 63.9189453125 20.85 63.75 20.84609375 63.7005859375 20.85 63.65 20.4150390625 58.187109375 19.6 48
L 19.6 47.95
Q 19.3609375 44.5642578125 19.05 40.6 19.0529296875 40.5873046875 19.05 40.55 18.0568359375 27.726953125 18.9 18.6 18.919140625 18.56171875 18.9 18.5 19.075 17.0673828125 19.25 15.7 19.26796875 15.6755859375 19.25 15.6 19.4904296875 14.0478515625 19.75 12.6 19.7826171875 12.561328125 19.8 12.5 19.7951171875 12.4990234375 19.8 12.45 21.1142578125 5.9345703125 23.75 2.05
L 22.1 1.1 Z"/>

<path fill="#FF0000" stroke="none" d="
M 23.75 2.05
Q 23.9212890625 1.79375 24.1 1.55 23.3 1.1 22.1 1.1
L 23.75 2.05 Z"/>
</g>

<g id="Symbol_196_0_Layer0_0_FILL">
<path fill="#A90000" stroke="none" d="
M -35.15 1.2
L -33.6 0.7
Q -35.6732421875 -0.989453125 -36.45 -2.15 -35.8314453125 -0.6751953125 -35.15 1.2
M 55.75 -3.4
Q 56.0572265625 -4.39375 56.25 -5.3 55.5861328125 -4.855859375 54.9 -4.4
L 55.75 -3.05
Q 55.7623046875 -3.2052734375 55.75 -3.4 Z"/>

<path fill="#FF0000" stroke="none" d="
M -29.9 11
Q -30.469140625 10.8146484375 -31.05 10.6 -30.2341796875 11.3298828125 -29.3 12.1
L -29.1 11.25
Q -29.503125 11.1322265625 -29.9 11 Z"/>

<path fill="#B33F00" stroke="none" d="
M -14.45 10.5
Q -14.45 9.1 -18 7.7 -20.25 6.8 -27.3 4.4 -30.5 3.2 -33.6 0.7
L -35.15 1.2
Q -34.771875 2.1228515625 -34.4 3.15 -37.03828125 6.9333984375 -31.05 10.6 -30.469140625 10.8146484375 -29.9 11 -29.503125 11.1322265625 -29.1 11.25 -24.94140625 12.5 -20.2 12.5 -14.45 12.5 -14.45 10.5
M 54.9 -4.4
Q 52.9251953125 -3.1095703125 50.75 -1.75 44.4 2.3 40.85 3.9 40.1 4.25 34.15 6.7 32.8625 7.2150390625 32 7.6 31.949609375 7.6509765625 31.9 7.65 30.513671875 8.3533203125 30.3 8.75
L 30.3 9.15 32.75 9.3
Q 37.65 9.3 45.75 4.7 51.6880859375 1.3240234375 55.75 -3.05
L 54.9 -4.4 Z"/>

<path fill="#F95B05" stroke="none" d="
M 48.65 -7.45
Q 48.2810546875 -7.1447265625 47.85 -6.85 43.8068359375 -4.0728515625 32.15 1.7 20.4861328125 7.4662109375 16.05 8.45 -12.705859375 6.3396484375 -38 -11.35 -38.578515625 -7.753515625 -36.75 -2.8 -36.5921875 -2.457421875 -36.45 -2.15 -35.6732421875 -0.989453125 -33.6 0.7 -30.5 3.2 -27.3 4.4 -20.25 6.8 -18 7.7 -14.45 9.1 -14.45 10.5 -14.45 12.5 -20.2 12.5 -24.94140625 12.5 -29.1 11.25
L -29.3 12.1
Q -24.85 15.15 -19.45 16.15 -10.45 18.1 -1.65 15.6 -1.5896484375 15.5892578125 -1.55 15.55 -1.3638671875 15.61484375 -1.2 15.65 8.35078125 17.153515625 18.7 20.65 29.105859375 24.1392578125 40.55 17.5 52.0359375 10.8603515625 54.05 6.6 56.0697265625 2.347265625 55.75 -3.05 51.6880859375 1.3240234375 45.75 4.7 37.65 9.3 32.75 9.3
L 30.3 9.15 30.3 8.75
Q 30.513671875 8.3533203125 31.9 7.65 31.949609375 7.6509765625 32 7.6 32.8625 7.2150390625 34.15 6.7 40.1 4.25 40.85 3.9 44.4 2.3 50.75 -1.75 52.9251953125 -3.1095703125 54.9 -4.4 55.5861328125 -4.855859375 56.25 -5.3 56.965234375 -6.4974609375 57.3 -7.7 57.68359375 -8.846484375 57.25 -11.05 57.1015625 -11.8025390625 56.05 -13.3 54.028125 -11.3333984375 51.5 -9.5
L 48.65 -7.45 Z"/>
</g>

<g id="Duplicate_Items_Folder_neck_Policeman_29_Layer0_0_FILL">
<path fill="#F1BB97" stroke="none" d="
M 49.75 38.8
Q 50.25 26 46.1 10.45 41.9 -5.1 31.65 -6.95 21.35 -8.85 16.1 1.1 10.8 11.05 11.9 34.55 11.05 48.3 9.25 57.4 7.1 68.35 3.05 75.95 -1.7 88.65 9.6 93.05 19.2 96.75 35.45 93.5 51.1 90.3 59.1 83.75 68 76.45 59.1 70.35 52.9 66.45 51 58.65 49.25 51.55 49.75 38.8 Z"/>
</g>

<g id="bodyParts_accesories_Shoe_Scientist_S_41_Layer1_0_FILL">
<path fill="#2D2A2A" stroke="none" d="
M 31.1 30.35
Q 31 30.45 30.95 30.55 31.45 31.3 32.05 32.2 32.7 31.55 33.5 30.95 33.2 30.3 33 29.85 32.9 29.6 32.8 29.3 32.7 29.4 32.65 29.4 32.6 29.4 32.55 29.45 31.75 29.85 31.1 30.35
M 23.8 21.05
Q 23.6 20.9 23.5 20.8
L 23.55 20.8
Q 22.9 20.25 21.55 18.8 21.4 18.65 21.2 18.45 20.55 18.2 19.9 18 18.15 17.45 17 16.4 16.95 16.25 16.9 16.1 16.45 15.1 16.05 14.25 14.85 12 13.45 11.25 13.35 11.45 13.2 11.7 12.35 12.05 11.65 12.6 13.3 16.95 17.3 18.75 21.4 20.55 25.8 24.2 27.65 25.95 30.05 29.25
L 30.1 29.1
Q 30.8 28.3 31.8 27.6 31.2 26.6 30.6 25.65 30 25.95 29.55 26.3 29.3 26.55 29.05 26.75 28.5 26.5 28.4 26.25 28.2 26 28.2 25.55
L 28.5 25.05
Q 29 24.6 29.6 24.1 29.4 23.9 29.35 23.8 27.15 23.1 25.75 22.25 24.7 21.65 23.8 21.05
M 45.5 24.65
L 45.5 24.7
Q 45.2 24.75 44.95 24.8 44.6 24.95 44.25 25 44.3 25.05 44.35 25.1
L 45.6 26.85 46.9 27.25 47.1 28.2 46.6 28.3 46.65 28.4 47.65 30.1
Q 47.3 30.6 46.95 31.05 46.4 31.65 45.9 32.1 45.5 32.4 45.15 32.55 43.9 33.05 43.35 33.35 42.8 33.6 42.15 33.75 38.85 34.75 36.6 34.55 35.95 34.5 35.4 34.35 35.25 34.35 35.1 34.25 34.7 33.95 34.35 33.05 34.3 32.9 34.3 32.85 34.2 32.85 34.15 32.9 33.55 33.25 33 33.65 34.25 35.7 35.65 37.2 36.1 42.6 34.95 47.4 12.65 41.6 14.05 27.1
L 13.9 25.75 8.8 17.8
Q 8.6 18.75 8.55 19.7
L 12.4 25.65
Q 9.85 43.65 34.6 48.85 35.65 49.05 36.8 49.3 38.1 49.5 39.5 49.7 41.65 49.7 43.35 49.5 48.75 49.1 51.1 44.05 51.45 43.3 51.85 42.6 52.4 41.45 52.8 40.25 46.55 50.05 37.2 47.7 38.55 41.8 37.4 37.05 44.65 36.3 48.15 33.6 51.8 36.2 52.95 39.7 53.3 38.15 53.35 36.65 51.35 33.3 48.15 31.6 50 30.7 45.5 24.65 Z"/>

<path fill="#A2A2A2" stroke="none" d="
M 30.6 25.65
Q 31.2 26.6 31.8 27.6 31.8 27.5 31.9 27.45 33.45 26.3 35.65 25.3 34.15 25.05 32.5 24.7 32.1 24.8 31.9 24.95 31.45 25.1 31.2 25.3 31.15 25.35 31.1 25.35 31.05 25.35 31 25.4 30.8 25.55 30.6 25.65
M 29.35 23.8
Q 29.4 23.9 29.6 24.1 29.65 24 29.8 23.9 29.55 23.85 29.35 23.8
M 43.9 25.1
L 43.35 25.25
Q 40.4 26.05 37.6 27.2 34.9 28.25 33.45 28.95 33 29.15 32.8 29.3 32.9 29.6 33 29.85 33.2 30.3 33.5 30.95 35.1 29.75 37.4 28.7 40.4 27.4 43.35 27 44.5 26.85 45.6 26.85
L 44.35 25.1
Q 44.3 25.05 44.25 25 44.05 25.05 43.9 25.1
M 46.65 28.4
L 46.6 28.3
Q 44.95 28.7 43.35 29.25 41.25 29.9 39.2 30.7 36.5 31.7 35.05 32.45 37.45 32.85 41.2 31.7 42.4 31.4 43.35 30.95 44.45 30.45 45.3 29.8 46.4 29.1 46.65 28.4
M 52 4.65
Q 51.75 4.05 51.4 3.65 50.4 2.5 49.05 2.5 48.15 2.5 43.2 4.6 38.3 6.7 34.65 6.7 33.8 6.7 30.3 6 26.85 5.2 25.6 5.2 23.35 5.2 21.85 6.9 22.8 7.1 24.45 7.65 25.95 8.15 28.1 8.9 32.6 10.55 36.3 11 37.65 11.15 38.85 11.15 43.1 11.15 47.3 9.05 51.4 6.95 52 4.65 Z"/>

<path fill="#3A68C7" stroke="none" d="
M 9.25 16.1
Q 8.95 16.95 8.8 17.8
L 13.9 25.75 14.05 27.1
Q 12.65 41.6 34.95 47.4 36.1 42.6 35.65 37.2 34.25 35.7 33 33.65 32.85 33.7 32.7 33.8 32.5 34.05 32.25 34.25 31.7 34 31.6 33.75 31.4 33.5 31.4 33.05
L 31.7 32.55
Q 31.85 32.35 32.05 32.2 31.45 31.3 30.95 30.55 30.75 30.65 30.6 30.75 30.1 30.5 29.95 30.3 29.8 30.05 29.8 29.55
L 30.05 29.25
Q 27.65 25.95 25.8 24.2 21.4 20.55 17.3 18.75 13.3 16.95 11.65 12.6 10.25 13.65 9.5 15.5 9.4 15.8 9.25 16.1
M 52.8 40.25
Q 52.85 39.95 52.95 39.7 51.8 36.2 48.15 33.6 44.65 36.3 37.4 37.05 38.55 41.8 37.2 47.7 46.55 50.05 52.8 40.25
M 45.45 24.05
Q 45.5 24.35 45.5 24.65 50 30.7 48.15 31.6 51.35 33.3 53.35 36.65 53.35 34 52.25 31.3 51.3 29.05 49.15 27.6
L 47.05 25.1
Q 46.75 24.5 46.3 23.55 45.8 23.8 45.45 24.05
M 52.5 7.7
Q 52.5 5.85 52 4.65 51.4 6.95 47.3 9.05 43.1 11.15 38.85 11.15 37.65 11.15 36.3 11 32.6 10.55 28.1 8.9 25.95 8.15 24.45 7.65 22.8 7.1 21.85 6.9 21.55 7.2 21.3 7.55 21.15 7.8 21 8 19.95 9.8 19.95 12.05 19.95 14 20.6 15.15 21.1 16 22.2 16.9 23.8 17.25 25.75 17.55 33.2 18.7 41.5 18.7 42.4 18.7 43.3 18.65 44.65 18.6 46 18.35 46.6 18.2 47.05 18.15 47.3 17.9 47.55 17.7 52.5 13 52.5 7.7 Z"/>

<path fill="#E9C923" stroke="none" d="
M 29.8 23.9
Q 29.65 24 29.6 24.1 29 24.6 28.5 25.05
L 28.2 25.55
Q 28.2 26 28.4 26.25 28.5 26.5 29.05 26.75 29.3 26.55 29.55 26.3 30 25.95 30.6 25.65 30.8 25.55 31 25.4 31.05 25.35 31.1 25.35 31.15 25.35 31.2 25.3 31.45 25.1 31.9 24.95 32.1 24.8 32.5 24.7 32.4 24.65 32.35 24.65 31 24.3 29.8 23.9
M 46.6 28.3
L 47.1 28.2 46.9 27.25 45.6 26.85
Q 44.5 26.85 43.35 27 40.4 27.4 37.4 28.7 35.1 29.75 33.5 30.95 32.7 31.55 32.05 32.2 31.85 32.35 31.7 32.55
L 31.4 33.05
Q 31.4 33.5 31.6 33.75 31.7 34 32.25 34.25 32.5 34.05 32.7 33.8 32.85 33.7 33 33.65 33.55 33.25 34.15 32.9 34.2 32.85 34.3 32.85 34.6 32.7 35.05 32.45 36.5 31.7 39.2 30.7 41.25 29.9 43.35 29.25 44.95 28.7 46.6 28.3
M 45.5 24.65
Q 45.5 24.35 45.45 24.05 45.3 24.15 45.2 24.2 44.8 24.45 44.55 24.5 44.3 24.65 44 24.75 41.6 25.6 38.7 25.6 37.4 25.6 35.65 25.3 33.45 26.3 31.9 27.45 31.8 27.5 31.8 27.6 30.8 28.3 30.1 29.1
L 30.05 29.25 29.8 29.55
Q 29.8 30.05 29.95 30.3 30.1 30.5 30.6 30.75 30.75 30.65 30.95 30.55 31 30.45 31.1 30.35 31.75 29.85 32.55 29.45 32.6 29.4 32.65 29.4 32.7 29.4 32.8 29.3 33 29.15 33.45 28.95 34.9 28.25 37.6 27.2 40.4 26.05 43.35 25.25
L 43.9 25.1
Q 44.05 25.05 44.25 25 44.6 24.95 44.95 24.8 45.2 24.75 45.5 24.7
L 45.5 24.65 Z"/>

<path fill="#B49805" stroke="none" d="
M 30.3 23.45
Q 30.25 23.5 30.25 23.55 30 23.75 29.8 23.9 31 24.3 32.35 24.65 32.4 24.65 32.5 24.7 33.4 24.2 34.65 23.75 32.35 23.6 30.55 23.3 30.45 23.4 30.3 23.45
M 43.65 24.3
Q 43.3 23.85 42.9 23.45 39.3 23.7 35.8 25.25 35.7 25.3 35.65 25.3 37.4 25.6 38.7 25.6 41.6 25.6 44 24.75 43.8 24.45 43.65 24.3 Z"/>

<path fill="#676767" stroke="none" d="
M 30.25 23.55
Q 30.25 23.5 30.3 23.45 30.45 23.4 30.55 23.3 29.55 23.1 28.7 22.85 28.75 22.95 28.9 23.15 29.1 23.45 29.35 23.8 29.55 23.85 29.8 23.9 30 23.75 30.25 23.55
M 42.9 23.45
Q 42.7 23.15 42.45 22.9 40.95 23.6 40.4 23.75 40 23.8 37.05 23.8 35.8 23.8 34.65 23.75 33.4 24.2 32.5 24.7 34.15 25.05 35.65 25.3 35.7 25.3 35.8 25.25 39.3 23.7 42.9 23.45 Z"/>

<path fill="#0E2933" stroke="none" d="
M 24.25 20.2
Q 24.2 20.25 24.15 20.3 22.95 19.2 21.2 18.45 21.4 18.65 21.55 18.8 22.9 20.25 23.55 20.8
L 23.5 20.8
Q 23.6 20.9 23.8 21.05 24.7 21.65 25.75 22.25 27.15 23.1 29.35 23.8 29.1 23.45 28.9 23.15 28.75 22.95 28.7 22.85 26.1 22.1 24.8 20.8 24.45 20.5 24.25 20.2
M 47.05 18.15
Q 46.6 18.2 46 18.35 44.65 18.6 43.3 18.65 42.4 18.7 41.5 18.7 33.2 18.7 25.75 17.55 23.8 17.25 22.2 16.9 22.9 17.45 23.8 18 24.3 18.35 25.15 19 25.35 19.1 25.5 19.25 25.65 19.3 25.7 19.4 25.9 19.5 26 19.6 26.9 20.55 28.7 22.85 29.55 23.1 30.55 23.3 32.35 23.6 34.65 23.75 35.8 23.8 37.05 23.8 40 23.8 40.4 23.75 40.95 23.6 42.45 22.9 42.7 23.15 42.9 23.45 43.3 23.85 43.65 24.3 43.8 24.45 44 24.75 44.3 24.65 44.55 24.5 44.8 24.45 45.2 24.2 45.3 24.15 45.45 24.05 45.8 23.8 46.3 23.55 46.15 23.3 46.05 23.1 45.2 21.45 44.5 20.3 44.4 20.25 44.4 20.2 44.4 20.15 44.5 20.15 44.55 19.95 44.55 19.7 44.6 19.85 44.7 20 45.85 19.25 47.05 18.15 Z"/>

<path fill="#FFFFFF" stroke="none" d="
M 22.2 16.9
Q 21.1 16 20.6 15.15 19.95 14 19.95 12.05 19.95 9.8 21 8 17.65 8.55 14.1 10.2 13.75 10.7 13.45 11.25 14.85 12 16.05 14.25 16.45 15.1 16.9 16.1 16.95 16.25 17 16.4 18.15 17.45 19.9 18 20.55 18.2 21.2 18.45 22.95 19.2 24.15 20.3 24.2 20.25 24.25 20.2 24.45 20.5 24.8 20.8 26.1 22.1 28.7 22.85 26.9 20.55 26 19.6 25.9 19.5 25.7 19.4 25.65 19.3 25.5 19.25 25.35 19.1 25.15 19 24.3 18.35 23.8 18 22.9 17.45 22.2 16.9
M 47.65 30.1
L 46.65 28.4
Q 46.4 29.1 45.3 29.8 44.45 30.45 43.35 30.95 42.4 31.4 41.2 31.7 37.45 32.85 35.05 32.45 34.6 32.7 34.3 32.85 34.3 32.9 34.35 33.05 34.7 33.95 35.1 34.25 35.25 34.35 35.4 34.35 35.95 34.5 36.6 34.55 38.85 34.75 42.15 33.75 42.8 33.6 43.35 33.35 43.9 33.05 45.15 32.55 45.5 32.4 45.9 32.1 46.4 31.65 46.95 31.05 47.3 30.6 47.65 30.1 Z"/>

<path fill="#B2B2B2" stroke="none" d="
M 51.15 44.15
Q 51.5 43.35 51.85 42.6 51.45 43.3 51.1 44.05 48.75 49.1 43.35 49.5 41.65 49.7 39.5 49.7 38.1 49.5 36.8 49.3 35.65 49.05 34.6 48.85 9.85 43.65 12.4 25.65
L 8.55 19.7
Q 7.6 19.3 7.95 20.5 7.95 20.6 8 20.75 8.1 21.05 8.4 21.5 8.5 21.6 8.55 21.7
L 11.6 26.5
Q 8.8 46.5 39.7 50.8 41.5 50.7 43.35 50.2 48.8 49.2 51.15 44.15 Z"/>

<path fill="#54C6E8" stroke="none" d="
M 44.5 20.3
Q 44.5 20.2 44.5 20.15 44.4 20.15 44.4 20.2 44.4 20.25 44.5 20.3 Z"/>

<path fill="#63625E" stroke="none" d="
M 44.5 20.15
Q 44.5 20.2 44.5 20.3 45.2 21.45 46.05 23.1 46.15 23.3 46.3 23.55 46.75 24.5 47.05 25.1
L 49.15 27.6 47.9 25.1
Q 47.35 24.2 46.8 23.25 45.85 21.65 44.7 20 44.6 19.85 44.55 19.7 44.55 19.95 44.5 20.15 Z"/>
</g>

<g id="bodyParts_head_head_businessman_transform_dancer_1_Layer9_0_FILL">
<path fill="#C58D68" stroke="none" d="
M 10.85 79.3
Q 15.290625 87.336328125 20.5 91.3 26.0833984375 95.612109375 32.55 95.25 32.7 95.25 32.85 95.25 33.8 95.15 34.75 95 49.1 91.15 53.8 61.7 47.55 87.95 32.55 91.3 27.611328125 92.1025390625 20.5 87.35 16.0923828125 84.389453125 10.85 79.3 Z"/>
</g>

<g id="bodyParts_face_whiteFace_0_Layer0_0_FILL">
<path fill="#C58D68" stroke="none" d="
M 32.55 91.9
Q 24.55 93.2 10.85 79.9 11.3134765625 80.7388671875 11.75 81.5 20.6798828125 96.5146484375 32.55 95.85 32.7 95.85 32.85 95.85 33.8 95.75 34.75 95.6 49.1 91.75 53.8 62.3 52.6837890625 66.987890625 51.25 70.9 49.950390625 74.6763671875 48.4 77.75 46.9025390625 80.76953125 45.15 83.15 39.89375 90.2599609375 32.55 91.9 Z"/>

<path fill="#F1BC97" stroke="none" d="
M 55.7 36.5
Q 55.6 23.1 53.2 9.7 51 -2 25.8 0.4 0.55 2.8 0 17.6
L 1.85 53.5
Q 4.95 70.25 10.6 80.4 11.198046875 80.9806640625 11.75 81.5 11.3134765625 80.7388671875 10.85 79.9 24.55 93.2 32.55 91.9 39.89375 90.2599609375 45.15 83.15 46.9025390625 80.76953125 48.4 77.75 49.950390625 74.6763671875 51.25 70.9 52.5072265625 67.1794921875 53.55 62.8 55.3 51.55 55.7 36.5 Z"/>
</g>

<g id="nose_dancer_0_Layer0_0_FILL">
<path fill="#DFA57F" stroke="none" d="
M 6.6 16.85
Q 6.8 17 7 17.15 11.9 20.3 16.55 19.2 17.75 10.8 11.85 0.2 10.7 -1.1 9.15 6.3 7.35 12.65 3.15 14.65 0.85 13.5 0.1 14.6 0 15.15 0 15.75 0.05 15.7 0.15 15.65 0.7 15.4 2.1 15.4 2.6 15.4 3.1 15.5 3.9 15.6 4.75 15.9 5.35 16.15 6.6 16.85 Z"/>

<path fill="#AC744E" stroke="none" d="
M 7 17.15
Q 6.8 17 6.6 16.85 5.35 16.15 4.75 15.9 3.9 15.6 3.1 15.5 2.6 15.4 2.1 15.4 0.7 15.4 0.15 15.65 0.05 15.7 0 15.75 0 16.25 0.15 16.8 0.2 16.95 0.25 17.05 0.3 17.25 0.35 17.4 1.2 19.5 4.15 21.2 5.65 21.6 7 21.9 14.1 23.4 16 21.6 16.35 20.4 16.55 19.2 11.9 20.3 7 17.15
M 5.5 17.85
Q 5.55 17.9 5.65 18 6.65 18.85 7.3 20 3.05 18.7 3.3 16.6 4.55 17.1 5.5 17.85 Z"/>

<path fill="#905731" stroke="none" d="
M 5.65 18
Q 5.55 17.9 5.5 17.85 4.55 17.1 3.3 16.6 3.05 18.7 7.3 20 6.65 18.85 5.65 18 Z"/>
</g>

<g id="Symbol_93_0_Layer0_0_FILL">
<path fill="#B07A24" stroke="none" d="
M 14.75 34.1
Q 13.2798828125 32.670703125 11.65 31.6 10.8357421875 31.068359375 9.95 30.6 8.861328125 30.0470703125 7.65 29.6 7.58671875 29.59296875 7.5 29.55 7.3873046875 29.5298828125 7.25 29.5 5.7986328125 28.9869140625 4.2 28.7
L 4.65 31.45
Q 12.109375 38.494921875 16.1 35.5 15.4427734375 34.77265625 14.75 34.1 Z"/>

<path fill="#D19C3A" stroke="none" d="
M 16.45 12.15
Q 14.45 -5.9 0 2.9
L 4.2 28.7
Q 5.7986328125 28.9869140625 7.25 29.5 7.3873046875 29.5298828125 7.5 29.55
L 7.5 27.9 7.5 29.55
Q 7.58671875 29.59296875 7.65 29.6 8.861328125 30.0470703125 9.95 30.6
L 9.7 29.5 9.95 30.6
Q 10.8357421875 31.068359375 11.65 31.6
L 11.75 30.3 11.65 31.6
Q 13.2798828125 32.670703125 14.75 34.1
L 14.75 31.9 14.75 34.1
Q 15.4427734375 34.77265625 16.1 35.5 17.4130859375 34.5462890625 18.35 32.5 23.85 16.25 16.45 12.15
M 12.8 28.75
L 12.7 27.7 12.8 28.75
M 10.35 27.8
L 10.35 26.5 10.35 27.8
M 14.1 29.75
L 14 28.9 14.1 29.75
M 13.35 31.55
L 13.45 30.6 13.35 31.55
M 5.9 26.3
L 5.9 25.65 5.9 26.3
M 8.7 27.9
L 8.7 26.3 8.7 27.9 Z"/>
</g>

<g id="Symbol_92_0_Layer0_0_FILL">
<path fill="#B07A24" stroke="none" d="
M 49.25 34.3
Q 57.35 37.4 59.85 36.5 62.55 34.2 64.8 32 49.9 27.65 34.2 26 21.05 25 15.85 31.4 12.85 36.45 16.75 42.2 16 38.2 16.35 37 17.25 34.1 19.2 33 21.15 31.9 26.3 31.65 44.3 32 49.25 34.3 Z"/>

<path fill="#D19C3A" stroke="none" d="
M 73.1 20.65
Q 71.1 18.7 70.45 16.65 70.4 16.45 70.1 15.35 69.75 14.2 67.55 13.85 65.35 13.5 62.1 15.35 58.85 17.15 56.6 15.05 53.35 13.25 48.5 16.75 44.1 21.15 40.95 20.35 37.65 19.2 34.9 19.95 18.6 22.9 5.5 21.95 24.05 20.9 34.05 17.9 37.75 16.1 39.75 16.95 41.6 17.7 43.55 15.35
L 49.1 9.55
Q 53.55 5.2 59.55 7.55 61.55 8.5 65.1 7.25 68.4 4.15 70.75 7.15 73.1 10.15 74.2 17.55 75.95 11 72.5 5.1 62.85 -5.55 46.05 5.95 29.25 17.4 19.65 16.9 18.85 10.15 13.5 16.9 11.45 11.3 5.5 18.65 4.15 19.35 3.5 19.9 2.85 20.4 2.35 21.1 1.8 21.75 1.2 23.35 -0.05 26.75 0 30.4 0.05 34.8 2.65 38.25 5.4 41.85 9.75 43.7 13.4 44.75 16.75 42.2 12.85 36.45 15.85 31.4 21.05 25 34.2 26 49.9 27.65 64.8 32 70.65 26.1 73.1 20.65 Z"/>

<path fill="#F2E3B5" stroke="none" d="
M 70.45 16.65
Q 71.1 18.7 73.1 20.65 73.8 19.05 74.2 17.55 73.1 10.15 70.75 7.15 68.4 4.15 65.1 7.25 61.55 8.5 59.55 7.55 53.55 5.2 49.1 9.55
L 43.55 15.35
Q 41.6 17.7 39.75 16.95 37.75 16.1 34.05 17.9 24.05 20.9 5.5 21.95 18.6 22.9 34.9 19.95 37.65 19.2 40.95 20.35 44.1 21.15 48.5 16.75 53.35 13.25 56.6 15.05 58.85 17.15 62.1 15.35 65.35 13.5 67.55 13.85 69.75 14.2 70.1 15.35 70.4 16.45 70.45 16.65 Z"/>
</g>

<g id="Duplicate_Items_Folder_Symbol_88_copy_0_Layer0_0_FILL">
<path fill="#C6906E" stroke="none" d="
M 1.45 1.3
Q 6.15 8.1 16.25 5.4 6.15 6.4 1.45 1.3
M 0.25 3.3
Q -0.15 0.25 2.85 0.1 -0.9 -0.5 0.25 3.3 Z"/>
</g>

<g id="bodyParts_face_eye_Policeman_dancer_24_Layer3_0_FILL">
<path fill="#FFFFFF" stroke="none" d="
M 7.4 2.35
Q 5.732421875 1.9220703125 4.25 2.05 2.6 2.2 1.45 2.85 0 3.7 0 4.9 -0.001171875 6.094140625 1.45 6.6 2.953125 7.117578125 5.1 7.05 7.2466796875 6.982421875 8.75 6.55 10.3009765625 6.105859375 10.3 4.9 10.3 4.3 9.95 3.8 9.55 3.3 8.75 2.85 8.1 2.5 7.4 2.35 Z"/>
</g>

<g id="Mask_bodyParts_face_eye_Policeman_dancer_24_2_MASK_0_MEMBER_0_FILL">
<path fill="#FFFFFF" stroke="none" d="
M 7.4 2.35
Q 5.732421875 1.9220703125 4.25 2.05 2.6 2.2 1.45 2.85 0 3.7 0 4.9 -0.001171875 6.094140625 1.45 6.6 2.953125 7.117578125 5.1 7.05 7.2466796875 6.982421875 8.75 6.55 10.3009765625 6.105859375 10.3 4.9 10.3 4.3 9.95 3.8 9.55 3.3 8.75 2.85 8.1 2.5 7.4 2.35 Z"/>
</g>

<g id="Duplicate_Items_Folder_adsa_49_Layer1_0_FILL">
<path fill="#31A2C0" stroke="none" d="
M 5.15 2.25
Q 5.15 2.1265625 5.15 2 4.988671875 1.288671875 4.45 0.75 3.7 0 2.6 0 1.5 0 0.75 0.75 0 1.5 0 2.6 0 2.7236328125 0 2.85 0.084375 3.784375 0.75 4.45 1.25 4.95 1.85 5.1 2.0263671875 5.1662109375 2.2 5.2 2.560546875 4.9 2.65 4.9 3.6671875 4.9 4.35 4.15 4.378125 4.125 4.4 4.1
L 4.7 3.8
Q 5.1 3.25 5.15 2.65 5.15 2.55 5.15 2.4 5.15 2.3 5.15 2.25
M 2.8 1.5
Q 2.8814453125 1.459375 2.95 1.45
L 3 1.45
Q 3.5 1.45 3.85 1.8 4.2 2.15 4.2 2.65 4.2 3.15 3.85 3.5 3.5 3.85 3 3.85 2.9 3.85 2.8 3.85 2.698046875 3.8353515625 2.6 3.8 2.3625 3.7125 2.15 3.5 1.8 3.15 1.8 2.65 1.8 2.15 2.15 1.8 2.45 1.5 2.8 1.5 Z"/>

<path fill="#0D4C5D" stroke="none" d="
M 4.2 2.65
Q 4.2 2.15 3.85 1.8 3.5 1.45 3 1.45
L 2.95 1.45
Q 3.234765625 1.534765625 3.45 1.75 3.8 2.1 3.8 2.6 3.8 3.1 3.45 3.45 3.1 3.8 2.6 3.8 2.698046875 3.8353515625 2.8 3.85 2.9 3.85 3 3.85 3.5 3.85 3.85 3.5 4.2 3.15 4.2 2.65 Z"/>

<path fill="#186A80" stroke="none" d="
M 2.95 1.45
Q 2.8814453125 1.459375 2.8 1.5 2.45 1.5 2.15 1.8 1.8 2.15 1.8 2.65 1.8 3.15 2.15 3.5 2.3625 3.7125 2.6 3.8 3.1 3.8 3.45 3.45 3.8 3.1 3.8 2.6 3.8 2.1 3.45 1.75 3.234765625 1.534765625 2.95 1.45 Z"/>

<path fill="#278BA5" stroke="none" d="
M 5.2 2.6
Q 5.2 2.2900390625 5.15 2 5.15 2.1265625 5.15 2.25 5.15 2.3 5.15 2.4 5.15 2.55 5.15 2.65 5.1 3.25 4.7 3.8
L 4.4 4.1
Q 4.378125 4.125 4.35 4.15 3.6671875 4.9 2.65 4.9 2.560546875 4.9 2.2 5.2 2.4484375 5.25 2.7 5.25 3.75 5.25 4.35 4.6
L 4.75 4.15
Q 5.15 3.6 5.2 3 5.2 2.9 5.2 2.75 5.2 2.65 5.2 2.6 Z"/>
</g>

<g id="Duplicate_Items_Folder_adsa_49_Layer0_0_FILL">
<path fill="#FFFFFF" stroke="none" d="
M 1.9 2.9
Q 1.8 2.8 1.7 2.8 1.55 2.8 1.5 2.9 1.4 3 1.4 3.1 1.4 3.2 1.5 3.3 1.55 3.4 1.7 3.4 1.8 3.4 1.9 3.3 1.95 3.2 1.95 3.1 1.95 3 1.9 2.9
M 2.75 2
Q 2.75 1.7 2.55 1.5 2.35 1.3 2.05 1.3 1.75 1.3 1.55 1.5 1.35 1.7 1.35 2 1.35 2.3 1.55 2.5 1.75 2.7 2.05 2.7 2.35 2.7 2.55 2.5 2.75 2.3 2.75 2 Z"/>
</g>

<g id="bodyParts_face_eye_Policeman_dancer_24_Layer0_0_FILL">
<path fill="#C6906E" stroke="none" d="
M 10.9 2.95
L 10.8 2.85
Q 5.7 -2.55 0.1 2.25
L 3.2 1.2
Q 3.7 1.05 4.2 1 4.45 0.95 4.75 0.95
L 5.2 0.95
Q 5.5 0.95 5.8 1
L 7.5 1.25 8.35 1.55
Q 8.75 1.7 9.2 1.9 10 2.3 10.8 2.9 10.846875 2.9 10.9 2.95 Z"/>
</g>

<g id="bodyParts_face_ear_Policeman_1_Layer0_0_FILL">
<path fill="#F1BC97" stroke="none" d="
M 11.1 6
Q 11 5.7 10.9 5.35
L 10 3.2
Q 6.9 -0.7 3.75 0.15 -0.95 1.8 0.25 8.25 1.8 14.9 7.45 14.2 13.15 12.9 11.15 6.2 11.15 6.15 11.15 6.1 11.1 6.05 11.1 6
M 9.75 6.45
Q 7.35 6.3 6.15 8.5 5.45 6.6 8.15 5.75 5.55 3.8 4.1 7.05 3.4 4.65 4.6 3.6 8.1 2.1 9.75 6.45 Z"/>

<path fill="#C58D68" stroke="none" d="
M 6.15 8.5
Q 7.35 6.3 9.75 6.45 8.1 2.1 4.6 3.6 3.4 4.65 4.1 7.05 5.55 3.8 8.15 5.75 5.45 6.6 6.15 8.5 Z"/>
</g>

<g id="bodyParts_face_eyebrow_Policeman_dancer_0_Layer0_0_FILL">
<path fill="#D19C3A" stroke="none" d="
M 13.1 3.3
Q 16.05 3.25 16.05 2.35 16 1.35 14.45 1.05 3.85 0.3 0.3 2.45 -0.55 3.9 1 3.85 4.8 3 7.45 3.15 10.1 3.35 13.1 3.3 Z"/>
</g>

<g id="bodyParts_face_eyebrow_Policeman_dancer_1_Layer0_0_FILL">
<path fill="#D19C3A" stroke="none" d="
M 0.8 3.4
Q 0.4 4 1.5 4.65 5.85 5.65 9.7 5.45 13.5 5.25 15.45 4 16.4 3.35 15.15 2.3 13.85 1.3 11.9 2.1 10 2.9 7.5 3 5.9 3.1 2.55 2.9 1.1 2.85 0.8 3.4 Z"/>
</g>

<g id="Duplicate_Items_Folder_Dancer_hat_0_Layer2_0_FILL">
<path fill="#FFFFFF" stroke="none" d="
M 16.05 38.1
Q 8.9005859375 42.216796875 1.25 43.95 -1.1443359375 46.4435546875 1.1 49.7 5.5833984375 47.6654296875 16.05 38.1
M 35.25 8.7
Q 34.85 6.95 30.55 6.9 19.4 6.8 12.1 12.55 6.5 17 4.5 23.45 3.2 27.15 5.2 29.1 7.2 31.05 9.4 27.35 12.35 22.4 17.7 17.85 24.45 12.05 30.8 11.3 35.65 10.45 35.25 8.7 Z"/>

<path fill="#8F7965" stroke="none" d="
M 37.5 3.45
L 37.5 3.4
Q 37.45 3.2908203125 37.45 3.15 37.45 2.8 36.95 2.55 36.5 2.3 35.85 2.3 35.2 2.3 34.7 2.55 34.25 2.8 34.25 3.15 34.25 3.268359375 34.3 3.35
L 34.3 3.4 34.85 3.4 34.95 3.4
Q 35.0015625 3.397265625 35.05 3.4 35.5 3.4 36 3.4 36.5265625 3.404296875 37.05 3.4
L 37.1 3.45 37.1 3.4 37.5 3.45 Z"/>

<path fill="#A8A8A8" stroke="none" d="
M 40.7 40.85
Q 41.70390625 40.75546875 42.7 40.65 42.75 40.65 42.85 40.65 49.52109375 39.8861328125 56.1 39.75 60.1275390625 39.8509765625 64.1 40.2 64.2 40.2 64.25 40.2 64.85 40.25 65.4 40.3 65.5 40.3 65.6 40.35 66.6287109375 40.4267578125 67.6 40.5
L 64.45 40.2 64.45 18.3
Q 53.75 5.65 38.45 7
L 39.35 21.15 39.5 21.15 40.7 40.85 Z"/>

<path fill="#EDEDED" stroke="none" d="
M 68.55 18.95
Q 68.5642578125 18.8998046875 68.55 18.85 66.6966796875 4.0234375 37.5 3.4
L 37.5 3.45 37.1 3.4 37.1 3.45 37.05 3.4
Q 36.5265625 3.404296875 36 3.4 35.5 3.4 35.05 3.4 35.0015625 3.397265625 34.95 3.4
L 34.85 3.4 34.3 3.4 34.3 3.35
Q 33.7724609375 3.3708984375 33.25 3.4 6.75 3.85 2.25 19.45 2 20.3 1.8 21.15 1.7296875 21.51875 1.25 23.8
L 1.2 23.8
Q 1.23125 24.2427734375 1.25 24.7
L 1.25 43.95
Q 8.9005859375 42.216796875 16.05 38.1 5.5833984375 47.6654296875 1.1 49.7 0.8916015625 49.669921875 2.2 51.15 2.2275390625 51.175 2.25 51.2 2.6 51.05 2.95 50.95 16.7791015625 45.1296875 31.65 42.35 32.7466796875 42.1390625 33.85 41.95 34 41.9 34.25 41.85 37.03828125 41.3521484375 39.85 41 39.9140625 40.9828125 39.95 40.95 40.3435546875 40.9259765625 40.7 40.85
L 39.5 21.15 39.35 21.15 38.45 7
Q 53.75 5.65 64.45 18.3
L 64.45 40.2 67.6 40.5
Q 67.9685546875 40.542578125 68.3 40.55 68.5654296875 40.6140625 68.8 40.65
L 68.8 40.6 68.8 21.6
Q 68.8291015625 21.3724609375 68.85 21.15
L 68.95 21.15
Q 68.9283203125 20.8794921875 68.9 20.6 68.9619140625 19.7419921875 68.6 18.95
L 68.55 18.95
M 30.55 6.9
Q 34.85 6.95 35.25 8.7 35.65 10.45 30.8 11.3 24.45 12.05 17.7 17.85 12.35 22.4 9.4 27.35 7.2 31.05 5.2 29.1 3.2 27.15 4.5 23.45 6.5 17 12.1 12.55 19.4 6.8 30.55 6.9 Z"/>
</g>

<g id="Duplicate_Items_Folder_Dancer_hat_0_Layer0_0_FILL">
<path fill="#330099" stroke="none" d="
M 84.95 46.65
Q 85.6 47.15 86 47.65 86.2 47.9 86.35 48.15 86.45 47.9 86.55 47.7 84.05 43 68.75 41.25 52.45 39.35 33.6 42.6 19.75 45.3 9.45 49.05 4.25 50.95 1.05 52.6 1 52.85 1.2 53.1 1.95 52.75 2.75 52.45 3 52.3 3.25 52.2 3.35 52.15 3.45 52.15 5.3 51.35 7.15 50.65
L 24.95 45 26.7 44.6
Q 29.3 44 31.9 43.5 33.45 43.2 34.95 43 37.5 42.55 40.05 42.25 52.2 40.8 64.1 41.85 64.2998046875 41.8654296875 64.5 41.85 64.9498046875 41.9154296875 65.4 41.95
L 65.45 41.95
Q 79.95 43.05 84.75 46.5
L 84.8 46.55
Q 84.85 46.55 84.9 46.6
L 84.95 46.65 Z"/>

<path fill="#7D7D7D" stroke="none" d="
M 86 47.65
Q 85.6 47.15 84.95 46.65
L 84.9 46.6
Q 84.85 46.55 84.8 46.55
L 84.75 46.5
Q 79.95 43.05 65.45 41.95
L 65.4 41.95
Q 64.9498046875 41.9154296875 64.5 41.85 64.2998046875 41.8654296875 64.1 41.85 52.2 40.8 40.05 42.25 37.5 42.55 34.95 43 33.45 43.2 31.9 43.5 29.3 44 26.7 44.6
L 24.95 45 7.15 50.65
Q 5.3 51.35 3.45 52.15 3.35 52.15 3.25 52.2 3 52.3 2.75 52.45 1.95 52.75 1.2 53.1 1.7 53.75 3.15 53.65 3.2017578125 53.655859375 26.1 51.35 48.9966796875 49.0791015625 56.1 49.85 63.203125 50.6341796875 65.4 51 67.5943359375 51.4095703125 67.35 52.15 67.160546875 52.9025390625 65.6 53.35
L 65.25 53.4
Q 65.2541015625 53.6666015625 65.2 53.95
L 69.65 53.25 69.65 53.25 78.05 51.55 78.4 51.5 81.4 50.9 81.65 50.85
Q 82.5123046875 50.5701171875 83.2 50.25 85.6904296875 49.2751953125 86.35 48.15 86.2 47.9 86 47.65 Z"/>

<path fill="#FFFFFF" stroke="none" d="
M 85.95 45.95
Q 85.9 45.85 85.8 45.8 85.45 45.35 84.95 45 80.85 41.85 68.8 40.65 68.55 40.6 68.35 40.6 67 40.45 65.6 40.35 65.5 40.3 65.4 40.3 64.85 40.25 64.25 40.2 64.2 40.2 64.1 40.2 60.15 39.85 56.15 39.8 49.5 39.9 42.85 40.65 42.75 40.65 42.7 40.65 41.35 40.8 40 41 39.9 41 39.85 41 37.05 41.35 34.25 41.85 34 41.9 33.85 41.95 32.75 42.15 31.65 42.35 16.8 45.15 2.95 50.95 2.6 51.05 2.25 51.2
L 2.2 51.15
Q 2.15 51.15 2.1 51.2 1.15 52 1.05 52.6 4.25 50.95 9.45 49.05 19.75 45.3 33.6 42.6 52.45 39.35 68.75 41.25 84.05 43 86.55 47.7 86.7 46.9 86.1 46.1 86 46 85.95 45.95 Z"/>
</g>

<g id="bodyParts_hands_Palm_Scientist_dancer_5_Layer1_0_FILL">
<path fill="#C6906E" stroke="none" d="
M 19.2 31.6
L 19.25 31.7
Q 21.85 35.45 28.9 37.25 29.6 37.25 30.4 37.1 29.71484375 36.9705078125 29.05 36.8 23.5267578125 35.4361328125 19.2 31.6
M 6.95 22.95
Q 6.55 23.75 6.25 24.4
L 6.15 24.4
Q 10.15 31.4 15.95 34.6 10.2 30.25 7 23.05 8.65 20.95 9.65 18.05 8.15 20.5 6.95 22.95
M 3.7 21.7
Q 3.75 21.75 3.85 21.9 4.15 22.15 4.45 22.55 4.7 22.35 4.95 22.05 5.9 21 6.35 19.35 5.1 20.75 3.95 21.55 3.8 21.65 3.7 21.7
M 26.2 17.15
Q 25.35 16.25 24.7 15.2 24.1 14.05 24.05 14.05 32.75 17.2 35.8 17 27.55 14.65 21.5 12.15 22.65 15.35 27.3 18.4 27.1 18 26.2 17.15
M 42.35 32.3
Q 42.2 32.15 42.1 32.1 41 32.3 39.95 32.4
L 38.05 32.4
Q 29.35 32.3 20.35 25.25 25.0044921875 29.9796875 30.65 31.85 36.3314453125 33.7740234375 43 32.85 42.7 32.55 42.35 32.3 Z"/>

<path fill="#F1BB97" stroke="none" d="
M 42.1 32.1
Q 42.2 32.15 42.35 32.3 42.758984375 32.0923828125 43.1 31.85 48.68359375 28.720703125 44.65 25.25 44.35 25.05 44.05 24.8 40.25 22.75 35.8 22.6 35.25 22.5 34.7 22.4 30.25 21.7 27.3 18.4 22.65 15.35 21.5 12.15 27.55 14.65 35.8 17 37.6 16.85 37.4 15.4 30 4.35 16.7 7.7 14.55 7.1 14.4 7 13.7 6.75 12.75 6.3 12.2 6.05 11.65 5.8 11 5.55 10.45 5.25 9.65 4.9 9.05 4.85 8.95 4.85 8.8 4.85 8.75 4.85 8.7 4.85 7.9 4.8 6.95 5.15 4.95 5.9 3.4 7.65 1.9 9.4 1.05 11.6 0.95 11.7 0.9 11.9 0.2 13.9 -0.2 16.45 -0.5 19 0.85 19.85 1.05 20.05 1.35 20.2 1.4 20.25 1.5 20.3 2.35 20.8 2.85 21.1 3.25 21.2 3.7 21.7 3.8 21.65 3.95 21.55 5.1 20.75 6.35 19.35 5.9 21 4.95 22.05 4.7 22.35 4.45 22.55 4.5 22.6 4.6 22.8
L 6.25 24.4
Q 6.55 23.75 6.95 22.95 8.15 20.5 9.65 18.05 8.65 20.95 7 23.05 10.2 30.25 15.95 34.6 21.55 37.7 28.9 37.25 21.85 35.45 19.25 31.7
L 19.2 31.6
Q 23.5267578125 35.4361328125 29.05 36.8 29.71484375 36.9705078125 30.4 37.1 30.55 37.15 30.75 37.15 35.3 38 40.6 37.3 45 35.05 43 32.85 36.3314453125 33.7740234375 30.65 31.85 25.0044921875 29.9796875 20.35 25.25 29.35 32.3 38.05 32.4
L 39.95 32.4
Q 41 32.3 42.1 32.1 Z"/>
</g>

<g id="bodyParts_hands_Arm_Scientist_Dancer_41_Layer1_0_FILL">
<path fill="#F1BB97" stroke="none" d="
M 3.6 27
Q 5.5 35.1 8.7 42.4 12.1 50.2 16.95 57.05 25.95 70.45 35.6 87.3 37.95 90.45 42.3 90.7 46.25 90.9 50.1 88.85 54 86.75 55.6 83.45 57.4 79.75 55.3 76.1 55.2 75.9 55.05 75.35 55.05 75 54.8 74.95 48.65 58.85 45.6 46.2 41.65 33.7 35.9 24.3 34.75 22.35 33.5 20.55 19.25 -2.6 11.25 2.05 1.5 11.25 3.6 27 Z"/>
</g>

<g id="bodyParts_hands_Arm_Scientist_Dancer_41_Layer0_0_FILL">
<path fill="#AA1010" stroke="none" d="
M 53.1 70.45
L 53.05 70.45 54.2 73.3
Q 54.3 73.15 54.4 73 54.4501953125 72.85 54.55 72.7 54.6501953125 72.500390625 54.75 72.45 54.3494140625 72.0001953125 53.7 71.7 53.5978515625 71.64765625 53.1 70.45
M 34.7 87.15
Q 34.8494140625 87.1376953125 35.05 87.1 35.5623046875 87.125390625 36.05 87.05
L 34.45 85
Q 34.0912109375 86.2931640625 34.7 87.15 Z"/>

<path fill="#FFFFFF" stroke="none" d="
M 35.05 91.35
Q 36.1205078125 93.3177734375 37.55 94.85 44.86640625 94.5455078125 51.45 88.25 57.9234375 82.01796875 58.8 77.55 58.674609375 77.075 58.45 76.65 58.225 76.175 57.95 75.7 57.7751953125 75.4748046875 57.6 75.15 57.4748046875 75.525 57.3 75.85 56.875390625 76.6248046875 56.5 77.3 55.875390625 78.52421875 55.2 79.65 55.0248046875 80.0248046875 54.75 80.3 54.0751953125 81.4353515625 52.9 82.8 51.3765625 84.8103515625 49.6 86.45 46.90390625 88.962890625 43.75 90.25 42.5626953125 90.6630859375 41.4 90.95 40.9 91.0369140625 40.5 91.25 38.2630859375 91.5779296875 36.05 91.5 35.5751953125 91.399609375 35.05 91.35 Z"/>

<path fill="#FF0000" stroke="none" d="
M 38.65 95.8
Q 38.8501953125 95.9744140625 39.05 96.15 39.453515625 96.070703125 43.55 95.8 47.7396484375 95.573828125 53 91.1 58.3646484375 86.6126953125 60.25 81.9 59.9990234375 80.59921875 59.55 79.3 59.55 79.25 59.55 79.15 59.4501953125 78.9001953125 59.4 78.85 59.2115234375 78.162109375 58.8 77.55 57.9234375 82.01796875 51.45 88.25 44.86640625 94.5455078125 37.55 94.85 38.087109375 95.3248046875 38.65 95.8
M 33.1 85.6
Q 33.075390625 85.7236328125 33.05 86 33.0193359375 87.1509765625 34.75 90.75 34.87421875 91.050390625 35.05 91.35 35.5751953125 91.399609375 36.05 91.5 38.2630859375 91.5779296875 40.5 91.25 40.9 91.0369140625 41.4 90.95 42.5626953125 90.6630859375 43.75 90.25 46.90390625 88.962890625 49.6 86.45 51.3765625 84.8103515625 52.9 82.8 54.0751953125 81.4353515625 54.75 80.3 55.0248046875 80.0248046875 55.2 79.65 55.875390625 78.52421875 56.5 77.3 56.875390625 76.6248046875 57.3 75.85 57.4748046875 75.525 57.6 75.15 56.635546875 73.4369140625 55.15 71.6
L 53.1 70.45
Q 53.5978515625 71.64765625 53.7 71.7 54.3494140625 72.0001953125 54.75 72.45 54.6501953125 72.500390625 54.55 72.7 54.4501953125 72.85 54.4 73 54.3 73.15 54.2 73.3 53.2505859375 75.0359375 52.3 76.6 51.50078125 77.6361328125 50.4 79 49.600390625 79.8994140625 48.8 80.75 47.138671875 82.5744140625 45.3 83.8 44.712890625 84.1494140625 44.05 84.55 40.419140625 86.6916015625 36.05 87.05 35.5623046875 87.125390625 35.05 87.1 34.8494140625 87.1376953125 34.7 87.15 34.0912109375 86.2931640625 34.45 85
L 33.9 84.25
Q 33.5404296875 84.6080078125 33.1 85.6 Z"/>
</g>

<path id="grid_0_Layer0_0_1_STROKES" stroke="#444444" stroke-width="1" stroke-linejoin="round" stroke-linecap="round" fill="none" d="
M 527 31
L 558 31 558 0 527 0 527 31 527 62 558 62 558 31
M 527 0
L 496 0 496 31 527 31
M 496 62
L 496 93 527 93 527 62 496 62 496 31 465 31 465 62 496 62 Z
M 558 93
L 527 93 527 124 558 124 558 93 558 62
M 496 155
L 496 186 527 186 527 155 496 155 496 124 465 124 465 155 496 155 Z
M 527 124
L 527 155 558 155 558 124
M 527 186
L 558 186 558 155
M 527 124
L 496 124 496 93 465 93 465 124 434 124 434 155 465 155 465 186 496 186 496 217 527 217 527 186
M 465 31
L 465 0 434 0 434 31 465 31 Z
M 434 62
L 434 93 465 93 465 62 434 62 434 31 403 31 403 62 434 62 Z
M 372 31
L 372 0 341 0 341 31 372 31 403 31 403 0 372 0
M 341 62
L 341 93 372 93 372 62 341 62 341 31 310 31 310 62 341 62 Z
M 372 93
L 403 93 403 62 372 62 372 31
M 403 124
L 372 124 372 155 403 155 403 124 403 93 434 93 434 124 403 124 Z
M 341 155
L 341 186 372 186 372 155 341 155 341 124 310 124 310 155 341 155 Z
M 403 186
L 372 186 372 217 403 217 403 186 403 155 434 155 434 186 465 186 465 217 496 217 496 248 527 248 527 217 558 217 558 186
M 341 93
L 341 124 372 124 372 93
M 403 217
L 434 217 434 186 403 186
M 403 0
L 434 0
M 434 248
L 434 279 465 279 465 248 434 248 434 217 465 217 465 248 496 248 496 279 527 279 527 248 558 248 558 217
M 341 248
L 341 279 372 279 372 248 341 248 341 217 310 217 310 248 341 248 Z
M 434 248
L 403 248 403 279 434 279 434 310 465 310 465 279 496 279 496 310 527 310 527 279 558 279 558 248
M 403 279
L 372 279 372 310 403 310 403 279 Z
M 403 248
L 372 248 372 217 341 217 341 186 310 186 310 217 279 217 279 248 310 248 310 279 341 279 341 310 372 310 372 341 403 341 403 310 434 310 434 341 465 341 465 310 496 310 496 341 527 341 527 310 558 310 558 279
M 403 217
L 403 248
M 341 310
L 341 341 372 341 372 372 403 372 403 341 434 341 434 372 465 372 465 341 496 341 496 372 527 372 527 341 558 341 558 310
M 341 341
L 341 372 372 372 372 403 403 403 403 372 434 372 434 403 465 403 465 372 496 372 496 403 527 403 527 372 558 372 558 341
M 465 0
L 496 0
M 341 0
L 310 0 310 31 279 31 279 62 310 62 310 93 341 93
M 279 0
L 248 0 248 31 279 31 279 0 310 0
M 248 31
L 248 62 279 62 279 93 310 93 310 124 279 124 279 155 310 155 310 186 279 186 279 217 248 217 248 248 279 248 279 279 310 279 310 310 341 310
M 248 62
L 248 93 279 93 279 124 248 124 248 155 279 155 279 186 248 186 248 217 217 217 217 248 248 248 248 279 279 279 279 310 310 310 310 341 341 341
M 248 0
L 217 0 217 31 248 31
M 186 31
L 186 0 155 0 155 31 186 31 217 31 217 62 248 62
M 186 93
L 186 62 155 62 155 93 186 93 217 93 217 62 186 62 186 31
M 186 0
L 217 0
M 186 186
L 186 155 155 155 155 186 186 186 217 186 217 155 186 155 186 124 155 124 155 155 124 155 124 186 155 186 155 217 186 217 186 186 Z
M 217 155
L 217 124 186 124 186 93
M 248 155
L 248 186 217 186 217 217 186 217 186 248 217 248 217 279 248 279 248 310 279 310 279 341 310 341 310 372 341 372 341 403 372 403
M 217 124
L 248 124 248 93 217 93 217 124 Z
M 248 155
L 217 155
M 155 0
L 124 0 124 31 155 31 155 62 124 62 124 93 155 93 155 124 124 124 124 155 93 155 93 186 124 186 124 217 155 217 155 248 186 248 186 279 217 279 217 310 248 310 248 341 279 341 279 372 310 372 310 403 341 403
M 93 31
L 93 0 62 0 62 31 93 31 124 31 124 62 93 62 93 93 124 93 124 124 93 124 93 155 62 155 62 186 93 186 93 217 124 217 124 248 155 248 155 279 186 279 186 310 217 310 217 341 248 341 248 372 279 372 279 403 310 403
M 62 31
L 62 62 93 62 93 31
M 93 0
L 124 0
M 279 403
L 248 403 217 403 186 403 155 403 124 403 93 403 62 403 31 403 0 403 0 372 0 341 0 310 0 279 0 248 0 217 0 186 0 155 0 124 0 93 0 62 0 31 0 0 31 0 62 0
M 0 62
L 31 62 31 31 0 31
M 31 0
L 31 31 62 31
M 0 93
L 31 93 31 62 62 62 62 93 93 93 93 124 62 124 62 155 31 155 31 186 62 186 62 217 93 217 93 248 124 248 124 279 155 279 155 310 186 310 186 341 217 341 217 372 248 372 248 403
M 62 93
L 31 93 31 124 62 124 62 93 Z
M 0 124
L 31 124 31 155 0 155
M 0 217
L 31 217 31 186 0 186
M 93 279
L 93 248 62 248 62 279 93 279 124 279 124 310 155 310 155 341 186 341 186 372 217 372 217 403
M 0 279
L 31 279 31 248 0 248
M 62 217
L 31 217 31 248 62 248 62 217 Z
M 62 279
L 31 279 31 310 62 310 62 279 Z
M 62 310
L 62 341 93 341 93 310 62 310 Z
M 0 372
L 31 372 31 341 0 341
M 0 310
L 31 310 31 341 62 341 62 372 93 372 93 341 124 341 124 310 93 310 93 279
M 62 403
L 62 372 31 372 31 403
M 155 341
L 124 341 124 372 155 372 155 341 Z
M 124 403
L 124 372 93 372 93 403
M 155 372
L 186 372 186 403
M 558 372
L 558 403 527 403
M 434 403
L 403 403
M 496 403
L 465 403
M 155 372
L 155 403"/>

<path id="bodyParts_accesories_Shoe_Scientist_S_43_Layer1_0_1_STROKES" stroke="#000000" stroke-width="1" stroke-linejoin="round" stroke-linecap="round" fill="none" d="
M 53.95 44.35
Q 58.95 46.9 62.45 51.5"/>

<path id="Symbol_93_0_Layer0_0_1_STROKES" stroke="#B07A24" stroke-width="1" stroke-linejoin="round" stroke-linecap="round" fill="none" d="
M 7.275 29.5
Q 7.3873046875 29.5298828125 7.5 29.575
L 7.5 27.9
M 12.8 28.75
L 12.7 27.7
M 10.35 27.8
L 10.35 26.5
M 14.1 29.75
L 14 28.9
M 14.75 34.1
L 14.75 31.9
M 7.675 29.625
Q 7.58671875 29.59296875 7.5 29.575
M 11.65 31.6
L 11.75 30.3
M 13.35 31.55
L 13.45 30.6
M 5.9 26.3
L 5.9 25.65
M 9.975 30.625
L 9.7 29.5
M 8.7 27.9
L 8.7 26.3"/>

<path id="Duplicate_Items_Folder_Dancer_hat_0_Layer0_0_1_STROKES" stroke="#CCCCCC" stroke-width="1" stroke-linejoin="round" stroke-linecap="round" fill="none" d="
M 61.85 54.55
L 63.125 54.35"/>

<path id="Layer3_0_1_STROKES" stroke="#00CCCC" stroke-width="1" stroke-linejoin="round" stroke-linecap="round" fill="none" d="
M 87.6 36.35
Q 90.7 31.5 92.5 29.5 93.85 28.15 94.5 26.85 94.5 26.8 94.8 25.9 95 25.3 95.25 25 95.7 24.65 96.85 24.35 98.7 24.15 99.35 24.5 100.1 24.9 100.5 25.5 101.1 26.35 101.35 27 101.6 27.75 101.6 29.35
L 101.6 34.75
Q 101.35 37.65 101.1 38.5 100.9 39.05 100.35 39.95 99.8 40.9 99.6 41.35 99.25 42.25 99 42.5 98.1 43.1 97.85 43.5 97.6 44.5 97.35 45 97.0052734375 45.56015625 95.875 46.15 96.530859375 46.4576171875 97.5 46.7 99.4 47.2 100.1 47.75 100.35 47.9 101.75 49 102.8 49.65 104.5 49.35
M 95.875 46.15
Q 95.7005859375 46.253125 95.5 46.35 94 47.25 94.35 48.25 93.3 48.05 92 49.35 90.45 50.9 90 51.1 89.7 51.25 88.65 51.45 87.85 51.65 87.5 52 87.55 51.7 87.5 48.55 87.5 46.45 88.1 45.25 89.25 43.7 90.75 43.35 92.75 42.9 93.85 44.25 94.25 44.6 95 45.6 95.323046875 45.9 95.875 46.15 Z"/>

<path id="positionChecker_1_Layer1_0_1_STROKES" stroke="#9933CC" stroke-width="5" stroke-linejoin="round" stroke-linecap="round" fill="none" d="
M 1 0
L 32.3 31.3 64.05 0
M 63.05 62.05
L 32.3 31.3 0 63.05"/>

<path id="Symbol_1_0_Layer0_0_1_STROKES" stroke="#9933CC" stroke-width="1" stroke-linejoin="round" stroke-linecap="round" fill="none" d="
M 21 0
L 42 15.25 34 39.75 8 39.75 0 15.25 21 0 Z"/>
</defs>

<g transform="matrix( 1, 0, 0, 1, -0.25,-0.25) ">
<g transform="matrix( 1, 0, 0, 1, 0,0) ">
<use xlink:href="#grid_0_Layer1_0_FILL"/>
</g>

<g transform="matrix( 1, 0, 0, 1, 0,0) ">
<use xlink:href="#grid_0_Layer0_0_1_STROKES"/>
</g>
</g>

<g transform="matrix( 0.599761962890625, -0.0081329345703125, 0.0040283203125, 0.60015869140625, 148.2,189) ">
<g transform="matrix( 0.9969482421875, 0.0828094482421875, -0.0828094482421875, 0.9969482421875, 0.1,19.3) ">
<g transform="matrix( 1, 0, 0, 1, 0,0) ">
<use xlink:href="#Symbol_199_0_Layer0_0_FILL"/>
</g>
</g>
</g>

<g transform="matrix( 0.5992889404296875, -0.0289459228515625, 0.0300445556640625, 0.5992431640625, 188.55,203.75) ">
<g transform="matrix( 1, 0, 0, 1, 0,0) ">
<use xlink:href="#bodyParts_legs_Scientist_hip_S_53_Layer2_0_FILL"/>
</g>
</g>

<g transform="matrix( 0.599761962890625, -0.0081329345703125, 0.0040283203125, 0.60015869140625, 157.2,174.45) ">
<g transform="matrix( 1, 0, 0, 1, 0,0) ">
<use xlink:href="#Duplicate_Items_Folder_ass_Policeman_49_Layer1_0_FILL"/>
</g>
</g>

<g transform="matrix( -0.6002655029296875, -0.00347900390625, -0.0067596435546875, 0.5348358154296875, 239.8,106.25) ">
<g transform="matrix( 1, 0, 0, 1, 0,0) ">
<use xlink:href="#bodyParts_hands_Shoulder_Scientist_dancer_52_Layer2_0_FILL"/>
</g>

<g transform="matrix( 1, 0, 0, 1, 0,0) ">
<use xlink:href="#bodyParts_hands_Shoulder_Scientist_dancer_52_Layer1_0_FILL"/>
</g>
</g>

<g transform="matrix( 0.594512939453125, -0.0809478759765625, 0.0809478759765625, 0.594512939453125, 181.7,307) ">
<g transform="matrix( 1, 0, 0, 1, 0,0) ">
<use xlink:href="#bodyParts_accesories_Shoe_Scientist_S_43_Layer1_0_FILL"/>

<use xlink:href="#bodyParts_accesories_Shoe_Scientist_S_43_Layer1_0_1_STROKES"/>
</g>
</g>

<g transform="matrix( 0.5912933349609375, 0.10272216796875, -0.0741119384765625, 0.6368408203125, 162.8,201.3) ">
<g transform="matrix( 1, 0, 0, 1, 0,0) ">
<use xlink:href="#bodyParts_legs_Scientist_hip_S_50_Layer2_0_FILL"/>
</g>
</g>

<g transform="matrix( 0.5999755859375, 0.0021514892578125, -0.0010528564453125, 0.5999755859375, 187.4,253.1) ">
<g transform="matrix( 1, 0, 0, 1, 0,0) ">
<use xlink:href="#bodyParts_legs_shok_scientist_S_32_Layer1_0_FILL"/>
</g>
</g>

<g transform="matrix( 0.5992431640625, 0.03277587890625, -0.0520172119140625, 0.597900390625, 149.5,258.6) ">
<g transform="matrix( 1, 0, 0, 1, 0,0) ">
<use xlink:href="#bodyParts_legs_shok_scientist_S_33_Layer1_0_FILL"/>
</g>
</g>

<g transform="matrix( 0.5994873046875, -0.01861572265625, 0.0134124755859375, 0.60003662109375, 118.75,92.6) ">
<g transform="matrix( 1, 0, 0, 1, 0,0) ">
<use xlink:href="#bodyParts_Torso_Scientist_29_Layer1_0_FILL"/>
</g>
</g>

<g transform="matrix( 0.598175048828125, -0.0447235107421875, 0.04150390625, 0.61981201171875, 107.45,109.5) ">
<g transform="matrix( 1, 0, 0, 1, 0,0) ">
<use xlink:href="#bodyParts_hands_Shoulder_Scientist_dancer_40_Layer1_0_FILL"/>
</g>

<g transform="matrix( 0.9981536865234375, -0.06072998046875, 0.06072998046875, 0.9981536865234375, -8.5,-3.1) ">
<use xlink:href="#bodyParts_hands_Shoulder_Scientist_dancer_40_Layer0_0_FILL"/>
</g>
</g>

<g transform="matrix( 0.599761962890625, -0.0081329345703125, 0.0040283203125, 0.60015869140625, 148.2,189) ">
<g transform="matrix( -0.9965667724609375, -0.086944580078125, -0.053131103515625, 0.609039306640625, 93.25,44.55) ">
<g transform="matrix( 1, 0, 0, 1, 0,0) ">
<use xlink:href="#Symbol_197_0_Layer0_0_FILL"/>
</g>
</g>

<g transform="matrix( 1.1036376953125, -0.0258636474609375, 0.0305938720703125, 0.99981689453125, 56,34.1) ">
<g transform="matrix( 1, 0, 0, 1, 0,0) ">
<use xlink:href="#Symbol_196_0_Layer0_0_FILL"/>
</g>
</g>

<g transform="matrix( -0.996246337890625, 0.091033935546875, 0.075897216796875, 0.83062744140625, 102.9,35.2) ">
<g transform="matrix( 1, 0, 0, 1, 0,0) ">
<use xlink:href="#Symbol_197_0_Layer0_0_FILL"/>
</g>
</g>
</g>

<g transform="matrix( 0.59930419921875, 0.0172882080078125, -0.0213470458984375, 0.60003662109375, 159.8,52.25) ">
<g transform="matrix( 1, 0, 0, 1, 0,0) ">
<use xlink:href="#Duplicate_Items_Folder_neck_Policeman_29_Layer0_0_FILL"/>
</g>
</g>

<g transform="matrix( 0.5986328125, -0.0399169921875, 0.0399169921875, 0.5986328125, 136.3,315.65) ">
<g transform="matrix( 1, 0, 0, 1, 0,0) ">
<use xlink:href="#bodyParts_accesories_Shoe_Scientist_S_41_Layer1_0_FILL"/>
</g>
</g>

<g transform="matrix( 0.59857177734375, -0.0416107177734375, 0.0416107177734375, 0.59857177734375, 161,24) ">
<g transform="matrix( 1, 0, 0, 1, 0,0) ">
<use xlink:href="#bodyParts_head_head_businessman_transform_dancer_1_Layer9_0_FILL"/>
</g>

<g transform="matrix( 1, 0, 0, 1, 0,0) ">
<g transform="matrix( 1, 0, 0, 1, 0,0) ">
<use xlink:href="#bodyParts_face_whiteFace_0_Layer0_0_FILL"/>
</g>
</g>

<g transform="matrix( 1, 0, 0, 1, 29.25,35.55) ">
<g transform="matrix( 1, 0, 0, 1, 0,0) ">
<use xlink:href="#nose_dancer_0_Layer0_0_FILL"/>
</g>
</g>

<g transform="matrix( 1, 0, 0, 1.107147216796875, -5.6,3.65) ">
<g transform="matrix( 1, 0, 0, 1, 0,0) ">
<use xlink:href="#Symbol_93_0_Layer0_0_FILL"/>

<use xlink:href="#Symbol_93_0_Layer0_0_1_STROKES"/>
</g>
</g>

<g transform="matrix( 0.85760498046875, 0, 0.0404815673828125, 0.5794677734375, -5.65,-10.55) ">
<g transform="matrix( 1, 0, 0, 1, 0,0) ">
<use xlink:href="#Symbol_92_0_Layer0_0_FILL"/>
</g>
</g>

<g transform="matrix( 1.0999755859375, 0, 0, 1.0999755859375, 24.9,60.75) ">
<g transform="matrix( 1, 0, 0, 1, 0,0) ">
<use xlink:href="#Duplicate_Items_Folder_Symbol_88_copy_0_Layer0_0_FILL"/>
</g>
</g>

<g transform="matrix( 1, 0, 0, 1, 44.35,31.85) ">
<g transform="matrix( 1, 0, 0, 1, 0,0) ">
<use xlink:href="#bodyParts_face_eye_Policeman_dancer_24_Layer3_0_FILL"/>
</g>

<mask id="Mask_Mask_1">
<g transform="matrix( 1, 0, 0, 1, 0,0) ">
<use xlink:href="#Mask_bodyParts_face_eye_Policeman_dancer_24_2_MASK_0_MEMBER_0_FILL"/>
</g>
</mask>

<g mask="url(#Mask_Mask_1)">
<g transform="matrix( 1, 0, 0, 1, 1.8,1.9) ">
<g transform="matrix( 1, 0, 0, 1, 0,0) ">
<use xlink:href="#Duplicate_Items_Folder_adsa_49_Layer1_0_FILL"/>
</g>

<g transform="matrix( 1, 0, 0, 1, 0,0) ">
<use xlink:href="#Duplicate_Items_Folder_adsa_49_Layer0_0_FILL"/>
</g>
</g>
</g>

<g transform="matrix( 1, 0, 0, 1, 0,0) ">
<use xlink:href="#bodyParts_face_eye_Policeman_dancer_24_Layer0_0_FILL"/>
</g>
</g>

<g transform="matrix( 1, 0, 0, 1, 25.05,31.65) ">
<g transform="matrix( 1, 0, 0, 1, 0,0) ">
<use xlink:href="#bodyParts_face_eye_Policeman_dancer_24_Layer3_0_FILL"/>
</g>

<mask id="Mask_Mask_2">
<g transform="matrix( 1, 0, 0, 1, 0,0) ">
<use xlink:href="#Mask_bodyParts_face_eye_Policeman_dancer_24_2_MASK_0_MEMBER_0_FILL"/>
</g>
</mask>

<g mask="url(#Mask_Mask_2)">
<g transform="matrix( 1, 0, 0, 1, 1.8,1.9) ">
<g transform="matrix( 1, 0, 0, 1, 0,0) ">
<use xlink:href="#Duplicate_Items_Folder_adsa_49_Layer1_0_FILL"/>
</g>

<g transform="matrix( 1, 0, 0, 1, 0,0) ">
<use xlink:href="#Duplicate_Items_Folder_adsa_49_Layer0_0_FILL"/>
</g>
</g>
</g>

<g transform="matrix( 1, 0, 0, 1, 0,0) ">
<use xlink:href="#bodyParts_face_eye_Policeman_dancer_24_Layer0_0_FILL"/>
</g>
</g>

<g transform="matrix( 1, 0, 0, 1, -5.6,39.3) ">
<g transform="matrix( 1, 0, 0, 1, 0,0) ">
<use xlink:href="#bodyParts_face_ear_Policeman_1_Layer0_0_FILL"/>
</g>
</g>

<g transform="matrix( 1, 0, 0, 1, 23.1,24.65) ">
<g transform="matrix( 1, 0, 0, 1, 0,0) ">
<use xlink:href="#bodyParts_face_eyebrow_Policeman_dancer_0_Layer0_0_FILL"/>
</g>
</g>

<g transform="matrix( -0.8513641357421875, 0.014862060546875, 0.01678466796875, 0.96160888671875, 56.2,25.25) ">
<g transform="matrix( 1, 0, 0, 1, 0,0) ">
<use xlink:href="#bodyParts_face_eyebrow_Policeman_dancer_1_Layer0_0_FILL"/>
</g>
</g>

<g transform="matrix( 0.9607391357421875, -0.0243072509765625, 0.025115966796875, 0.9925537109375, -8.95,-26.6) ">
<g transform="matrix( 1, 0, 0, 1, 0,0) ">
<use xlink:href="#Duplicate_Items_Folder_Dancer_hat_0_Layer2_0_FILL"/>
</g>

<g transform="matrix( 1, 0, 0, 1, 0,0) ">
<use xlink:href="#Duplicate_Items_Folder_Dancer_hat_0_Layer0_0_FILL"/>

<use xlink:href="#Duplicate_Items_Folder_Dancer_hat_0_Layer0_0_1_STROKES"/>
</g>
</g>
</g>

<g transform="matrix( -0.32177734375, 0.663604736328125, 0.65850830078125, 0.31793212890625, 225.2,203.1) ">
<g transform="matrix( 1, 0, 0, 1, 0,0) ">
<use xlink:href="#bodyParts_hands_Palm_Scientist_dancer_5_Layer1_0_FILL"/>
</g>
</g>

<g transform="matrix( -0.5760498046875, 0.2837982177734375, 0.268707275390625, 0.555389404296875, 237.15,151.05) ">
<g transform="matrix( 1, 0, 0, 1, 0,0) ">
<use xlink:href="#bodyParts_hands_Arm_Scientist_Dancer_41_Layer1_0_FILL"/>
</g>

<g transform="matrix( 1, 0, 0, 1, 0,0) ">
<use xlink:href="#bodyParts_hands_Arm_Scientist_Dancer_41_Layer0_0_FILL"/>
</g>
</g>

<g transform="matrix( 0.40789794921875, 0.64642333984375, -0.62799072265625, 0.4354248046875, 129.7,211.05) ">
<g transform="matrix( 1, 0, 0, 1, 0,0) ">
<use xlink:href="#bodyParts_hands_Palm_Scientist_dancer_5_Layer1_0_FILL"/>
</g>
</g>

<g transform="matrix( 0.5531005859375, 0.22955322265625, -0.235595703125, 0.552978515625, 117.5,167.15) ">
<g transform="matrix( 1, 0, 0, 1, 0,0) ">
<use xlink:href="#bodyParts_hands_Arm_Scientist_Dancer_41_Layer1_0_FILL"/>
</g>

<g transform="matrix( 1, 0, 0, 1, 0,0) ">
<use xlink:href="#bodyParts_hands_Arm_Scientist_Dancer_41_Layer0_0_FILL"/>
</g>
</g>

<g transform="matrix( 1, 0, 0, 1, 0,0) ">
<use xlink:href="#Layer3_0_1_STROKES"/>
</g>

<g transform="matrix( 1, 0, 0, 1, 36.55,30) ">
<g transform="matrix( 1, 0, 0, 1, 0,0) ">
<use xlink:href="#positionChecker_1_Layer1_0_1_STROKES"/>
</g>

<g transform="matrix( 1, 0, 0, 1, 42.05,34.6) ">
<g transform="matrix( 1, 0, 0, 1, 0,0) ">
<use xlink:href="#Symbol_1_0_Layer0_0_1_STROKES"/>
</g>
</g>
</g>
</svg>
